<?xml version="1.0" encoding="utf-8"?>
<!-- Generator: Adobe Illustrator 18.0.0, SVG Export Plug-In . SVG Version: 6.00 Build 0)  -->
<!DOCTYPE svg PUBLIC "-//W3C//DTD SVG 1.1//EN" "http://www.w3.org/Graphics/SVG/1.1/DTD/svg11.dtd">
<svg version="1.1" id="Layer_1" xmlns="http://www.w3.org/2000/svg" xmlns:xlink="http://www.w3.org/1999/xlink" x="0px" y="0px"
	 viewBox="0 0 886.3 287.8" enable-background="new 0 0 886.3 287.8" xml:space="preserve">
<g>
	<rect x="137.3" y="223.3" fill="none" width="29.8" height="21.8"/>
	<text transform="matrix(1 0 0 1 139.5117 233.9771)" fill="#ABABB4" font-family="'Roboto-Bold'" font-size="14">ENE</text>
	<rect x="1.2" y="2" fill="none" width="17.3" height="201"/>
	<text transform="matrix(0 -1 1 0 11.1211 181.1367)" opacity="0.33" fill="#ABABB4" font-family="'Roboto-Bold'" font-size="13">Cantidad de pasajeros</text>
	<rect x="18.6" y="1.3" fill="none" width="91.8" height="214.4"/>
	<text transform="matrix(1 0 0 1 46.1196 11.9764)" opacity="0.33"><tspan x="0" y="0" fill="#ABABB4" font-family="'Roboto-Bold'" font-size="14">1.400.000</tspan><tspan x="0" y="67" fill="#ABABB4" font-family="'Roboto-Bold'" font-size="14">1.000.000</tspan><tspan x="12.1" y="134" fill="#ABABB4" font-family="'Roboto-Bold'" font-size="14">400.000</tspan><tspan x="56.3" y="201" fill="#ABABB4" font-family="'Roboto-Bold'" font-size="14">0</tspan></text>
	<rect x="202.3" y="223.3" fill="none" width="29.8" height="21.8"/>
	<text transform="matrix(1 0 0 1 204.9897 233.9771)" fill="#ABABB4" font-family="'Roboto-Bold'" font-size="14">FEB</text>
	<rect x="267.3" y="223.3" fill="none" width="35.8" height="21.8"/>
	<text transform="matrix(1 0 0 1 270.2314 233.9771)" fill="#ABABB4" font-family="'Roboto-Bold'" font-size="14">MAR</text>
	<rect x="332.3" y="223.3" fill="none" width="29.8" height="21.8"/>
	<text transform="matrix(1 0 0 1 333.8618 233.9771)" fill="#ABABB4" font-family="'Roboto-Bold'" font-size="14">ABR</text>
	<rect x="397.3" y="223.3" fill="none" width="29.8" height="21.8"/>
	<text transform="matrix(1 0 0 1 401.6919 233.9771)" fill="#ABABB4" font-family="'Roboto-Bold'" font-size="14">MA</text>
	<rect x="462.3" y="223.3" fill="none" width="29.8" height="21.8"/>
	<text transform="matrix(1 0 0 1 463.6021 233.9771)" fill="#ABABB4" font-family="'Roboto-Bold'" font-size="14">JUN</text>
	<rect x="527.3" y="223.3" fill="none" width="29.8" height="21.8"/>
	<text transform="matrix(1 0 0 1 529.6514 233.9771)" fill="#ABABB4" font-family="'Roboto-Bold'" font-size="14">JUL</text>
	<rect x="592.3" y="223.3" fill="none" width="29.8" height="21.8"/>
	<text transform="matrix(1 0 0 1 593.3047 233.9771)" fill="#ABABB4" font-family="'Roboto-Bold'" font-size="14">AGO</text>
	<rect x="657.3" y="223.3" fill="none" width="29.8" height="21.8"/>
	<text transform="matrix(1 0 0 1 659.5557 233.9771)" fill="#ABABB4" font-family="'Roboto-Bold'" font-size="14">SEP</text>
	<rect x="722.3" y="223.3" fill="none" width="29.8" height="21.8"/>
	<text transform="matrix(1 0 0 1 723.9507 233.9771)" fill="#ABABB4" font-family="'Roboto-Bold'" font-size="14">OCT</text>
	<rect x="787.3" y="223.3" fill="none" width="29.8" height="21.8"/>
	<text transform="matrix(1 0 0 1 788.0278 233.9771)" fill="#ABABB4" font-family="'Roboto-Bold'" font-size="14">NOV</text>
	<rect x="852.3" y="223.3" fill="none" width="29.8" height="21.8"/>
	<text transform="matrix(1 0 0 1 856.0972 233.9771)" fill="#ABABB4" font-family="'Roboto-Bold'" font-size="14">DIC</text>
	
		<line opacity="0.23" fill="none" stroke="#FFFFFF" stroke-width="0.727" stroke-miterlimit="10" stroke-opacity="0.4" x1="132.9" y1="209.1" x2="883.8" y2="209.1"/>
	<g opacity="0.23">
		<g opacity="0.4">
			<line fill="none" stroke="#FFFFFF" stroke-miterlimit="10" x1="132" y1="6.3" x2="136" y2="6.3"/>
			<line fill="none" stroke="#FFFFFF" stroke-miterlimit="10" stroke-dasharray="8,8" x1="144" y1="6.3" x2="878" y2="6.3"/>
			<line fill="none" stroke="#FFFFFF" stroke-miterlimit="10" x1="882" y1="6.3" x2="886" y2="6.3"/>
		</g>
	</g>
	<g opacity="0.23">
		<g opacity="0.4">
			<line fill="none" stroke="#FFFFFF" stroke-miterlimit="10" x1="132" y1="74.3" x2="136" y2="74.3"/>
			<line fill="none" stroke="#FFFFFF" stroke-miterlimit="10" stroke-dasharray="8,8" x1="144" y1="74.3" x2="878" y2="74.3"/>
			<line fill="none" stroke="#FFFFFF" stroke-miterlimit="10" x1="882" y1="74.3" x2="886" y2="74.3"/>
		</g>
	</g>
	<g opacity="0.23">
		<g opacity="0.4">
			<line fill="none" stroke="#FFFFFF" stroke-miterlimit="10" x1="132" y1="141.3" x2="136" y2="141.3"/>
			<line fill="none" stroke="#FFFFFF" stroke-miterlimit="10" stroke-dasharray="8,8" x1="144" y1="141.3" x2="878" y2="141.3"/>
			<line fill="none" stroke="#FFFFFF" stroke-miterlimit="10" x1="882" y1="141.3" x2="886" y2="141.3"/>
		</g>
	</g>
	<g>
		<rect x="556.2" y="12" fill="none" width="229.2" height="24.1"/>
		<text transform="matrix(1 0 0 1 556.186 24.1964)" fill="#009DDA" font-family="'Roboto-Medium'" font-size="16">1.360.000 récord histórico</text>
	</g>
	<circle fill="#009DDA" cx="158.4" cy="36.4" r="4.8"/>
	<circle fill="#009DDA" cx="546.4" cy="18.4" r="4.8"/>
	<circle fill="#FFFFFF" cx="546.4" cy="43.4" r="4.8"/>
	<circle fill="#676767" cx="546.4" cy="65.4" r="4.8"/>
	<circle fill="#FFFFFF" cx="158.4" cy="51.4" r="4.8"/>
	<circle fill="#676767" cx="158.4" cy="65.4" r="4.8"/>
	<circle fill="#676767" cx="862.4" cy="63.4" r="4.8"/>
	<circle fill="#FFFFFF" cx="862.4" cy="50.4" r="4.8"/>
	<g>
		<g>
			<rect x="431" y="273.3" fill="none" width="34.7" height="13.9"/>
			<text transform="matrix(1 0 0 1 430.9629 283.9766)" fill="#FFFFFF" font-family="'Roboto-Bold'" font-size="14">2016</text>
			
				<line fill="none" stroke="#818181" stroke-width="5" stroke-linecap="round" stroke-linejoin="round" stroke-miterlimit="10" x1="422" y1="280.3" x2="403" y2="280.3"/>
		</g>
		<g>
			<rect x="506.7" y="273.3" fill="none" width="34.6" height="13.4"/>
			<text transform="matrix(1 0 0 1 506.7285 283.9766)" fill="#FFFFFF" font-family="'Roboto-Bold'" font-size="14">2017</text>
			
				<line fill="none" stroke="#FFFFFF" stroke-width="5" stroke-linecap="round" stroke-linejoin="round" stroke-miterlimit="10" x1="499.4" y1="279.8" x2="480.4" y2="279.8"/>
		</g>
		<rect x="583" y="273.3" fill="none" width="35.2" height="14.4"/>
		<text transform="matrix(1 0 0 1 582.9629 283.9766)" fill="#FFFFFF" font-family="'Roboto-Bold'" font-size="14">2018</text>
		
			<line fill="none" stroke="#009DDA" stroke-width="5" stroke-linecap="round" stroke-linejoin="round" stroke-miterlimit="10" x1="576.1" y1="280.3" x2="557.1" y2="280.3"/>
	</g>
	<path fill="none" stroke="#676767" stroke-width="5" stroke-linecap="round" stroke-linejoin="round" stroke-miterlimit="10" d="
		M159.4,66.4c0,0,52.1,10.3,60.4,10.3c8.2,0,67.3,2.7,67.3,2.7l61.3,20.7l66.5,3.3c0,0,57.6,4,59.8,4c2.2,0,72.4-41.7,72.4-41.7
		l56.2,4.3l65.8,4l64.3-12l62.8,4l66.5-3.3"/>
	<path fill="none" stroke="#009DDA" stroke-width="5" stroke-linecap="round" stroke-linejoin="round" stroke-miterlimit="10" d="
		M157.7,38.1l64.3,18l62.8-14c0,0,56.1,19.3,63.5,19.3s61.3,6.7,61.3,6.7l65,6l68-54"/>
	<path fill="none" stroke="#FFFFFF" stroke-width="5" stroke-linecap="round" stroke-linejoin="round" stroke-miterlimit="10" d="
		M156.9,51.4l64.3,17.3l65.8-4l60.6,12c0,0,62.1,0.7,65,1.3c3,0.7,62.8,8.7,62.8,8.7l70.6-43l58.7,3l64.3,2l65.8-3.3l65.8-1.3
		l59.8,6.7"/>
</g>
</svg>
