<?xml version="1.0" encoding="utf-8"?>
<!-- Generator: Adobe Illustrator 18.0.0, SVG Export Plug-In . SVG Version: 6.00 Build 0)  -->
<!DOCTYPE svg PUBLIC "-//W3C//DTD SVG 1.1//EN" "http://www.w3.org/Graphics/SVG/1.1/DTD/svg11.dtd">
<svg version="1.1" id="Layer_1" xmlns="http://www.w3.org/2000/svg" xmlns:xlink="http://www.w3.org/1999/xlink" x="0px" y="0px"
	 viewBox="0 0 384.3 350.1" enable-background="new 0 0 384.3 350.1" xml:space="preserve">
<g>
	<g>
		<g>
			<path fill="#ABABB4" d="M6.9,92.8c0.3,0,0.6,0.3,0.8,0.7S8,94.4,8,94.9v1.7l4.4,2.8c0.1,0,0.1,0.1,0.1,0.2l-0.2,1.1
				c0,0,0,0.1-0.1,0.1c0,0,0,0,0,0c-0.1,0-0.1,0-0.2,0l-4-1.2v2.7l1.3,0.7c0.1,0,0.1,0.1,0.1,0.2l0,1c0,0.1,0,0.1-0.1,0.2l0,0
				c-0.1,0-0.1,0.1-0.2,0.1l-2.3-0.3l-2.3,0.3c-0.1,0-0.1,0-0.2,0c0,0-0.1-0.1-0.1-0.2l0-1c0-0.1,0-0.1,0.1-0.2c0,0,0,0,0,0l1.3-0.7
				v-2.7l-4,1.2c-0.1,0-0.1,0-0.2,0c-0.1,0-0.1-0.1-0.1-0.2v-1.3c0-0.1,0-0.2,0.1-0.2l4.2-2.6v-1.6c0-0.5,0.1-1,0.3-1.4
				C6.3,93,6.6,92.8,6.9,92.8z"/>
		</g>
	</g>
	<rect x="80" y="328.3" fill="none" width="11.2" height="21.8"/>
	<text transform="matrix(1 0 0 1 81.73 338.947)" fill="#ABABB4" font-family="'Roboto-Bold'" font-size="14">E</text>
	<rect x="106.4" y="328.3" fill="none" width="11.2" height="21.8"/>
	<text transform="matrix(1 0 0 1 108.125 338.947)" fill="#ABABB4" font-family="'Roboto-Bold'" font-size="14">F</text>
	<rect x="132.8" y="328.3" fill="none" width="13.2" height="21.8"/>
	<text transform="matrix(1 0 0 1 133.3223 338.947)" fill="#ABABB4" font-family="'Roboto-Bold'" font-size="14">M</text>
	<rect x="159.2" y="328.3" fill="none" width="11.2" height="21.8"/>
	<text transform="matrix(1 0 0 1 160.3545 338.947)" fill="#ABABB4" font-family="'Roboto-Bold'" font-size="14">A</text>
	<rect x="185.6" y="328.3" fill="none" width="13.2" height="21.8"/>
	<text transform="matrix(1 0 0 1 186.1123 338.947)" fill="#ABABB4" font-family="'Roboto-Bold'" font-size="14">M</text>
	<rect x="212" y="328.3" fill="none" width="11.2" height="21.8"/>
	<text transform="matrix(1 0 0 1 213.7124 338.947)" fill="#ABABB4" font-family="'Roboto-Bold'" font-size="14">J</text>
	<rect x="238.4" y="328.3" fill="none" width="11.2" height="21.8"/>
	<text transform="matrix(1 0 0 1 240.1069 338.947)" fill="#ABABB4" font-family="'Roboto-Bold'" font-size="14">J</text>
	<rect x="264.8" y="328.3" fill="none" width="11.2" height="21.8"/>
	<text transform="matrix(1 0 0 1 265.9351 338.947)" fill="#ABABB4" font-family="'Roboto-Bold'" font-size="14">A</text>
	<rect x="291.2" y="328.3" fill="none" width="11.2" height="21.8"/>
	<text transform="matrix(1 0 0 1 292.457 338.947)" fill="#ABABB4" font-family="'Roboto-Bold'" font-size="14">S</text>
	<rect x="317.6" y="328.3" fill="none" width="11.2" height="21.8"/>
	<text transform="matrix(1 0 0 1 318.3628 338.947)" fill="#ABABB4" font-family="'Roboto-Bold'" font-size="14">O</text>
	<rect x="344" y="328.3" fill="none" width="11.2" height="21.8"/>
	<text transform="matrix(1 0 0 1 344.6343 338.947)" fill="#ABABB4" font-family="'Roboto-Bold'" font-size="14">N</text>
	<rect x="370.4" y="328.3" fill="none" width="11.2" height="21.8"/>
	<text transform="matrix(1 0 0 1 371.3364 338.947)" fill="#ABABB4" font-family="'Roboto-Bold'" font-size="14">D</text>
	<rect x="14" y="31.6" fill="none" width="55.8" height="11.1"/>
	<text transform="matrix(1 0 0 1 17.5635 41.5186)" opacity="0.17" fill="#ABABB4" font-family="'Roboto-Bold'" font-size="13">1.400.00</text>
	<rect x="1.2" y="37" fill="none" width="17.3" height="281.6"/>
	<text transform="matrix(0 -1 1 0 11.1211 244.4722)" opacity="0.17" fill="#ABABB4" font-family="'Roboto-Bold'" font-size="13">Cantidad de vuelos</text>
	<rect x="4.4" y="124.7" fill="none" width="65.5" height="12.8"/>
	<text transform="matrix(1 0 0 1 17.5635 134.564)" opacity="0.17" fill="#ABABB4" font-family="'Roboto-Bold'" font-size="13">1.000.00</text>
	<rect x="7.1" y="218.4" fill="none" width="62.8" height="13.1"/>
	<text transform="matrix(1 0 0 1 28.8052 228.2976)" opacity="0.17" fill="#ABABB4" font-family="'Roboto-Bold'" font-size="13">400.00</text>
	<rect x="40" y="307.9" fill="none" width="29.8" height="21.8"/>
	<text transform="matrix(1 0 0 1 62.4219 317.8521)" opacity="0.17" fill="#ABABB4" font-family="'Roboto-Bold'" font-size="13">0</text>
	
		<line opacity="0.23" fill="none" stroke="#FFFFFF" stroke-width="0.727" stroke-miterlimit="10" stroke-opacity="0.4" x1="79.6" y1="317.4" x2="381.6" y2="317.4"/>
	<g opacity="0.23">
		<g opacity="0.4">
			<line fill="none" stroke="#FFFFFF" stroke-miterlimit="10" x1="79.1" y1="224.6" x2="83.1" y2="224.6"/>
			<line fill="none" stroke="#FFFFFF" stroke-miterlimit="10" stroke-dasharray="9,9" x1="92.1" y1="224.6" x2="375.1" y2="224.6"/>
			<line fill="none" stroke="#FFFFFF" stroke-miterlimit="10" x1="379.1" y1="224.6" x2="384.1" y2="224.6"/>
		</g>
	</g>
	<g opacity="0.23">
		<g opacity="0.4">
			<line fill="none" stroke="#FFFFFF" stroke-miterlimit="10" x1="79.1" y1="130.6" x2="83.1" y2="130.6"/>
			<line fill="none" stroke="#FFFFFF" stroke-miterlimit="10" stroke-dasharray="9,9" x1="92.1" y1="130.6" x2="375.1" y2="130.6"/>
			<line fill="none" stroke="#FFFFFF" stroke-miterlimit="10" x1="379.1" y1="130.6" x2="384.1" y2="130.6"/>
		</g>
	</g>
	<g opacity="0.23">
		<g opacity="0.4">
			<line fill="none" stroke="#FFFFFF" stroke-miterlimit="10" x1="79.1" y1="37.6" x2="83.1" y2="37.6"/>
			<line fill="none" stroke="#FFFFFF" stroke-miterlimit="10" stroke-dasharray="9,9" x1="92.1" y1="37.6" x2="375.1" y2="37.6"/>
			<line fill="none" stroke="#FFFFFF" stroke-miterlimit="10" x1="379.1" y1="37.6" x2="384.1" y2="37.6"/>
		</g>
	</g>
	
		<line fill="none" stroke="#FFFFFF" stroke-width="0.8246" stroke-miterlimit="10" stroke-opacity="0.4" x1="249.4" y1="56" x2="249.4" y2="31.6"/>
	
		<path fill="none" stroke="#676767" stroke-width="3.7886" stroke-linecap="round" stroke-linejoin="round" stroke-miterlimit="10" d="
		M88.6,118.9c0,0,21.7,14.3,25.1,14.3c3.4,0,27.9,3.7,27.9,3.7l25.5,28.6l27.6,4.6c0,0,23.9,5.5,24.8,5.5c0.9,0,30.1-57.6,30.1-57.6
		l23.4,6l27.3,5.5l26.7-16.6l26.1,5.5l27.6-4.6"/>
	
		<path fill="none" stroke="#009DDA" stroke-width="3.7886" stroke-linecap="round" stroke-linejoin="round" stroke-miterlimit="10" d="
		M87.9,79.8l26.7,24.9l26.1-19.4c0,0,23.3,26.7,26.4,26.7s25.5,9.2,25.5,9.2l27,8.3l28.3-74.6"/>
	
		<path fill="none" stroke="#FFFFFF" stroke-width="3.7886" stroke-linecap="round" stroke-linejoin="round" stroke-miterlimit="10" d="
		M87.6,98.2l26.7,24l27.3-5.5l25.2,16.6c0,0,25.8,0.9,27,1.8c1.2,0.9,26.1,12,26.1,12l29.3-59.4l24.4,4.1l26.7,2.8l27.3-4.6
		l27.3-1.8l24.8,9.2"/>
	<circle fill="#FFFFFF" cx="87.6" cy="98.1" r="4.8"/>
	<circle fill="#676767" cx="87.6" cy="119.1" r="4.8"/>
	<circle fill="#FFFFFF" cx="379.6" cy="97.1" r="4.8"/>
	<circle fill="#676767" cx="379.6" cy="113.1" r="4.8"/>
	<circle fill="#676767" cx="249.6" cy="118.6" r="4.8"/>
	<circle fill="#FFFFFF" cx="249.6" cy="87.6" r="4.8"/>
	<g>
		
			<image overflow="visible" opacity="0.3" width="165" height="165" xlink:href="EAFCC2C388D265B6.png"  transform="matrix(0.24 0 0 0.24 228.8223 35.3105)">
		</image>
		<g>
			<circle fill="#009DDA" cx="248.6" cy="55.1" r="4.8"/>
		</g>
	</g>
	<circle fill="#009DDA" cx="87.1" cy="79.1" r="4.8"/>
	<g>
		<rect x="245.7" y="1.3" fill="none" width="109.9" height="30.7"/>
		<text transform="matrix(1 0 0 1 245.7207 11.9766)"><tspan x="0" y="0" fill="#009DDA" font-family="'Roboto-Medium'" font-size="14">1.360.000 </tspan><tspan x="0" y="15" fill="#009DDA" font-family="'Roboto-Medium'" font-size="14">récord histórico</tspan></text>
	</g>
</g>
</svg>
