<?xml version="1.0" encoding="utf-8"?>
<!-- Generator: Adobe Illustrator 18.0.0, SVG Export Plug-In . SVG Version: 6.00 Build 0)  -->
<!DOCTYPE svg PUBLIC "-//W3C//DTD SVG 1.1//EN" "http://www.w3.org/Graphics/SVG/1.1/DTD/svg11.dtd">
<svg version="1.1" id="Layer_1" xmlns="http://www.w3.org/2000/svg" xmlns:xlink="http://www.w3.org/1999/xlink" x="0px" y="0px"
	 viewBox="0 0 1683.1 309.5" enable-background="new 0 0 1683.1 309.5" xml:space="preserve">
<g>
	<g>
		<g>
			<path fill="#0095D5" d="M262.2,71.9h11.2l18.1,28.2l18.1-28.2h11.2v59.6h-10.5V88.7l-18.8,28.1h-0.3l-18.7-27.9v42.6h-10.3V71.9z
				"/>
			<path fill="#0095D5" d="M333.4,69.8h11.1v9.8h-11.1V69.8z M333.8,86.5h10.3v45h-10.3V86.5z"/>
			<path fill="#0095D5" d="M355.9,86.5h10.3v7c2.9-4.3,7.1-7.9,14.1-7.9c10.1,0,16,6.8,16,17.3v28.6H386v-25.6c0-7-3.5-11-9.6-11
				c-6,0-10.1,4.2-10.1,11.2v25.4h-10.3V86.5z"/>
			<path fill="#0095D5" d="M407.2,69.8h11.1v9.8h-11.1V69.8z M407.6,86.5h10.3v45h-10.3V86.5z"/>
			<path fill="#0095D5" d="M426,125.6l4.6-7c4.9,3.7,10.1,5.5,14.7,5.5c4.4,0,7-1.9,7-4.9v-0.2c0-3.5-4.8-4.7-10.1-6.3
				c-6.6-1.9-14.1-4.6-14.1-13.2v-0.2c0-8.5,7.1-13.7,16-13.7c5.6,0,11.8,2,16.5,5.1l-4.1,7.3c-4.3-2.6-8.9-4.3-12.7-4.3
				c-4,0-6.3,1.9-6.3,4.5v0.2c0,3.2,4.9,4.6,10.1,6.3c6.6,2,14,5,14,13.1v0.2c0,9.5-7.3,14.1-16.7,14.1
				C438.7,132.4,431.7,130.1,426,125.6z"/>
			<path fill="#0095D5" d="M472.7,119.1V95.4H467v-8.9h5.7V74.2H483v12.4h12.1v8.9H483v22.1c0,4,2,5.6,5.5,5.6
				c2.3,0,4.3-0.5,6.4-1.5v8.4c-2.6,1.4-5.5,2.3-9.3,2.3C478.1,132.3,472.7,129,472.7,119.1z"/>
			<path fill="#0095D5" d="M501.3,109.2V109c0-12.9,9.1-23.4,22-23.4c14.3,0,21.6,11.2,21.6,24.2c0,0.9-0.1,1.9-0.2,2.9h-33.1
				c1.1,7.3,6.3,11.4,13,11.4c5,0,8.6-1.9,12.2-5.4l6,5.4c-4.3,5.1-10.1,8.4-18.4,8.4C511.4,132.5,501.3,123.1,501.3,109.2z
				 M534.7,105.9C534,99.2,530.1,94,523.2,94c-6.3,0-10.7,4.9-11.7,11.8H534.7z"/>
			<path fill="#0095D5" d="M553.6,86.5h10.3v10.1c2.8-6.7,8-11.3,15.9-11v10.9h-0.6c-9,0-15.3,5.9-15.3,17.8v17.1h-10.3V86.5z"/>
			<path fill="#0095D5" d="M587.2,69.8h11.1v9.8h-11.1V69.8z M587.7,86.5H598v45h-10.3V86.5z"/>
			<path fill="#0095D5" d="M607.3,109.3v-0.2c0-12.9,10.2-23.5,24-23.5c13.8,0,23.9,10.5,23.9,23.3v0.2c0,12.8-10.2,23.4-24.1,23.4
				C617.4,132.5,607.3,122,607.3,109.3z M644.9,109.3v-0.2c0-7.9-5.7-14.5-13.8-14.5c-8.3,0-13.5,6.5-13.5,14.3v0.2
				c0,7.8,5.7,14.5,13.7,14.5C639.6,123.6,644.9,117,644.9,109.3z"/>
			<path fill="#0095D5" d="M685.6,109.1v-0.2c0-14.9,10.1-23.3,20.9-23.3c7.4,0,12.1,3.7,15.3,7.9V69.3h10.3v62.2h-10.3V124
				c-3.3,4.7-8,8.4-15.3,8.4C695.9,132.4,685.6,124,685.6,109.1z M721.9,109.1v-0.2c0-8.7-6.1-14.4-13-14.4c-7.1,0-13,5.5-13,14.4
				v0.2c0,8.7,6,14.4,13,14.4C715.8,123.5,721.9,117.7,721.9,109.1z"/>
			<path fill="#0095D5" d="M740.8,109.2V109c0-12.9,9.1-23.4,22-23.4c14.3,0,21.6,11.2,21.6,24.2c0,0.9-0.1,1.9-0.2,2.9h-33.1
				c1.1,7.3,6.3,11.4,13,11.4c5,0,8.6-1.9,12.2-5.4l6,5.4c-4.3,5.1-10.1,8.4-18.4,8.4C750.8,132.5,740.8,123.1,740.8,109.2z
				 M774.1,105.9c-0.7-6.6-4.6-11.8-11.4-11.8c-6.3,0-10.7,4.9-11.7,11.8H774.1z"/>
			<path fill="#0095D5" d="M832.7,81.6h-18.9v-9.7h48.4v9.7h-18.9v49.9h-10.6V81.6z"/>
			<path fill="#0095D5" d="M870.4,86.5h10.3v10.1c2.8-6.7,8-11.3,15.9-11v10.9H896c-9,0-15.3,5.9-15.3,17.8v17.1h-10.3V86.5z"/>
			<path fill="#0095D5" d="M931.4,131.5V126c-3.1,3.7-7.8,6.5-14.6,6.5c-8.5,0-16-4.9-16-13.9v-0.2c0-10,7.8-14.7,18.2-14.7
				c5.5,0,8.9,0.8,12.4,1.9v-0.9c0-6.2-3.9-9.6-11.1-9.6c-5,0-8.8,1.1-12.9,2.8l-2.8-8.3c4.9-2.2,9.8-3.7,17.1-3.7
				c13.3,0,19.8,7,19.8,19v26.7H931.4z M931.6,112.7c-2.6-1-6.3-1.8-10.3-1.8c-6.5,0-10.3,2.6-10.3,7v0.2c0,4.3,3.8,6.6,8.7,6.6
				c6.8,0,11.9-3.8,11.9-9.5V112.7z"/>
			<path fill="#0095D5" d="M952.1,86.5h10.3v7c2.9-4.3,7.1-7.9,14.1-7.9c10.1,0,16,6.8,16,17.3v28.6h-10.3v-25.6c0-7-3.5-11-9.6-11
				c-6,0-10.1,4.2-10.1,11.2v25.4h-10.3V86.5z"/>
			<path fill="#0095D5" d="M999.6,125.6l4.6-7c4.9,3.7,10.1,5.5,14.7,5.5c4.4,0,7-1.9,7-4.9v-0.2c0-3.5-4.8-4.7-10.1-6.3
				c-6.6-1.9-14.1-4.6-14.1-13.2v-0.2c0-8.5,7.1-13.7,16-13.7c5.6,0,11.8,2,16.5,5.1l-4.1,7.3c-4.3-2.6-8.9-4.3-12.7-4.3
				c-4,0-6.3,1.9-6.3,4.5v0.2c0,3.2,4.9,4.6,10.1,6.3c6.6,2,14,5,14,13.1v0.2c0,9.5-7.3,14.1-16.7,14.1
				C1012.3,132.4,1005.2,130.1,999.6,125.6z"/>
			<path fill="#0095D5" d="M1044.2,86.5h10.3V94c3.3-4.7,8-8.4,15.3-8.4c10.7,0,21,8.4,21,23.3v0.2c0,14.9-10.2,23.3-21,23.3
				c-7.4,0-12.1-3.7-15.3-7.9v20.6h-10.3V86.5z M1080.2,109.1v-0.2c0-8.7-5.9-14.4-12.9-14.4s-13.1,5.8-13.1,14.4v0.2
				c0,8.7,6.1,14.4,13.1,14.4C1074.4,123.5,1080.2,118,1080.2,109.1z"/>
			<path fill="#0095D5" d="M1097.1,109.3v-0.2c0-12.9,10.2-23.5,24-23.5c13.8,0,23.9,10.5,23.9,23.3v0.2c0,12.8-10.2,23.4-24.1,23.4
				C1107.2,132.5,1097.1,122,1097.1,109.3z M1134.7,109.3v-0.2c0-7.9-5.7-14.5-13.8-14.5c-8.3,0-13.5,6.5-13.5,14.3v0.2
				c0,7.8,5.7,14.5,13.7,14.5C1129.5,123.6,1134.7,117,1134.7,109.3z"/>
			<path fill="#0095D5" d="M1153.8,86.5h10.3v10.1c2.8-6.7,8-11.3,15.9-11v10.9h-0.6c-9,0-15.3,5.9-15.3,17.8v17.1h-10.3V86.5z"/>
			<path fill="#0095D5" d="M1189.4,119.1V95.4h-5.7v-8.9h5.7V74.2h10.3v12.4h12.1v8.9h-12.1v22.1c0,4,2,5.6,5.5,5.6
				c2.3,0,4.3-0.5,6.4-1.5v8.4c-2.6,1.4-5.5,2.3-9.3,2.3C1194.8,132.3,1189.4,129,1189.4,119.1z"/>
			<path fill="#0095D5" d="M1218.1,109.2V109c0-12.9,9.1-23.4,22-23.4c14.3,0,21.6,11.2,21.6,24.2c0,0.9-0.1,1.9-0.2,2.9h-33.1
				c1.1,7.3,6.3,11.4,13,11.4c5,0,8.6-1.9,12.2-5.4l6,5.4c-4.3,5.1-10.1,8.4-18.4,8.4C1228.1,132.5,1218.1,123.1,1218.1,109.2z
				 M1251.4,105.9c-0.7-6.6-4.6-11.8-11.4-11.8c-6.3,0-10.7,4.9-11.7,11.8H1251.4z"/>
		</g>
	</g>
	<g>
		<path fill="#0095D5" d="M262,167.2h32.7c19.3,0,31.6,11,31.6,27.8v0.2c0,18.6-15,28.4-33.2,28.4h-16.5v26.7H262V167.2z
			 M293.6,210.4c11,0,17.9-6.2,17.9-14.8v-0.2c0-9.7-7-14.8-17.9-14.8h-17v29.9H293.6z"/>
		<path fill="#0095D5" d="M338.4,187.6h14.4v14.1c3.9-9.4,11.2-15.8,22.2-15.3v15.2h-0.8c-12.6,0-21.4,8.2-21.4,24.8v23.8h-14.4
			V187.6z"/>
		<path fill="#0095D5" d="M382.8,219.2v-0.2c0-17.9,12.7-32.6,30.6-32.6c19.9,0,30,15.7,30,33.7c0,1.3-0.1,2.6-0.2,4h-46
			c1.5,10.2,8.8,15.9,18,15.9c7,0,12-2.6,17-7.5l8.4,7.5c-5.9,7.1-14.1,11.7-25.6,11.7C396.8,251.7,382.8,238.5,382.8,219.2
			 M429.2,214.5c-0.9-9.3-6.4-16.5-15.9-16.5c-8.8,0-15,6.8-16.3,16.5H429.2z"/>
		<path fill="#0095D5" d="M451.6,242.1l6.4-9.7c6.8,5.1,14.1,7.7,20.5,7.7c6.2,0,9.7-2.6,9.7-6.8v-0.2c0-4.9-6.6-6.5-14-8.8
			c-9.3-2.6-19.6-6.4-19.6-18.4v-0.2c0-11.9,9.8-19.1,22.3-19.1c7.8,0,16.4,2.7,23,7.1l-5.7,10.2c-6-3.7-12.5-5.9-17.7-5.9
			c-5.6,0-8.8,2.6-8.8,6.3v0.2c0,4.5,6.8,6.4,14.1,8.8c9.1,2.8,19.5,7,19.5,18.3v0.2c0,13.2-10.2,19.7-23.2,19.7
			C469.3,251.4,459.4,248.2,451.6,242.1"/>
		<path fill="#0095D5" d="M515.1,164.4h15.4V178h-15.4V164.4z M515.7,187.6H530v62.7h-14.4V187.6z"/>
		<path fill="#0095D5" d="M544.4,219.1v-0.2c0-20.8,14.1-32.5,29.1-32.5c10.3,0,16.8,5.2,21.4,11v-33.7h14.4v86.6h-14.4v-10.4
			c-4.6,6.5-11.2,11.7-21.4,11.7C558.8,251.6,544.4,239.8,544.4,219.1 M595.1,219.1v-0.2c0-12.1-8.5-20.1-18.2-20.1
			c-9.8,0-18,7.6-18,20.1v0.2c0,12.1,8.3,20.1,18,20.1C586.5,239.1,595.1,231,595.1,219.1"/>
		<path fill="#0095D5" d="M622.5,219.2v-0.2c0-17.9,12.7-32.6,30.6-32.6c19.9,0,30,15.7,30,33.7c0,1.3-0.1,2.6-0.2,4h-46
			c1.5,10.2,8.8,15.9,18,15.9c7,0,12-2.6,17-7.5l8.4,7.5c-5.9,7.1-14.1,11.7-25.6,11.7C636.5,251.7,622.5,238.5,622.5,219.2
			 M668.9,214.5c-0.9-9.3-6.4-16.5-15.9-16.5c-8.8,0-15,6.8-16.3,16.5H668.9z"/>
		<path fill="#0095D5" d="M696.4,187.6h14.4v9.7c4-5.9,9.9-11,19.6-11c14.1,0,22.3,9.5,22.3,24.1v39.9h-14.4v-35.6
			c0-9.7-4.9-15.3-13.4-15.3c-8.3,0-14.1,5.8-14.1,15.5v35.4h-14.4V187.6z"/>
		<path fill="#0095D5" d="M765.3,219.3v-0.2c0-17.8,13.8-32.8,32.5-32.8c11.9,0,19.2,4.4,25,10.8l-8.9,9.6c-4.4-4.6-9-7.8-16.3-7.8
			c-10.4,0-18,9-18,19.9v0.2c0,11.2,7.7,20.2,18.7,20.2c6.8,0,11.8-3.2,16.3-7.8l8.7,8.5c-6.2,6.9-13.4,11.7-25.6,11.7
			C779.1,251.7,765.3,237.1,765.3,219.3"/>
		<path fill="#0095D5" d="M835.6,164.4H851V178h-15.4V164.4z M836.2,187.6h14.4v62.7h-14.4V187.6z"/>
		<path fill="#0095D5" d="M906.4,250.3v-7.7c-4.3,5.1-10.8,9-20.3,9c-11.9,0-22.3-6.8-22.3-19.3V232c0-13.9,10.8-20.5,25.4-20.5
			c7.6,0,12.5,1.1,17.3,2.6v-1.2c0-8.7-5.5-13.4-15.4-13.4c-7,0-12.2,1.5-17.9,3.9l-3.9-11.5c6.9-3.1,13.6-5.2,23.9-5.2
			c18.5,0,27.5,9.7,27.5,26.5v37.1H906.4z M906.8,224c-3.7-1.4-8.8-2.5-14.4-2.5c-9,0-14.4,3.7-14.4,9.7v0.2c0,5.9,5.3,9.3,12.1,9.3
			c9.5,0,16.6-5.3,16.6-13.2V224z"/>
		<path fill="#0095D5" d="M967.8,219.1v-0.2c0-20.8,14.1-32.5,29.1-32.5c10.3,0,16.8,5.2,21.4,11v-33.7h14.4v86.6h-14.4v-10.4
			c-4.6,6.5-11.2,11.7-21.4,11.7C982.1,251.6,967.8,239.8,967.8,219.1 M1018.4,219.1v-0.2c0-12.1-8.5-20.1-18.2-20.1
			c-9.8,0-18,7.6-18,20.1v0.2c0,12.1,8.3,20.1,18,20.1C1009.9,239.1,1018.4,231,1018.4,219.1"/>
		<path fill="#0095D5" d="M1045.8,219.2v-0.2c0-17.9,12.7-32.6,30.6-32.6c19.9,0,30,15.7,30,33.7c0,1.3-0.1,2.6-0.2,4h-46
			c1.5,10.2,8.8,15.9,18,15.9c7,0,12-2.6,17-7.5l8.4,7.5c-5.9,7.1-14.1,11.7-25.6,11.7C1059.8,251.7,1045.8,238.5,1045.8,219.2
			 M1092.2,214.5c-0.9-9.3-6.4-16.5-15.9-16.5c-8.8,0-15,6.8-16.3,16.5H1092.2z"/>
		<rect x="1155" y="163.6" fill="#0095D5" width="14.4" height="86.6"/>
		<path fill="#0095D5" d="M1225.2,250.3v-7.7c-4.3,5.1-10.8,9-20.3,9c-11.9,0-22.3-6.8-22.3-19.3V232c0-13.9,10.8-20.5,25.4-20.5
			c7.6,0,12.5,1.1,17.3,2.6v-1.2c0-8.7-5.5-13.4-15.4-13.4c-7,0-12.2,1.5-17.9,3.9l-3.9-11.5c6.9-3.1,13.6-5.2,23.8-5.2
			c18.5,0,27.5,9.7,27.5,26.5v37.1H1225.2z M1225.6,224c-3.7-1.4-8.8-2.5-14.4-2.5c-9,0-14.4,3.7-14.4,9.7v0.2
			c0,5.9,5.3,9.3,12.1,9.3c9.5,0,16.6-5.3,16.6-13.2V224z"/>
		<polygon fill="#0095D5" points="1291.4,167.2 1305,167.2 1349.5,224.6 1349.5,167.2 1363.8,167.2 1363.8,250.3 1351.6,250.3 
			1305.8,191.2 1305.8,250.3 1291.4,250.3 		"/>
		<path fill="#0095D5" d="M1420.7,250.3v-7.7c-4.3,5.1-10.8,9-20.3,9c-11.9,0-22.3-6.8-22.3-19.3V232c0-13.9,10.8-20.5,25.4-20.5
			c7.6,0,12.5,1.1,17.3,2.6v-1.2c0-8.7-5.5-13.4-15.4-13.4c-7,0-12.2,1.5-17.9,3.9l-3.9-11.5c6.9-3.1,13.6-5.2,23.9-5.2
			c18.5,0,27.5,9.7,27.5,26.5v37.1H1420.7z M1421,224c-3.7-1.4-8.8-2.5-14.4-2.5c-9,0-14.4,3.7-14.4,9.7v0.2c0,5.9,5.3,9.3,12.1,9.3
			c9.5,0,16.6-5.3,16.6-13.2V224z"/>
		<path fill="#0095D5" d="M1447.4,219.3v-0.2c0-17.8,13.8-32.8,32.5-32.8c11.9,0,19.2,4.4,25,10.8l-8.9,9.6c-4.4-4.6-9-7.8-16.3-7.8
			c-10.4,0-18,9-18,19.9v0.2c0,11.2,7.7,20.2,18.7,20.2c6.8,0,11.8-3.2,16.3-7.8l8.7,8.5c-6.2,6.9-13.4,11.7-25.6,11.7
			C1461.1,251.7,1447.4,237.1,1447.4,219.3"/>
		<path fill="#0095D5" d="M1517.6,164.4h15.4V178h-15.4V164.4z M1518.2,187.6h14.4v62.7h-14.4V187.6z"/>
		<path fill="#0095D5" d="M1546.7,219.3v-0.2c0-17.9,14.2-32.7,33.5-32.7c19.2,0,33.3,14.6,33.3,32.5v0.2
			c0,17.8-14.2,32.6-33.6,32.6C1560.8,251.7,1546.7,237.1,1546.7,219.3 M1599.1,219.3v-0.2c0-11-8-20.2-19.2-20.2
			c-11.5,0-18.9,9-18.9,19.9v0.2c0,10.9,8,20.2,19.1,20.2C1591.8,239.2,1599.1,230.1,1599.1,219.3 M1586.7,160.2l13.1,5.8
			l-14.6,13.6h-10.8L1586.7,160.2z"/>
		<path fill="#0095D5" d="M1626.9,187.6h14.4v9.7c4-5.9,9.9-11,19.6-11c14.1,0,22.3,9.5,22.3,24.1v39.9h-14.4v-35.6
			c0-9.7-4.9-15.3-13.4-15.3c-8.3,0-14.1,5.8-14.1,15.5v35.4h-14.4V187.6z"/>
		<path fill="#0095D5" d="M94.9,150.2H77.6c-3.8,0-5.8-1.6-6.9-2.9c-0.9-1.1-1.5-2.6-1.8-4.3c0-0.1,0-0.3,0-0.4
			c-0.2-1.6-0.1-3.3,0.3-5.2c2.2-11.3,6.8-18.9,10.5-23.6c-0.4-0.1-0.8-0.3-1.2-0.5c-2.4-1.4-3.5-4.1-3-7.2c0.6-3.8,4.2-7.6,4.8-8.2
			c5.9-7,14.8-7.3,15.9-7.4c1.3-0.1,12.9-0.6,19.2,11.6c7.5,14.6,9.3,26.6,10.7,36.3l0.1,0.5c0.2,1.7,0.1,3.1-0.2,4.3
			c0,0.1-0.1,0.3-0.1,0.4c-0.4,1.3-1.1,2.3-1.8,3c-1.6,1.7-3.8,2.8-6.8,3.3c-1.2,0.2-2.3,0.2-3,0.2c-0.3,0-0.6,0-0.7,0h-13.4v24.4
			h77.1c0-14.3-2.1-28.2-6.3-41.2c-4-12.6-9.8-23.9-17.2-33.6c-7.3-9.7-15.9-17.2-25.3-22.5c-9.8-5.5-20.2-8.2-30.9-8.2
			c-10.7,0-21.1,2.8-30.9,8.2c-9.5,5.3-18,12.9-25.3,22.5c-7.4,9.7-13.1,21-17.2,33.6c-4.2,13.1-6.3,26.9-6.3,41.2h77.1V150.2z"/>
		<path fill="#FFFFFF" d="M17.8,174.6c0,10.9,1.2,21.5,3.6,31.6c34.5-3.9,55.1-8,61.2-12.1c4.3-3,7.8-4.8,12.3-4.7v-14.9H17.8z"/>
		<path fill="#FFFFFF" d="M100.1,190.2c3.1,0.6,5.3,1.4,7.9,2.7c0.3,0,0.5,0,0.8,0c4.4-0.2,8.2,1.1,13.4,3c1.4,0.5,3,1.1,4.8,1.7
			c0.8,0.2,25.6,8,46.5,9.2c2.5-10.3,3.8-21.1,3.8-32.1h-77.1V190.2z"/>
		<path d="M92.4,55.6L92.4,55.6L92.4,55.6z"/>
		<path fill="#FFFFFF" d="M131.5,223.8c-0.3,0.7-0.8,1.4-1.4,2c-1.3,1.2-3,1.9-5.2,2c-0.3,0.6-0.7,1.3-1.3,2
			c-1.2,1.3-3.3,2.8-6.7,2.6c-0.3,0.6-0.8,1.2-1.4,1.8c-1.7,1.7-4,2.4-6.6,2c-0.6,0.5-1.5,1.1-2.7,1.5c-1.5,0.6-3.6,1-6.2,0.5v20.5
			c0,1.4-1.2,2.6-2.6,2.6c-1.4,0-2.6-1.2-2.6-2.6v-19.6c-1,0.4-2.2,0.6-3.3,0.6c-0.4,0-0.9,0-1.4-0.1c-1.4-0.3-2.7-1.1-3.7-2.2
			c-1.7,0.3-4.7,0.5-6.9-1c-0.9-0.6-1.5-1.4-1.9-2.4c-0.7-0.1-1.6-0.2-2.4-0.5c-2.3-0.7-3.8-2-4.5-3.8c-0.5,0-1.1-0.1-1.8-0.2
			c-1.9-0.3-4.3-1.1-5.2-3.3c-0.2-0.5-0.3-0.9-0.4-1.4c-11,5.7-23.5,11.3-29.2,13.8c2.2,3.8,4.5,7.3,7.1,10.7
			c7.3,9.7,15.9,17.2,25.3,22.5c4.4,2.5,9,4.4,13.6,5.7c0.5-0.9,1.1-1.6,2-2.2c4.4-2.9,12.8-0.8,15.2-0.1c2.4-0.7,10.8-2.8,15.2,0.1
			c0.9,0.6,1.6,1.3,2,2.2c4.7-1.4,9.2-3.3,13.6-5.7c9.5-5.3,18-12.9,25.3-22.5c2.4-3.2,4.7-6.5,6.7-10
			C154.2,236.8,140.4,230.7,131.5,223.8"/>
		<path fill="#0095D5" d="M104.6,293.8c0.1-0.6,0.2-1.2,0.2-1.8c0-0.6-0.1-1.1-0.2-1.6c2.6-0.5,6.8-1.8,9.1-4.6
			c1.4-1.7,1.9-3.6,1.7-5.8c-0.2-1.9-1.2-3.5-2.7-4.5c-4.4-2.9-12.8-0.8-15.2-0.1c-2.4-0.7-10.8-2.8-15.2,0.1
			c-1.6,1-2.5,2.6-2.7,4.5c-0.2,2.2,0.3,4.1,1.7,5.8c2.4,2.9,6.6,4.1,9.2,4.6c-0.1,0.5-0.2,1.1-0.2,1.6c0,0.6,0.1,1.2,0.2,1.7
			c-1.9,1.9-8,7.2-16.8,8.2c0.3,0.5,1,1.7,2.6,3.1c7.8-1.5,13.4-5.8,15.9-8.1c0.3,0.3,0.5,0.5,0.8,0.8c-0.6,2.2-2.9,7.7-12.4,10.1
			c1.6,0.7,3.5,1.3,5.7,1.6c6.6-3,9-7.6,9.8-10.3c0.5,0.1,0.9,0.1,1.4,0.1c0.5,0,0.9,0,1.4-0.1c0.8,2.7,3.2,7.2,9.8,10.3
			c2.3-0.3,4.2-0.9,5.7-1.6c-9.5-2.4-11.8-7.9-12.4-10.1c0.3-0.2,0.6-0.5,0.8-0.8c2.5,2.3,8.1,6.6,15.9,8.1c1.5-1.4,2.3-2.6,2.6-3.1
			C112.6,301,106.5,295.7,104.6,293.8"/>
		<path fill="#FFFFFF" d="M110.8,278.4c0.7,0.5,1.1,1.1,1.2,2c0.1,1.3-0.2,2.3-0.9,3.2c-1,1.2-2.7,2.1-4.4,2.7
			c0.8-1.7,1-3.5,0.3-5.1c-0.6-1.6-1.6-2.8-2.7-3.6C106.9,277.3,109.4,277.4,110.8,278.4"/>
		<path fill="#FFFFFF" d="M91.2,282.4c1.3-3.5,6.1-3.5,6.3-3.5c0,0,1.3,0,2.8,0.5c1.8,0.6,3,1.6,3.5,3c0.6,1.6-0.5,3.2-1.5,4.2
			c-1.3-1.1-3-1.8-4.8-1.8c-1.9,0-3.6,0.7-4.8,1.9C91.7,285.6,90.6,284,91.2,282.4"/>
		<path fill="#FFFFFF" d="M88.3,286.4c-1.7-0.6-3.4-1.5-4.4-2.7c-0.8-0.9-1.1-2-0.9-3.3c0.1-0.9,0.5-1.6,1.2-2
			c1-0.7,2.6-0.9,4.3-0.9c0.7,0,1.5,0,2.2,0.1c-1.1,0.8-2.1,2-2.7,3.6C87.3,283.1,87.6,284.9,88.3,286.4"/>
		<path fill="#FFFFFF" d="M93.7,292.1c0-2.1,1.7-3.8,3.8-3.8c2.1,0,3.8,1.7,3.8,3.8c0,2.1-1.7,3.8-3.8,3.8
			C95.4,295.9,93.7,294.2,93.7,292.1"/>
		<path fill="#FFFFFF" d="M118.7,305.1c-7.8-1.5-13.3-5.7-15.9-8.1c-0.3,0.3-0.5,0.5-0.8,0.8c0.6,2.2,2.9,7.7,12.4,10.1
			C116.3,307,117.7,306,118.7,305.1"/>
		<path fill="#FFFFFF" d="M92.1,296.9c-2.5,2.3-8.1,6.6-15.9,8.1c1.1,0.9,2.5,1.9,4.3,2.8c9.5-2.4,11.9-7.9,12.4-10.1
			C92.7,297.5,92.4,297.2,92.1,296.9"/>
		<path d="M194,195.2c0.1-0.6-0.1-1.1-0.6-1.5c-0.3-0.3-0.7-0.4-1.2-0.4c0.3-0.7,0.6-1.4,0.9-2.2c1.2-3.3,1.8-7.1,1.9-11.2
			c0-0.6-0.3-1.1-0.7-1.4c-0.3-0.2-0.7-0.3-1.1-0.3c0.2-0.7,0.5-1.4,0.7-2.1c0.9-3.4,1.1-7.2,0.8-11.3c0-0.6-0.4-1-0.9-1.3
			c-0.4-0.2-0.8-0.2-1.2-0.2c0.2-0.8,0.4-1.6,0.5-2.5c0.5-3.4,0.4-7.3-0.4-11.4c-0.1-0.5-0.5-1-1-1.2c-0.3-0.1-0.6-0.2-0.9-0.1
			c0.1-0.6,0.2-1.2,0.3-1.8c0.4-3.5,0.1-7.3-0.9-11.3c-0.1-0.5-0.5-1-1-1.2c-0.5-0.2-1.1-0.1-1.5,0.2h0c0.1-0.9,0.1-1.8,0.1-2.8
			c-0.1-3.5-0.9-7.2-2.4-11.1c-0.2-0.5-0.6-0.9-1.2-1c-0.4-0.1-0.9,0-1.3,0.2c0-0.8-0.1-1.7-0.2-2.5c-0.5-3.5-1.7-7.1-3.6-10.8
			c-0.3-0.5-0.7-0.8-1.3-0.9c-0.5,0-0.9,0.1-1.2,0.4c-0.1-0.8-0.3-1.6-0.5-2.3c-0.9-3.4-2.5-6.9-4.8-10.3c-0.3-0.5-0.8-0.7-1.4-0.7
			c-0.5,0-1,0.3-1.4,0.7c-0.3-0.9-0.6-1.8-1-2.7c-1.4-3.2-3.6-6.4-6.4-9.4c-0.4-0.4-1-0.6-1.6-0.5c-0.4,0.1-0.8,0.3-1,0.7
			c-0.4-0.9-0.9-1.8-1.5-2.7c-1.9-2.9-4.5-5.7-7.7-8.2c-0.4-0.3-1-0.4-1.5-0.3c-0.4,0.1-0.8,0.5-1,0.8c-2.1-2.9-5.2-5-9.1-6.4
			c0.7,0.1,1.4,0.1,2.1,0.2c4.6,0.3,7.8-0.7,7.9-0.7c1-0.3,1.6-1.3,1.5-2.3c-0.1-1-1-1.8-2-1.8c-5-0.2-6.9-1.3-9.3-2.6
			c-0.5-0.2-0.9-0.5-1.4-0.8l11.7-1.8c1-0.2,1.8-1,1.8-2.1c0-1-0.8-1.9-1.8-2.1l-11.6-1.7c1.3-0.4,2.9-0.8,4.5-1.4
			c4.3-1.5,6.9-3.6,7.1-3.7c0.8-0.7,1-1.8,0.5-2.6c-0.5-0.9-1.6-1.3-2.5-0.9c-4.7,1.7-6.8,1.5-9.5,1.2c-0.5-0.1-1-0.1-1.6-0.2
			l10.1-6.1c0.9-0.5,1.3-1.6,0.9-2.6c-0.4-1-1.4-1.5-2.5-1.2l-11.4,2.9c1.1-0.9,2.4-1.9,3.7-3c3.4-3,5-6,5.1-6.1
			c0.5-0.9,0.2-2-0.6-2.6c-0.8-0.6-1.9-0.6-2.7,0.1c-3.7,3.4-5.8,4-8.3,4.7c-0.5,0.1-1,0.3-1.5,0.5l7-9.5c0.6-0.8,0.5-2-0.2-2.7
			c-0.7-0.7-1.9-0.8-2.7-0.2l-9.5,7.1c0.7-1.2,1.5-2.7,2.3-4.2c2-4.1,2.3-7.5,2.3-7.6c0.1-1-0.6-2-1.5-2.2c-1-0.3-2,0.2-2.4,1.1
			c-2.1,4.5-3.8,5.9-5.9,7.6c-0.4,0.3-0.8,0.6-1.2,1l2.9-11.4c0.3-1-0.3-2-1.2-2.4c-1-0.4-2.1,0-2.6,0.9l-6.1,10.2
			c0.2-1.4,0.4-3.1,0.5-4.8c0.3-4.6-0.7-7.8-0.8-7.9c-0.3-1-1.3-1.6-2.3-1.5c-1,0.1-1.8,1-1.8,2c-0.2,5-1.2,6.9-2.5,9.3
			c-0.2,0.4-0.5,0.9-0.7,1.3L99.5,1.8c-0.2-1-1-1.8-2.1-1.8c-1,0-1.9,0.8-2.1,1.8l-1.6,11.6c-0.4-1.3-0.8-2.9-1.4-4.5
			c-1.5-4.3-3.6-6.9-3.7-7.1c-0.6-0.8-1.8-1-2.6-0.5c-0.9,0.5-1.3,1.6-0.9,2.5c1.7,4.7,1.5,6.8,1.2,9.5c-0.1,0.5-0.1,1.1-0.2,1.6
			L80,4.9C79.5,4,78.3,3.6,77.4,4c-1,0.4-1.5,1.4-1.2,2.5l2.9,11.4c-0.8-1.1-1.9-2.4-3-3.6c-3-3.4-6-5-6.1-5.1
			c-0.9-0.5-2-0.2-2.6,0.6c-0.6,0.8-0.6,1.9,0.1,2.7c3.4,3.7,4,5.8,4.7,8.4c0.2,0.5,0.3,1,0.5,1.5l-9.5-7.1c-0.8-0.6-2-0.5-2.7,0.2
			c-0.7,0.7-0.8,1.9-0.2,2.7l7.1,9.4c-1.2-0.7-2.6-1.5-4.2-2.2c-4.1-2-7.5-2.3-7.6-2.4c-1-0.1-2,0.6-2.2,1.5c-0.3,1,0.2,2,1.1,2.4
			c4.5,2.1,5.9,3.8,7.6,5.9c0.3,0.4,0.6,0.8,1,1.2l-11.5-2.9c-1-0.3-2,0.3-2.4,1.2c-0.4,1,0,2.1,0.9,2.6l10.2,6
			c-1.4-0.2-3-0.4-4.8-0.5c-4.6-0.3-7.8,0.7-7.9,0.7c-1,0.3-1.6,1.3-1.5,2.3c0.1,1,1,1.8,2,1.8c5,0.2,6.9,1.2,9.3,2.5
			c0.4,0.2,0.9,0.5,1.4,0.7l-11.7,1.7c-1,0.1-1.8,1-1.8,2.1c0,1,0.8,1.9,1.8,2.1l11.8,1.7c-1.4,0.4-3,0.8-4.6,1.4
			c-4.3,1.5-6.9,3.6-7,3.7c-0.8,0.7-1,1.8-0.5,2.6C46.9,65,48,65.3,49,65c2.7-1,4.6-1.3,6.2-1.4c-2.5,2.2-4.3,4-5.2,5.1
			c-0.5,0.6-0.9,1.2-1.3,1.8c-0.2-0.3-0.5-0.6-0.9-0.7c-0.5-0.2-1.1-0.1-1.6,0.3c-3.3,2.6-6,5.4-7.9,8.3c-0.6,0.9-1.1,1.7-1.5,2.6
			c-0.2-0.4-0.6-0.6-1.1-0.7c-0.5-0.1-1.1,0.1-1.5,0.5c-2.9,3.1-5,6.2-6.4,9.4c-0.4,0.8-0.7,1.7-1,2.6c-0.3-0.3-0.7-0.4-1.1-0.5
			c-0.5,0-1.1,0.2-1.4,0.7c-2.5,3.4-4.2,6.8-5.3,10.1c-0.3,0.9-0.5,1.8-0.6,2.6c-0.4-0.4-0.9-0.6-1.4-0.5c-0.6,0.1-1,0.4-1.3,0.9
			c-1.9,3.7-3.2,7.3-3.7,10.8c-0.1,0.9-0.2,1.7-0.2,2.6c-0.4-0.3-0.9-0.4-1.4-0.3c-0.5,0.1-1,0.5-1.2,1C7.8,124,7,127.8,7,131.3
			c0,0.9,0,1.7,0.1,2.5c-0.4-0.2-0.9-0.3-1.4-0.1c-0.5,0.2-0.9,0.6-1,1.2c-1,4.1-1.3,7.9-0.9,11.3c0.1,0.7,0.2,1.3,0.3,1.9
			c-0.2,0-0.5,0-0.7,0.1c-0.5,0.2-0.9,0.7-1,1.2c-0.8,4.1-0.9,7.9-0.4,11.4c0.1,0.9,0.3,1.8,0.5,2.6c-0.2,0-0.5,0.1-0.7,0.2
			c-0.5,0.2-0.8,0.7-0.9,1.3c-0.5,4.1-0.4,8,0.4,11.4c0.2,0.7,0.4,1.5,0.6,2.2c-0.4,0-0.8,0-1.1,0.2C0.3,179,0,179.5,0,180.1
			c-0.1,4.2,0.5,8,1.6,11.3c0.3,1,0.7,1.9,1.1,2.8c-0.1,0-0.2-0.1-0.2-0.1c-0.5-0.1-1.1,0-1.5,0.4c-0.4,0.4-0.6,0.9-0.5,1.5
			c0.7,4.1,1.8,7.8,3.5,10.8c0.3,0.6,0.7,1.2,1,1.7c-0.3,0.1-0.6,0.2-0.8,0.5c-0.4,0.4-0.5,1-0.4,1.5c1,4.1,2.4,7.6,4.3,10.5
			c0.4,0.7,0.9,1.4,1.4,2c-0.4,0.1-0.8,0.3-1.1,0.7c-0.3,0.4-0.4,1-0.2,1.6c1.4,3.9,3.3,7.3,5.5,10c0.5,0.6,1,1.2,1.5,1.7
			c-0.4,0.1-0.7,0.4-1,0.8c-0.3,0.5-0.3,1.1,0,1.6c1.9,3.7,4.1,6.9,6.6,9.3c0.5,0.5,1.1,1,1.6,1.5c-0.4,0.2-0.7,0.5-0.8,0.8
			c-0.2,0.5-0.2,1.1,0.1,1.6c2.3,3.5,4.8,6.4,7.6,8.5c0.8,0.7,1.7,1.2,2.6,1.8c-0.2,0.1-0.3,0.1-0.3,0.1c-0.5,0.2-0.9,0.6-1.1,1.2
			c-0.1,0.6,0,1.1,0.4,1.5c2.9,3,5.8,5.4,8.8,7.1c2.4,1.4,4.9,2.3,7.3,2.8c2.1,0.4,4.2,0.4,5.9,0.1c0.1,0,0.2,0,0.3-0.1
			c5.2,3.6,10.6,6.7,16.2,9c4.7,2,9.5,3.5,14.4,4.5c1,0.2,2,0.4,2.9,0.6c-2-0.7-4.1-1.9-5.5-3.6c-0.2-0.3-0.5-0.6-0.7-0.9
			c-3.3-0.9-6.6-2-9.9-3.4c-5.4-2.3-10.6-5.2-15.5-8.6c0-0.1,0-0.2,0-0.2c0.1-1.7-0.1-3.4-0.5-5c3.6,2.9,6.7,5.2,10.2,7.1
			c4.7,2.6,9.6,4.7,14.6,6.1c0-0.3,0-0.6,0.1-0.9c0.1-0.9,0.3-1.6,0.7-2.3c-4.6-1.4-9.2-3.3-13.6-5.7c-9.5-5.3-18-12.9-25.3-22.5
			c-2.6-3.4-4.9-6.9-7.1-10.7c5.6-2.5,18.2-8.1,29.2-13.8c0.1,0.5,0.2,1,0.4,1.4c1,2.2,3.4,3,5.3,3.3c0.6,0.1,1.2,0.1,1.8,0.2
			c0.7,1.8,2.3,3.1,4.5,3.8c0.9,0.3,1.7,0.4,2.4,0.5c0.4,1,1,1.8,1.9,2.4c2.1,1.5,5.2,1.3,6.9,1c1,1.2,2.2,2,3.7,2.2
			c0.4,0.1,0.9,0.1,1.4,0.1c1.2,0,2.3-0.3,3.3-0.6v19.6c0,1.4,1.2,2.6,2.6,2.6c1.4,0,2.6-1.2,2.6-2.6v-20.5c2.6,0.5,4.7,0.1,6.2-0.5
			c1.2-0.5,2.1-1.1,2.7-1.5c2.5,0.4,4.8-0.2,6.6-2c0.6-0.6,1.1-1.3,1.4-1.8c3.5,0.2,5.6-1.3,6.7-2.6c0.6-0.7,1-1.4,1.3-2
			c2.1-0.1,3.9-0.8,5.2-2c0.6-0.6,1.1-1.3,1.4-2c8.9,6.9,22.7,13,28.9,15.5c-2.1,3.5-4.3,6.9-6.7,10c-7.3,9.7-15.9,17.2-25.3,22.5
			c-4.4,2.5-9,4.4-13.6,5.7c0.4,0.7,0.6,1.5,0.7,2.3c0,0.3,0,0.6,0.1,0.9c5-1.4,9.9-3.5,14.6-6.1c3.7-2.1,7.1-4.7,10.3-7.2
			c-0.5,1.7-0.7,3.4-0.6,5.1c0,0.1,0,0.2,0,0.2c-1.5,1.2-5.5,4.1-11.4,6.9c-4.4,2.2-9,3.9-13.6,5.1c-0.2,0.1-0.4,0.1-0.6,0.2
			c-0.2,0.3-0.4,0.5-0.6,0.8c-1.4,1.8-3.6,2.9-5.6,3.6c2.6-0.4,5.1-0.9,7.6-1.6c4.8-1.3,9.6-3.1,14.2-5.3c6.2-3,10.3-6,11.9-7.3
			c0.1,0,0.2,0.1,0.2,0.1c1.7,0.3,3.8,0.3,5.9-0.1c2.4-0.5,4.8-1.4,7.3-2.8c3-1.7,5.9-4.1,8.8-7.1c0.4-0.4,0.6-1,0.4-1.5
			c-0.1-0.5-0.5-1-1.1-1.2c0,0-0.1,0-0.3-0.1c0.9-0.5,1.8-1.1,2.6-1.8c2.8-2.2,5.3-5,7.6-8.5c0.3-0.5,0.3-1.1,0.1-1.6
			c-0.2-0.4-0.5-0.7-0.8-0.8c0.6-0.5,1.1-0.9,1.7-1.5c2.5-2.4,4.8-5.6,6.6-9.3c0.3-0.5,0.2-1.1,0-1.6c-0.3-0.4-0.7-0.7-1.2-0.8
			c0.6-0.6,1.1-1.2,1.7-1.8c2.2-2.7,4.1-6.1,5.5-10c0.2-0.5,0.1-1.1-0.2-1.5c-0.3-0.4-0.8-0.7-1.3-0.7c0.5-0.6,0.9-1.2,1.4-1.9
			c1.9-2.9,3.4-6.4,4.5-10.5c0.1-0.5,0-1.1-0.4-1.5c-0.3-0.4-0.8-0.6-1.3-0.5c0.5-0.7,0.9-1.5,1.3-2.2
			C192.4,203,193.4,199.3,194,195.2 M192,182.2C192,182.2,192,182.3,192,182.2c-0.2,2.9-0.7,5.5-1.5,7.8c-0.8,2.3-2,4.4-3.4,6.1
			c-1.7,2-3.4,3.1-4.1,3.4l0,0c0,0-0.1,0-0.1,0c-2.3-3.1-3.4-6.9-3.3-11.3c0-1.4,0.2-2.8,0.5-4.3c0,0,0-0.1,0.1-0.1c0,0,0.1,0,0.1,0
			c2,2.5,3.2,5.8,3.2,5.8c0.2,0.5,0.6,0.8,1.1,0.8c0.5,0,1-0.2,1.2-0.7C187.4,185.9,190.1,183.5,192,182.2
			C191.9,182.2,192,182.2,192,182.2 M191.7,167.4C191.7,167.4,191.8,167.4,191.7,167.4c0.1,0,0.1,0,0.1,0.1c0.1,2.9-0.2,5.5-0.8,7.9
			c-0.6,2.4-1.6,4.5-2.8,6.4c-1.5,2.1-3.1,3.4-3.8,3.8c0,0,0,0,0,0s-0.1,0-0.1,0c-4-4.6-4.4-11.3-4.3-15c0,0,0-0.1,0.1-0.1
			c0,0,0.1,0,0.1,0c2.2,2.4,3.6,5.3,3.6,5.3c0.2,0.4,0.7,0.7,1.2,0.7c0.5,0,0.9-0.3,1.1-0.8C187.6,171.5,190,168.9,191.7,167.4
			 M190.1,152.3C190.1,152.3,190.1,152.3,190.1,152.3c0.1,0,0.1,0,0.1,0c0.4,2.8,0.4,5.5,0,7.9c-0.4,2.4-1.1,4.7-2.2,6.6
			c-1.3,2.3-2.8,3.7-3.4,4.2c0,0,0,0,0,0s-0.1,0-0.1,0c-4-3.3-5.2-10.5-5.6-14.4c0,0,0-0.1,0-0.1c0,0,0.1,0,0.1,0
			c2.3,2.1,4,4.8,4,4.8c0.3,0.4,0.7,0.6,1.2,0.6c0.5-0.1,0.9-0.4,1-0.9C186.4,156.8,188.5,154,190.1,152.3 M187.7,138
			C187.7,138,187.8,138,187.7,138c0.1,0,0.1,0,0.2,0c0.5,2.8,0.6,5.5,0.4,7.9c-0.2,2.5-0.9,4.7-1.9,6.7c-1.2,2.3-2.6,3.8-3.2,4.3
			c0,0,0,0,0,0c0,0-0.1,0-0.1,0c-3.4-2.8-4.9-7-5.7-10c-0.3-1.4-0.6-2.8-0.7-4.2c0,0,0-0.1,0-0.1c0,0,0.1,0,0.1,0
			c2.5,2,4.4,4.7,4.4,4.7c0.3,0.4,0.8,0.6,1.3,0.5c0.5-0.1,0.9-0.5,1-1C184.3,142.7,186.2,139.7,187.7,138 M73.4,138.9
			c0-0.2,0.1-0.4,0.1-0.6c2-9.9,5.8-16.6,8.7-20.5c2.2-2.9,4.1-4.8,5.1-5.6c0.3-0.2,0.6-0.5,0.9-0.7c0.9-0.8,1.1-2.2,0.3-3.2
			c-0.8-1-2.2-1.2-3.2-0.5c-0.1,0.1-0.4,0.3-1,0.8c-2.2,1.5-3.4,1-3.8,0.8c-0.7-0.4-1-1.3-0.8-2.5c0.4-2.1,2.8-5,3.7-5.9
			c0,0,0.1-0.1,0.1-0.1c4.8-5.7,12.5-5.8,12.6-5.8c0.1,0,0.1,0,0.2,0c0,0,2.4-0.2,5.4,0.8c4.1,1.4,7.3,4.2,9.5,8.4
			c3,5.9,5.3,11.9,7,18.2c-4.3-1.5-7.7-4.3-7.7-4.3c-1-0.8-2.5-0.7-3.3,0.3c-0.4,0.5-0.6,1.1-0.5,1.7c0.1,0.6,0.4,1.2,0.8,1.6
			c0.2,0.2,5.5,4.5,12,6c0.5,2.2,0.9,4.4,1.3,7.1c-2.1-1.1-4.5-1.7-6.5-2.2c-1.4-0.4-2.6-0.7-3.6-1.1c-4.4-1.8-8.1-4.7-8.2-4.7
			c-1-0.8-2.5-0.6-3.3,0.4c-0.8,1-0.6,2.5,0.4,3.3c0.2,0.1,4.3,3.4,9.4,5.4c1.3,0.5,2.7,0.9,4.2,1.3c5.6,1.5,8.1,2.6,8.2,5.4
			c-0.2,0.4-0.4,0.8-0.7,1.1c-1.8,1.9-5.7,2.1-7,2c-0.1,0-0.1,0-0.2,0h-5.3c-1,0-6.4-0.2-11-3.2C85.4,134.9,80,136.1,73.4,138.9
			 M93.6,145.7h-16c-1.6,0-2.8-0.4-3.4-1.2c-0.1-0.2-0.3-0.4-0.4-0.6C80.5,140.8,84,139.8,93.6,145.7 M100.1,174.6v-24.4h13.4
			c0.1,0,0.4,0,0.7,0c0.7,0,1.8,0,3.1-0.2c3-0.5,5.2-1.6,6.8-3.3c0.6-0.7,1.3-1.7,1.7-3c0-0.1,0.1-0.2,0.1-0.4
			c0.3-1.2,0.4-2.6,0.2-4.3l-0.1-0.5c-1.4-9.7-3.2-21.7-10.7-36.3C109.1,90,97.4,90.5,96.1,90.6c-1.1,0-9.9,0.4-15.9,7.4
			c-0.6,0.7-4.2,4.5-4.8,8.2c-0.5,3.1,0.6,5.8,3,7.2c0.4,0.2,0.8,0.4,1.2,0.5c-3.7,4.7-8.3,12.3-10.5,23.6c-0.4,1.9-0.5,3.7-0.2,5.2
			c0,0.1,0,0.3,0.1,0.4c0.3,1.7,0.9,3.1,1.8,4.3c1.1,1.3,3.1,2.9,6.9,2.9h17.3v24.4v14.9c-4.5-0.1-8,1.6-12.3,4.6
			c-6.1,4.1-26.7,8.1-61.2,12.1c-2.4-10.2-3.7-20.8-3.7-31.6c0-14.3,2.1-28.2,6.3-41.2c4-12.6,9.8-23.9,17.2-33.6
			c7.3-9.7,15.9-17.2,25.3-22.5c9.8-5.4,20.2-8.2,30.9-8.2s21.1,2.8,30.9,8.2c9.5,5.3,18,12.9,25.3,22.5c7.4,9.7,13.1,21,17.2,33.6
			c4.2,13.1,6.3,26.9,6.3,41.2c0,11-1.3,21.8-3.8,32.1c-21-1.2-45.8-9-46.5-9.2c-1.8-0.6-3.4-1.2-4.8-1.7c-5.2-1.9-9-3.2-13.4-3
			c-0.3,0-0.5,0-0.8,0c-2.5-1.2-4.8-2.1-7.9-2.7V174.6z M132.7,64.3c-1.3,0.5-3.2,1.2-5.5,1.6c-1.4,0.3-2.8,0.4-4,0.4
			c-3,0-5.6-0.7-7.7-2.2c0,0,0,0,0-0.1c0,0,0-0.1,0-0.1c1-0.6,2.5-1.3,4.5-1.8c2.2-0.5,4.4-0.6,6.5-0.2c2.1,0.3,4.1,1.1,6.1,2.2
			C132.7,64.1,132.7,64.2,132.7,64.3C132.7,64.2,132.7,64.2,132.7,64.3 M135.7,72.8C135.7,72.8,135.7,72.8,135.7,72.8
			c0,0.1,0,0.1,0,0.1c-0.9,0.3-2.3,0.7-4,0.7c-0.2,0-0.4,0-0.6,0c-3.6,0-7.1-1.3-10.4-3.9c0,0,0-0.1,0-0.1c0,0,0-0.1,0.1-0.1
			c1.5-0.5,3-0.8,4.5-0.8C129.4,68.5,132.9,69.8,135.7,72.8 M119.2,59.5c-1.4,0.7-3.8,1.5-7.5,2c-0.5,0.1-0.9,0.4-1,0.9
			c-0.1,0.5,0.1,1,0.5,1.3c0,0,2.9,2,4.9,4.6c0,0,0,0.1,0,0.1c0,0,0,0-0.1,0h0c-3.4-0.1-9.9-1.1-14.5-6.6c0,0,0-0.1,0-0.1
			c0.7-0.7,2-1.7,4-2.4c3.7-1.4,8.4-1.4,13.7,0.1C119.2,59.4,119.2,59.4,119.2,59.5C119.2,59.5,119.2,59.5,119.2,59.5 M103.8,57
			c-1.2,1-3.4,2.3-7,3.4c-0.5,0.2-0.8,0.6-0.9,1.1c0,0.5,0.3,1,0.8,1.2c0,0,3.1,1.2,5.6,3.3c0,0,0,0.1,0,0.1c0,0,0,0.1-0.1,0.1
			c-0.9,0.1-1.9,0.1-3.1,0.1c-3.7,0-8.6-0.7-12.3-3.5c0,0,0-0.1,0-0.1c0.6-0.8,1.6-2,3.4-3.1c3.3-2.1,8-3,13.6-2.7
			C103.8,56.9,103.8,56.9,103.8,57C103.8,57,103.8,57,103.8,57 M87.9,57.3c-0.9,1.2-2.7,3.1-6.4,4.8c-0.5,0.2-0.7,0.7-0.7,1.3
			c0.1,0.5,0.5,0.9,1,1c0,0,3.3,0.6,6.1,2.1c0,0,0.1,0,0.1,0.1c0,0,0,0.1-0.1,0.1c-1.4,0.4-2.7,0.8-4.1,1c-1.2,0.2-2.7,0.4-4.3,0.4
			c-2.3,0-4.9-0.4-7.4-1.5c0,0-0.1-0.1,0-0.1c0.4-0.9,1.1-2.3,2.6-3.8c2.8-2.8,7.3-4.7,13-5.5C87.9,57.1,87.9,57.1,87.9,57.3
			C88,57.2,88,57.2,87.9,57.3 M67.6,67c-0.4,0.3-0.5,0.9-0.4,1.4c0.2,0.5,0.6,0.8,1.2,0.8h0c0,0,1.4,0,3.2,0.2
			c1.2,0.2,2.3,0.4,3.3,0.7c0,0,0.1,0,0.1,0.1c0,0,0,0.1,0,0.1c-1.3,0.7-2.6,1.2-3.9,1.7c-2.9,1-5.4,1.3-7.4,1.3
			c-1.8,0-3.3-0.3-4.4-0.6c0,0-0.1-0.1-0.1-0.1c0.5-2.6,2.9-9,14-12.8c0,0,0.1,0,0.1,0c0,0,0,0.1,0,0.1C72.4,61.6,70.9,64.2,67.6,67
			 M180.1,133c0.3-4.4,1.8-7.5,3-9.4c0,0,0.1,0,0.1,0c0,0,0.1,0,0.1,0.1c0.9,2.7,1.4,5.3,1.4,7.8c0.1,2.5-0.2,4.8-0.9,6.9
			c-0.8,2.5-2.1,4.1-2.5,4.7c0,0,0,0,0,0c0,0-0.1,0-0.1,0c-3.1-2-5.5-5.1-7.2-9.2c-0.5-1.3-0.9-2.6-1.2-4c0,0,0-0.1,0-0.1
			c0,0,0.1,0,0.1,0c2.8,1.7,5,4.1,5.1,4.1c0.3,0.4,0.8,0.5,1.3,0.3C179.8,133.9,180.1,133.5,180.1,133 M175.2,119.3
			c-0.2-4.4,1-7.7,2-9.7c0,0,0-0.1,0.1,0c0,0,0.1,0,0.1,0.1c1.2,2.6,1.9,5.2,2.3,7.6c0.3,2.4,0.3,4.8-0.2,7c-0.6,2.5-1.6,4.3-2,4.9
			c0,0,0,0,0,0c0,0-0.1,0-0.1,0c-3.3-1.6-6-4.5-8.1-8.4c-0.6-1.2-1.2-2.5-1.6-3.9c0,0,0-0.1,0-0.1c0,0,0.1,0,0.1,0
			c2.9,1.4,5.4,3.6,5.5,3.6c0.4,0.3,0.9,0.4,1.3,0.2C174.9,120.3,175.2,119.8,175.2,119.3 M168.3,107.7L168.3,107.7
			c0.4-0.3,0.7-0.8,0.6-1.3c-0.7-4.3,0.1-7.7,0.9-9.9c0,0,0-0.1,0.1-0.1c0,0,0.1,0,0.1,0c1.5,2.5,2.5,4.9,3.1,7.3
			c0.6,2.4,0.8,4.7,0.6,6.9c-0.3,2.6-1.1,4.4-1.4,5.1c0,0-0.1,0-0.1,0s-0.1,0-0.1,0c-3.7-1.3-6.8-3.8-9.3-7.5
			c-0.8-1.2-1.5-2.5-2-3.8c0,0,0-0.1,0-0.1c0,0,0.1,0,0.1,0c3.2,0.9,5.9,3.1,6,3.1C167.3,107.9,167.9,108,168.3,107.7 M159.1,95.9
			c0.4,0.3,1,0.3,1.4,0c0.4-0.3,0.6-0.9,0.4-1.4c-1.2-3.9-1-7.4-0.6-9.8c0,0,0-0.1,0.1-0.1c0,0,0.1,0,0.1,0c1.8,2.2,3.2,4.4,4.2,6.6
			c1,2.3,1.6,4.5,1.7,6.7c0.1,2.5-0.3,4.4-0.6,5.3c0,0,0,0.1-0.1,0.1h0c-3.6-0.7-7-2.7-10.1-6c-1-1.1-2-2.3-2.8-3.5c0,0,0-0.1,0-0.1
			c0,0,0.1,0,0.1,0C156.3,94,159,95.8,159.1,95.9 M149.8,85.3c0.5,0.2,1,0.1,1.4-0.3c0.3-0.4,0.4-0.9,0.2-1.4
			c-2-3.9-2.4-7.4-2.3-9.6c0,0,0-0.1,0-0.1c0,0,0.1,0,0.1,0c2.1,1.8,3.8,3.8,5.1,5.8c1.3,2.1,2.3,4.2,2.8,6.4
			c0.6,2.6,0.4,4.7,0.3,5.4c0,0,0,0.1,0,0.1h-0.2c-4.1,0-7.9-2.2-10.4-4.1c-1.2-0.9-2.4-2-3.6-3.2c0,0,0-0.1,0-0.1
			c0,0,0-0.1,0.1-0.1c0.2,0,0.3,0,0.5,0C146.9,84.2,149.8,85.3,149.8,85.3 M146.2,75.7c1,2.5,1.1,4.8,1.1,6c0,0,0,0.1-0.1,0.1
			c-0.2,0-0.4,0-0.7,0c-5.1,0-11-3.4-14.1-5.5c0,0,0-0.1,0-0.1c0,0,0-0.1,0.1-0.1c3.2-0.6,6.3,0.1,6.3,0.1c0.5,0.1,1-0.1,1.3-0.5
			c0.3-0.4,0.3-1-0.1-1.4c-2-2.5-3.2-5.4-3.9-7.4c0,0,0-0.1,0-0.1c0,0,0.1,0,0.1,0C141.2,68.5,144.5,71.5,146.2,75.7 M54.2,60.7
			c0.2-0.1,0.5-0.2,0.7-0.3c3-1,5.8-1.7,7.2-2.1c3.3-0.7,5.6-2.2,5.7-2.3c0.3-0.2,0.4-0.5,0.4-0.9c-0.1-0.3-0.4-0.6-0.7-0.7
			l-14.6-2.1l14.6-2.1c0.4-0.1,0.7-0.4,0.7-0.8c0-0.4-0.3-0.8-0.7-0.8c0,0-3.2-0.5-6.5-2c-1-0.4-1.8-0.9-2.6-1.3
			c-1.3-0.7-2.5-1.4-4.2-1.9c0.3,0,0.5,0,0.8,0c3.2,0.2,6.1,0.6,7.5,0.9c3.3,0.6,6,0.1,6.1,0.1c0.3-0.1,0.6-0.3,0.7-0.7
			c0.1-0.3-0.1-0.7-0.4-0.9l-12.7-7.5L70.7,39c0.4,0.1,0.8-0.1,1-0.5c0.2-0.4,0-0.8-0.3-1c0,0-2.7-1.7-5.2-4.3
			c-0.7-0.8-1.3-1.5-1.9-2.2c-0.9-1.1-1.8-2.2-3.1-3.4c0.2,0.1,0.5,0.2,0.7,0.3c2.9,1.4,5.3,2.9,6.6,3.7c2.9,1.8,5.5,2.4,5.6,2.5
			c0.3,0.1,0.7-0.1,0.9-0.4c0.2-0.3,0.2-0.7,0-1L66,21l11.9,8.8c0.3,0.2,0.8,0.2,1.1-0.1c0.3-0.3,0.3-0.8,0.1-1.1
			c-0.2-0.3-1.9-2.7-3.2-6c-0.4-1-0.6-1.9-0.9-2.7c-0.4-1.4-0.8-2.8-1.6-4.3c0.2,0.2,0.4,0.4,0.5,0.6c2.1,2.4,3.8,4.7,4.7,5.9
			c1.9,2.7,4,4.3,4.3,4.4c0.3,0.2,0.7,0.2,1,0c0.3-0.2,0.4-0.6,0.3-0.9l-3.7-14.3L88.1,24c0.2,0.4,0.7,0.5,1,0.3
			c0.4-0.2,0.6-0.6,0.5-1c0-0.1-0.8-3.2-0.6-6.7c0-1,0.1-2,0.2-2.9c0.2-1.5,0.3-2.9,0.2-4.6c0.1,0.2,0.2,0.5,0.3,0.7
			c1,3,1.7,5.8,2,7.3c0.7,3.2,2.1,5.5,2.2,5.7c0.2,0.3,0.5,0.4,0.9,0.4c0.3-0.1,0.6-0.4,0.7-0.7l2-14.5l2.1,14.5
			c0.1,0.4,0.4,0.7,0.8,0.7c0.4,0,0.8-0.3,0.8-0.7c0-0.1,0.5-3.2,2-6.5c0.4-1,0.9-1.8,1.3-2.6c0.7-1.3,1.4-2.5,1.9-4.2
			c0,0.3,0,0.5,0,0.8c-0.2,3.2-0.6,6-0.9,7.5c-0.6,3.3-0.1,6-0.1,6.1c0.1,0.3,0.3,0.6,0.7,0.7c0.3,0.1,0.7-0.1,0.9-0.4l7.6-12.7
			l-3.6,14.3c-0.1,0.4,0.1,0.8,0.5,1c0.4,0.2,0.8,0,1.1-0.3c0.2-0.3,1.8-2.8,4.3-5.2c0.7-0.7,1.5-1.3,2.2-1.9
			c1.1-0.9,2.2-1.8,3.4-3.1c-0.1,0.2-0.2,0.5-0.3,0.7c-1.4,2.8-2.9,5.3-3.7,6.6c-1.8,2.8-2.4,5.5-2.4,5.6c-0.1,0.3,0.1,0.7,0.4,0.9
			c0.3,0.2,0.7,0.2,1,0L129,21l-8.8,11.8c-0.2,0.3-0.2,0.8,0.1,1.1c0.3,0.3,0.8,0.3,1.1,0.1c0,0,2.6-1.9,6-3.2
			c1-0.4,1.9-0.6,2.7-0.9c1.4-0.4,2.8-0.8,4.3-1.6c-0.2,0.2-0.4,0.4-0.6,0.5c-2.4,2.1-4.7,3.8-5.9,4.7c-2.8,1.9-4.4,4.2-4.4,4.3
			c-0.2,0.3-0.2,0.7,0,1c0.2,0.3,0.6,0.4,0.9,0.3l14.3-3.6L126,43c-0.4,0.2-0.5,0.7-0.3,1c0.2,0.4,0.6,0.6,1,0.5
			c0.3-0.1,3.3-0.8,6.7-0.6c1.1,0,2,0.1,2.9,0.2c1.5,0.2,2.9,0.3,4.6,0.2c-0.2,0.1-0.5,0.2-0.7,0.3c-3,1-5.8,1.7-7.3,2
			c-3.3,0.7-5.6,2.2-5.7,2.2c-0.3,0.2-0.5,0.5-0.4,0.9c0.1,0.3,0.4,0.6,0.7,0.7l14.6,2.1l-14.6,2.2c-0.4,0.1-0.7,0.4-0.7,0.8
			c0,0.4,0.3,0.8,0.7,0.8c0.3,0.1,3.3,0.6,6.5,2c0.9,0.4,1.8,0.9,2.6,1.3c1.3,0.7,2.5,1.4,4.2,1.9c-0.3,0-0.5,0-0.8,0
			c-3.2-0.2-6-0.6-7.5-0.9l-0.4-0.1c-2.6-1.2-5.4-1.7-8.1-1.8c0,0,0,0,0-0.1c-0.1-0.6-0.5-1-1.1-1.2c-4-1.4-7.7-2.1-11.1-2.1
			c-1.2,0-2.4,0.1-3.6,0.2c0-0.2-0.1-0.3-0.1-0.4c-0.3-0.5-0.7-0.8-1.3-0.9c-4.2-0.6-8-0.5-11.3,0.2c-1.3,0.3-2.6,0.6-3.7,1.1
			c0-0.4-0.2-0.7-0.4-1C91,54.1,90.5,53.9,90,54c-4.2,0.3-7.9,1.2-11,2.5c-0.8,0.4-1.6,0.8-2.4,1.2c-0.1-0.4-0.3-0.8-0.6-1.1
			c-0.4-0.3-1-0.5-1.5-0.3c-4.1,1.1-7.6,2.7-10.4,4.7l-0.2,0.1c-0.8,0-1.5,0.1-2.3,0c-0.6,0-2.7-0.2-2.9-0.2
			C57.3,60.7,55.9,60.6,54.2,60.7 M58.1,65C58.2,64.9,58.2,64.9,58.1,65c0.1,0,0.1,0,0.1,0.1c-0.1,2.2-0.8,5.7-3.2,9.4
			c-0.3,0.4-0.3,1,0,1.4c0.3,0.4,0.8,0.6,1.3,0.5c0,0,3.2-0.6,6.4-0.4c0,0,0.1,0,0.1,0.1c0,0,0,0.1,0,0.1c-2.7,2.2-8.1,5.8-13.9,5.8
			c-0.2,0-0.4,0-0.6,0c0,0-0.1,0-0.1-0.1C48,79,48.7,71.8,58.1,65 M38.1,86.2c0.5-2.2,1.4-4.3,2.8-6.4c1.3-2.1,3.1-4.1,5.3-6
			c0,0,0.1,0,0.1,0c0,0,0.1,0,0.1,0.1c0.1,2.2-0.3,5.7-2.3,9.6c-0.2,0.5-0.2,1,0.2,1.4c0.3,0.4,0.9,0.5,1.3,0.4c0,0,3-1,6.2-1.1
			c0,0,0.1,0,0.1,0.1c0,0,0,0.1,0,0.1c-1.2,1.2-2.4,2.3-3.6,3.2c-2.5,1.9-6.2,4.2-9.8,4.2c-0.1,0-0.3,0-0.4,0c0,0-0.1,0-0.1-0.1
			C37.7,90.9,37.5,88.9,38.1,86.2 M34.8,84.5C34.8,84.5,34.9,84.5,34.8,84.5c0.1,0,0.1,0,0.1,0c0.4,2.2,0.7,5.7-0.7,9.9
			c-0.2,0.5,0,1.1,0.4,1.4c0.4,0.3,1,0.3,1.4,0c0,0,2.7-1.9,6.2-2.1c0,0,0.1,0,0.1,0c0,0,0,0.1,0,0.1c-2.2,3.1-6.9,8.5-12.8,9.5h0
			c0,0-0.1,0-0.1-0.1C28.5,100.7,27.3,93.5,34.8,84.5 M21.9,103.8c0.7-2.3,1.9-4.8,3.4-7.2c0,0,0.1,0,0.1,0c0,0,0.1,0,0.1,0.1
			c0.7,2.1,1.3,5.6,0.5,9.9c-0.1,0.5,0.1,1.1,0.6,1.3c0.5,0.3,1.1,0.2,1.5-0.2c0,0,2.5-2.5,6-2.9c0,0,0.1,0,0.1,0c0,0,0,0.1,0,0.1
			c-0.5,1-1.3,2.5-2.4,4c-2.6,3.6-5.8,6-9.4,7l0,0c0,0-0.1,0-0.1-0.1c-0.3-0.7-1.1-2.6-1.2-5.2C20.9,108.5,21.2,106.2,21.9,103.8
			 M15,117.1c0.4-2.4,1.1-5,2.3-7.6c0,0,0.1-0.1,0.1-0.1c0,0,0.1,0,0.1,0c1,2,2.2,5.3,2,9.7c0,0.5,0.2,1,0.7,1.2
			c0.4,0.2,1,0.1,1.4-0.2c0.1-0.1,2.7-2.3,5.8-3.7c0,0,0.1,0,0.1,0c0,0,0,0.1,0,0.1c-0.3,1.2-0.8,2.5-1.3,3.6
			c-1.9,3.8-4.8,6.7-8.8,8.7c0,0,0,0,0,0c0,0-0.1,0-0.1,0c-0.5-0.8-1.5-2.5-2-4.9C14.7,121.9,14.6,119.6,15,117.1 M11.2,123.4
			C11.2,123.4,11.3,123.3,11.2,123.4c0.1-0.1,0.1-0.1,0.2,0c1.3,1.9,2.8,5,3.2,9.4c0,0.5,0.4,0.9,0.9,1.1c0.5,0.2,1,0,1.3-0.4
			c0,0,2.2-2.6,5.3-4.4c0,0,0.1,0,0.1,0c0,0,0,0,0,0.1c-0.1,1.3-0.4,2.6-0.8,3.9c-1.4,4.1-3.9,7.4-7.6,9.7c0,0,0,0,0,0
			c0,0,0,0-0.1,0c-0.5-0.6-1.8-2.2-2.6-4.7c-0.7-2.1-1.1-4.4-1-6.9C9.9,128.8,10.4,126.1,11.2,123.4 M7,137.9
			C7,137.8,7,137.8,7,137.9c0.1-0.1,0.1-0.1,0.2,0c1.5,1.7,3.4,4.7,4.3,8.9c0.1,0.5,0.5,0.9,1,1c0.5,0.1,1-0.1,1.3-0.5
			c0.1-0.1,2-2.8,4.6-4.9c0,0,0.1,0,0.1,0c0,0,0,0,0,0.1c-0.1,1.3-0.2,2.6-0.5,3.9c-1,4.2-3,7.7-6.1,10.5c0,0,0,0,0,0
			c0,0-0.1,0-0.1,0c-0.7-0.6-2-2-3.1-4.3c-1-2-1.6-4.3-1.9-6.7C6.4,143.3,6.5,140.7,7,137.9 M4.8,152.4
			C4.8,152.3,4.8,152.3,4.8,152.4c0.1-0.1,0.1-0.1,0.1,0c1.6,1.6,3.7,4.5,4.7,8.7c0.1,0.5,0.6,0.9,1.1,0.9c0.5,0.1,1-0.2,1.2-0.7
			c0,0,1.4-2.9,3.8-5.1c0,0,0.1,0,0.1,0c0,0,0.1,0,0.1,0.1c0,1.5-0.1,2.9-0.4,4.4c-0.7,4.4-2.5,7.9-5.1,10.4c0,0,0,0,0,0
			s-0.1,0-0.1,0c-0.6-0.5-2.1-1.9-3.4-4.2c-1.1-1.9-1.8-4.2-2.2-6.6C4.4,157.9,4.4,155.2,4.8,152.4 M3.6,167.6
			C3.6,167.6,3.6,167.5,3.6,167.6c0.1-0.1,0.1-0.1,0.1-0.1c0.3,0.3,0.6,0.6,0.9,0.9c1.3,1.4,3.2,3.9,4.4,7.5
			c0.2,0.5,0.7,0.9,1.3,0.8c0.6,0,1-0.5,1.1-1c0,0,0.6-3.1,3.2-5.5c0,0,0.1,0,0.1,0c0,0,0.1,0,0.1,0.1c0.3,1.7,0.5,4.4,0,7.2
			c-0.6,3.4-2,6.2-4.2,8.4c0,0,0,0,0,0c0,0-0.1,0-0.1,0C8.1,184.3,2.8,179.2,3.6,167.6 M3,182.4C3,182.4,3,182.4,3,182.4
			c0.4,0.3,0.8,0.5,1.1,0.8c1.5,1.3,3.6,3.6,5.1,7c0.2,0.4,0.6,0.7,1.1,0.7h0c0.5,0,0.9-0.3,1.1-0.8c0,0,1.4-3.3,3.5-5.8
			c0,0,0.1,0,0.1,0c0,0,0.1,0,0.1,0.1c0.7,3.1,1.1,9.3-3.5,15.5c0,0,0,0,0,0s-0.1,0-0.1,0C9.1,198.6,3.4,194,3,182.4
			C2.9,182.5,2.9,182.4,3,182.4 M3.7,197.8C3.7,197.8,3.7,197.7,3.7,197.8c0.1-0.1,0.1-0.1,0.1-0.1c2,1,5,3,7.4,6.7
			c0.3,0.4,0.8,0.6,1.3,0.5c0.5-0.1,0.9-0.5,1-1l0.1,0l-0.1,0c0-0.1,0.8-3.6,2.5-6.5c0,0,0,0,0,0c0.1,0,0.1,0,0.1,0.1
			c0.6,1.3,1,2.6,1.3,3.9c0.9,4.2,0.2,8.3-2.1,12.1c0,0,0,0-0.1,0c0,0,0,0,0,0c-0.7-0.3-2.6-1.1-4.6-2.8c-1.7-1.5-3.1-3.3-4.3-5.5
			C5.3,203.1,4.4,200.6,3.7,197.8 M7.2,212.1C7.2,212.1,7.2,212,7.2,212.1c0.1-0.1,0.1-0.1,0.1-0.1c0.4,0.2,0.8,0.3,1.2,0.5
			c1.8,0.9,4.4,2.6,6.7,5.6c0.3,0.4,0.8,0.6,1.3,0.4c0.5-0.1,0.8-0.5,0.9-1c0,0,0.5-3.4,1.9-6.4c0,0,0,0,0,0h0c0,0,0.1,0,0.1,0.1
			c1.4,3.2,3.4,9.4,0.6,15.8c0,0,0,0.1-0.1,0.1l0,0C17.3,226.2,10.6,223.2,7.2,212.1 M15.8,233.2c-1.6-1.9-2.9-4.2-4.1-6.8
			c0,0,0-0.1,0-0.1c0,0,0.1,0,0.1,0c0.4,0.1,0.8,0.3,1.2,0.4c1.9,0.7,4.6,2.1,7.3,4.8c0.3,0.3,0.9,0.5,1.3,0.3
			c0.5-0.2,0.8-0.6,0.8-1.1c0,0,0.1-3.4,1.1-6.5c0,0,0-0.1,0.1-0.1c0,0,0.1,0,0.1,0c0.7,1.2,1.3,2.5,1.8,3.8
			c1.5,4.2,1.8,8.1,0.6,11.7c0,0,0,0.1-0.1,0.1h0c-0.8-0.1-2.8-0.6-5-1.9C19.2,236.7,17.4,235.2,15.8,233.2 M17.9,240
			C17.9,240,17.9,240,17.9,240c0-0.1,0.1-0.1,0.1-0.1c2.2,0.4,5.6,1.4,9.1,4.2c0.4,0.3,0.9,0.4,1.4,0.1c0.4-0.2,0.7-0.7,0.6-1.2
			c0-0.1-0.4-3.2,0.3-6.4c0,0,0-0.1,0.1-0.1c0,0,0.1,0,0.1,0c0.8,1.2,1.6,2.4,2.2,3.7c1.4,2.8,2.8,7,2.1,11.3c0,0,0,0.1-0.1,0.1h0
			c-1-0.1-2.9-0.3-5.2-1.3c-2-0.9-4-2.2-5.8-4C21,244.6,19.4,242.5,17.9,240 M46.3,264.7c0,0-1.2-3-1.5-6.3c0,0,0-0.1,0-0.1
			c0,0,0.1,0,0.1,0c2.9,2.4,7.7,7.4,7.4,14.1c0,0,0,0.1-0.1,0.1c-0.3,0.1-1,0.2-1.9,0.2c-0.8,0-1.8-0.1-2.9-0.3
			c-4.1-0.8-8.4-3.3-12.6-7.2c0,0,0-0.1,0-0.1c0,0,0-0.1,0.1-0.1c2.2-0.3,5.8-0.3,9.9,1.3c0.5,0.2,1,0.1,1.3-0.3
			C46.4,265.7,46.5,265.2,46.3,264.7 M35.1,255.9c0.4,0.3,1,0.3,1.4,0c0.4-0.3,0.6-0.8,0.5-1.3c0,0-0.8-3.1-0.4-6.3
			c0,0,0-0.1,0.1-0.1c0,0,0.1,0,0.1,0c2.3,2.8,6.2,8.5,5.9,14.5c0,0,0,0.1-0.1,0.1c-0.2,0-0.4,0-0.6,0c-1.1,0-2.7-0.1-4.7-0.8
			c-2.1-0.7-4.2-1.8-6.2-3.4c-1.9-1.5-3.8-3.5-5.5-5.8c0,0,0-0.1,0-0.1c0,0,0-0.1,0.1,0C27.9,252.8,31.4,253.5,35.1,255.9
			 M83.4,223.5c-0.4,0.3-0.8,0.5-1.1,0.8c-2.6,1.8-4.3,3.8-4.9,5.8c-0.3-0.1-0.7-0.2-1-0.2c-2-0.7-2.1-1.7-2.2-2.1
			c-0.1-1,0.5-2,2-3.4c1.8-1.7,3.3-2.6,4.6-2.6c0.5,0,0.9,0.1,1.3,0.3c0.6,0.3,1,0.7,1.2,1C83.4,223.2,83.4,223.4,83.4,223.5
			 M85.9,233.7c-0.8,0.1-3,0.4-4.1-0.4c-0.3-0.2-0.5-0.5-0.6-1.2c-0.2-1.7,2-3.5,3.4-4.5c2.1-1.5,3.5-2.3,4.7-2.3
			c0.6,0,1.1,0.2,1.6,0.7c0.4,0.4,0.6,0.7,0.6,1c0,0.5-0.7,1.4-1.4,1.9C88.1,230.3,86.7,231.9,85.9,233.7 M96.4,234
			c-0.8,0.6-3.5,2.3-5.4,1.9c-0.3-0.1-0.8-0.2-1.2-0.7c0.9-1.8,2.9-3.1,4.6-4.1c2.3-1.3,3.3-0.6,3.4-0.5c0.7,0.7,0.6,1,0.6,1.2
			c-0.1,0.8-1.3,1.8-1.8,2.2C96.5,233.9,96.4,234,96.4,234 M74.4,220.5c-0.3,0.3-0.6,0.5-1,0.9c-1.2,1.2-2.5,2.6-3,4.5
			c-0.3,0-0.6-0.1-0.9-0.1c-1.3-0.2-2.1-0.6-2.2-1c-0.1-0.2-0.3-0.8,0.4-1.8c1.1-1.5,3.6-2.7,5.3-2.7c0.2,0,0.3,0,0.5,0
			c0.1,0,0.1,0,0.2,0C73.8,220.4,74.1,220.4,74.4,220.5 M127.3,223.1c-0.6,0.6-1.5,0.9-2.7,0.9c-1.7-2.3-6.2-7.8-11.9-10.5
			c-0.5-0.2-1-0.3-1.6-0.1c-0.5,0.2-0.9,0.5-1.2,1c-0.2,0.5-0.3,1.1-0.1,1.6c0.2,0.5,0.5,0.9,1,1.2c4.8,2.3,8.8,7.2,10.3,9.3
			c-0.2,0.3-0.4,0.7-0.6,0.9c-0.8,0.9-1.9,1.3-3.4,1.3c-0.5-1.1-1.5-2.5-2.7-4c-1.7-2-5.3-4.5-5.4-4.6c-0.4-0.3-1-0.4-1.5-0.3
			c-0.5,0.1-1,0.4-1.3,0.8c-0.3,0.5-0.4,1-0.3,1.5c0.1,0.5,0.4,1,0.8,1.3c0.9,0.6,3.5,2.6,4.7,3.9c1.4,1.6,1.9,2.6,2.1,3
			c-0.2,0.4-0.5,0.9-0.9,1.3c-0.7,0.7-1.6,1-2.7,0.9c-0.5-1.2-1.7-3.3-3.8-5.7c-0.8-0.8-2.1-0.9-2.9-0.2c-0.4,0.4-0.7,0.9-0.7,1.4
			c0,0.5,0.2,1.1,0.5,1.5c1.4,1.6,2.3,3.1,2.8,4.1c-0.3,0.2-0.7,0.4-1.1,0.5c-1,0.4-2.1,0.6-3.3,0.4c0.5-0.8,0.8-1.6,0.9-2.5
			c0.1-1.1-0.1-2.8-1.8-4.5c-0.9-0.9-2.6-1.7-5-1.3c-0.2-1.3-0.8-2.4-2-3.4c-1.9-1.6-4-2.1-6.5-1.3h0c-0.4-0.9-1.2-2.2-3.1-3.1
			c-1.7-0.9-3.6-1-5.5-0.4c-1.7-1.4-3.9-1.7-4.5-1.7c-2.7-0.4-6.3,0.9-8.6,3.1c-11.8,6.3-26.8,13.1-33,15.8
			c-3.2-6.1-6-12.6-8.2-19.4c-0.6-1.9-1.2-3.8-1.7-5.7c17.3-2,31.1-4,41.3-6c10.6-2.1,17.5-4.3,21-6.6c4-2.8,6.8-4.2,10.7-3.9
			c0.9,0.1,1.7,0.2,2.5,0.3c-0.7,0.3-1.4,0.7-2.1,1.2c-1.6,1.1-2.6,2-3.5,2.7c-0.9,0.7-1.6,1.3-2.7,2c-0.8,0.5-1.8,1-2.8,1.5
			c-2.4,1.2-4.3,2.1-4.9,3.7c-0.7,1.8-0.4,3.3,0.8,5c1.8,2.6,4.8,2.4,7.2,2.3c2.7-0.2,6-1.1,8.4-2.5c0.9-0.5,1.6-1,2.3-1.4
			c1-0.7,1.9-1.3,2.6-1.4c0,0,0.1,0,0.1,0c2.1-0.6,4.4-0.3,7.2,0.7c2.5,1,4.9,2.5,7.2,3.9c5.4,3.5,9.4,8.2,10.6,9.7
			C128.2,221.7,127.9,222.5,127.3,223.1 M134.8,221.5c-1.8-1.2-3-2.5-3.6-3.2c0,0,0,0,0,0l-0.1-0.1c-0.2-0.2-0.3-0.3-0.3-0.4
			c-1.9-2.2-5.7-6.4-10.9-9.8c-3.8-2.5-10.8-7-17.7-5.2c-1.4,0.3-2.5,1.1-3.9,2c-0.7,0.4-1.3,0.9-2.1,1.3c-2.1,1.2-4.8,1.9-6.5,2
			c-1.9,0.1-3.2,0.1-3.7-0.6c-0.4-0.6-0.4-0.8-0.4-1c0.4-0.4,2-1.2,2.9-1.6c1.1-0.6,2.3-1.1,3.3-1.8c1.3-0.8,2.2-1.5,3.1-2.3
			c0.8-0.7,1.8-1.4,3.3-2.5c2-1.4,4.3-1.5,7.7-1.6h0.1c0.5,0,1.1,0,1.6,0c0.4,0,0.8,0,1.3,0c3.6-0.2,6.9,1,11.9,2.8
			c1.4,0.5,3.1,1.1,4.9,1.7c0.3,0.1,7,2.2,16.1,4.4c7.9,1.9,19.5,4.3,30.5,5c-0.5,1.8-1,3.5-1.6,5.2c-2.3,7.1-5.1,13.9-8.5,20.1
			C156.7,233.6,143.5,227.9,134.8,221.5 M160.3,265.2c-5.3,4.9-9.8,6.7-12.6,7.2c-1.1,0.2-2.1,0.3-2.9,0.3c-0.8,0-1.5-0.1-1.9-0.2
			c0,0-0.1,0-0.1-0.1c-0.2-3.8,1.3-7.4,4.3-10.9c0.9-1.1,2-2.1,3.2-3.1c0,0,0.1,0,0.1,0c0,0,0.1,0,0.1,0.1c-0.3,3.1-1.6,6.1-1.6,6.2
			c-0.2,0.5-0.1,1,0.2,1.3c0.4,0.4,0.9,0.5,1.3,0.3c4.1-1.6,7.7-1.6,9.9-1.3C160.3,265,160.3,265.1,160.3,265.2
			C160.3,265.1,160.3,265.2,160.3,265.2 M169.6,252.8c-1.7,2.3-3.5,4.2-5.5,5.8c-2,1.5-4,2.7-6.2,3.4c-2,0.6-3.7,0.8-4.7,0.8
			c-0.2,0-0.4,0-0.6,0c0,0-0.1,0-0.1-0.1c-0.3-3.6,0.8-7.4,3.3-11.2c0.8-1.2,1.6-2.3,2.6-3.4c0,0,0.1,0,0.1,0c0,0,0.1,0,0.1,0.1
			c0.3,3.2-0.3,6.4-0.4,6.5c-0.1,0.5,0.1,1,0.5,1.3c0.4,0.3,0.9,0.3,1.4,0c3.7-2.4,7.2-3,9.5-3.2
			C169.6,252.7,169.6,252.7,169.6,252.8C169.6,252.7,169.6,252.8,169.6,252.8 M172.4,246.3c-1.8,1.7-3.7,3.1-5.8,4
			c-2.4,1.1-4.5,1.3-5.2,1.3h0c0,0-0.1,0-0.1-0.1c-0.6-3.6,0.1-7.4,2.1-11.4c0.6-1.2,1.4-2.5,2.2-3.6c0,0,0,0,0.1,0
			c0,0,0.1,0,0.1,0.1c0.6,3.1,0.3,6.4,0.3,6.5c0,0.5,0.2,1,0.6,1.2c0.4,0.2,1,0.2,1.4-0.1c3.4-2.7,6.8-3.8,9.1-4.2c0,0,0.1,0,0.1,0
			c0,0,0,0.1,0,0.1C175.8,242.5,174.2,244.6,172.4,246.3 M179.3,233.1c-1.6,1.9-3.3,3.5-5.3,4.6c-2.2,1.3-4.1,1.7-5,1.9h0
			c0,0-0.1,0-0.1-0.1c-1.1-3.7-0.8-7.6,0.7-11.8c0.5-1.2,1-2.5,1.7-3.7c0,0,0.1,0,0.1,0c0,0,0.1,0,0.1,0.1c1,3.1,1.1,6.4,1.1,6.4
			c0,0.5,0.3,0.9,0.8,1.1c0.5,0.2,1,0,1.3-0.3c2.7-3,5.5-4.3,7.3-5c0.4-0.2,0.9-0.3,1.3-0.4c0,0,0.1,0,0.1,0c0,0,0,0.1,0,0.1
			C182.2,228.8,180.8,231.1,179.3,233.1 M184.5,219.2c-1.4,2.1-3,3.8-4.8,5.1c-2.1,1.6-4.1,2.2-4.8,2.4l0,0c0,0-0.1,0-0.1-0.1
			c-1.7-4.2-1.2-8.8-0.5-11.8c0.3-1.4,0.8-2.8,1.3-4.1c0,0,0-0.1,0-0.1h0c0,0,0.1,0,0.1,0.1c1.3,3,1.8,6.4,1.8,6.6
			c0.1,0.5,0.4,0.9,0.9,1c0.5,0.1,1,0,1.3-0.4c2.8-3.4,5.9-5.1,8-6c0,0,0.1,0,0.1,0c0,0,0,0.1,0,0.1
			C187,214.7,185.8,217.1,184.5,219.2 M188.3,204.7c-1.1,2.2-2.5,4.1-4.1,5.7c-1.8,1.7-3.6,2.6-4.5,3c0,0,0,0,0,0c0,0-0.1,0-0.1,0
			c-1.9-3.4-2.6-7.4-2-11.9c0.2-1.4,0.4-2.8,0.8-4.2c0,0,0-0.1,0.1-0.1c0,0,0.1,0,0.1,0c1.7,2.9,2.6,6.4,2.6,6.4
			c0.1,0.5,0.5,0.8,1,0.9c0.5,0.1,1-0.1,1.2-0.6c2.3-3.7,5.2-5.8,7.2-6.9c0,0,0.1,0,0.1,0c0,0,0,0.1,0,0.1
			C190.2,200,189.4,202.5,188.3,204.7"/>
		<path fill="#FFC20E" d="M123.9,58.8c2.7,0,5.4,0.6,8.1,1.8l0.4,0.1c1.4,0.3,4.3,0.7,7.5,0.9c0.3,0,0.5,0,0.8,0
			c-1.7-0.5-2.9-1.2-4.2-1.9c-0.8-0.4-1.6-0.9-2.6-1.3c-3.1-1.4-6.1-1.9-6.5-2c-0.4-0.1-0.7-0.4-0.7-0.8c0-0.4,0.3-0.8,0.7-0.8
			l14.6-2.2l-14.6-2.1c-0.3-0.1-0.6-0.3-0.7-0.7c-0.1-0.3,0.1-0.7,0.4-0.9c0.1-0.1,2.4-1.5,5.7-2.2c1.4-0.3,4.3-1,7.3-2
			c0.2-0.1,0.5-0.2,0.7-0.3c-1.7,0.1-3.1,0-4.6-0.2c-0.9-0.1-1.8-0.2-2.9-0.2c-3.4-0.1-6.4,0.6-6.7,0.6c-0.4,0.1-0.8-0.1-1-0.5
			c-0.2-0.4,0-0.8,0.3-1l12.7-7.6l-14.3,3.6c-0.3,0.1-0.7,0-0.9-0.3c-0.2-0.3-0.2-0.7,0-1c0.1-0.1,1.7-2.3,4.4-4.3
			c1.2-0.8,3.6-2.6,5.9-4.7c0.2-0.2,0.4-0.3,0.6-0.5c-1.5,0.8-2.9,1.2-4.3,1.6c-0.9,0.3-1.8,0.5-2.7,0.9c-3.4,1.3-5.9,3.2-6,3.2
			c-0.3,0.2-0.8,0.2-1.1-0.1c-0.3-0.3-0.3-0.8-0.1-1.1L129,21l-11.8,8.8c-0.3,0.2-0.7,0.2-1,0c-0.3-0.2-0.4-0.6-0.4-0.9
			c0-0.1,0.7-2.8,2.5-5.6c0.8-1.2,2.3-3.7,3.7-6.6c0.1-0.2,0.2-0.5,0.3-0.7c-1.1,1.3-2.2,2.2-3.4,3.1c-0.7,0.6-1.4,1.2-2.2,1.9
			c-2.5,2.4-4.1,4.9-4.3,5.2c-0.2,0.4-0.7,0.5-1,0.3c-0.4-0.2-0.6-0.6-0.5-1l3.6-14.3L107,24c-0.2,0.3-0.5,0.5-0.9,0.4
			c-0.3-0.1-0.6-0.3-0.7-0.7c0-0.1-0.5-2.8,0.1-6.1c0.2-1.4,0.7-4.3,0.9-7.5c0-0.3,0-0.5,0-0.8c-0.5,1.7-1.2,2.9-1.9,4.2
			c-0.4,0.8-0.9,1.6-1.3,2.6c-1.5,3.3-1.9,6.3-2,6.5c-0.1,0.4-0.4,0.7-0.8,0.7c-0.4,0-0.8-0.3-0.8-0.7L97.5,8l-2,14.5
			c-0.1,0.3-0.3,0.6-0.7,0.7c-0.3,0.1-0.7-0.1-0.9-0.4c-0.2-0.2-1.5-2.5-2.2-5.7c-0.3-1.4-1-4.3-2-7.3c-0.1-0.2-0.2-0.5-0.3-0.7
			c0.1,1.7,0,3.1-0.2,4.6c-0.1,0.9-0.2,1.8-0.2,2.9c-0.1,3.5,0.6,6.6,0.6,6.7c0.1,0.4-0.1,0.8-0.5,1c-0.4,0.2-0.8,0-1-0.3l-7.6-12.7
			l3.7,14.3c0.1,0.3,0,0.7-0.3,0.9c-0.3,0.2-0.7,0.2-1,0c-0.2-0.2-2.4-1.7-4.2-4.4c-0.8-1.2-2.6-3.6-4.7-5.9
			c-0.2-0.2-0.3-0.4-0.5-0.6c0.8,1.5,1.2,2.9,1.6,4.3c0.3,0.9,0.5,1.8,0.9,2.7c1.2,3.2,3,5.7,3.2,6c0.2,0.3,0.2,0.8-0.1,1.1
			c-0.3,0.3-0.8,0.3-1.1,0.1L66,21l8.8,11.8c0.2,0.3,0.2,0.7,0,1c-0.2,0.3-0.5,0.4-0.9,0.4c-0.1,0-2.8-0.6-5.6-2.5
			c-1.2-0.8-3.7-2.3-6.6-3.7c-0.2-0.1-0.5-0.2-0.7-0.3c1.3,1.1,2.2,2.2,3.1,3.4c0.6,0.7,1.2,1.4,1.9,2.2c2.5,2.6,5.2,4.3,5.2,4.3
			c0.4,0.2,0.5,0.7,0.3,1c-0.2,0.4-0.6,0.6-1,0.5l-14.3-3.6L69,43c0.3,0.2,0.5,0.5,0.4,0.9c-0.1,0.3-0.3,0.6-0.7,0.7
			c-0.1,0-2.8,0.5-6.1-0.1c-1.4-0.3-4.3-0.7-7.5-0.9c-0.3,0-0.5,0-0.8,0c1.7,0.5,2.9,1.2,4.2,1.9c0.7,0.4,1.6,0.9,2.6,1.3
			c3.3,1.5,6.4,2,6.5,2c0.4,0.1,0.7,0.4,0.7,0.8c0,0.4-0.3,0.8-0.7,0.8l-14.6,2.1l14.6,2.1c0.3,0.1,0.6,0.3,0.7,0.7
			c0.1,0.3-0.1,0.7-0.4,0.9c-0.1,0.1-2.4,1.5-5.7,2.2c-1.4,0.3-4.3,1-7.2,2.1c-0.2,0.1-0.5,0.2-0.7,0.3c1.7-0.2,3.1,0,4.6,0.2
			c0.2,0,2.3,0.2,2.9,0.2c0.7,0,1.5,0,2.3,0l0.2-0.1c2.8-2,6.3-3.5,10.4-4.7c0.5-0.1,1.1,0,1.5,0.3c0.3,0.3,0.6,0.7,0.6,1.1
			c0.7-0.4,1.5-0.8,2.4-1.2c3.1-1.3,6.8-2.2,11-2.5c0.5,0,1,0.2,1.4,0.5c0.3,0.3,0.4,0.6,0.4,1c1.2-0.5,2.4-0.8,3.7-1.1
			c3.3-0.7,7.1-0.7,11.3-0.2c0.6,0.1,1,0.4,1.3,0.9c0.1,0.1,0.1,0.3,0.1,0.4c1.1-0.2,2.3-0.3,3.6-0.2c3.4,0,7.1,0.7,11.1,2.1
			C123.4,57.7,123.8,58.1,123.9,58.8C123.9,58.7,123.9,58.7,123.9,58.8"/>
		<path d="M102.7,40.3c14.2-2.3,15.8,1.8,15.8,1.8s0.4,0.9,1.5,0.6c0,0,1-0.1,0.5-1.2c0,0-1.6-4.6-9.1-5.5c0,0-3.9-0.5-8.2,0.2
			c-1.3,0.2-1.6,3-1.6,3C101.4,40.6,102.7,40.3,102.7,40.3"/>
		<path d="M90.6,43c-1.7-0.8-5.7-0.6-5.7-0.6c-6.4,0.2-8.1,4.2-8.1,4.2c-0.6,1.3,0.6,1.5,0.6,1.5c1.3,0.3,1.8-0.7,1.8-0.7
			s0.4-1.1,3-1.8c-0.1,0.4-0.2,0.8-0.2,1.2c0,1.8,1.5,3.3,3.3,3.3c1.8,0,3.3-1.5,3.3-3.3c0-0.5-0.1-0.9-0.3-1.3
			c0.9,0.3,1.8,1,2.4,2.1c0.2,0.5,0.7,0.7,1.9,0.7c1.3,0,1-0.9,1-0.9C92.7,44,90.6,43,90.6,43"/>
		<path d="M102.4,48.3c1.2,0,1.7-0.2,1.9-0.7c0.6-1.1,1.4-1.8,2.4-2.1c-0.2,0.4-0.3,0.8-0.3,1.3c0,1.8,1.5,3.3,3.3,3.3
			c1.8,0,3.3-1.5,3.3-3.3c0-0.4-0.1-0.8-0.2-1.2c2.6,0.7,3,1.8,3,1.8s0.4,1.1,1.8,0.7c0,0,1.1-0.1,0.6-1.5c0,0-1.7-4-8.1-4.2
			c0,0-3.9-0.2-5.7,0.6c0,0-2.1,1-2.9,4.4C101.4,47.4,101.1,48.3,102.4,48.3"/>
		<path d="M74.9,42.8c1.1,0.3,1.5-0.6,1.5-0.6S78,38,92.2,40.3c0,0,1.3,0.3,1.1-1c0,0-0.4-2.8-1.6-3c-4.3-0.7-8.2-0.2-8.2-0.2
			c-7.6,0.8-9.1,5.4-9.1,5.4C73.9,42.7,74.9,42.8,74.9,42.8"/>
		<path fill="#2DA44A" d="M160.2,265c-2.3-0.3-5.8-0.3-9.9,1.3c-0.5,0.2-1,0.1-1.3-0.3c-0.3-0.4-0.5-0.9-0.3-1.3c0,0,1.2-3,1.6-6.2
			c0,0,0-0.1,0-0.1c0,0-0.1,0-0.1,0c-1.2,1-2.2,2-3.2,3.1c-3,3.5-4.4,7.2-4.3,10.9c0,0,0,0.1,0.1,0.1c0.4,0.1,1.1,0.2,1.9,0.2
			c0.8,0,1.8-0.1,2.9-0.3c2.9-0.6,7.4-2.3,12.6-7.2C160.3,265.2,160.3,265.1,160.2,265C160.3,265.1,160.3,265,160.2,265"/>
		<path fill="#2DA44A" d="M45,258.4C44.9,258.4,44.9,258.4,45,258.4c-0.1,0-0.1,0-0.1,0.1c0.3,3.3,1.5,6.2,1.5,6.3
			c0.2,0.5,0.1,1-0.3,1.3c-0.3,0.4-0.9,0.5-1.3,0.3c-4.1-1.6-7.7-1.6-9.9-1.3c0,0-0.1,0-0.1,0.1c0,0,0,0.1,0,0.1
			c4.2,4,8.5,6.4,12.6,7.2c1.1,0.2,2.1,0.3,2.9,0.3c0.9,0,1.6-0.1,1.9-0.2c0,0,0.1,0,0.1-0.1C52.6,265.8,47.8,260.8,45,258.4"/>
		<path fill="#2DA44A" d="M169.5,252.7c-2.3,0.2-5.8,0.8-9.5,3.2c-0.4,0.3-1,0.3-1.4,0c-0.4-0.3-0.6-0.8-0.5-1.3
			c0,0,0.7-3.2,0.3-6.5c0,0,0-0.1-0.1-0.1c0,0-0.1,0-0.1,0c-0.9,1.1-1.8,2.2-2.6,3.4c-2.4,3.8-3.5,7.5-3.3,11.1c0,0,0,0.1,0.1,0.1
			c0.2,0,0.4,0,0.6,0c1.1,0,2.8-0.1,4.7-0.8c2.1-0.7,4.2-1.8,6.2-3.4c1.9-1.5,3.8-3.5,5.5-5.8C169.6,252.8,169.6,252.7,169.5,252.7
			C169.6,252.7,169.6,252.7,169.5,252.7"/>
		<path fill="#2DA44A" d="M177.2,239.9c-2.3,0.4-5.7,1.4-9.1,4.2c-0.4,0.3-0.9,0.4-1.4,0.1c-0.4-0.2-0.7-0.7-0.6-1.2
			c0,0,0.3-3.3-0.3-6.5c0,0,0-0.1-0.1-0.1c0,0-0.1,0-0.1,0c-0.8,1.2-1.6,2.4-2.2,3.6c-2,4-2.7,7.8-2.1,11.4c0,0,0,0.1,0.1,0.1h0
			c0.8,0,2.8-0.2,5.2-1.3c2-0.9,4-2.2,5.8-4c1.8-1.7,3.4-3.8,4.8-6.3C177.3,240,177.3,240,177.2,239.9
			C177.2,239.9,177.2,239.9,177.2,239.9"/>
		<path fill="#2DA44A" d="M183.3,225.9c-0.4,0.1-0.9,0.2-1.3,0.4c-1.8,0.6-4.6,2-7.3,5c-0.3,0.4-0.9,0.5-1.3,0.3
			c-0.5-0.2-0.8-0.6-0.8-1.1c0,0-0.2-3.3-1.1-6.4c0,0,0-0.1-0.1-0.1c0,0-0.1,0-0.1,0c-0.7,1.2-1.2,2.4-1.7,3.7
			c-1.5,4.1-1.7,8.1-0.7,11.8c0,0,0,0.1,0.1,0.1l0,0c0.9-0.2,2.8-0.6,5-1.9c1.9-1.1,3.7-2.7,5.3-4.6c1.6-2,3-4.3,4.1-7
			C183.4,226,183.4,226,183.3,225.9C183.4,225.9,183.3,225.9,183.3,225.9"/>
		<path fill="#2DA44A" d="M187.7,211.9c-2.1,0.9-5.2,2.6-8,6c-0.3,0.4-0.8,0.5-1.3,0.4c-0.5-0.1-0.8-0.5-0.9-1
			c0-0.1-0.5-3.6-1.8-6.6c0,0,0-0.1-0.1-0.1c0,0-0.1,0-0.1,0.1c-0.5,1.4-1,2.7-1.3,4.1c-0.7,3.1-1.2,7.6,0.5,11.8c0,0,0,0.1,0.1,0.1
			c0,0,0,0,0,0c0.7-0.2,2.7-0.8,4.8-2.4c1.8-1.3,3.4-3,4.8-5.1c1.4-2,2.5-4.5,3.3-7.2C187.8,212,187.8,211.9,187.7,211.9
			C187.8,211.9,187.7,211.9,187.7,211.9"/>
		<path fill="#2DA44A" d="M190.6,197.1c-2,1.1-4.9,3.2-7.2,6.9c-0.3,0.4-0.8,0.6-1.2,0.6c-0.5-0.1-0.9-0.4-1-0.9
			c0,0-0.9-3.6-2.6-6.4c0,0,0,0-0.1,0c0,0-0.1,0-0.1,0.1c-0.4,1.4-0.7,2.8-0.8,4.2c-0.5,4.5,0.1,8.5,2,11.9c0,0,0,0,0.1,0
			c0,0,0,0,0,0c0.9-0.4,2.6-1.2,4.5-3c1.6-1.5,3-3.4,4.1-5.7c1.1-2.2,1.9-4.7,2.4-7.5C190.7,197.2,190.7,197.1,190.6,197.1
			C190.7,197.1,190.6,197.1,190.6,197.1"/>
		<path fill="#2DA44A" d="M185.5,189.9c-0.2,0.5-0.7,0.7-1.2,0.7c-0.5,0-0.9-0.4-1.1-0.8c0,0-1.2-3.3-3.2-5.9c0,0-0.1,0-0.1,0
			c0,0-0.1,0-0.1,0.1c-0.3,1.4-0.4,2.8-0.5,4.3c-0.1,4.4,1,8.2,3.3,11.3c0,0,0,0,0.1,0c0,0,0,0,0,0c0.7-0.4,2.4-1.4,4.1-3.4
			c1.5-1.7,2.6-3.7,3.5-6.1c0.8-2.3,1.4-4.9,1.6-7.8c0,0,0-0.1,0-0.1c0,0-0.1,0-0.1,0C190.1,183.5,187.4,185.9,185.5,189.9"/>
		<path fill="#2DA44A" d="M185,176.4c-0.5,0-1-0.2-1.2-0.7c0,0-1.5-2.9-3.6-5.3c0,0-0.1,0-0.1,0c0,0-0.1,0-0.1,0.1
			c-0.1,3.6,0.3,10.4,4.3,15c0,0,0,0,0,0s0.1,0,0.1,0c0.6-0.4,2.3-1.7,3.8-3.8c1.3-1.8,2.2-4,2.8-6.4c0.6-2.4,0.9-5,0.8-7.9
			c0,0,0-0.1-0.1-0.1c0,0-0.1,0-0.1,0c-1.7,1.5-4.1,4.1-5.6,8.2C186,176.1,185.5,176.4,185,176.4"/>
		<path fill="#2DA44A" d="M184.3,162c-0.5,0.1-1-0.1-1.2-0.6c0,0-1.7-2.7-4-4.8c0,0-0.1,0-0.1,0c0,0,0,0.1,0,0.1
			c0.4,4,1.6,11.1,5.6,14.4c0,0,0,0,0,0s0.1,0,0.1,0c0.6-0.5,2.1-1.9,3.4-4.2c1.1-1.9,1.8-4.2,2.2-6.6c0.4-2.4,0.4-5.1,0-7.9
			c0,0,0-0.1-0.1-0.1c0,0-0.1,0-0.1,0c-1.6,1.6-3.7,4.5-4.7,8.7C185.2,161.5,184.8,161.9,184.3,162"/>
		<path fill="#2DA44A" d="M182.4,147.9c-0.5,0.1-1-0.1-1.3-0.5c0,0-1.9-2.7-4.4-4.7c0,0-0.1,0-0.1,0c0,0,0,0.1,0,0.1
			c0.2,1.4,0.4,2.9,0.7,4.2c0.7,3,2.3,7.2,5.7,10c0,0,0,0,0.1,0c0,0,0,0,0.1,0c0.6-0.5,2-2,3.2-4.3c1-2,1.6-4.3,1.9-6.7
			c0.3-2.4,0.1-5.1-0.4-7.9c0,0,0-0.1-0.1-0.1c0,0-0.1,0-0.1,0c-1.5,1.7-3.4,4.7-4.3,8.9C183.3,147.4,182.9,147.8,182.4,147.9"/>
		<path fill="#2DA44A" d="M179.3,134c-0.5,0.2-1,0-1.3-0.3c0,0-2.3-2.5-5.1-4.1c0,0-0.1,0-0.1,0c0,0,0,0.1,0,0.1
			c0.3,1.4,0.7,2.7,1.2,4c1.6,4.2,4,7.3,7.2,9.2c0,0,0,0,0,0c0,0,0,0,0.1,0c0.5-0.6,1.7-2.2,2.5-4.7c0.7-2.1,1-4.4,0.9-6.9
			c-0.1-2.4-0.6-5.1-1.4-7.8c0,0,0-0.1-0.1-0.1c0,0-0.1,0-0.1,0c-1.2,1.9-2.8,5.1-3.1,9.5C180.1,133.5,179.8,133.9,179.3,134"/>
		<path fill="#2DA44A" d="M173.2,120.3c0,0-2.5-2.2-5.5-3.6c0,0-0.1,0-0.1,0c0,0,0,0.1,0,0.1c0.5,1.3,1,2.6,1.6,3.9
			c2.1,4,4.8,6.8,8.1,8.5c0,0,0,0,0,0c0,0,0.1,0,0.1,0c0.4-0.6,1.5-2.4,2.1-4.9c0.5-2.2,0.6-4.5,0.2-7c-0.3-2.4-1.1-5-2.3-7.6
			c0,0,0-0.1-0.1-0.1c0,0-0.1,0-0.1,0c-1,2-2.2,5.3-2.1,9.7c0,0.5-0.3,1-0.7,1.2C174.1,120.7,173.5,120.6,173.2,120.3"/>
		<path fill="#2DA44A" d="M160.9,104.5C160.9,104.6,160.9,104.6,160.9,104.5c0.6,1.4,1.2,2.7,2,3.9c2.4,3.7,5.5,6.2,9.3,7.5
			c0,0,0,0,0,0s0.1,0,0.1,0c0.3-0.7,1.2-2.5,1.5-5.1c0.2-2.2,0-4.5-0.6-6.9c-0.6-2.4-1.7-4.8-3.1-7.3c0,0,0,0-0.1,0
			c0,0-0.1,0-0.1,0.1c-0.8,2.1-1.6,5.5-0.9,9.9c0.1,0.5-0.2,1-0.6,1.3c-0.4,0.3-1,0.2-1.4-0.1C166.9,107.6,164.2,105.4,160.9,104.5
			C160.9,104.5,160.9,104.5,160.9,104.5"/>
		<path fill="#2DA44A" d="M152.7,93.7C152.7,93.8,152.7,93.8,152.7,93.7c0.9,1.4,1.8,2.6,2.8,3.6c3.1,3.3,6.5,5.3,10.1,6h0
			c0,0,0.1,0,0.1-0.1c0.3-0.9,0.8-2.8,0.6-5.3c-0.1-2.2-0.7-4.5-1.7-6.7c-1-2.2-2.4-4.4-4.2-6.6c0,0-0.1,0-0.1,0c0,0-0.1,0-0.1,0.1
			c-0.4,2.3-0.6,5.9,0.6,9.8c0.2,0.5,0,1.1-0.5,1.4c-0.4,0.3-1,0.3-1.4,0C159,95.8,156.3,94,152.7,93.7
			C152.8,93.7,152.8,93.7,152.7,93.7"/>
		<path fill="#2DA44A" d="M151.2,85c-0.3,0.4-0.9,0.5-1.4,0.3c0,0-2.9-1.1-6-1.1c-0.2,0-0.3,0-0.5,0c0,0-0.1,0-0.1,0.1
			c0,0,0,0.1,0,0.1c1.1,1.2,2.3,2.3,3.6,3.2c2.5,1.9,6.3,4.1,10.4,4.1h0.2c0,0,0.1,0,0.1-0.1c0.1-0.8,0.3-2.8-0.3-5.4
			c-0.5-2.2-1.5-4.3-2.8-6.4c-1.3-2-3.1-4-5.1-5.9c0,0-0.1,0-0.1,0c0,0,0,0-0.1,0.1c-0.1,2.3,0.3,5.7,2.3,9.6
			C151.6,84,151.6,84.6,151.2,85"/>
		<path fill="#2DA44A" d="M42,262.7c0.2,0,0.4,0,0.6,0c0,0,0.1,0,0.1-0.1c0.4-6-3.5-11.6-5.9-14.5c0,0-0.1,0-0.1,0
			c0,0-0.1,0-0.1,0.1c-0.4,3.3,0.4,6.3,0.4,6.3c0.1,0.5-0.1,1-0.5,1.3c-0.4,0.3-1,0.3-1.4,0c-3.7-2.4-7.2-3.1-9.5-3.2
			c0,0-0.1,0-0.1,0c0,0,0,0.1,0,0.1c1.7,2.3,3.5,4.2,5.5,5.8c2,1.5,4,2.7,6.2,3.4C39.2,262.6,40.9,262.7,42,262.7"/>
		<path fill="#2DA44A" d="M33.8,251.6L33.8,251.6C33.8,251.6,33.9,251.6,33.8,251.6c0.8-4.4-0.6-8.6-2-11.4
			c-0.6-1.2-1.3-2.5-2.2-3.7c0,0-0.1,0-0.1,0c0,0-0.1,0-0.1,0.1c-0.7,3.2-0.3,6.3-0.3,6.4c0.1,0.5-0.2,1-0.6,1.2
			c-0.4,0.2-1,0.2-1.4-0.1c-3.5-2.8-6.9-3.8-9.1-4.2c0,0-0.1,0-0.1,0c0,0,0,0.1,0,0.1c1.4,2.5,3.1,4.6,4.8,6.3
			c1.8,1.7,3.7,3.1,5.8,4C30.9,251.3,32.8,251.6,33.8,251.6"/>
		<path fill="#2DA44A" d="M26.1,239.8L26.1,239.8C26.2,239.8,26.2,239.8,26.1,239.8c1.2-3.7,1-7.6-0.5-11.8
			c-0.5-1.3-1.1-2.6-1.8-3.8c0,0,0,0-0.1,0c0,0-0.1,0-0.1,0.1c-1,3.1-1.1,6.4-1.1,6.5c0,0.5-0.3,0.9-0.8,1.1c-0.5,0.2-1,0.1-1.3-0.3
			c-2.7-2.7-5.5-4.1-7.3-4.8c-0.4-0.2-0.8-0.3-1.2-0.4c0,0-0.1,0-0.1,0c0,0,0,0.1,0,0.1c1.1,2.6,2.5,4.9,4.1,6.8
			c1.6,1.9,3.3,3.5,5.3,4.6C23.4,239.2,25.4,239.6,26.1,239.8"/>
		<path fill="#2DA44A" d="M20,227L20,227C20,227,20.1,227,20,227c3-6.4,1-12.7-0.5-15.8c0,0,0-0.1-0.1-0.1c0,0-0.1,0-0.1,0.1
			c-1.4,3-1.9,6.3-1.9,6.4c-0.1,0.5-0.4,0.9-0.9,1c-0.5,0.1-1,0-1.3-0.4c-2.3-3-4.9-4.7-6.7-5.6c-0.4-0.2-0.8-0.4-1.2-0.5
			c0,0-0.1,0-0.1,0c0,0,0,0.1,0,0.1C10.6,223.2,17.3,226.2,20,227"/>
		<path fill="#2DA44A" d="M10.7,210.8c2,1.7,3.9,2.6,4.6,2.8l0,0c0,0,0.1,0,0.1,0c2.3-3.9,3-7.9,2.1-12.1c-0.3-1.4-0.7-2.7-1.3-3.9
			c0,0,0,0-0.1,0c0,0-0.1,0-0.1,0c-1.7,2.9-2.5,6.3-2.5,6.5l0.1,0l-0.1,0c-0.1,0.5-0.5,0.9-1,0.9c-0.5,0.1-1-0.1-1.3-0.5
			c-2.5-3.7-5.4-5.7-7.4-6.7c0,0-0.1,0-0.1,0c0,0,0,0.1,0,0.1c0.6,2.8,1.5,5.3,2.7,7.4C7.6,207.4,9.1,209.3,10.7,210.8"/>
		<path fill="#2DA44A" d="M11.5,200L11.5,200c0,0,0.1,0,0.1,0c4.6-6.2,4.2-12.4,3.5-15.5c0,0,0-0.1-0.1-0.1c0,0-0.1,0-0.1,0
			c-2.2,2.6-3.5,5.8-3.5,5.8c-0.2,0.5-0.6,0.8-1.1,0.8h0c-0.5,0-0.9-0.3-1.1-0.7c-1.5-3.5-3.6-5.7-5.1-7c-0.3-0.3-0.7-0.6-1-0.8
			c0,0-0.1,0-0.1,0c0,0,0,0,0,0.1C3.4,194,9.1,198.6,11.5,200"/>
		<path fill="#2DA44A" d="M10.3,185.9C10.4,186,10.4,186,10.3,185.9c0.1,0,0.1,0,0.1,0c2.3-2.2,3.7-5,4.3-8.4c0.5-2.8,0.3-5.5,0-7.2
			c0,0,0-0.1-0.1-0.1c0,0-0.1,0-0.1,0c-2.6,2.4-3.1,5.5-3.2,5.5c-0.1,0.6-0.6,1-1.1,1c-0.6,0-1.1-0.3-1.3-0.8
			c-1.2-3.6-3-6.1-4.4-7.5c-0.3-0.3-0.6-0.6-0.9-0.9c0,0-0.1,0-0.1,0c0,0,0,0,0,0.1C2.8,179.2,8.1,184.3,10.3,185.9"/>
		<path fill="#2DA44A" d="M7,166.9c1.3,2.3,2.8,3.7,3.4,4.2c0,0,0,0,0,0s0.1,0,0.1,0c2.7-2.5,4.4-6,5.1-10.4
			c0.2-1.4,0.4-2.9,0.4-4.4c0,0,0-0.1,0-0.1c0,0-0.1,0-0.1,0c-2.5,2.2-3.8,5-3.8,5.1c-0.2,0.5-0.7,0.8-1.2,0.7
			c-0.5-0.1-0.9-0.4-1.1-0.9c-1.1-4.2-3.2-7.1-4.7-8.7c0,0-0.1,0-0.1,0c0,0-0.1,0-0.1,0.1c-0.4,2.8-0.4,5.5,0,7.9
			C5.2,162.7,5.9,164.9,7,166.9"/>
		<path fill="#2DA44A" d="M8.5,152.5c1.1,2.2,2.4,3.6,3.1,4.3c0,0,0,0,0.1,0c0,0,0,0,0.1,0c3.1-2.8,5.1-6.3,6.1-10.5
			c0.3-1.3,0.5-2.6,0.5-3.9c0,0,0-0.1,0-0.1c0,0-0.1,0-0.1,0c-2.6,2-4.5,4.7-4.6,4.9c-0.3,0.4-0.8,0.6-1.3,0.5c-0.5-0.1-0.9-0.5-1-1
			c-0.9-4.3-2.8-7.2-4.3-8.9c0,0-0.1,0-0.1,0c0,0-0.1,0-0.1,0.1c-0.5,2.8-0.6,5.5-0.4,7.9C6.8,148.2,7.5,150.5,8.5,152.5"/>
		<path fill="#2DA44A" d="M13.5,142.8C13.5,142.8,13.6,142.8,13.5,142.8c0.1,0,0.1,0,0.1,0c3.7-2.3,6.3-5.6,7.6-9.7
			c0.4-1.3,0.7-2.6,0.8-3.9c0,0,0-0.1,0-0.1c0,0-0.1,0-0.1,0c-3,1.7-5.2,4.3-5.3,4.4c-0.3,0.4-0.8,0.5-1.3,0.4
			c-0.5-0.2-0.8-0.6-0.9-1.1c-0.3-4.4-1.9-7.5-3.2-9.4c0,0-0.1,0-0.1,0c0,0-0.1,0-0.1,0.1c-0.8,2.7-1.3,5.4-1.3,7.8
			c-0.1,2.5,0.3,4.8,1,6.9C11.8,140.6,13,142.2,13.5,142.8"/>
		<path fill="#2DA44A" d="M17.1,129C17.1,129.1,17.2,129.1,17.1,129c0.1,0,0.1,0,0.1,0c4-2,6.9-4.9,8.8-8.7c0.6-1.2,1-2.4,1.3-3.6
			c0,0,0-0.1,0-0.1c0,0-0.1,0-0.1,0c-3,1.3-5.7,3.6-5.8,3.7c-0.4,0.3-0.9,0.4-1.3,0.2c-0.4-0.2-0.7-0.7-0.7-1.2
			c0.2-4.4-0.9-7.7-2-9.7c0,0,0,0-0.1,0c0,0-0.1,0-0.1,0.1c-1.2,2.6-2,5.2-2.3,7.6c-0.4,2.4-0.3,4.8,0.1,7
			C15.6,126.6,16.6,128.2,17.1,129"/>
		<path fill="#2DA44A" d="M22.3,115.9C22.3,116,22.3,116,22.3,115.9C22.4,116,22.4,116,22.3,115.9c3.7-1,6.8-3.4,9.5-7
			c1.1-1.6,1.9-3.1,2.4-4c0,0,0-0.1,0-0.1c0,0,0,0-0.1,0c-3.5,0.5-6,2.9-6,2.9c-0.4,0.4-1,0.5-1.5,0.2c-0.5-0.3-0.7-0.8-0.6-1.3
			c0.9-4.3,0.2-7.8-0.5-9.9c0,0,0-0.1-0.1-0.1c0,0-0.1,0-0.1,0c-1.6,2.4-2.7,4.8-3.4,7.2c-0.7,2.4-1,4.7-0.9,6.9
			C21.2,113.3,22,115.2,22.3,115.9"/>
		<path fill="#2DA44A" d="M29.5,103.4L29.5,103.4c6-1,10.6-6.4,12.9-9.5c0,0,0-0.1,0-0.1c0,0-0.1,0-0.1,0c-3.4,0.3-6.1,2.1-6.2,2.1
			c-0.4,0.3-1,0.3-1.4,0c-0.4-0.3-0.6-0.9-0.4-1.4c1.4-4.2,1.2-7.7,0.7-9.9c0,0,0-0.1-0.1-0.1c0,0-0.1,0-0.1,0
			C27.3,93.5,28.5,100.7,29.5,103.4C29.4,103.3,29.5,103.4,29.5,103.4"/>
		<path fill="#2DA44A" d="M37.9,91.7c0.1,0,0.3,0,0.4,0c3.6,0,7.2-2.3,9.8-4.2c1.2-0.9,2.5-2,3.6-3.2c0,0,0-0.1,0-0.1
			c0,0-0.1-0.1-0.1-0.1c-3.2,0.1-6.2,1.1-6.2,1.1c-0.5,0.2-1,0-1.3-0.4c-0.3-0.4-0.4-0.9-0.2-1.4c2-3.9,2.4-7.4,2.3-9.6
			c0,0,0-0.1-0.1-0.1c0,0-0.1,0-0.1,0c-2.2,1.9-3.9,3.9-5.3,6c-1.4,2.1-2.3,4.2-2.8,6.4C37.5,88.9,37.7,90.9,37.9,91.7
			C37.8,91.7,37.9,91.7,37.9,91.7"/>
		<path fill="#2DA44A" d="M62.7,75.9c-3.2-0.2-6.3,0.4-6.4,0.4c-0.5,0.1-1-0.1-1.3-0.5c-0.3-0.4-0.3-0.9,0-1.4
			c2.4-3.7,3.1-7.1,3.2-9.4c0,0,0-0.1,0-0.1c0,0-0.1,0-0.1,0c-9.5,6.8-10.2,14-10,16.8c0,0,0,0.1,0.1,0.1c0.2,0,0.4,0,0.6,0
			c5.8,0,11.2-3.6,13.9-5.8C62.8,76,62.8,76,62.7,75.9C62.8,75.9,62.7,75.9,62.7,75.9"/>
		<path fill="#2DA44A" d="M74.8,70.1c-1-0.3-2.1-0.5-3.3-0.7c-1.8-0.2-3.1-0.2-3.1-0.2h0c-0.5,0-1-0.3-1.2-0.8c-0.2-0.5,0-1,0.4-1.4
			c3.3-2.8,4.8-5.4,5.6-7.1c0,0,0-0.1,0-0.1c0,0-0.1,0-0.1,0C62,63.5,59.6,70,59,72.6c0,0,0,0.1,0.1,0.1c1.1,0.3,2.6,0.6,4.4,0.6
			c2.1,0,4.5-0.3,7.4-1.3c1.3-0.5,2.6-1,3.9-1.7C74.9,70.2,74.9,70.2,74.8,70.1C74.9,70.1,74.9,70.1,74.8,70.1"/>
		<path fill="#2DA44A" d="M88.1,66.5c-2.9-1.4-6.1-2.1-6.1-2.1c-0.5-0.1-0.9-0.5-1-1c-0.1-0.5,0.2-1,0.7-1.3
			c3.6-1.8,5.4-3.6,6.4-4.8c0,0,0-0.1,0-0.1c0,0-0.1,0-0.1,0c-5.6,0.8-10.1,2.7-13,5.5c-1.5,1.5-2.2,2.9-2.6,3.8c0,0,0,0.1,0,0.1
			c2.5,1.1,5,1.5,7.4,1.5c1.6,0,3-0.2,4.3-0.4c1.4-0.2,2.7-0.6,4.1-1C88.1,66.7,88.1,66.6,88.1,66.5C88.1,66.5,88.1,66.5,88.1,66.5"
			/>
		<path fill="#2DA44A" d="M96.7,62.8c-0.5-0.2-0.8-0.7-0.8-1.2c0-0.5,0.4-1,0.9-1.1c3.6-1.1,5.8-2.5,7-3.4c0,0,0-0.1,0-0.1
			c0,0,0-0.1-0.1-0.1c-5.5-0.4-10.3,0.6-13.6,2.7c-1.8,1.1-2.8,2.3-3.4,3.2c0,0,0,0.1,0,0.1c3.8,2.9,8.6,3.5,12.3,3.5
			c1.2,0,2.2-0.1,3.1-0.1c0,0,0.1,0,0.1-0.1c0,0,0-0.1,0-0.1C99.8,63.9,96.7,62.8,96.7,62.8"/>
		<path fill="#2DA44A" d="M111.1,63.8c-0.4-0.3-0.6-0.8-0.5-1.3c0.1-0.5,0.5-0.9,1-0.9c3.7-0.4,6.1-1.3,7.5-2c0,0,0.1,0,0.1-0.1
			c0,0,0-0.1-0.1-0.1c-5.3-1.4-10-1.5-13.7-0.1c-2,0.7-3.2,1.7-4,2.4c0,0,0,0.1,0,0.1c4.6,5.5,11.1,6.5,14.5,6.6h0
			c0,0,0.1,0,0.1-0.1c0,0,0-0.1,0-0.1C114,65.7,111.2,63.8,111.1,63.8"/>
		<path fill="#2DA44A" d="M147.2,81.8C147.2,81.8,147.3,81.8,147.2,81.8c0.1-1.3,0-3.6-1-6.1c-1.7-4.2-5-7.2-10-8.9c0,0-0.1,0-0.1,0
			c0,0,0,0.1,0,0.1c0.7,2,1.9,4.9,3.9,7.4c0.3,0.4,0.4,1,0.1,1.4c-0.3,0.4-0.8,0.7-1.3,0.5c0,0-3.1-0.7-6.3-0.1c0,0-0.1,0-0.1,0.1
			c0,0,0,0.1,0,0.1c3.1,2.1,9,5.5,14.1,5.5C146.7,81.8,147,81.8,147.2,81.8"/>
		<path fill="#2DA44A" d="M135.7,72.8C135.7,72.8,135.7,72.8,135.7,72.8c-2.8-3-6.3-4.3-10.5-4.1c-1.5,0.1-3,0.4-4.5,0.9
			c0,0-0.1,0-0.1,0.1c0,0,0,0.1,0,0.1c3.3,2.6,6.8,3.9,10.4,3.9c0.2,0,0.4,0,0.6,0C133.4,73.6,134.8,73.2,135.7,72.8
			C135.7,72.9,135.7,72.9,135.7,72.8"/>
		<path fill="#2DA44A" d="M115.4,63.9C115.4,64,115.4,64,115.4,63.9c2.1,1.6,4.7,2.3,7.7,2.3c1.3,0,2.6-0.1,4-0.4
			c2.2-0.4,4.2-1.1,5.5-1.6c0,0,0.1,0,0.1-0.1c0,0,0-0.1,0-0.1c-2-1.1-4.1-1.9-6.1-2.2c-2.2-0.4-4.4-0.3-6.5,0.2
			C118,62.6,116.4,63.3,115.4,63.9C115.4,63.9,115.4,63.9,115.4,63.9"/>
		<path fill="#EF4123" d="M74.2,144.5c0.7,0.8,1.8,1.2,3.4,1.2h16c-9.6-6-13.1-4.9-19.8-1.8C73.9,144.1,74,144.3,74.2,144.5"/>
		<path fill="#EF4123" d="M113.3,137.2c-1.5-0.4-2.9-0.8-4.2-1.3c-5-2-9.2-5.3-9.4-5.4c-1-0.8-1.2-2.3-0.4-3.3
			c0.8-1,2.3-1.2,3.3-0.4c0,0,3.8,3,8.2,4.7c1,0.4,2.3,0.7,3.6,1.1c2,0.5,4.4,1.2,6.5,2.2c-0.4-2.6-0.8-4.9-1.3-7.1
			c-6.5-1.4-11.8-5.8-12-6c-0.5-0.4-0.8-1-0.8-1.6c-0.1-0.6,0.1-1.2,0.5-1.7c0.8-1,2.3-1.1,3.3-0.3c0,0,3.4,2.8,7.7,4.3
			c-1.7-6.4-4-12.3-7-18.2c-2.2-4.2-5.4-7-9.5-8.4c-3-1-5.4-0.8-5.4-0.8c-0.1,0-0.1,0-0.2,0c-0.1,0-7.8,0.1-12.6,5.8
			c0,0-0.1,0.1-0.1,0.1c-0.9,0.9-3.3,3.8-3.7,5.9c-0.2,1.2,0.1,2.1,0.8,2.5c0.3,0.2,1.6,0.7,3.8-0.8c0.5-0.5,0.9-0.7,1-0.8
			c1-0.7,2.4-0.5,3.2,0.5c0.8,1,0.6,2.4-0.3,3.2c-0.3,0.3-0.6,0.5-0.9,0.7c-1,0.8-2.9,2.6-5.1,5.6c-2.9,3.9-6.8,10.6-8.7,20.5
			c0,0.2-0.1,0.4-0.1,0.6c6.7-2.9,12.1-4.1,23.9,3.6c4.6,3,10,3.2,11,3.2h5.2c0.1,0,0.1,0,0.2,0c1.3,0.1,5.3-0.1,7-2
			c0.3-0.3,0.5-0.7,0.7-1.1C121.4,139.8,118.8,138.6,113.3,137.2"/>
		<path fill="#FCBC80" d="M90.2,228.8c0.6-0.5,1.3-1.3,1.4-1.9c0-0.3-0.2-0.6-0.6-1c-0.5-0.4-1-0.7-1.6-0.7c-1.2,0-2.6,0.8-4.7,2.3
			c-1.3,0.9-3.6,2.8-3.4,4.5c0.1,0.7,0.4,1,0.6,1.2c1.1,0.7,3.3,0.5,4.1,0.4C86.7,231.9,88.1,230.3,90.2,228.8"/>
		<path fill="#FCBC80" d="M98.3,231.7c0-0.1,0.1-0.5-0.6-1.2c0,0-1-0.8-3.4,0.5c-1.8,1-3.7,2.3-4.6,4.1c0.5,0.5,0.9,0.6,1.2,0.7
			c1.9,0.4,4.6-1.3,5.4-1.9c0.1,0,0.1-0.1,0.2-0.1C97.1,233.6,98.2,232.6,98.3,231.7"/>
		<path fill="#FCBC80" d="M73.5,220.4c-0.2,0-0.3,0-0.5,0c-1.7,0-4.2,1.2-5.3,2.7c-0.8,1-0.5,1.6-0.4,1.8c0.1,0.3,0.9,0.7,2.2,1
			c0.3,0,0.6,0.1,0.9,0.1c0.5-1.9,1.8-3.3,3-4.5c0.3-0.3,0.7-0.6,1-0.9c-0.3-0.1-0.5-0.1-0.7-0.1C73.6,220.4,73.6,220.4,73.5,220.4"
			/>
		<path fill="#FCBC80" d="M74.2,227.8c0,0.4,0.1,1.4,2.2,2.1c0.3,0.1,0.6,0.2,1,0.2c0.6-2,2.3-4,4.9-5.8c0.4-0.2,0.7-0.5,1.1-0.8
			c0-0.1,0-0.3,0-0.4c-0.1-0.3-0.5-0.7-1.2-1c-0.4-0.2-0.9-0.3-1.3-0.3c-1.3,0-2.8,0.8-4.6,2.6C74.7,225.8,74.2,226.7,74.2,227.8"/>
		<path fill="#FCBC80" d="M124.6,224c1.2,0,2.1-0.3,2.7-0.9c0.6-0.6,0.8-1.3,0.9-1.9c-1.2-1.5-5.2-6.2-10.6-9.7
			c-2.3-1.5-4.7-3-7.2-3.9c-2.8-1.1-5.1-1.3-7.2-0.7l-0.1,0c-0.6,0.1-1.5,0.7-2.5,1.4c-0.7,0.4-1.4,0.9-2.3,1.4
			c-2.4,1.4-5.7,2.4-8.4,2.5c-2.4,0.1-5.4,0.3-7.2-2.3c-1.2-1.7-1.5-3.2-0.8-5c0.6-1.6,2.5-2.6,4.9-3.7c1-0.5,2.1-1,2.8-1.5
			c1.1-0.7,1.8-1.3,2.7-2c0.9-0.7,1.9-1.5,3.5-2.7c0.7-0.5,1.4-0.9,2.1-1.2c-0.8-0.1-1.6-0.2-2.5-0.3c-3.9-0.3-6.6,1.1-10.7,3.9
			c-3.5,2.4-10.4,4.5-21,6.6c-10.1,2-24,4.1-41.3,6c0.5,1.9,1.1,3.8,1.7,5.7c2.2,6.8,4.9,13.4,8.2,19.4c6.1-2.7,21.2-9.5,33-15.8
			c2.3-2.2,5.9-3.5,8.6-3.1c0.6,0,2.8,0.3,4.5,1.7c1.9-0.6,3.8-0.5,5.5,0.4c1.9,1,2.7,2.2,3.1,3.1c2.4-0.7,4.6-0.3,6.5,1.3
			c1.2,1,1.8,2.1,2,3.4c2.3-0.4,4.1,0.4,5,1.3c1.7,1.7,2,3.4,1.8,4.5c-0.1,0.8-0.4,1.7-0.9,2.5c1.2,0.1,2.3,0,3.3-0.4
			c0.4-0.2,0.7-0.3,1.1-0.5c-0.5-1-1.4-2.5-2.8-4.1c-0.4-0.4-0.6-0.9-0.5-1.5c0-0.5,0.3-1.1,0.7-1.4c0.8-0.8,2.1-0.7,2.9,0.2
			c2.1,2.3,3.2,4.5,3.8,5.7c1.1,0.1,2-0.1,2.7-0.9c0.4-0.4,0.7-0.9,0.9-1.3c-0.2-0.5-0.8-1.4-2.1-3c-1.2-1.4-3.8-3.3-4.7-3.9
			c-0.4-0.3-0.7-0.8-0.8-1.3c-0.1-0.5,0-1.1,0.3-1.5c0.3-0.4,0.8-0.7,1.3-0.8c0.5-0.1,1.1,0,1.5,0.3c0.2,0.1,3.7,2.6,5.4,4.6
			c1.3,1.5,2.2,2.8,2.7,4c1.5,0,2.6-0.4,3.4-1.3c0.2-0.3,0.4-0.6,0.6-0.9c-1.6-2.1-5.5-6.9-10.3-9.3c-0.5-0.2-0.9-0.7-1.1-1.2
			c-0.2-0.5-0.1-1.1,0.1-1.6c0.2-0.5,0.7-0.9,1.2-1c0.5-0.2,1.1-0.1,1.6,0.1C118.4,216.2,122.9,221.6,124.6,224"/>
		<path fill="#FCBC80" d="M98.4,204.8c1.4-0.9,2.5-1.7,3.9-2c6.8-1.8,13.9,2.7,17.7,5.2c5.2,3.4,9,7.6,10.9,9.8c0,0,0.1,0.2,0.3,0.4
			l0.1,0.1c0,0,0,0,0,0c0.6,0.7,1.8,2,3.6,3.2c8.7,6.4,21.9,12.2,27.4,14.4c3.4-6.2,6.2-13,8.5-20.1c0.5-1.7,1.1-3.4,1.6-5.2
			c-10.9-0.7-22.6-3.1-30.5-5c-9.1-2.2-15.8-4.3-16-4.4c-1.9-0.6-3.5-1.2-4.9-1.7c-5-1.8-8.2-3-11.9-2.8c-0.4,0-0.9,0-1.3,0
			c-0.6,0-1.1,0-1.6,0H106c-3.4,0.1-5.6,0.1-7.7,1.6c-1.5,1.1-2.4,1.8-3.3,2.5c-0.9,0.7-1.8,1.4-3.1,2.3c-1,0.6-2.1,1.2-3.3,1.8
			c-0.9,0.4-2.5,1.2-2.9,1.6c-0.1,0.2-0.1,0.4,0.4,1c0.5,0.7,1.7,0.7,3.7,0.6c1.7-0.1,4.4-0.7,6.5-2
			C97.1,205.7,97.7,205.2,98.4,204.8"/>
	</g>
</g>
</svg>
