<?xml version="1.0" encoding="utf-8"?>
<!-- Generator: Adobe Illustrator 22.1.0, SVG Export Plug-In . SVG Version: 6.00 Build 0)  -->
<svg version="1.1" id="Capa_1" xmlns="http://www.w3.org/2000/svg" xmlns:xlink="http://www.w3.org/1999/xlink" x="0px" y="0px"
	 viewBox="0 0 461 425.6" style="enable-background:new 0 0 461 425.6;" xml:space="preserve">
<style type="text/css">
	.st0{opacity:0.32;}
	.st1{fill-rule:evenodd;clip-rule:evenodd;fill:none;stroke:#FFFFFF;stroke-width:1.1355;stroke-miterlimit:10;}
	.st2{fill:none;stroke:#FFFFFF;stroke-width:1.1355;stroke-miterlimit:10;}
	.st3{opacity:0.3;fill:#03A9F4;}
	.st4{fill:none;}
	.st5{fill:#FFFFFF;}
	.st6{font-family:'Roboto-Bold';}
	.st7{font-size:16px;}
</style>
<g>
	<g class="st0">
		<g>
			<g>
				<polygon class="st1" points="325.9,71.2 328.7,76 329,77.9 331.2,80.2 340.9,74.7 344,74.3 349.6,70.3 352,59.6 350.6,56.8 
					348.9,50.9 341.3,52.1 339.9,61 333.5,66.7 				"/>
				<polygon class="st1" points="324.6,84.4 317.6,92.9 311.4,100.2 304.1,106.6 300.6,114.4 294.5,109 279.1,110.4 279.3,105.6 
					284.1,91.8 285.5,81.1 288.6,77.8 290.2,71.7 301.8,72.9 321.1,73.4 325.9,71.2 328.9,76 329,77.9 331.2,80.2 				"/>
				<polygon class="st1" points="248.9,10.5 250.4,12.5 253.2,13.8 264,23.5 271.9,30.4 278.8,31.2 292.1,39.9 294.5,42.4 
					298.5,42.7 304.4,46.1 305,48.6 298.5,57.3 296,65.7 281.5,56.8 279.1,52.2 268.3,42.7 258.1,36.7 256.9,34.8 248.9,31.7 				
					"/>
				<polygon class="st1" points="212.5,109.5 207.8,98.5 200.2,92.6 199.3,88.9 194.3,85.6 191.1,87.2 185.5,86.7 175.2,80.8 
					167.3,79.4 163.5,86.1 169,89.2 172.9,93.2 173.4,101.6 181.7,105.6 186.4,109.8 192.2,117.1 194,123.9 196.6,131.2 
					202.5,131.8 206.9,130.9 206.9,116.3 				"/>
				<polyline class="st1" points="217.2,73.2 216.9,78.5 214.3,79.4 209.6,80.8 205.4,76.5 205.4,72.6 203.7,70.6 204.6,65.5 
					201.6,62.7 201.6,59.8 206.9,59.6 209,56.8 221.9,59.1 				"/>
				<polygon class="st1" points="191.6,131.5 191.4,137.7 186.9,135.7 181.4,134.9 178.4,138 174.3,138.8 174.3,135.5 167.3,136.3 
					166.1,139.7 159.1,141.1 157.3,137.4 157.9,134.9 154.9,132.6 154.4,125 157,118.5 159.6,111.2 157.3,99.1 160.2,96.8 
					163.5,86.1 169,89.2 172.9,93.2 173.4,101.6 181.7,105.6 186.4,109.8 192.2,117.1 194,123.9 196.6,131.2 				"/>
				<polygon class="st1" points="248.9,110.4 255.7,84.1 255.6,81.1 285.5,81.1 284.1,91.8 279.3,105.6 279.1,110.4 277.4,115.7 
					273,121.6 269.5,127 267.1,130.7 266.8,138.6 271.8,149 268.9,152.4 264.5,152.1 255.4,162.2 236.3,162.2 253.3,142.2 
					250.7,136 249.2,130.9 252.7,116.9 				"/>
				<polygon class="st1" points="300.6,114.4 294.5,109 279.1,110.4 277.4,115.7 273,121.6 269.5,127 267.1,130.7 266.8,138.6 
					271.8,149 280,152.9 285.6,156.9 292.4,158.9 292.1,152.4 292.1,147.6 295,144.5 295,130.1 298.8,121.1 				"/>
				<polygon class="st1" points="191.6,131.5 191.4,137.7 191.9,143.6 194,149.8 200.5,161.4 202.5,167.6 201.3,180.3 216.6,180.3 
					216.6,147.6 218.7,141.4 218.4,136.3 215.4,135.7 213.7,133.2 206.9,130.9 202.5,131.8 196.6,131.2 				"/>
				<polygon class="st1" points="216.6,170.4 216.6,147.6 218.7,141.4 218.4,136.3 215.4,135.7 213.7,133.2 206.9,130.9 
					206.9,116.3 212.5,109.5 216,108.4 219.5,105.3 220.1,101.1 224.8,99.4 232.2,100.8 241.9,101.9 245.7,109.5 248.9,110.4 
					252.7,116.9 249.2,130.9 250.7,136 253.3,142.2 236.3,162.2 236.3,170.4 				"/>
				<polygon class="st1" points="159.1,141.1 166.1,139.7 167.3,136.3 174.3,135.5 174.3,138.8 178.4,138 181.4,134.9 186.9,135.7 
					191.4,137.7 191.9,143.6 194,149.8 200.5,161.4 202.5,167.6 201.3,180.3 186.4,180.3 186.4,205.1 176.1,200.9 170.2,199.5 
					167.3,195.5 162.3,193.5 159.1,188.5 159.1,178.3 157.3,176.1 159.3,173.5 162.3,163.4 163.8,161.1 163.8,150.7 160.8,148.4 
									"/>
				<polygon class="st1" points="182.5,226.2 187.5,223.7 186.4,220.3 186.4,205.1 176.1,200.9 170.2,199.5 167.3,195.5 
					162.3,193.5 159.1,188.5 155.5,190.4 152.9,199.2 153.8,204.3 152.9,209.6 158.2,219.2 152.6,224.8 152,233.3 149.1,235 
					150.8,243.4 149.7,246.8 150.8,252.5 158.5,251.9 159.9,246.5 166.4,244 170.2,237.8 171.4,234.7 				"/>
				<polygon class="st1" points="186.4,205.1 186.4,180.3 201.3,180.3 216.6,180.3 216.6,170.4 236.3,170.4 236.3,226.8 
					225.4,220.9 213.7,220.6 205.7,219.5 198.4,215.5 193.1,214.4 191.4,208.5 189,205.9 				"/>
				<polygon class="st1" points="292.3,158.9 285.6,156.9 280,153 271.8,149 268.8,152.4 264.4,152.1 255.3,162.3 236.2,162.3 
					236.2,226.8 236.2,243.2 240.4,245.2 243,248.3 248.3,243.2 247.1,237.5 248.3,230.2 250.6,229.1 248.3,223.5 247.1,218.1 
					248.3,216.7 252.7,218.9 262.4,220.1 271.5,219.5 281.2,217.2 292.9,212.7 301.1,205.4 308.5,194.7 308.5,187.4 304.1,187.4 
					302,181.4 303.2,176.4 302.6,173 296.1,167.9 292,163.7 				"/>
				<polygon class="st1" points="243,248.2 240.4,245.1 236.3,243.2 236.3,226.8 225.4,220.9 213.7,220.6 205.7,219.5 198.4,215.5 
					193.1,214.4 191.4,208.5 189,205.9 186.4,205.1 186.4,220.3 187.5,223.7 182.5,226.2 171.4,234.7 170.2,237.8 166.4,244 
					159.9,246.5 158.5,251.9 150.8,252.5 152.6,261.2 221.6,261.2 222.5,254.4 219.8,248.8 219.8,245.4 222.8,245.1 230.1,248.2 
					235.4,249.4 241,249.9 				"/>
				<polygon class="st1" points="222.2,263.5 225.7,263.5 226.9,265.7 229.8,264.3 228.1,262.1 233.9,262.1 236,268.8 231,271.1 
					231,268.5 226.9,267.4 223.9,268.8 223.9,271.1 228.3,272.5 228.6,273.9 222.8,277.8 220.4,282.9 220.7,290 218.4,292.2 
					217.8,295 219.5,297.3 217.5,299.3 211.3,299.8 209.3,301.8 205.4,302.9 201.3,308 199.6,312.8 160.5,312.8 162.6,308.3 
					162,304.9 157.6,304.1 155.2,301.5 155.5,299.6 163.5,299.3 162.9,295.6 157.9,294.8 156.1,289.4 157,286.6 156.7,283.8 
					154.6,282.6 152.6,274.7 150.2,273 150.2,267.4 153.2,264 152.6,261.2 221.6,261.2 				"/>
				<polygon class="st1" points="159.9,315.3 162,324.6 159.6,329.4 157.6,339.3 158.8,345.5 159.1,356.8 155.2,364.1 155.5,374.8 
					157.3,377.7 159.6,382.7 163.5,380.5 167.9,381.6 167.6,387 171.1,393.4 187.8,393.4 192.5,394.3 196.6,395.1 198.1,394 
					193.1,386.4 190.5,377.9 191.9,369.5 200.7,361.3 201.6,356.2 203.7,349.2 211.9,341.3 214.8,341 215.1,337.9 217.8,330.8 
					217.2,327.2 214.8,324.9 208.4,323.8 203.7,320.4 200.2,316.8 199.6,312.8 160.5,312.8 				"/>
				<polygon class="st1" points="196.9,398.5 196.9,418.8 204.6,419.1 209.3,420.2 208.1,421.9 196.6,420.8 196.6,425 205.7,424.5 
					212.2,424.2 217.5,424.7 223.4,423.9 224.8,421.6 217.2,420.2 212.5,416.8 207.8,412.9 204.3,409.8 201.9,406.7 198.4,405.8 
					199.9,402.7 				"/>
				<polygon class="st1" points="291.6,366.5 290.6,368.2 288.9,368.3 289.2,369.6 286.5,372.8 284.2,375.4 282.3,374.8 281,375.8 
					279.8,377.6 278.2,378.7 277.3,377.3 275.6,377 274.1,375.1 276.6,374.5 278.4,373.9 279.1,372 278.4,370 281,370 282.8,370.7 
					280.1,368.2 278.8,366.8 277.1,365.2 278.5,364.2 280.6,366.6 283.7,365.9 286.2,366.2 288.7,366.8 289.7,364.8 291.6,364.5 
									"/>
				<polygon class="st1" points="292.3,372.5 291,370.8 288.9,372.1 287,374.4 285.9,376.3 286.5,378.3 287.9,380.2 288.4,381.3 
					290.1,380.9 289.1,378.7 291.6,378.5 292.6,377 293.9,378.5 294.8,376.6 292.9,374.4 293.6,373.5 296.1,374.2 298.5,374.5 
					301.4,372.3 303,370 305.2,369.7 305.2,368.2 303.8,365.9 301.3,365.8 301.4,368.3 298.9,367.2 297,366.9 297,365.6 
					299.2,365.6 299.4,364.1 297.2,363.8 294.5,364.1 295,366.3 292.6,367.9 292,369.6 293.1,371.6 				"/>
				<polygon class="st1" points="233.8,51.7 248.9,33.6 248.9,31.7 248.9,10.5 242,3.7 226.3,3.7 222.5,11.6 219,7.7 215.4,6.6 
					211.7,6.5 211.3,15.6 214.1,17.3 215.9,22.6 220.7,22.1 225.2,23.6 225.2,34.2 222,36.6 216.6,37.9 209,36.2 203.4,30.3 
					203.4,24.9 198.4,23.5 197.8,30.6 194.3,32.6 187.5,28.6 185.8,32.3 174,38.5 172.3,41.9 172.9,45 183.4,46.6 197.8,47.5 
					198.1,52.6 195.2,53.7 199.6,59.9 206.9,59.6 209,56.8 221.9,59.1 225.4,53.1 232.5,52.9 233.6,51.7 				"/>
				<polygon class="st1" points="201.6,62.7 204.6,65.5 203.7,70.6 205.4,72.6 205.4,76.5 209.6,80.8 214.3,79.4 214.8,86.1 
					215.4,92.9 219.5,96.6 220.1,101.1 219.5,105.3 216,108.4 212.5,109.5 207.8,98.5 200.2,92.6 199.3,88.9 194.3,85.6 191.1,87.2 
					185.5,86.7 175.2,80.8 167.3,79.4 169.3,70.6 174.3,69.8 174.9,67.2 171.7,61.9 173.4,57.6 172.9,45 183.4,46.6 197.8,47.5 
					198.1,52.6 195.2,53.7 199.6,59.9 201.6,59.8 				"/>
				<polygon class="st1" points="288.6,77.8 290.2,71.7 296,65.7 281.5,56.8 279.1,52.2 268.3,42.7 258.1,36.7 256.9,34.8 
					248.9,31.7 248.9,33.6 233.8,51.7 255.6,51.7 255.6,81.1 285.5,81.1 				"/>
				<polygon class="st1" points="233.8,51.7 255.6,51.7 255.6,81.1 255.7,84.1 248.9,110.4 245.7,109.5 241.9,101.9 232.2,100.8 
					224.8,99.4 220.1,101.1 219.5,96.6 215.4,92.9 214.8,86.1 214.3,79.4 216.9,78.5 217.2,73.2 222.2,64.1 221.9,59.1 225.4,53.1 
					232.5,52.9 				"/>
				<polygon class="st1" points="189.3,17.3 187.8,14.5 191.6,10.6 196.6,7.7 197.5,3.8 199.6,2.4 207.2,6.3 211.7,6.5 211.3,15.6 
					214.1,17.3 215.9,22.6 220.7,22.1 225.2,23.6 225.2,34.2 222,36.6 216.6,37.9 209,36.2 203.4,30.3 203.4,24.9 198.4,23.5 
					197.8,30.6 194.3,32.6 187.5,28.6 				"/>
			</g>
		</g>
		<path id="stroke_p01_1_" class="st2" d="M313.1,173.8L313.1,173.8"/>
	</g>
	<path class="st3" d="M270.2,136.3V91.9c24,0,44.6,19.9,44.6,44.4s-19.8,44.4-44.3,44.4S226,160.8,226,136.3s19.2-44.4,44.2-44.4
		l0,0V136.3z"/>
	<path class="st3" d="M211.2,281.3v-39.5c22,0,39.9,17.7,39.9,39.5c0,21.8-17.4,39.5-39.2,39.5S172,303.1,172,281.3
		c0-21.8,18.1-39.5,39.1-39.5l0,0V281.3z"/>
	<path class="st3" d="M303.2,202.3v-39.2c21,0,39.3,17.5,39.3,39.2s-17.5,39.2-39.1,39.2s-39.3-17.5-39.3-39.2s17-39.2,39-39.2l0,0
		V202.3z"/>
	<path class="st3" d="M158.2,238.3V200c21,0,38.7,17.1,38.7,38.3s-16.9,38.3-38.1,38.3s-38.6-17.1-38.6-38.3s17-38.3,38-38.3l0,0
		V238.3z"/>
	<path class="st3" d="M213.2,30.3V0c16,0,30.4,13.6,30.4,30.3S230,60.5,213.3,60.5S183,47,183,30.3S196.2,0,213.2,0l0,0V30.3z"/>
	<rect y="228.6" class="st4" width="146.3" height="17.8"/>
	<text transform="matrix(1 0 0 1 45.2371 240.7535)" class="st5 st6 st7">Chapelco 64%</text>
	<rect x="314.7" y="191.9" class="st4" width="146.3" height="17.8"/>
	<text transform="matrix(1 0 0 1 314.6666 204.0865)" class="st5 st6 st7">Mar del Plata 66%</text>
	<rect x="284" y="126.2" class="st4" width="146.3" height="17.8"/>
	<text transform="matrix(1 0 0 1 284.0001 138.4198)" class="st5 st6 st7">Paraná 86% </text>
	<rect x="223.3" y="273.9" class="st4" width="146.3" height="17.8"/>
	<text transform="matrix(1 0 0 1 223.3331 286.0865)" class="st5 st6 st7">Trelew 69%</text>
	<rect x="54.7" y="21.2" class="st4" width="146.3" height="17.8"/>
	<text transform="matrix(1 0 0 1 127.232 33.4198)" class="st5 st6 st7">41% Jujuy</text>
	<circle class="st5" cx="270.7" cy="133.1" r="4.2"/>
	<circle class="st5" cx="158.7" cy="236.1" r="4.2"/>
	<circle class="st5" cx="211.7" cy="280.1" r="4.2"/>
	<circle class="st5" cx="303.7" cy="199.1" r="4.2"/>
	<circle class="st5" cx="212.7" cy="29.1" r="4.2"/>
</g>
</svg>
