<?xml version="1.0" encoding="utf-8"?>
<!-- Generator: Adobe Illustrator 18.0.0, SVG Export Plug-In . SVG Version: 6.00 Build 0)  -->
<!DOCTYPE svg PUBLIC "-//W3C//DTD SVG 1.1//EN" "http://www.w3.org/Graphics/SVG/1.1/DTD/svg11.dtd">
<svg version="1.1" id="Layer_1" xmlns="http://www.w3.org/2000/svg" xmlns:xlink="http://www.w3.org/1999/xlink" x="0px" y="0px"
	 viewBox="0 0 917.8 279.5" enable-background="new 0 0 917.8 279.5" xml:space="preserve">
<g>
	<rect x="0" y="257.7" fill="none" width="27.8" height="21.8"/>
	<text transform="matrix(1 0 0 1 1.1994 268.3592)" fill="#ABABB4" font-family="'Roboto-Bold'" font-size="14">ene</text>
	<rect x="78.7" y="257.7" fill="none" width="26.5" height="21.8"/>
	<text transform="matrix(1 0 0 1 78.6935 268.3592)" fill="#ABABB4" font-family="'Roboto-Bold'" font-size="14">feb</text>
	<rect x="157.1" y="257.7" fill="none" width="31.8" height="21.8"/>
	<text transform="matrix(1 0 0 1 157.0546 268.3592)" fill="#ABABB4" font-family="'Roboto-Bold'" font-size="14">mar</text>
	<rect x="237.1" y="257.7" fill="none" width="33.8" height="21.8"/>
	<text transform="matrix(1 0 0 1 237.0822 268.3592)" fill="#ABABB4" font-family="'Roboto-Bold'" font-size="14">abr</text>
	<rect x="318.4" y="257.7" fill="none" width="33.2" height="21.8"/>
	<text transform="matrix(1 0 0 1 318.4423 268.3592)" fill="#ABABB4" font-family="'Roboto-Bold'" font-size="14">may</text>
	<rect x="400.5" y="257.7" fill="none" width="31.2" height="21.8"/>
	<text transform="matrix(1 0 0 1 400.4691 268.3592)" fill="#ABABB4" font-family="'Roboto-Bold'" font-size="14">jun</text>
	<rect x="481.5" y="257.7" fill="none" width="31.2" height="21.8"/>
	<text transform="matrix(1 0 0 1 481.497 268.3592)" fill="#ABABB4" font-family="'Roboto-Bold'" font-size="14">jul</text>
	<rect x="562.5" y="257.7" fill="none" width="31.2" height="21.8"/>
	<text transform="matrix(1 0 0 1 562.5243 268.3592)" fill="#ABABB4" font-family="'Roboto-Bold'" font-size="14">ago</text>
	<rect x="643.6" y="257.7" fill="none" width="31.2" height="21.8"/>
	<text transform="matrix(1 0 0 1 643.5511 268.3592)" fill="#ABABB4" font-family="'Roboto-Bold'" font-size="14">sep</text>
	<rect x="724.6" y="257.7" fill="none" width="31.2" height="21.8"/>
	<text transform="matrix(1 0 0 1 724.5785 268.3592)" fill="#ABABB4" font-family="'Roboto-Bold'" font-size="14">oct</text>
	<rect x="805.6" y="257.7" fill="none" width="31.2" height="21.8"/>
	<text transform="matrix(1 0 0 1 805.6063 268.3592)" fill="#ABABB4" font-family="'Roboto-Bold'" font-size="14">nov</text>
	<rect x="886.6" y="257.7" fill="none" width="31.2" height="21.8"/>
	<text transform="matrix(1 0 0 1 886.6332 268.3592)" fill="#ABABB4" font-family="'Roboto-Bold'" font-size="14">dic</text>
	<rect x="397.2" y="41" fill="none" width="77.8" height="13.8"/>
	<text transform="matrix(1 0 0 1 413.9726 51.7029)" fill="#ABABB4" font-family="'Roboto-Bold'" font-size="14">10.000</text>
	<rect x="129.2" y="23" fill="none" width="77.8" height="13.8"/>
	<text transform="matrix(1 0 0 1 145.9725 33.7029)" fill="#ABABB4" font-family="'Roboto-Bold'" font-size="14">10.000</text>
	
		<line opacity="0.4" fill="none" stroke="#FFFFFF" stroke-width="0.7978" stroke-miterlimit="10" stroke-opacity="0.4" x1="3.9" y1="236.5" x2="908.4" y2="236.5"/>
	<g opacity="0.4">
		<g opacity="0.4">
			<line fill="none" stroke="#FFFFFF" stroke-miterlimit="10" x1="4.3" y1="178.7" x2="9.3" y2="178.7"/>
			
				<line fill="none" stroke="#FFFFFF" stroke-miterlimit="10" stroke-dasharray="10,10" x1="19.3" y1="178.7" x2="898.3" y2="178.7"/>
			<line fill="none" stroke="#FFFFFF" stroke-miterlimit="10" x1="903.3" y1="178.7" x2="908.3" y2="178.7"/>
		</g>
	</g>
	<g opacity="0.4">
		<g opacity="0.4">
			<line fill="none" stroke="#FFFFFF" stroke-miterlimit="10" x1="4.3" y1="126.7" x2="9.3" y2="126.7"/>
			
				<line fill="none" stroke="#FFFFFF" stroke-miterlimit="10" stroke-dasharray="10,10" x1="19.3" y1="126.7" x2="898.3" y2="126.7"/>
			<line fill="none" stroke="#FFFFFF" stroke-miterlimit="10" x1="903.3" y1="126.7" x2="908.3" y2="126.7"/>
		</g>
	</g>
	<g opacity="0.4">
		<g opacity="0.4">
			<line fill="none" stroke="#FFFFFF" stroke-miterlimit="10" x1="4.3" y1="73.7" x2="9.3" y2="73.7"/>
			<line fill="none" stroke="#FFFFFF" stroke-miterlimit="10" stroke-dasharray="10,10" x1="19.3" y1="73.7" x2="898.3" y2="73.7"/>
			<line fill="none" stroke="#FFFFFF" stroke-miterlimit="10" x1="903.3" y1="73.7" x2="908.3" y2="73.7"/>
		</g>
	</g>
	<g opacity="0.4">
		<g opacity="0.4">
			<line fill="none" stroke="#FFFFFF" stroke-miterlimit="10" x1="4.3" y1="21.7" x2="9.3" y2="21.7"/>
			<line fill="none" stroke="#FFFFFF" stroke-miterlimit="10" stroke-dasharray="10,10" x1="19.3" y1="21.7" x2="898.3" y2="21.7"/>
			<line fill="none" stroke="#FFFFFF" stroke-miterlimit="10" x1="903.3" y1="21.7" x2="908.3" y2="21.7"/>
		</g>
	</g>
	<g>
		<defs>
			<path id="SVGID_1_" d="M906,197.5c7.8,0-17.4,4.6-29-10.3c-11.6-15-77.1-78.2-106-78.2c-28.9,0-121.4,76.3-163.9,76.3
				s-70-38.9-81-59.8c-11.9-22.6-40.5-98-107.9-34.9s-73.8,70-107.9,74.7c-55.2,7.7-79-66.5-79-66.5c-32.8-68.1-96.5-53-132.9-51.5
				C57.7,49,3.3,1,3.3,1v237.2h904.5C907.9,238.2,905.4,197.5,906,197.5z"/>
		</defs>
		<clipPath id="SVGID_2_">
			<use xlink:href="#SVGID_1_"  overflow="visible"/>
		</clipPath>
		<linearGradient id="SVGID_3_" gradientUnits="userSpaceOnUse" x1="313.2673" y1="-3.5985" x2="313.2673" y2="246.6542">
			<stop  offset="0" style="stop-color:#009DDA;stop-opacity:0.2"/>
			<stop  offset="0.1962" style="stop-color:#019AD7;stop-opacity:0.2"/>
			<stop  offset="0.3581" style="stop-color:#0493CD;stop-opacity:0.2"/>
			<stop  offset="0.5078" style="stop-color:#0986BC;stop-opacity:0.2"/>
			<stop  offset="0.6501" style="stop-color:#1074A4;stop-opacity:0.2"/>
			<stop  offset="0.7872" style="stop-color:#1A5D84;stop-opacity:0.2"/>
			<stop  offset="0.9186" style="stop-color:#25415E;stop-opacity:0.2"/>
			<stop  offset="1" style="stop-color:#2D2D43;stop-opacity:0.2"/>
		</linearGradient>
		<polygon clip-path="url(#SVGID_2_)" fill="url(#SVGID_3_)" points="765.3,11.3 -138.8,-3.6 -138.8,246.7 765.3,246.7 		"/>
	</g>
	<g>
		<path fill="none" stroke="#009DDA" stroke-width="2.6842" stroke-miterlimit="10" d="M4.2,1c0,0,53.4,48,94,46.4
			c36.4-1.5,100.2-16.6,133,51.5c0,0,23.9,74.2,79,66.4c34.2-4.8,40.5-11.6,107.9-74.8s96.1,12.3,107.9,34.9
			c11,20.9,38.6,59.8,81,59.8S742,108.8,771,108.8s94.5,63.1,106,78.1c0,0,11.1,12.8,29,10.5"/>
	</g>
	<g>
		<defs>
			<path id="SVGID_4_" d="M4.8,197.5c-7.8,0,17.4,4.6,29-10.3s77.1-78.2,106-78.2s121.4,76.3,163.9,76.3s70-38.9,81-59.8
				c11.9-22.6,40.5-98,107.9-34.9s73.8,70,107.9,74.7c55.2,7.7,79-66.5,79-66.5c32.8-68.1,97-53,133.4-51.5
				C853.6,49,908.3,1,908.3,1v237.2H2.9C2.9,238.2,5.4,197.5,4.8,197.5z"/>
		</defs>
		<clipPath id="SVGID_5_">
			<use xlink:href="#SVGID_4_"  overflow="visible"/>
		</clipPath>
		
			<linearGradient id="SVGID_6_" gradientUnits="userSpaceOnUse" x1="4512.688" y1="-3.5985" x2="4512.688" y2="246.6542" gradientTransform="matrix(-1 0 0 1 4967.6953 0)">
			<stop  offset="0" style="stop-color:#FFFFFF;stop-opacity:0.1"/>
			<stop  offset="0.1709" style="stop-color:#FCFCFC;stop-opacity:0.1171"/>
			<stop  offset="0.3118" style="stop-color:#F1F1F3;stop-opacity:0.1312"/>
			<stop  offset="0.4422" style="stop-color:#E0E0E3;stop-opacity:0.1442"/>
			<stop  offset="0.5661" style="stop-color:#C8C8CE;stop-opacity:0.1566"/>
			<stop  offset="0.6856" style="stop-color:#A9A9B2;stop-opacity:0.1686"/>
			<stop  offset="0.8017" style="stop-color:#82828F;stop-opacity:0.1802"/>
			<stop  offset="0.9129" style="stop-color:#565667;stop-opacity:0.1913"/>
			<stop  offset="1" style="stop-color:#2D2D43;stop-opacity:0.2"/>
		</linearGradient>
		<polygon clip-path="url(#SVGID_5_)" fill="url(#SVGID_6_)" points="2.4,11.3 907.6,-3.6 907.6,246.7 2.4,246.7 		"/>
	</g>
	<g>
		<path fill="none" stroke="#9696A1" stroke-width="2.6842" stroke-miterlimit="10" d="M906.6,1c0,0-53.4,48-94,46.4
			c-36.4-1.5-100.2-16.6-133,51.5c0,0-23.9,74.2-79,66.4c-34.2-4.8-40.5-11.6-107.9-74.8s-96.1,12.3-107.9,34.9
			c-11,20.9-38.6,59.8-81,59.8s-134.9-76.4-163.8-76.4s-94.5,63.1-106,78.1c0,0-11.1,12.8-29,10.5"/>
	</g>
</g>
</svg>
