<?xml version="1.0" encoding="utf-8"?>
<!-- Generator: Adobe Illustrator 18.0.0, SVG Export Plug-In . SVG Version: 6.00 Build 0)  -->
<!DOCTYPE svg PUBLIC "-//W3C//DTD SVG 1.1//EN" "http://www.w3.org/Graphics/SVG/1.1/DTD/svg11.dtd">
<svg version="1.1" id="Layer_1" xmlns="http://www.w3.org/2000/svg" xmlns:xlink="http://www.w3.org/1999/xlink" x="0px" y="0px"
	 viewBox="0 0 904.5 258" enable-background="new 0 0 904.5 258" xml:space="preserve">
<g>
	<rect x="4.4" y="236.2" fill="none" width="77.8" height="21.8"/>
	<text transform="matrix(1 0 0 1 6.1613 246.8613)" fill="#ABABB4" font-family="'Roboto-Bold'" font-size="14">Subtítulo</text>
	<rect x="134.9" y="236.2" fill="none" width="77.8" height="21.8"/>
	<text transform="matrix(1 0 0 1 134.9286 246.8613)" fill="#ABABB4" font-family="'Roboto-Bold'" font-size="14">Subtítulo</text>
	<rect x="275.9" y="236.2" fill="none" width="77.8" height="21.8"/>
	<text transform="matrix(1 0 0 1 275.9215 246.8613)" fill="#ABABB4" font-family="'Roboto-Bold'" font-size="14">Subtítulo</text>
	<rect x="400.4" y="236.2" fill="none" width="77.8" height="21.8"/>
	<text transform="matrix(1 0 0 1 400.4153 246.8613)" fill="#ABABB4" font-family="'Roboto-Bold'" font-size="14">Subtítulo</text>
	<rect x="532.4" y="236.2" fill="none" width="77.8" height="21.8"/>
	<text transform="matrix(1 0 0 1 532.4084 246.8613)" fill="#ABABB4" font-family="'Roboto-Bold'" font-size="14">Subtítulo</text>
	<rect x="673.4" y="236.2" fill="none" width="77.8" height="21.8"/>
	<text transform="matrix(1 0 0 1 673.4016 246.8613)" fill="#ABABB4" font-family="'Roboto-Bold'" font-size="14">Subtítulo</text>
	<rect x="799.4" y="236.2" fill="none" width="77.8" height="21.8"/>
	<text transform="matrix(1 0 0 1 799.3953 246.8613)" fill="#ABABB4" font-family="'Roboto-Bold'" font-size="14">Subtítulo</text>
	<rect x="4.4" y="27.7" fill="none" width="77.8" height="21.8"/>
	<text transform="matrix(1 0 0 1 21.2413 38.3718)" fill="#ABABB4" font-family="'Roboto-Bold'" font-size="14">10.000</text>
	<rect x="135.9" y="81.2" fill="none" width="77.8" height="21.8"/>
	<text transform="matrix(1 0 0 1 152.7413 91.8718)" fill="#ABABB4" font-family="'Roboto-Bold'" font-size="14">10.000</text>
	<rect x="267.9" y="7.2" fill="none" width="77.8" height="21.8"/>
	<text transform="matrix(1 0 0 1 284.7413 17.8718)" fill="#ABABB4" font-family="'Roboto-Bold'" font-size="14">10.000</text>
	<rect x="400.9" y="34.2" fill="none" width="77.8" height="21.8"/>
	<text transform="matrix(1 0 0 1 417.7415 44.8718)" fill="#ABABB4" font-family="'Roboto-Bold'" font-size="14">10.000</text>
	<rect x="533.9" y="86.2" fill="none" width="77.8" height="21.8"/>
	<text transform="matrix(1 0 0 1 550.7415 96.8718)" fill="#ABABB4" font-family="'Roboto-Bold'" font-size="14">10.000</text>
	<rect x="668.9" y="32.7" fill="none" width="77.8" height="21.8"/>
	<text transform="matrix(1 0 0 1 685.7415 43.3718)" fill="#ABABB4" font-family="'Roboto-Bold'" font-size="14">10.000</text>
	<rect x="803.9" y="89.7" fill="none" width="77.8" height="21.8"/>
	<text transform="matrix(1 0 0 1 820.7415 100.3718)" fill="#ABABB4" font-family="'Roboto-Bold'" font-size="14">10.000</text>
	
		<line opacity="0.4" fill="none" stroke="#FFFFFF" stroke-width="0.7978" stroke-miterlimit="10" stroke-opacity="0.4" x1="0" y1="215" x2="904.5" y2="215"/>
	<g opacity="0.4">
		<g opacity="0.4">
			<line fill="none" stroke="#FFFFFF" stroke-miterlimit="10" x1="-0.1" y1="157.7" x2="4.9" y2="157.7"/>
			
				<line fill="none" stroke="#FFFFFF" stroke-miterlimit="10" stroke-dasharray="10,10" x1="14.9" y1="157.7" x2="893.9" y2="157.7"/>
			<line fill="none" stroke="#FFFFFF" stroke-miterlimit="10" x1="899.9" y1="157.7" x2="904.9" y2="157.7"/>
		</g>
	</g>
	<g opacity="0.4">
		<g opacity="0.4">
			<line fill="none" stroke="#FFFFFF" stroke-miterlimit="10" x1="-0.1" y1="104.7" x2="4.9" y2="104.7"/>
			
				<line fill="none" stroke="#FFFFFF" stroke-miterlimit="10" stroke-dasharray="10,10" x1="14.9" y1="104.7" x2="893.9" y2="104.7"/>
			<line fill="none" stroke="#FFFFFF" stroke-miterlimit="10" x1="899.9" y1="104.7" x2="904.9" y2="104.7"/>
		</g>
	</g>
	<g opacity="0.4">
		<g opacity="0.4">
			<line fill="none" stroke="#FFFFFF" stroke-miterlimit="10" x1="-0.1" y1="52.7" x2="4.9" y2="52.7"/>
			<line fill="none" stroke="#FFFFFF" stroke-miterlimit="10" stroke-dasharray="10,10" x1="14.9" y1="52.7" x2="893.9" y2="52.7"/>
			<line fill="none" stroke="#FFFFFF" stroke-miterlimit="10" x1="899.9" y1="52.7" x2="904.9" y2="52.7"/>
		</g>
	</g>
	<g opacity="0.4">
		<g opacity="0.4">
			<line fill="none" stroke="#FFFFFF" stroke-miterlimit="10" x1="-0.1" y1="-0.3" x2="4.9" y2="-0.3"/>
			<line fill="none" stroke="#FFFFFF" stroke-miterlimit="10" stroke-dasharray="10,10" x1="14.9" y1="-0.3" x2="893.9" y2="-0.3"/>
			<line fill="none" stroke="#FFFFFF" stroke-miterlimit="10" x1="899.9" y1="-0.3" x2="904.9" y2="-0.3"/>
		</g>
	</g>
	<g>
		<g>
			<linearGradient id="SVGID_1_" gradientUnits="userSpaceOnUse" x1="42.6078" y1="53.4865" x2="42.6078" y2="214.6523">
				<stop  offset="0" style="stop-color:#009DDA"/>
				<stop  offset="0.1962" style="stop-color:#019AD7"/>
				<stop  offset="0.3581" style="stop-color:#0493CD"/>
				<stop  offset="0.5078" style="stop-color:#0986BC"/>
				<stop  offset="0.6501" style="stop-color:#1074A4"/>
				<stop  offset="0.7872" style="stop-color:#1A5D84"/>
				<stop  offset="0.9186" style="stop-color:#25415E"/>
				<stop  offset="1" style="stop-color:#2D2D43"/>
			</linearGradient>
			<path fill="url(#SVGID_1_)" d="M54.9,202.3c0,6.8-5.5,12.3-12.3,12.3s-12.3-5.6-12.3-12.3V65.8c0-6.8,5.5-12.3,12.3-12.3
				S54.9,59,54.9,65.8V202.3z"/>
		</g>
		<g>
			<linearGradient id="SVGID_2_" gradientUnits="userSpaceOnUse" x1="175.8512" y1="102.1286" x2="175.8512" y2="214.6523">
				<stop  offset="0" style="stop-color:#009DDA"/>
				<stop  offset="0.1962" style="stop-color:#019AD7"/>
				<stop  offset="0.3581" style="stop-color:#0493CD"/>
				<stop  offset="0.5078" style="stop-color:#0986BC"/>
				<stop  offset="0.6501" style="stop-color:#1074A4"/>
				<stop  offset="0.7872" style="stop-color:#1A5D84"/>
				<stop  offset="0.9186" style="stop-color:#25415E"/>
				<stop  offset="1" style="stop-color:#2D2D43"/>
			</linearGradient>
			<path fill="url(#SVGID_2_)" d="M188.2,204.3c0,5.7-4.6,10.3-10.3,10.3h-4c-5.7,0-10.3-4.6-10.3-10.3v-91.9
				c0-5.7,4.6-10.3,10.3-10.3h4c5.7,0,10.3,4.6,10.3,10.3V204.3z"/>
		</g>
		<g>
			<linearGradient id="SVGID_3_" gradientUnits="userSpaceOnUse" x1="309.0945" y1="22.9724" x2="309.0945" y2="214.6523">
				<stop  offset="0" style="stop-color:#009DDA"/>
				<stop  offset="0.1962" style="stop-color:#019AD7"/>
				<stop  offset="0.3581" style="stop-color:#0493CD"/>
				<stop  offset="0.5078" style="stop-color:#0986BC"/>
				<stop  offset="0.6501" style="stop-color:#1074A4"/>
				<stop  offset="0.7872" style="stop-color:#1A5D84"/>
				<stop  offset="0.9186" style="stop-color:#25415E"/>
				<stop  offset="1" style="stop-color:#2D2D43"/>
			</linearGradient>
			<path fill="url(#SVGID_3_)" d="M321.4,201.2c0,7.4-5.5,13.5-12.3,13.5s-12.3-6.1-12.3-13.5V36.4c0-7.4,5.5-13.5,12.3-13.5
				s12.3,6.1,12.3,13.5V201.2z"/>
		</g>
		<g>
			<linearGradient id="SVGID_4_" gradientUnits="userSpaceOnUse" x1="442.3379" y1="57.7754" x2="442.3379" y2="214.6523">
				<stop  offset="0" style="stop-color:#009DDA"/>
				<stop  offset="0.1962" style="stop-color:#019AD7"/>
				<stop  offset="0.3581" style="stop-color:#0493CD"/>
				<stop  offset="0.5078" style="stop-color:#0986BC"/>
				<stop  offset="0.6501" style="stop-color:#1074A4"/>
				<stop  offset="0.7872" style="stop-color:#1A5D84"/>
				<stop  offset="0.9186" style="stop-color:#25415E"/>
				<stop  offset="1" style="stop-color:#2D2D43"/>
			</linearGradient>
			<path fill="url(#SVGID_4_)" d="M454.6,202.5c0,6.7-5.5,12.2-12.2,12.2h-0.2c-6.7,0-12.2-5.5-12.2-12.2V70
				c0-6.7,5.5-12.2,12.2-12.2h0.2c6.7,0,12.2,5.5,12.2,12.2V202.5z"/>
		</g>
		<g>
			<linearGradient id="SVGID_5_" gradientUnits="userSpaceOnUse" x1="575.5812" y1="108.2572" x2="575.5812" y2="214.6523">
				<stop  offset="0" style="stop-color:#009DDA"/>
				<stop  offset="0.1962" style="stop-color:#019AD7"/>
				<stop  offset="0.3581" style="stop-color:#0493CD"/>
				<stop  offset="0.5078" style="stop-color:#0986BC"/>
				<stop  offset="0.6501" style="stop-color:#1074A4"/>
				<stop  offset="0.7872" style="stop-color:#1A5D84"/>
				<stop  offset="0.9186" style="stop-color:#25415E"/>
				<stop  offset="1" style="stop-color:#2D2D43"/>
			</linearGradient>
			<path fill="url(#SVGID_5_)" d="M587.9,204.6c0,5.5-4.5,10-10,10h-4.5c-5.5,0-10-4.5-10-10v-86.3c0-5.5,4.5-10,10-10h4.5
				c5.5,0,10,4.5,10,10V204.6z"/>
		</g>
		<g>
			<linearGradient id="SVGID_6_" gradientUnits="userSpaceOnUse" x1="842.0679" y1="108.2572" x2="842.0679" y2="214.6523">
				<stop  offset="0" style="stop-color:#009DDA"/>
				<stop  offset="0.1962" style="stop-color:#019AD7"/>
				<stop  offset="0.3581" style="stop-color:#0493CD"/>
				<stop  offset="0.5078" style="stop-color:#0986BC"/>
				<stop  offset="0.6501" style="stop-color:#1074A4"/>
				<stop  offset="0.7872" style="stop-color:#1A5D84"/>
				<stop  offset="0.9186" style="stop-color:#25415E"/>
				<stop  offset="1" style="stop-color:#2D2D43"/>
			</linearGradient>
			<path fill="url(#SVGID_6_)" d="M854.4,204.6c0,5.5-4.5,10-10,10h-4.5c-5.5,0-10-4.5-10-10v-86.3c0-5.5,4.5-10,10-10h4.5
				c5.5,0,10,4.5,10,10V204.6z"/>
		</g>
		<g>
			<linearGradient id="SVGID_7_" gradientUnits="userSpaceOnUse" x1="708.8245" y1="50.7211" x2="708.8245" y2="214.6523">
				<stop  offset="0" style="stop-color:#009DDA"/>
				<stop  offset="0.1962" style="stop-color:#019AD7"/>
				<stop  offset="0.3581" style="stop-color:#0493CD"/>
				<stop  offset="0.5078" style="stop-color:#0986BC"/>
				<stop  offset="0.6501" style="stop-color:#1074A4"/>
				<stop  offset="0.7872" style="stop-color:#1A5D84"/>
				<stop  offset="0.9186" style="stop-color:#25415E"/>
				<stop  offset="1" style="stop-color:#2D2D43"/>
			</linearGradient>
			<path fill="url(#SVGID_7_)" d="M721.1,202.2c0,6.8-5.5,12.5-12.3,12.5s-12.3-5.6-12.3-12.5v-139c0-6.8,5.5-12.5,12.3-12.5
				s12.3,5.6,12.3,12.5V202.2z"/>
		</g>
	</g>
</g>
</svg>
