<?xml version="1.0" encoding="utf-8"?>
<!-- Generator: Adobe Illustrator 18.0.0, SVG Export Plug-In . SVG Version: 6.00 Build 0)  -->
<!DOCTYPE svg PUBLIC "-//W3C//DTD SVG 1.1//EN" "http://www.w3.org/Graphics/SVG/1.1/DTD/svg11.dtd">
<svg version="1.1" id="Layer_1" xmlns="http://www.w3.org/2000/svg" xmlns:xlink="http://www.w3.org/1999/xlink" x="0px" y="0px"
	 viewBox="0 0 589.7 164.7" enable-background="new 0 0 589.7 164.7" xml:space="preserve">
<g>
	<g>
		<rect x="44.7" y="95.3" fill="none" width="77.8" height="13.1"/>
		<text transform="matrix(1 0 0 1 44.6656 106.0077)" fill="#ABABB4" font-family="'Roboto-Bold'" font-size="14">Subtítulo</text>
		<g>
			<rect x="26.3" y="56.2" fill="none" width="111.8" height="34.7"/>
			<text transform="matrix(1 0 0 1 51.4174 85.9066)" fill="#009DDA" font-family="'Roboto-Bold'" font-size="39.0013">43</text>
			<text transform="matrix(0.583 0 0 0.583 96.1694 72.9193)" fill="#009DDA" font-family="'Roboto-Bold'" font-size="39.0013">%</text>
		</g>
	</g>
	<g>
		<path fill="#2D2D43" d="M7.9,82.3c0-41.1,32.6-74.4,74.6-74.4V0c-27,0-50.7,11.9-66.8,33.9c-26.7,36.8-18.6,88.3,18.2,115l4.7-6.4
			C20,129,7.9,107.1,7.9,82.3z"/>
		<path fill="#009DDA" d="M82.5,0v8.5c0,0-0.4,0-0.3,0c41.1,0,74.4,33,74.4,74.1c0,41.1-33.3,74.3-74.4,74.3
			c-16.4,0-31.5-5.4-43.8-14.3l-4.6,6.4c14.7,10.7,30.3,15.7,48.4,15.7c45.5,0,82.5-36.9,82.5-82.3C164.7,36.9,128.5,0,82.5,0z"/>
	</g>
	<g>
		<rect x="264.7" y="95.3" fill="none" width="77.8" height="13.1"/>
		<text transform="matrix(1 0 0 1 264.6655 106.0077)" fill="#ABABB4" font-family="'Roboto-Bold'" font-size="14">Subtítulo</text>
		<g>
			<rect x="246.3" y="56.2" fill="none" width="111.8" height="34.7"/>
			<text transform="matrix(1 0 0 1 271.4174 85.9066)" fill="#009DDA" font-family="'Roboto-Bold'" font-size="39.0013">21</text>
			<text transform="matrix(0.583 0 0 0.583 316.1694 72.9193)" fill="#009DDA" font-family="'Roboto-Bold'" font-size="39.0013">%</text>
		</g>
	</g>
	<g>
		<path fill="#2D2D43" d="M227.9,82.3c0-41.1,32.6-74.4,74.6-74.4V0c-27,0-50.7,11.9-66.8,33.9c-26.7,36.8-18.6,88.3,18.2,115
			l4.7-6.4C240,129,227.9,107.1,227.9,82.3z"/>
		<path fill="#009DDA" d="M302.5,0v8.5c0,0-0.4,0-0.3,0c41.1,0,74.4,33,74.4,74.1c0,41.1-33.3,74.3-74.4,74.3
			c-16.4,0-31.5-5.4-43.8-14.3l-4.6,6.4c14.7,10.7,30.3,15.7,48.4,15.7c45.5,0,82.5-36.9,82.5-82.3C384.7,36.9,348.5,0,302.5,0z"/>
	</g>
	<g>
		<rect x="469.7" y="95.3" fill="none" width="77.8" height="13.1"/>
		<text transform="matrix(1 0 0 1 469.6655 106.0077)" fill="#ABABB4" font-family="'Roboto-Bold'" font-size="14">Subtítulo</text>
		<g>
			<rect x="451.3" y="56.2" fill="none" width="111.8" height="34.7"/>
			<text transform="matrix(1 0 0 1 476.4173 85.9066)" fill="#009DDA" font-family="'Roboto-Bold'" font-size="39.0013">80</text>
			<text transform="matrix(0.583 0 0 0.583 521.1693 72.9193)" fill="#009DDA" font-family="'Roboto-Bold'" font-size="39.0013">%</text>
		</g>
	</g>
	<g>
		<path fill="#2D2D43" d="M432.9,82.3c0-41.1,32.6-74.4,74.6-74.4V0c-27,0-50.7,11.9-66.8,33.9c-26.7,36.8-18.6,88.3,18.2,115
			l4.7-6.4C445,129,432.9,107.1,432.9,82.3z"/>
		<path fill="#009DDA" d="M507.5,0v8.5c0,0-0.4,0-0.3,0c41.1,0,74.4,33,74.4,74.1c0,41.1-33.3,74.3-74.4,74.3
			c-16.4,0-31.5-5.4-43.8-14.3l-4.6,6.4c14.7,10.7,30.3,15.7,48.4,15.7c45.5,0,82.5-36.9,82.5-82.3C589.7,36.9,553.5,0,507.5,0z"/>
	</g>
</g>
</svg>
