<?xml version="1.0" encoding="utf-8"?>
<!-- Generator: Adobe Illustrator 18.0.0, SVG Export Plug-In . SVG Version: 6.00 Build 0)  -->
<!DOCTYPE svg PUBLIC "-//W3C//DTD SVG 1.1//EN" "http://www.w3.org/Graphics/SVG/1.1/DTD/svg11.dtd">
<svg version="1.1" id="Layer_1" xmlns="http://www.w3.org/2000/svg" xmlns:xlink="http://www.w3.org/1999/xlink" x="0px" y="0px"
	 viewBox="0 0 48.2 48.1" enable-background="new 0 0 48.2 48.1" xml:space="preserve">
<g>
	<g>
		
			<path fill="none" stroke="#009DDA" stroke-width="2.8" stroke-linecap="round" stroke-linejoin="round" stroke-miterlimit="10" d="
			M45.9,2.2C46.9,3.3,47,4.9,46.3,7c-0.7,2.1-1.9,3.9-3.5,5.6l-5.2,5.2l5.2,22.5c0.1,0.4,0,0.8-0.4,1.1l-4.1,3.1
			c-0.2,0.1-0.4,0.2-0.6,0.2c-0.1,0-0.2,0-0.2,0c-0.3-0.1-0.5-0.2-0.7-0.5l-9-16.4l-8.4,8.4l1.7,6.3c0.1,0.4,0,0.7-0.3,1l-3.1,3.1
			c-0.2,0.2-0.4,0.3-0.7,0.3h-0.1c-0.3,0-0.6-0.2-0.8-0.4L10,38.2l-8.2-6.1c-0.2-0.2-0.4-0.4-0.4-0.7c0-0.3,0.1-0.6,0.3-0.8l3.1-3.1
			c0.2-0.2,0.4-0.3,0.7-0.3c0.1,0,0.2,0,0.3,0l6.3,1.7l8.4-8.4L4,11.4c-0.3-0.2-0.5-0.4-0.5-0.8c0-0.3,0.1-0.6,0.3-0.9l4.1-4.1
			c0.3-0.3,0.6-0.4,1-0.3l21.5,5.1l5.2-5.2c1.6-1.6,3.5-2.8,5.6-3.5C43.2,1.1,44.8,1.3,45.9,2.2z"/>
	</g>
</g>
</svg>
