<?xml version="1.0" encoding="utf-8"?>
<!-- Generator: Adobe Illustrator 18.0.0, SVG Export Plug-In . SVG Version: 6.00 Build 0)  -->
<!DOCTYPE svg PUBLIC "-//W3C//DTD SVG 1.1//EN" "http://www.w3.org/Graphics/SVG/1.1/DTD/svg11.dtd">
<svg version="1.1" id="Layer_1" xmlns="http://www.w3.org/2000/svg" xmlns:xlink="http://www.w3.org/1999/xlink" x="0px" y="0px"
	 viewBox="0 0 65.8 58.2" enable-background="new 0 0 65.8 58.2" xml:space="preserve">
<g>
	<path fill="none" stroke="#009DDA" stroke-width="2" stroke-miterlimit="10" d="M31,33.2c3.5-5.1,7.1-10.2,10.6-15.3
		c0.9-1.4,2.1-2,3.9-1.7c1.3,0.2,2.7,0.3,4.1,0.4c1.3,0,2,0.5,2.6,1.4c1.3,2,2.6,4.1,3.9,6.1c0.2,0.2,0.3,0.5,0.5,0.8
		c1.5-0.8,3-1.5,4.4-2.2c1.3-0.6,2.7-0.4,3.4,0.6c0.7,1,0.2,2.1-1.1,2.8c-2.1,1-4.2,2.1-6.3,3.1c-1.6,0.8-2.8,0.5-3.7-0.9
		c-0.5-0.9-1.1-1.7-1.8-2.6c-0.2,1.8-0.3,3.6-0.6,5.3c-0.3,1.6,0.1,3.1,0.8,4.6c2.5,5.7,4.9,11.4,7.4,17.1c0.3,0.6,0.4,1.3,0.2,1.9
		c-0.2,1.1-1.4,1.9-2.7,2c-1.2,0.1-2.4-0.6-2.9-1.7c-1.2-2.8-2.4-5.6-3.6-8.4c-1.5-3.4-2.9-6.8-4.4-10.2c-0.1-0.2-0.2-0.5-0.5-0.7
		c-0.5,1.9-1,3.8-1.4,5.7c-0.4,1.9-1.2,3.7-2.5,5.3c-2.2,2.8-4.2,5.7-6.3,8.5c-1.4,1.8-4,1.9-5.2,0.2c-0.7-1-0.6-2,0.2-3
		c1.8-2.4,3.5-4.9,5.4-7.3c1.5-1.8,2.3-3.7,2.8-5.9c0.6-2.9,1.4-5.7,2.1-8.6c0.2-1,0.3-2.1,0.3-3.2c-0.6,0.8-1.2,1.6-1.7,2.4
		c-1.3,1.8-2.6,3.6-3.8,5.5c-1.1,1.6-2.4,2.6-4.1,1.1C30.2,35.8,30.1,34.4,31,33.2z"/>
	<path fill="none" stroke="#009DDA" stroke-width="2" stroke-miterlimit="10" d="M54.7,6.9c0,3.2-2.7,5.9-5.9,5.8
		c-3.2,0-5.9-2.7-5.9-5.9C43,3.7,45.6,1,48.8,1C52.1,1,54.7,3.6,54.7,6.9z"/>
	<g>
		<g>
			<g>
				<path fill="none" stroke="#009DDA" stroke-width="2" stroke-miterlimit="10" d="M23.9,40.5c0.5,0.5,0.5,1.4,0,1.9L9.4,56.9
					c-0.5,0.5-1.4,0.5-1.9,0l-6.1-6.1c-0.5-0.5-0.5-1.4,0-1.9l14.5-14.5c0.5-0.5,1.4-0.5,1.9,0L23.9,40.5z"/>
			</g>
			<g>
				<path fill="none" stroke="#009DDA" stroke-width="2" stroke-miterlimit="10" d="M34.5,30.1"/>
			</g>
			<g>
				<line fill="none" stroke="#009DDA" stroke-width="2" stroke-miterlimit="10" x1="24.2" y1="42" x2="30.3" y2="36"/>
			</g>
		</g>
	</g>
</g>
</svg>
