<?xml version="1.0" encoding="utf-8"?>
<!-- Generator: Adobe Illustrator 18.0.0, SVG Export Plug-In . SVG Version: 6.00 Build 0)  -->
<!DOCTYPE svg PUBLIC "-//W3C//DTD SVG 1.1//EN" "http://www.w3.org/Graphics/SVG/1.1/DTD/svg11.dtd">
<svg version="1.1" id="Layer_1" xmlns="http://www.w3.org/2000/svg" xmlns:xlink="http://www.w3.org/1999/xlink" x="0px" y="0px"
	 viewBox="0 0 103.3 51.7" enable-background="new 0 0 103.3 51.7" xml:space="preserve">
<g>
	<path fill="none" stroke="#009DDA" stroke-width="2" stroke-miterlimit="10" d="M10.3,49.6c-1.1-1.8-2-3.4-2.9-5
		c-1.8-3-3.6-6.1-5.2-9.2c-2.3-4.3-1.2-9.2,2.7-12c3.6-2.6,8.8-2.1,11.9,1.1c2.7,2.8,3.5,7.4,1.6,10.9
		C15.9,40.2,13.1,44.8,10.3,49.6z M10.1,27.3c-2,0-3.5,1.6-3.5,3.5c0,2,1.6,3.5,3.6,3.5c1.9,0,3.4-1.5,3.4-3.5
		C13.6,28.9,12.1,27.3,10.1,27.3z"/>
	<path fill="none" stroke="#009DDA" stroke-width="2" stroke-miterlimit="10" d="M86.3,49.6c-5.1-8.8-9.9-17-14.5-25.4
		C68.3,17.7,70,9.8,75.5,5c5.8-5,13.7-5.3,20.2-0.7c5.4,3.9,8.3,12.3,5.3,18.6C96.6,31.8,91.4,40.4,86.3,49.6z M92.2,16.7
		c0-3.4-2.8-6.1-6.2-6c-3.5,0.1-6,2.8-5.9,6.3c0.1,3.4,2.7,5.9,6.1,5.9C89.5,22.8,92.2,20.1,92.2,16.7z"/>
	<g>
		<g>
			<line fill="none" stroke="#009DDA" stroke-width="2" stroke-miterlimit="10" x1="23.1" y1="49.5" x2="27.1" y2="49.5"/>
			
				<line fill="none" stroke="#009DDA" stroke-width="2" stroke-miterlimit="10" stroke-dasharray="8,8" x1="35.1" y1="49.5" x2="62.1" y2="49.5"/>
			<line fill="none" stroke="#009DDA" stroke-width="2" stroke-miterlimit="10" x1="66.1" y1="49.5" x2="71.1" y2="49.5"/>
		</g>
	</g>
</g>
</svg>
