<?xml version="1.0" encoding="utf-8"?>
<!-- Generator: Adobe Illustrator 18.0.0, SVG Export Plug-In . SVG Version: 6.00 Build 0)  -->
<!DOCTYPE svg PUBLIC "-//W3C//DTD SVG 1.1//EN" "http://www.w3.org/Graphics/SVG/1.1/DTD/svg11.dtd">
<svg version="1.1" id="Layer_1" xmlns="http://www.w3.org/2000/svg" xmlns:xlink="http://www.w3.org/1999/xlink" x="0px" y="0px"
	 viewBox="0 0 61.4 48.6" enable-background="new 0 0 61.4 48.6" xml:space="preserve">
<g>
	<path fill="none" stroke="#009DDA" stroke-width="2" stroke-miterlimit="10" d="M27.6,38.5c1.8-5.9,3.5-11.5,5.4-17.5
		c-1.3,0.4-2.3,0.8-3.4,1.1C24.3,24.1,19,26,13.7,28c-1,0.4-1.6,0.3-2.5-0.4c-3.1-2.7-6.3-5.4-9.5-8c-0.9-0.8-1.3-1.1,0.1-2
		c3.5-2.3,6.5-2.2,9.7,0.6c1,0.9,2.1,2.5,3.7,1.7c4.4-2.2,8.7-4.5,13.3-6.9c-4.1-1.9-8-3.6-12.2-5.5c2.1-1,4-1.9,5.8-2.9
		c0.7-0.4,1.3-0.2,1.9,0c4.1,1,8.2,1.9,12.2,2.9c1.3,0.3,2.4,0.2,3.6-0.3c4.1-1.8,8.3-3.6,12.4-5.4c1.2-0.5,2.5-1,3.9-0.7
		c2.1,0.5,3.7,2.1,4,4.2c0.3,2-0.8,4.1-2.8,5.1c-3.9,1.9-7.9,3.8-11.9,5.6c-1.2,0.5-1.9,1.3-2.4,2.4c-2.3,4.9-4.7,9.8-7,14.8
		c-0.5,1.1-1.2,1.8-2.3,2.3C31.9,36.4,29.9,37.4,27.6,38.5z"/>
	<line fill="none" stroke="#009DDA" stroke-width="2" stroke-miterlimit="10" x1="5.2" y1="47.6" x2="54" y2="47.6"/>
</g>
</svg>
