<?xml version="1.0" encoding="utf-8"?>
<!-- Generator: Adobe Illustrator 18.0.0, SVG Export Plug-In . SVG Version: 6.00 Build 0)  -->
<!DOCTYPE svg PUBLIC "-//W3C//DTD SVG 1.1//EN" "http://www.w3.org/Graphics/SVG/1.1/DTD/svg11.dtd">
<svg version="1.1" id="Layer_1" xmlns="http://www.w3.org/2000/svg" xmlns:xlink="http://www.w3.org/1999/xlink" x="0px" y="0px"
	 viewBox="0 0 195.2 416.4" enable-background="new 0 0 195.2 416.4" xml:space="preserve">
<g>
	<g>
		<g>
			
				<polygon fill-rule="evenodd" clip-rule="evenodd" fill="#2D2D43" stroke="#A6A7AA" stroke-width="0.5751" stroke-miterlimit="10" points="
				169.9,68 172.6,72.7 172.9,74.7 175,76.9 184.3,71.4 187.3,71.1 192.7,67.2 194.9,56.6 193.6,53.9 192,48 184.7,49.3 183.3,58 
				177.2,63.6 			"/>
			
				<polygon fill-rule="evenodd" clip-rule="evenodd" fill="none" stroke="#A6A7AA" stroke-width="0.5751" stroke-miterlimit="10" points="
				168.6,81 161.9,89.4 156,96.6 148.9,102.9 145.6,110.6 139.7,105.2 124.9,106.6 125.1,101.8 129.8,88.3 131.1,77.8 134.1,74.5 
				135.5,68.5 146.7,69.7 165.3,70.2 169.9,68 172.8,72.7 172.9,74.7 175,76.9 			"/>
			
				<polygon fill-rule="evenodd" clip-rule="evenodd" fill="none" stroke="#A6A7AA" stroke-width="0.5751" stroke-miterlimit="10" points="
				95.9,8.4 97.3,10.3 100,11.6 110.4,21.1 118,27.9 124.7,28.7 137.4,37.2 139.7,39.7 143.6,40 149.2,43.3 149.8,45.8 143.6,54.4 
				141.2,62.7 127.2,53.9 124.9,49.4 114.5,40 104.8,34.1 103.6,32.2 95.9,29.1 			"/>
			
				<polygon fill-rule="evenodd" clip-rule="evenodd" fill="none" stroke="#A6A7AA" stroke-width="0.5751" stroke-miterlimit="10" points="
				60.9,105.7 56.4,94.9 49.1,89.1 48.2,85.5 43.4,82.2 40.3,83.8 35,83.3 25.1,77.4 17.5,76 13.8,82.7 19.2,85.8 22.8,89.6 
				23.4,98 31.3,101.8 35.8,106 41.5,113.2 43.2,119.9 45.7,127.1 51.3,127.6 55.6,126.8 55.6,112.4 			"/>
			
				<polyline fill-rule="evenodd" clip-rule="evenodd" fill="none" stroke="#A6A7AA" stroke-width="0.5751" stroke-miterlimit="10" points="
				65.4,69.9 65.2,75.2 62.6,76 58.1,77.4 54.2,73.3 54.2,69.4 52.5,67.5 53.3,62.5 50.5,59.7 50.5,56.8 55.6,56.6 57.5,53.9 
				70,56.1 			"/>
			
				<polygon fill-rule="evenodd" clip-rule="evenodd" fill="none" stroke="#A6A7AA" stroke-width="0.5751" stroke-miterlimit="10" points="
				40.9,127.4 40.6,133.5 36.4,131.5 31,130.7 28.2,133.7 24.3,134.6 24.3,131.2 17.5,132.1 16.4,135.4 9.6,136.8 7.9,133.2 
				8.5,130.7 5.6,128.5 5.1,121 7.6,114.6 10.2,107.4 7.9,95.5 10.7,93.2 13.8,82.7 19.2,85.8 22.8,89.6 23.4,98 31.3,101.8 
				35.8,106 41.5,113.2 43.2,119.9 45.7,127.1 			"/>
			
				<polygon fill-rule="evenodd" clip-rule="evenodd" fill="none" stroke="#A6A7AA" stroke-width="0.5751" stroke-miterlimit="10" points="
				95.9,106.6 102.4,80.8 102.3,77.8 131.1,77.8 129.8,88.3 125.1,101.8 124.9,106.6 123.3,111.8 119,117.7 115.6,122.9 
				113.4,126.5 113.1,134.3 117.9,144.6 115.1,147.9 110.9,147.6 102.1,157.6 83.8,157.6 100.1,137.9 97.6,131.8 96.2,126.8 
				99.6,112.9 			"/>
			
				<polygon fill-rule="evenodd" clip-rule="evenodd" fill="none" stroke="#A6A7AA" stroke-width="0.5751" stroke-miterlimit="10" points="
				145.6,110.6 139.7,105.2 124.9,106.6 123.3,111.8 119,117.7 115.6,122.9 113.4,126.5 113.1,134.3 117.9,144.6 125.8,148.4 
				131.2,152.3 137.6,154.3 137.4,147.9 137.4,143.2 140.2,140.1 140.2,126 143.9,117.1 			"/>
			
				<polygon fill-rule="evenodd" clip-rule="evenodd" fill="none" stroke="#A6A7AA" stroke-width="0.5751" stroke-miterlimit="10" points="
				40.9,127.4 40.6,133.5 41.2,139.3 43.2,145.4 49.4,156.8 51.3,162.9 50.2,175.3 64.9,175.3 64.9,143.2 66.9,137.1 66.6,132.1 
				63.7,131.5 62.1,129 55.6,126.8 51.3,127.6 45.7,127.1 			"/>
			
				<polygon fill-rule="evenodd" clip-rule="evenodd" fill="#2D2D43" stroke="#A6A7AA" stroke-width="0.5751" stroke-miterlimit="10" points="
				64.9,165.6 64.9,143.2 66.9,137.1 66.6,132.1 63.7,131.5 62.1,129 55.6,126.8 55.6,112.4 60.9,105.7 64.3,104.6 67.7,101.6 
				68.3,97.4 72.8,95.7 79.8,97.1 89.1,98.2 92.8,105.7 95.9,106.6 99.6,112.9 96.2,126.8 97.6,131.8 100.1,137.9 83.8,157.6 
				83.8,165.6 			"/>
			
				<polygon fill-rule="evenodd" clip-rule="evenodd" fill="#2D2D43" stroke="#A6A7AA" stroke-width="0.5751" stroke-miterlimit="10" points="
				9.6,136.8 16.4,135.4 17.5,132.1 24.3,131.2 24.3,134.6 28.2,133.7 31,130.7 36.4,131.5 40.6,133.5 41.2,139.3 43.2,145.4 
				49.4,156.8 51.3,162.9 50.2,175.3 35.8,175.3 35.8,199.7 26,195.6 20.3,194.2 17.5,190.3 12.7,188.4 9.6,183.4 9.6,173.4 
				7.9,171.2 9.9,168.7 12.7,158.7 14.1,156.5 14.1,146.2 11.3,144 			"/>
			<polygon fill-rule="evenodd" clip-rule="evenodd" fill="#232332" points="32.2,220.5 37,218 35.8,214.7 35.8,199.7 26,195.6 
				20.3,194.2 17.5,190.3 12.7,188.4 9.6,183.4 6.2,185.3 3.7,193.9 4.5,198.9 3.7,204.2 8.7,213.6 3.4,219.2 2.8,227.5 0,229.1 
				1.7,237.5 0.6,240.8 1.7,246.3 9,245.8 10.4,240.5 16.6,238 20.3,231.9 21.4,228.9 			"/>
			
				<polygon fill-rule="evenodd" clip-rule="evenodd" fill="none" stroke="#A6A7AA" stroke-width="0.5751" stroke-miterlimit="10" points="
				35.8,199.7 35.8,175.3 50.2,175.3 64.9,175.3 64.9,165.6 83.8,165.6 83.8,221.1 73.3,215.3 62.1,215 54.4,213.9 47.4,210 
				42.3,208.9 40.6,203.1 38.4,200.6 			"/>
			
				<polygon fill-rule="evenodd" clip-rule="evenodd" fill="#2D2D43" stroke="#A6A7AA" stroke-width="0.5751" stroke-miterlimit="10" points="
				137.6,154.3 131.2,152.3 125.8,148.4 117.9,144.6 115.1,147.9 110.9,147.6 102.1,157.6 83.8,157.6 83.8,221.1 83.8,237.2 
				87.7,239.1 90.3,242.2 95.3,237.2 94.2,231.6 95.3,224.4 97.6,223.3 95.3,217.8 94.2,212.5 95.3,211.1 99.6,213.3 108.9,214.4 
				117.6,213.9 126.9,211.7 138.2,207.2 146.1,200 153.2,189.5 153.2,182.3 148.9,182.3 147,176.4 148.1,171.5 147.5,168.1 
				141.3,163.1 137.4,159 			"/>
			
				<polygon fill-rule="evenodd" clip-rule="evenodd" fill="#2D2D43" stroke="#A6A7AA" stroke-width="0.5751" stroke-miterlimit="10" points="
				90.3,242.2 87.7,239.1 83.8,237.2 83.8,221.1 73.3,215.3 62.1,215 54.4,213.9 47.4,210 42.3,208.9 40.6,203.1 38.4,200.6 
				35.8,199.7 35.8,214.7 37,218 32.2,220.5 21.4,228.9 20.3,231.9 16.6,238 10.4,240.5 9,245.8 1.7,246.3 3.4,254.9 69.7,254.9 
				70.5,248.3 68,242.7 68,239.4 70.8,239.1 77.9,242.2 82.9,243.3 88.3,243.8 			"/>
			
				<polygon fill-rule="evenodd" clip-rule="evenodd" fill="none" stroke="#A6A7AA" stroke-width="0.5751" stroke-miterlimit="10" points="
				70.2,257.2 73.6,257.2 74.7,259.4 77.6,258 75.9,255.8 81.5,255.8 83.5,262.4 78.7,264.6 78.7,262.1 74.7,261 71.9,262.4 
				71.9,264.6 76.2,266 76.4,267.4 70.8,271.3 68.5,276.3 68.8,283.2 66.6,285.4 66,288.2 67.7,290.4 65.7,292.4 59.8,292.9 
				57.8,294.9 54.2,296 50.2,301 48.5,305.7 11,305.7 13,301.2 12.4,297.9 8.2,297.1 5.9,294.6 6.2,292.7 13.8,292.4 13.3,288.8 
				8.5,287.9 6.8,282.7 7.6,279.9 7.3,277.1 5.4,276 3.4,268.2 1.1,266.6 1.1,261 3.9,257.7 3.4,254.9 69.7,254.9 			"/>
			
				<polygon fill-rule="evenodd" clip-rule="evenodd" fill="none" stroke="#A6A7AA" stroke-width="0.5751" stroke-miterlimit="10" points="
				10.4,308.2 12.4,317.3 10.2,322 8.2,331.8 9.3,337.9 9.6,349 5.9,356.2 6.2,366.7 7.9,369.5 10.2,374.5 13.8,372.2 18.1,373.4 
				17.8,378.6 21.2,385 37.2,385 41.7,385.8 45.7,386.7 47.1,385.6 42.3,378.1 39.8,369.8 41.2,361.4 49.6,353.4 50.5,348.4 
				52.5,341.5 60.4,333.7 63.2,333.4 63.5,330.4 66,323.4 65.4,319.8 63.2,317.6 57,316.5 52.5,313.2 49.1,309.6 48.5,305.7 
				11,305.7 			"/>
			
				<polygon fill-rule="evenodd" clip-rule="evenodd" fill="none" stroke="#A6A7AA" stroke-width="0.5751" stroke-miterlimit="10" points="
				46,390 46,410 53.3,410.2 57.8,411.4 56.7,413 45.7,411.9 45.7,416.1 54.4,415.5 60.6,415.2 65.7,415.8 71.4,415 72.8,412.7 
				65.4,411.4 60.9,408 56.4,404.1 53,401.1 50.8,398 47.4,397.2 48.8,394.2 			"/>
			
				<polygon fill-rule="evenodd" clip-rule="evenodd" fill="none" stroke="#A6A7AA" stroke-width="0.5751" stroke-miterlimit="10" points="
				136.9,358.5 135.9,360.1 134.4,360.3 134.7,361.5 132,364.7 129.9,367.2 128,366.7 126.8,367.6 125.6,369.4 124.1,370.5 
				123.2,369.2 121.5,368.9 120.1,366.9 122.5,366.4 124.2,365.8 124.9,363.9 124.2,361.9 126.8,361.9 128.4,362.6 125.9,360.1 
				124.6,358.8 122.9,357.2 124.4,356.3 126.3,358.6 129.3,357.9 131.7,358.2 134.1,358.8 135.1,356.8 136.9,356.5 			"/>
			
				<polygon fill-rule="evenodd" clip-rule="evenodd" fill="none" stroke="#A6A7AA" stroke-width="0.5751" stroke-miterlimit="10" points="
				137.6,364.4 136.3,362.8 134.4,364 132.5,366.2 131.4,368.2 132,370.1 133.4,371.9 133.8,373 135.5,372.6 134.5,370.5 
				136.9,370.3 137.9,368.9 139.2,370.3 140,368.5 138.2,366.2 138.9,365.4 141.3,366.1 143.5,366.4 146.4,364.2 147.9,361.9 
				150,361.7 150,360.1 148.6,357.9 146.2,357.8 146.4,360.3 144,359.2 142.1,358.9 142.1,357.7 144.2,357.7 144.4,356.1 
				142.3,355.8 139.7,356.1 140.2,358.3 137.9,359.9 137.3,361.5 138.3,363.5 			"/>
			
				<polygon fill-rule="evenodd" clip-rule="evenodd" fill="#2D2D43" stroke="#A6A7AA" stroke-width="0.5751" stroke-miterlimit="10" points="
				81.3,48.9 95.9,31 95.9,29.1 95.9,8.4 89.3,1.6 74.2,1.6 70.5,9.4 67.1,5.6 63.7,4.5 60.2,4.4 59.8,13.4 62.5,15 64.2,20.3 
				68.8,19.8 73.2,21.2 73.2,31.7 70.1,34 64.9,35.3 57.5,33.6 52.2,27.8 52.2,22.5 47.4,21.1 46.8,28.1 43.4,30 37,26.1 35.3,29.7 
				24,35.8 22.3,39.2 22.8,42.2 33,43.9 46.8,44.7 47.1,49.7 44.3,50.8 48.5,56.9 55.6,56.6 57.5,53.9 70,56.1 73.3,50.3 80.1,50 
				81.2,48.9 			"/>
			
				<polygon fill-rule="evenodd" clip-rule="evenodd" fill="none" stroke="#A6A7AA" stroke-width="0.5751" stroke-miterlimit="10" points="
				50.5,59.7 53.3,62.5 52.5,67.5 54.2,69.4 54.2,73.3 58.1,77.4 62.6,76 63.2,82.7 63.7,89.4 67.7,93 68.3,97.4 67.7,101.6 
				64.3,104.6 60.9,105.7 56.4,94.9 49.1,89.1 48.2,85.5 43.4,82.2 40.3,83.8 35,83.3 25.1,77.4 17.5,76 19.5,67.5 24.3,66.6 
				24.8,64.1 21.7,58.9 23.4,54.7 22.8,42.2 33,43.9 46.8,44.7 47.1,49.7 44.3,50.8 48.5,56.9 50.5,56.8 			"/>
			
				<polygon fill-rule="evenodd" clip-rule="evenodd" fill="none" stroke="#A6A7AA" stroke-width="0.5751" stroke-miterlimit="10" points="
				134.1,74.5 135.5,68.5 141.2,62.7 127.2,53.9 124.9,49.4 114.5,40 104.8,34.1 103.6,32.2 95.9,29.1 95.9,31 81.3,48.9 
				102.3,48.9 102.3,77.8 131.1,77.8 			"/>
			
				<polygon fill-rule="evenodd" clip-rule="evenodd" fill="none" stroke="#A6A7AA" stroke-width="0.5751" stroke-miterlimit="10" points="
				81.3,48.9 102.3,48.9 102.3,77.8 102.4,80.8 95.9,106.6 92.8,105.7 89.1,98.2 79.8,97.1 72.8,95.7 68.3,97.4 67.7,93 63.7,89.4 
				63.2,82.7 62.6,76 65.2,75.2 65.4,69.9 70.2,61.1 70,56.1 73.3,50.3 80.1,50 			"/>
			
				<polygon fill-rule="evenodd" clip-rule="evenodd" fill="none" stroke="#A6A7AA" stroke-width="0.5751" stroke-miterlimit="10" points="
				38.6,15 37.2,12.3 40.9,8.4 45.7,5.6 46.5,1.7 48.5,0.3 55.8,4.2 60.2,4.4 59.8,13.4 62.5,15 64.2,20.3 68.8,19.8 73.2,21.2 
				73.2,31.7 70.1,34 64.9,35.3 57.5,33.6 52.2,27.8 52.2,22.5 47.4,21.1 46.8,28.1 43.4,30 37,26.1 			"/>
		</g>
	</g>
	<path id="stroke_p01_8_" fill="none" stroke="#A6A7AA" stroke-width="0.5751" stroke-miterlimit="10" d="M157.6,168.9L157.6,168.9"
		/>
	<path fill="none" stroke="#A6A7AA" stroke-width="0.5751" stroke-miterlimit="10" d="M135.7,153.7l-1.5,0.4l-0.9,0.1l-0.5,1h0.5
		l0.4,0.8l-0.1,0.5l-0.3,0.2l-0.3,0.5l-0.4,0l-0.7,0.9l-0.4,0.5l0,0.4l0,0.9l0,0.4l0.8,1.3c0,0,0.1,0.7,0.1,0.9
		c0,0.2,1.5,0.7,1.5,0.7l0.9,1.1l0,0.8l0.6,0.6l1.4,0l1.6-0.4l0.7,0.3l2.4-2.5"/>
	<polyline fill="none" stroke="#A6A7AA" stroke-width="0.5751" stroke-miterlimit="10" points="138.8,160.5 138.2,161 138.2,161 
		138.2,161 138.1,161 138.1,161 138.1,161 138.1,161 138,160.9 137.8,161 137.8,161 137.5,161.3 137.4,161.5 137.2,161.7 
		136.3,160.8 136.3,160.1 136.8,159 137.3,158.7 137.3,158.7 137.4,158.7 137.4,158.7 137.4,158.7 	"/>
</g>
<g>
	
		<path fill-rule="evenodd" clip-rule="evenodd" fill="none" stroke="#808184" stroke-width="2" stroke-linecap="round" stroke-linejoin="round" stroke-miterlimit="10" d="
		M193.6,53.9L192,48l-7.3,1.3l-1.3,8.7l-6.2,5.5l-7.3,4.5l-4.6,2.2l-18.6-0.6l-11.1-1.2l5.6-5.8l2.4-8.3l6.2-8.5l-0.6-2.5l-5.6-3.3
		l-3.9-0.3l-2.3-2.5l-12.7-8.5l-6.6-0.9l-7.6-6.7L100,11.6l-2.7-1.3l-1.4-2l-6.6-6.8H74.2l-3.6,7.8l-3.4-3.8l-3.4-1.1l-3.6-0.1
		l-4.3-0.2l-7.3-3.9l-2,1.4l-0.8,3.9l-4.8,2.8l-3.7,3.9l1.4,2.8L37,26.1l-1.7,3.6L24,35.8l-1.7,3.3l0.6,3.1l0.6,12.5l-1.7,4.2
		l3.1,5.3l-0.6,2.5l-4.8,0.8l-2,8.6l-3.7,6.7l-3.1,10.5l-2.8,2.2l2.3,11.9l-2.5,7.2L5.1,121l0.6,7.5l2.8,2.2l-0.6,2.5l1.7,3.6
		l1.7,7.2l2.8,2.2v10.3l-1.4,2.2l-2.8,10l-2,2.5l1.7,2.2v10l-3.4,1.9l-2.5,8.6l0.8,5l-0.8,5.3l5.1,9.4l-5.4,5.5l-0.6,8.3L0,229.1
		l1.7,8.3l-1.1,3.3l1.1,5.5l1.7,8.6l0.6,2.8L1.1,261v5.5l2.3,1.7l2,7.8l2,1.1l0.3,2.8l-0.8,2.8l1.7,5.3l4.8,0.8l0.6,3.6l-7.6,0.3
		l-0.3,1.9l2.3,2.5l4.2,0.8l0.6,3.3l-2,4.4l-0.6,2.5l2,9.2l-2.3,4.7l-2,9.7l1.1,6.1L9.6,349l-3.7,7.2l0.3,10.5l1.7,2.8l2.3,5
		l3.7-2.2l4.2,1.1l-0.3,5.3l3.4,6.4h16.1l4.5,0.8l3.9,0.8l1.4-1.1l-4.8-7.5l-2.5-8.3l1.4-8.3l8.5-8l0.8-5l2-6.9l7.9-7.8l2.8-0.3
		l0.3-3.1l2.5-6.9l-0.6-3.6l-2.3-2.2l-6.2-1.1l-4.5-3.3l-3.4-3.6l-0.6-3.9l1.7-4.7l3.9-5l3.7-1.1l2-1.9l5.9-0.6l2-1.9l-1.7-2.2
		l0.6-2.8l2.3-2.2l-0.3-6.9l2.3-5l5.6-3.9l-0.3-1.4l-4.2-1.4v-2.2l2.8-1.4l3.9,1.1v2.5l4.8-2.2l-2-6.7h-5.6l1.7,2.2l-2.8,1.4
		l-1.1-2.2h-3.4l-0.6-2.2l0.8-6.7l-2.5-5.5v-3.3l2.8-0.3l7.1,3.1l5.1,1.1l5.4,0.6l2-1.7l5.1-5l-1.1-5.5l1.1-7.2l2.3-1.1l-2.3-5.5
		l-1.1-5.3l1.1-1.4l4.2,2.2l9.3,1.1l8.7-0.6l9.3-2.2l11.3-4.4l7.9-7.2l7.1-10.5v-7.2h-4.2l-2-5.8l1.1-5l-0.6-3.3l-6.2-5l-3.9-4.2
		l0.3-4.7l-0.3-6.4v-4.7l2.8-3.1V126l3.7-8.9l1.7-6.5l3.4-7.7l7-6.3l5.9-7.2l6.7-8.3l6.4-4.2l9.3-5.4l3-0.4l5.4-3.9l2.3-10.5
		L193.6,53.9z"/>
	<polygon fill-rule="evenodd" clip-rule="evenodd" fill="none" stroke="#808184" stroke-width="2" stroke-miterlimit="10" points="
		60.9,408 56.4,404.1 53,401.1 50.8,398 47.4,397.2 48.8,394.2 46,390 46,410 53.3,410.2 57.8,411.4 56.7,413 45.7,411.9 
		45.7,416.1 54.4,415.5 60.6,415.2 65.7,415.8 71.4,415 72.8,412.7 65.4,411.4 	"/>
	<polygon fill-rule="evenodd" clip-rule="evenodd" fill="none" stroke="#808184" stroke-width="2" stroke-miterlimit="10" points="
		134.7,361.5 134.4,360.3 135.9,360.1 136.9,358.5 136.9,356.5 135.1,356.8 134.1,358.8 131.7,358.2 129.3,357.9 126.3,358.6 
		124.4,356.3 122.9,357.2 124.6,358.8 125.9,360.1 128.4,362.6 126.8,361.9 124.2,361.9 124.9,363.9 124.2,365.8 122.5,366.4 
		120.1,366.9 121.5,368.9 123.2,369.2 124.1,370.5 125.6,369.4 126.8,367.6 128,366.7 129.9,367.2 132,364.7 	"/>
	<polygon fill-rule="evenodd" clip-rule="evenodd" fill="none" stroke="#808184" stroke-width="2" stroke-miterlimit="10" points="
		146.2,357.8 146.4,360.3 144,359.2 142.1,358.9 142.1,357.7 144.2,357.7 144.4,356.1 142.3,355.8 139.7,356.1 140.2,358.3 
		137.9,359.9 137.3,361.5 138.3,363.5 137.6,364.4 136.3,362.8 134.4,364 132.5,366.2 131.4,368.2 132,370.1 133.4,371.9 133.8,373 
		135.5,372.6 134.5,370.5 136.9,370.3 137.9,368.9 139.2,370.3 140,368.5 138.2,366.2 138.9,365.4 141.3,366.1 143.5,366.4 
		146.4,364.2 147.9,361.9 150,361.7 150,360.1 148.6,357.9 	"/>
</g>
<g>
	<linearGradient id="SVGID_1_" gradientUnits="userSpaceOnUse" x1="134.4945" y1="106.5979" x2="194.5826" y2="106.5979">
		<stop  offset="0" style="stop-color:#009DDA;stop-opacity:0.5"/>
		<stop  offset="0.2193" style="stop-color:#019BD8;stop-opacity:0.4781"/>
		<stop  offset="0.3811" style="stop-color:#0494CE;stop-opacity:0.4619"/>
		<stop  offset="0.5245" style="stop-color:#0888BE;stop-opacity:0.4475"/>
		<stop  offset="0.6572" style="stop-color:#0F77A7;stop-opacity:0.4343"/>
		<stop  offset="0.7824" style="stop-color:#18628A;stop-opacity:0.4218"/>
		<stop  offset="0.9005" style="stop-color:#224867;stop-opacity:0.4099"/>
		<stop  offset="1" style="stop-color:#2D2D43;stop-opacity:0.4"/>
	</linearGradient>
	<path fill-rule="evenodd" clip-rule="evenodd" fill="none" stroke="url(#SVGID_1_)" stroke-width="2" stroke-miterlimit="10" d="
		M186.6,52.3c31,95-52,108-52,108"/>
	<linearGradient id="SVGID_2_" gradientUnits="userSpaceOnUse" x1="137.5243" y1="167.9952" x2="7.3522" y2="243.1501">
		<stop  offset="0" style="stop-color:#009DDA;stop-opacity:0.5"/>
		<stop  offset="0.2193" style="stop-color:#019BD8;stop-opacity:0.4781"/>
		<stop  offset="0.3811" style="stop-color:#0494CE;stop-opacity:0.4619"/>
		<stop  offset="0.5245" style="stop-color:#0888BE;stop-opacity:0.4475"/>
		<stop  offset="0.6572" style="stop-color:#0F77A7;stop-opacity:0.4343"/>
		<stop  offset="0.7824" style="stop-color:#18628A;stop-opacity:0.4218"/>
		<stop  offset="0.9005" style="stop-color:#224867;stop-opacity:0.4099"/>
		<stop  offset="1" style="stop-color:#2D2D43;stop-opacity:0.4"/>
	</linearGradient>
	<path fill-rule="evenodd" clip-rule="evenodd" fill="none" stroke="url(#SVGID_2_)" stroke-miterlimit="10" d="M133.1,160.8
		c0,0-44.5,53-122.5,88"/>
	<linearGradient id="SVGID_3_" gradientUnits="userSpaceOnUse" x1="68.6492" y1="142.259" x2="135.1492" y2="142.259">
		<stop  offset="0" style="stop-color:#009DDA;stop-opacity:0.5"/>
		<stop  offset="0.2193" style="stop-color:#019BD8;stop-opacity:0.4781"/>
		<stop  offset="0.3811" style="stop-color:#0494CE;stop-opacity:0.4619"/>
		<stop  offset="0.5245" style="stop-color:#0888BE;stop-opacity:0.4475"/>
		<stop  offset="0.6572" style="stop-color:#0F77A7;stop-opacity:0.4343"/>
		<stop  offset="0.7824" style="stop-color:#18628A;stop-opacity:0.4218"/>
		<stop  offset="0.9005" style="stop-color:#224867;stop-opacity:0.4099"/>
		<stop  offset="1" style="stop-color:#2D2D43;stop-opacity:0.4"/>
	</linearGradient>
	<linearGradient id="SVGID_4_" gradientUnits="userSpaceOnUse" x1="129.4714" y1="171.8747" x2="74.1224" y2="116.5257">
		<stop  offset="0" style="stop-color:#009DDA;stop-opacity:0.5"/>
		<stop  offset="0.2193" style="stop-color:#019BD8;stop-opacity:0.4781"/>
		<stop  offset="0.3811" style="stop-color:#0494CE;stop-opacity:0.4619"/>
		<stop  offset="0.5245" style="stop-color:#0888BE;stop-opacity:0.4475"/>
		<stop  offset="0.6572" style="stop-color:#0F77A7;stop-opacity:0.4343"/>
		<stop  offset="0.7824" style="stop-color:#18628A;stop-opacity:0.4218"/>
		<stop  offset="0.9005" style="stop-color:#224867;stop-opacity:0.4099"/>
		<stop  offset="1" style="stop-color:#2D2D43;stop-opacity:0.4"/>
	</linearGradient>
	
		<path fill-rule="evenodd" clip-rule="evenodd" fill="url(#SVGID_3_)" stroke="url(#SVGID_4_)" stroke-width="10" stroke-miterlimit="10" d="
		M135.1,161.3c0,0-40.5-0.5-66.5-38"/>
	<linearGradient id="SVGID_5_" gradientUnits="userSpaceOnUse" x1="98.2345" y1="180.6855" x2="60.4397" y2="115.223">
		<stop  offset="0" style="stop-color:#009DDA;stop-opacity:0.5"/>
		<stop  offset="0.2193" style="stop-color:#019BD8;stop-opacity:0.4781"/>
		<stop  offset="0.3811" style="stop-color:#0494CE;stop-opacity:0.4619"/>
		<stop  offset="0.5245" style="stop-color:#0888BE;stop-opacity:0.4475"/>
		<stop  offset="0.6572" style="stop-color:#0F77A7;stop-opacity:0.4343"/>
		<stop  offset="0.7824" style="stop-color:#18628A;stop-opacity:0.4218"/>
		<stop  offset="0.9005" style="stop-color:#224867;stop-opacity:0.4099"/>
		<stop  offset="1" style="stop-color:#2D2D43;stop-opacity:0.4"/>
	</linearGradient>
	<path fill-rule="evenodd" clip-rule="evenodd" fill="none" stroke="url(#SVGID_5_)" stroke-width="6" stroke-miterlimit="10" d="
		M25.1,139c0,0,69.5-25.2,107.5,21.2"/>
	<linearGradient id="SVGID_6_" gradientUnits="userSpaceOnUse" x1="95.6613" y1="161.2465" x2="95.6613" y2="35.4809">
		<stop  offset="0" style="stop-color:#009DDA;stop-opacity:0.5"/>
		<stop  offset="0.2193" style="stop-color:#019BD8;stop-opacity:0.4781"/>
		<stop  offset="0.3811" style="stop-color:#0494CE;stop-opacity:0.4619"/>
		<stop  offset="0.5245" style="stop-color:#0888BE;stop-opacity:0.4475"/>
		<stop  offset="0.6572" style="stop-color:#0F77A7;stop-opacity:0.4343"/>
		<stop  offset="0.7824" style="stop-color:#18628A;stop-opacity:0.4218"/>
		<stop  offset="0.9005" style="stop-color:#224867;stop-opacity:0.4099"/>
		<stop  offset="1" style="stop-color:#2D2D43;stop-opacity:0.4"/>
	</linearGradient>
	<path fill-rule="evenodd" clip-rule="evenodd" fill="none" stroke="url(#SVGID_6_)" stroke-width="4" stroke-miterlimit="10" d="
		M132.6,160.8c0,0-24.5-97.5-75-123.5"/>
</g>
<circle fill-rule="evenodd" clip-rule="evenodd" fill="#009DDA" cx="135.5" cy="161.1" r="5.4"/>
<circle fill-rule="evenodd" clip-rule="evenodd" fill="#009DDA" cx="24.5" cy="140.1" r="1.9"/>
<circle fill-rule="evenodd" clip-rule="evenodd" fill="#009DDA" cx="10.5" cy="249.1" r="1.9"/>
<circle fill-rule="evenodd" clip-rule="evenodd" fill="#009DDA" cx="69.5" cy="123.1" r="1.9"/>
<circle fill-rule="evenodd" clip-rule="evenodd" fill="#009DDA" cx="56.5" cy="37.1" r="1.9"/>
<circle fill-rule="evenodd" clip-rule="evenodd" fill="#009DDA" cx="187.5" cy="53.1" r="1.9"/>
</svg>
