<?xml version="1.0" encoding="utf-8"?>
<!-- Generator: Adobe Illustrator 18.0.0, SVG Export Plug-In . SVG Version: 6.00 Build 0)  -->
<!DOCTYPE svg PUBLIC "-//W3C//DTD SVG 1.1//EN" "http://www.w3.org/Graphics/SVG/1.1/DTD/svg11.dtd">
<svg version="1.1" id="Layer_1" xmlns="http://www.w3.org/2000/svg" xmlns:xlink="http://www.w3.org/1999/xlink" x="0px" y="0px"
	 viewBox="0 0 30 24.4" enable-background="new 0 0 30 24.4" xml:space="preserve">
<path fill="#1995D3" d="M30,2.9c-0.9,1.2-1.9,2.3-3.1,3.2c0,0.2,0,0.4,0,0.8c0,1.6-0.2,3.3-0.7,4.9C25.7,13.5,25,15,24,16.5
	c-1,1.5-2.2,2.8-3.5,4c-1.4,1.2-3,2.1-4.9,2.8c-1.9,0.7-4,1-6.1,1c-3.4,0-6.6-0.9-9.4-2.8c0.4,0.1,0.9,0.1,1.5,0.1
	c2.9,0,5.4-0.9,7.6-2.6c-1.3,0-2.5-0.4-3.6-1.2c-1.1-0.8-1.8-1.8-2.2-3c0.4,0.1,0.8,0.1,1.2,0.1c0.5,0,1.1-0.1,1.6-0.2
	c-1.4-0.3-2.6-1-3.5-2.1s-1.4-2.4-1.4-3.9V8.6C2.1,9,3,9.3,4,9.3C3.2,8.8,2.5,8.1,2,7.2C1.5,6.3,1.3,5.3,1.3,4.2
	c0-1.1,0.3-2.2,0.8-3.1C3.6,3,5.5,4.5,7.7,5.7c2.2,1.1,4.6,1.8,7.1,1.9c-0.1-0.5-0.2-1-0.2-1.4c0-1.7,0.6-3.2,1.8-4.3
	C17.6,0.6,19.1,0,20.8,0c1.8,0,3.3,0.6,4.5,1.9c1.4-0.3,2.7-0.8,3.9-1.5c-0.5,1.5-1.4,2.6-2.7,3.4C27.6,3.7,28.8,3.4,30,2.9z"/>
</svg>
