<?xml version="1.0" encoding="utf-8"?>
<!-- Generator: Adobe Illustrator 18.0.0, SVG Export Plug-In . SVG Version: 6.00 Build 0)  -->
<!DOCTYPE svg PUBLIC "-//W3C//DTD SVG 1.1//EN" "http://www.w3.org/Graphics/SVG/1.1/DTD/svg11.dtd">
<svg version="1.1" id="Layer_1" xmlns="http://www.w3.org/2000/svg" xmlns:xlink="http://www.w3.org/1999/xlink" x="0px" y="0px"
	 viewBox="0 0 354.6 347.4" enable-background="new 0 0 354.6 347.4" xml:space="preserve">
<g>
	<g>
		
			<text transform="matrix(0.7071 -0.7071 0.7071 0.7071 8.0904 78.6771)" fill="#ABABB4" font-family="'FontAwesome'" font-size="13"></text>
	</g>
	<rect x="50.5" y="297.9" fill="none" width="11.2" height="21.8"/>
	<text transform="matrix(1 0 0 1 52.2358 308.5491)" fill="#ABABB4" font-family="'Roboto-Bold'" font-size="14">E</text>
	<rect x="76.9" y="297.9" fill="none" width="11.2" height="21.8"/>
	<text transform="matrix(1 0 0 1 78.6309 308.5491)" fill="#ABABB4" font-family="'Roboto-Bold'" font-size="14">F</text>
	<rect x="103.3" y="297.9" fill="none" width="13.2" height="21.8"/>
	<text transform="matrix(1 0 0 1 103.8281 308.5491)" fill="#ABABB4" font-family="'Roboto-Bold'" font-size="14">M</text>
	<rect x="129.7" y="297.9" fill="none" width="11.2" height="21.8"/>
	<text transform="matrix(1 0 0 1 130.8604 308.5491)" fill="#ABABB4" font-family="'Roboto-Bold'" font-size="14">A</text>
	<rect x="156.1" y="297.9" fill="none" width="13.2" height="21.8"/>
	<text transform="matrix(1 0 0 1 156.6182 308.5491)" fill="#ABABB4" font-family="'Roboto-Bold'" font-size="14">M</text>
	<rect x="182.5" y="297.9" fill="none" width="11.2" height="21.8"/>
	<text transform="matrix(1 0 0 1 184.2183 308.5491)" fill="#ABABB4" font-family="'Roboto-Bold'" font-size="14">J</text>
	<rect x="208.9" y="297.9" fill="none" width="11.2" height="21.8"/>
	<text transform="matrix(1 0 0 1 210.6128 308.5491)" fill="#ABABB4" font-family="'Roboto-Bold'" font-size="14">J</text>
	<rect x="235.3" y="297.9" fill="none" width="11.2" height="21.8"/>
	<text transform="matrix(1 0 0 1 236.4409 308.5491)" fill="#ABABB4" font-family="'Roboto-Bold'" font-size="14">A</text>
	<rect x="261.7" y="297.9" fill="none" width="11.2" height="21.8"/>
	<text transform="matrix(1 0 0 1 262.9629 308.5491)" fill="#ABABB4" font-family="'Roboto-Bold'" font-size="14">S</text>
	<rect x="288.1" y="297.9" fill="none" width="11.2" height="21.8"/>
	<text transform="matrix(1 0 0 1 288.8687 308.5491)" fill="#ABABB4" font-family="'Roboto-Bold'" font-size="14">O</text>
	<rect x="314.5" y="297.9" fill="none" width="11.2" height="21.8"/>
	<text transform="matrix(1 0 0 1 315.1401 308.5491)" fill="#ABABB4" font-family="'Roboto-Bold'" font-size="14">N</text>
	<rect x="340.9" y="297.9" fill="none" width="11.2" height="21.8"/>
	<text transform="matrix(1 0 0 1 341.8423 308.5491)" fill="#ABABB4" font-family="'Roboto-Bold'" font-size="14">D</text>
	<rect x="10.5" y="1.2" fill="none" width="29.8" height="21.8"/>
	<text transform="matrix(1 0 0 1 25.4692 11.1211)" opacity="0.17" fill="#ABABB4" font-family="'Roboto-Bold'" font-size="13">60</text>
	<rect x="2.4" y="14.6" fill="none" width="17.3" height="273.6"/>
	<text transform="matrix(0 -1 1 0 12.3232 218.0757)" opacity="0.17" fill="#ABABB4" font-family="'Roboto-Bold'" font-size="13">Cantidad de vuelos</text>
	<rect x="10.5" y="48.2" fill="none" width="29.8" height="21.8"/>
	<text transform="matrix(1 0 0 1 25.4692 58.1211)" opacity="0.17" fill="#ABABB4" font-family="'Roboto-Bold'" font-size="13">50</text>
	<rect x="10.5" y="96.6" fill="none" width="29.8" height="21.8"/>
	<text transform="matrix(1 0 0 1 25.4692 106.4541)" opacity="0.17" fill="#ABABB4" font-family="'Roboto-Bold'" font-size="13">40</text>
	<rect x="10.5" y="141.2" fill="none" width="29.8" height="21.8"/>
	<text transform="matrix(1 0 0 1 25.4692 151.1211)" opacity="0.17" fill="#ABABB4" font-family="'Roboto-Bold'" font-size="13">30</text>
	<rect x="10.5" y="189.2" fill="none" width="29.8" height="21.8"/>
	<text transform="matrix(1 0 0 1 25.4692 199.1211)" opacity="0.17" fill="#ABABB4" font-family="'Roboto-Bold'" font-size="13">20</text>
	<rect x="10.5" y="231.6" fill="none" width="29.8" height="21.8"/>
	<text transform="matrix(1 0 0 1 25.4692 241.4541)" opacity="0.17" fill="#ABABB4" font-family="'Roboto-Bold'" font-size="13">10</text>
	<rect x="10.5" y="277.6" fill="none" width="29.8" height="21.8"/>
	<text transform="matrix(1 0 0 1 32.9277 287.4541)" opacity="0.17" fill="#ABABB4" font-family="'Roboto-Bold'" font-size="13">0</text>
	
		<line opacity="0.23" fill="none" stroke="#FFFFFF" stroke-width="0.727" stroke-miterlimit="10" stroke-opacity="0.4" x1="50.1" y1="287" x2="352.1" y2="287"/>
	<g opacity="0.23">
		<g opacity="0.4">
			<line fill="none" stroke="#FFFFFF" stroke-miterlimit="10" x1="49.6" y1="147.2" x2="53.6" y2="147.2"/>
			<line fill="none" stroke="#FFFFFF" stroke-miterlimit="10" stroke-dasharray="9,9" x1="62.6" y1="147.2" x2="345.6" y2="147.2"/>
			<line fill="none" stroke="#FFFFFF" stroke-miterlimit="10" x1="349.6" y1="147.2" x2="354.6" y2="147.2"/>
		</g>
	</g>
	<g opacity="0.23">
		<g opacity="0.4">
			<line fill="none" stroke="#FFFFFF" stroke-miterlimit="10" x1="49.6" y1="240.2" x2="53.6" y2="240.2"/>
			<line fill="none" stroke="#FFFFFF" stroke-miterlimit="10" stroke-dasharray="9,9" x1="62.6" y1="240.2" x2="345.6" y2="240.2"/>
			<line fill="none" stroke="#FFFFFF" stroke-miterlimit="10" x1="349.6" y1="240.2" x2="354.6" y2="240.2"/>
		</g>
	</g>
	<g opacity="0.23">
		<g opacity="0.4">
			<line fill="none" stroke="#FFFFFF" stroke-miterlimit="10" x1="49.6" y1="194.2" x2="53.6" y2="194.2"/>
			<line fill="none" stroke="#FFFFFF" stroke-miterlimit="10" stroke-dasharray="9,9" x1="62.6" y1="194.2" x2="345.6" y2="194.2"/>
			<line fill="none" stroke="#FFFFFF" stroke-miterlimit="10" x1="349.6" y1="194.2" x2="354.6" y2="194.2"/>
		</g>
	</g>
	<g opacity="0.23">
		<g opacity="0.4">
			<line fill="none" stroke="#FFFFFF" stroke-miterlimit="10" x1="49.6" y1="100.2" x2="53.6" y2="100.2"/>
			<line fill="none" stroke="#FFFFFF" stroke-miterlimit="10" stroke-dasharray="9,9" x1="62.6" y1="100.2" x2="345.6" y2="100.2"/>
			<line fill="none" stroke="#FFFFFF" stroke-miterlimit="10" x1="349.6" y1="100.2" x2="354.6" y2="100.2"/>
		</g>
	</g>
	<g opacity="0.23">
		<g opacity="0.4">
			<line fill="none" stroke="#FFFFFF" stroke-miterlimit="10" x1="49.6" y1="54.2" x2="53.6" y2="54.2"/>
			<line fill="none" stroke="#FFFFFF" stroke-miterlimit="10" stroke-dasharray="9,9" x1="62.6" y1="54.2" x2="345.6" y2="54.2"/>
			<line fill="none" stroke="#FFFFFF" stroke-miterlimit="10" x1="349.6" y1="54.2" x2="354.6" y2="54.2"/>
		</g>
	</g>
	<g opacity="0.23">
		<g opacity="0.4">
			<line fill="none" stroke="#FFFFFF" stroke-miterlimit="10" x1="49.6" y1="7.2" x2="53.6" y2="7.2"/>
			<line fill="none" stroke="#FFFFFF" stroke-miterlimit="10" stroke-dasharray="9,9" x1="62.6" y1="7.2" x2="345.6" y2="7.2"/>
			<line fill="none" stroke="#FFFFFF" stroke-miterlimit="10" x1="349.6" y1="7.2" x2="354.6" y2="7.2"/>
		</g>
	</g>
	<g>
		<g opacity="0.55">
			<rect x="54.8" y="334.4" fill="none" width="133.7" height="13"/>
			<text transform="matrix(1 0 0 1 104.3428 343.4985)" fill="#CDCCCC" font-family="'Roboto-Regular'" font-size="12">Temperatura </text>
		</g>
		<g opacity="0.55">
			<rect x="194.9" y="334.4" fill="none" width="36.1" height="13"/>
			<text transform="matrix(1 0 0 1 194.8643 343.4985)" fill="#CDCCCC" font-family="'Roboto-Regular'" font-size="12">-4ºC</text>
		</g>
		<g opacity="0.55">
			<rect x="279.9" y="334.4" fill="none" width="27.1" height="13"/>
			<text transform="matrix(1 0 0 1 279.8643 343.4985)" fill="#CDCCCC" font-family="'Roboto-Regular'" font-size="12">30ºC</text>
		</g>
		<g>
			
				<linearGradient id="SVGID_1_" gradientUnits="userSpaceOnUse" x1="10103.9902" y1="2739.5806" x2="10151.3555" y2="2739.5806" gradientTransform="matrix(-1 0 0 -1 10378.998 3079.1614)">
				<stop  offset="0" style="stop-color:#D4B263"/>
				<stop  offset="7.861691e-02" style="stop-color:#CCB46E"/>
				<stop  offset="0.2244" style="stop-color:#B7BA89"/>
				<stop  offset="0.4196" style="stop-color:#8FC1B4"/>
				<stop  offset="0.5591" style="stop-color:#61C9D8"/>
				<stop  offset="0.5625" style="stop-color:#60C3D6"/>
				<stop  offset="0.5921" style="stop-color:#52A8CA"/>
				<stop  offset="0.6244" style="stop-color:#4691C0"/>
				<stop  offset="0.6592" style="stop-color:#3E7FB7"/>
				<stop  offset="0.6971" style="stop-color:#3771B1"/>
				<stop  offset="0.7394" style="stop-color:#3167AC"/>
				<stop  offset="0.7887" style="stop-color:#2E60A9"/>
				<stop  offset="0.8511" style="stop-color:#2C5CA7"/>
				<stop  offset="0.9707" style="stop-color:#2B5BA7"/>
			</linearGradient>
			<path fill="url(#SVGID_1_)" d="M227.6,338.4c0-1.9,1.6-3.5,3.5-3.5h40.3c1.9,0,3.5,1.6,3.5,3.5v2.4c0,1.9-1.6,3.5-3.5,3.5h-40.3
				c-1.9,0-3.5-1.6-3.5-3.5V338.4z"/>
		</g>
	</g>
	<g>
		<defs>
			<path id="SVGID_2_" d="M183.3,212.7h-7.6c-0.7,0-1.3-0.2-1.9-0.5l-11.9-6.5c-0.7-0.4-1.3-1-1.6-1.7l-5.5-12.2l-5.1,0.3
				c-2,0.1-3.7-1.2-4-3l-2.1-14.2l-6,8.2c-0.7,1-1.9,1.5-3.1,1.5h-5.4c-2,0-3.6-1.4-3.8-3.2l-1.9-23.8h-13.3c-1.9,0-3.5-1.3-3.8-3
				l-3.8-26l-2.5-0.5c-0.4-0.1-0.8-0.3-1.2-0.5l-13-7.9l-4.6,4.6c-0.8,0.8-2,1.2-3.2,1.1c-1.2-0.1-2.3-0.7-2.9-1.7l-12.4-19.5
				l-1.3,0.3l-7.5,20.1c-0.7,1.8-2.8,2.8-4.8,2.2c-2-0.6-3-2.6-2.4-4.4l8.2-21.9c0.4-1.1,1.4-1.9,2.6-2.2l6.1-1.6
				c1.7-0.4,3.4,0.2,4.3,1.6L79,116.2l3.3-3.3c1.3-1.3,3.3-1.5,4.9-0.6l15.2,9.2l4.4,1c1.5,0.3,2.7,1.5,2.9,2.9l3.8,25.4h13.5
				c2,0,3.6,1.4,3.8,3.2l1.9,23.6l10.4-14.1c0.9-1.2,2.5-1.8,4-1.4c1.5,0.3,2.7,1.5,2.9,2.9l2.9,20.1l4.2-0.2
				c1.6-0.1,3.1,0.8,3.7,2.2l6,13.4l9.9,5.4h4l14.4-34.1l10.5-97.1c0-0.2,0.1-0.4,0.1-0.6l13.6-46.7c0.4-1.5,1.9-2.5,3.6-2.5
				c0,0,0,0,0,0c1.7,0,3.2,0.9,3.6,2.4l5.7,17.8l4.1,0.9l7.2-1.9c1.1-0.3,2.2-0.1,3.1,0.4c0.9,0.5,1.5,1.4,1.7,2.4l12.5,78.3
				l7.4-0.4c1.6-0.1,3.1,0.8,3.7,2.2l8.5,19.7c2.2,3.1,5,6.7,5.9,7.5c1.2,0.7,2.8,2.4,12.9,29.3c3.6-25.2,5.1-26.6,6-27.5
				c1-0.9,5.5-6.3,8.3-9.8c0.9-1.1,2.3-1.6,3.8-1.3c1.4,0.3,2.6,1.2,2.9,2.5l3.9,13.2l2.6-0.8l17.8-44.6c0.7-1.8,2.9-2.7,4.9-2.1
				c2,0.7,3,2.7,2.3,4.5l-18.4,46.2c-0.4,1-1.3,1.8-2.3,2.1l-8.1,2.5c-1,0.3-2.1,0.2-3-0.2c-0.9-0.5-1.6-1.2-1.9-2.2l-2.9-10
				c-1.5,1.8-3,3.5-3.9,4.4c-1,2.7-3.2,15.7-4.8,27.2c-0.2,1.7-1.9,3.1-3.8,3.1h-5.9c-1.6,0-3.1-0.9-3.6-2.4
				c-4.7-12.5-10.2-26.4-11.7-29c-1.6-1.3-4.1-4.5-7.5-9.3c-0.1-0.2-0.2-0.4-0.3-0.6l-7.7-17.7l-8.1,0.4c-2,0.1-3.7-1.2-4-3
				l-12.4-77.5l-4,1c-0.6,0.2-1.3,0.2-1.9,0l-7.3-1.6c-1.3-0.3-2.4-1.2-2.8-2.4l-2.5-7.8l-10,34.5l-10.5,97.3c0,0.3-0.1,0.6-0.2,0.9
				l-15.5,36.8C186.3,211.8,184.9,212.7,183.3,212.7z"/>
		</defs>
		<clipPath id="SVGID_3_">
			<use xlink:href="#SVGID_2_"  overflow="visible"/>
		</clipPath>
		<linearGradient id="SVGID_4_" gradientUnits="userSpaceOnUse" x1="46.7725" y1="115.2901" x2="353.2472" y2="115.2901">
			<stop  offset="0" style="stop-color:#D4B263"/>
			<stop  offset="7.767007e-02" style="stop-color:#D2B366"/>
			<stop  offset="0.1442" style="stop-color:#CCB46F"/>
			<stop  offset="0.2066" style="stop-color:#C1B77D"/>
			<stop  offset="0.2665" style="stop-color:#B1BB90"/>
			<stop  offset="0.3247" style="stop-color:#9AC0A9"/>
			<stop  offset="0.3808" style="stop-color:#78C5C8"/>
			<stop  offset="0.4048" style="stop-color:#61C9D8"/>
			<stop  offset="0.5813" style="stop-color:#2B5BA7"/>
			<stop  offset="0.6817" style="stop-color:#2A5DA8"/>
			<stop  offset="0.6856" style="stop-color:#2A5DA8"/>
			<stop  offset="0.7126" style="stop-color:#2B5FA9"/>
			<stop  offset="0.7336" style="stop-color:#2E64AB"/>
			<stop  offset="0.7525" style="stop-color:#336CAF"/>
			<stop  offset="0.7702" style="stop-color:#3979B5"/>
			<stop  offset="0.7871" style="stop-color:#428ABD"/>
			<stop  offset="0.8033" style="stop-color:#4EA1C8"/>
			<stop  offset="0.8188" style="stop-color:#5DBDD3"/>
			<stop  offset="0.8232" style="stop-color:#61C9D8"/>
			<stop  offset="0.8264" style="stop-color:#69C7D3"/>
			<stop  offset="0.8546" style="stop-color:#93C1B0"/>
			<stop  offset="0.8832" style="stop-color:#ADBC94"/>
			<stop  offset="0.9119" style="stop-color:#BFB880"/>
			<stop  offset="0.9408" style="stop-color:#CBB570"/>
			<stop  offset="0.97" style="stop-color:#D2B366"/>
			<stop  offset="1" style="stop-color:#D4B263"/>
		</linearGradient>
		<rect x="46.8" y="11.6" clip-path="url(#SVGID_3_)" fill="url(#SVGID_4_)" width="306.5" height="207.3"/>
	</g>
	<rect x="101.5" y="22.9" fill="none" width="74.1" height="48.7"/>
	<text transform="matrix(1 0 0 1 103.6509 33.604)"><tspan x="0" y="0" fill="#0075C9" font-family="'Roboto-Bold'" font-size="14">55 vuelos </tspan><tspan x="48.6" y="16" fill="#0075C9" font-family="'Roboto-Bold'" font-size="14">6cº</tspan></text>
	<g>
		
			<image overflow="visible" opacity="0.2" width="132" height="132" xlink:href="B08C94CB4629AD2A.png"  transform="matrix(0.24 0 0 0.24 208.5751 16.9)">
		</image>
		<g>
			<path fill="#FFFFFF" d="M221.9,21.9c-4.6,0-8.4,3.7-8.4,8.4s3.7,8.4,8.4,8.4c4.6,0,8.4-3.7,8.4-8.4S226.5,21.9,221.9,21.9z
				 M221.9,34.7c-2.4,0-4.4-2-4.4-4.4s2-4.4,4.4-4.4s4.4,2,4.4,4.4S224.4,34.7,221.9,34.7z"/>
		</g>
	</g>
	
		<line fill="none" stroke="#FFFFFF" stroke-width="0.8246" stroke-miterlimit="10" stroke-opacity="0.4" x1="181.6" y1="31.2" x2="216.3" y2="31.2"/>
</g>
</svg>
