<?xml version="1.0" encoding="utf-8"?>
<!-- Generator: Adobe Illustrator 18.0.0, SVG Export Plug-In . SVG Version: 6.00 Build 0)  -->
<!DOCTYPE svg PUBLIC "-//W3C//DTD SVG 1.1//EN" "http://www.w3.org/Graphics/SVG/1.1/DTD/svg11.dtd">
<svg version="1.1" id="Layer_1" xmlns="http://www.w3.org/2000/svg" xmlns:xlink="http://www.w3.org/1999/xlink" x="0px" y="0px"
	 viewBox="0 0 821.6 382.7" enable-background="new 0 0 821.6 382.7" xml:space="preserve">
<g>
	<g>
		
			<text transform="matrix(0.7071 -0.7071 0.7071 0.7071 8.0904 102.0101)" fill="#ABABB4" font-family="'FontAwesome'" font-size="13"></text>
	</g>
	<rect x="71.5" y="324.6" fill="none" width="29.8" height="21.8"/>
	<text transform="matrix(1 0 0 1 73.7373 335.2158)" fill="#ABABB4" font-family="'Roboto-Bold'" font-size="14">ENE</text>
	<rect x="27.5" y="1.2" fill="none" width="29.8" height="21.8"/>
	<text transform="matrix(1 0 0 1 42.4692 11.1211)" opacity="0.17" fill="#ABABB4" font-family="'Roboto-Bold'" font-size="13">30</text>
	<rect x="27.5" y="77.2" fill="none" width="29.8" height="21.8"/>
	<text transform="matrix(1 0 0 1 42.4692 87.1211)" opacity="0.17" fill="#ABABB4" font-family="'Roboto-Bold'" font-size="13">25</text>
	<rect x="27.5" y="158.6" fill="none" width="29.8" height="21.8"/>
	<text transform="matrix(1 0 0 1 42.4692 168.4541)" opacity="0.17" fill="#ABABB4" font-family="'Roboto-Bold'" font-size="13">20</text>
	<rect x="2.4" y="37.9" fill="none" width="17.3" height="273.6"/>
	<text transform="matrix(0 -1 1 0 12.3232 241.4087)" opacity="0.17" fill="#ABABB4" font-family="'Roboto-Bold'" font-size="13">Cantidad de vuelos</text>
	<rect x="27.5" y="229.6" fill="none" width="29.8" height="21.8"/>
	<text transform="matrix(1 0 0 1 42.4692 239.4541)" opacity="0.17" fill="#ABABB4" font-family="'Roboto-Bold'" font-size="13">15</text>
	<rect x="27.5" y="302.2" fill="none" width="29.8" height="21.8"/>
	<text transform="matrix(1 0 0 1 49.9277 312.1211)" opacity="0.17" fill="#ABABB4" font-family="'Roboto-Bold'" font-size="13">0</text>
	<rect x="136.5" y="324.6" fill="none" width="29.8" height="21.8"/>
	<text transform="matrix(1 0 0 1 139.2158 335.2158)" fill="#ABABB4" font-family="'Roboto-Bold'" font-size="14">FEB</text>
	<rect x="201.5" y="324.6" fill="none" width="35.8" height="21.8"/>
	<text transform="matrix(1 0 0 1 204.4575 335.2158)" fill="#ABABB4" font-family="'Roboto-Bold'" font-size="14">MAR</text>
	<rect x="266.5" y="324.6" fill="none" width="29.8" height="21.8"/>
	<text transform="matrix(1 0 0 1 268.0879 335.2158)" fill="#ABABB4" font-family="'Roboto-Bold'" font-size="14">ABR</text>
	<rect x="331.5" y="324.6" fill="none" width="29.8" height="21.8"/>
	<text transform="matrix(1 0 0 1 335.918 335.2158)" fill="#ABABB4" font-family="'Roboto-Bold'" font-size="14">MA</text>
	<rect x="396.5" y="324.6" fill="none" width="29.8" height="21.8"/>
	<text transform="matrix(1 0 0 1 397.8281 335.2158)" fill="#ABABB4" font-family="'Roboto-Bold'" font-size="14">JUN</text>
	<rect x="461.5" y="324.6" fill="none" width="29.8" height="21.8"/>
	<text transform="matrix(1 0 0 1 463.8774 335.2158)" fill="#ABABB4" font-family="'Roboto-Bold'" font-size="14">JUL</text>
	<rect x="526.5" y="324.6" fill="none" width="29.8" height="21.8"/>
	<text transform="matrix(1 0 0 1 527.5308 335.2158)" fill="#ABABB4" font-family="'Roboto-Bold'" font-size="14">AGO</text>
	<rect x="591.5" y="324.6" fill="none" width="29.8" height="21.8"/>
	<text transform="matrix(1 0 0 1 593.7817 335.2158)" fill="#ABABB4" font-family="'Roboto-Bold'" font-size="14">SEP</text>
	<rect x="656.5" y="324.6" fill="none" width="29.8" height="21.8"/>
	<text transform="matrix(1 0 0 1 658.1768 335.2158)" fill="#ABABB4" font-family="'Roboto-Bold'" font-size="14">OCT</text>
	<rect x="721.5" y="324.6" fill="none" width="29.8" height="21.8"/>
	<text transform="matrix(1 0 0 1 722.2539 335.2158)" fill="#ABABB4" font-family="'Roboto-Bold'" font-size="14">NOV</text>
	<rect x="692.8" y="48.6" fill="none" width="74.1" height="48.7"/>
	<text transform="matrix(1 0 0 1 694.9834 59.2705)"><tspan x="0" y="0" fill="#C464A7" font-family="'Roboto-Bold'" font-size="14">29 vuelos </tspan><tspan x="40.6" y="16" fill="#C464A7" font-family="'Roboto-Bold'" font-size="14">33cº</tspan></text>
	<rect x="786.5" y="324.6" fill="none" width="29.8" height="21.8"/>
	<text transform="matrix(1 0 0 1 790.3232 335.2158)" fill="#ABABB4" font-family="'Roboto-Bold'" font-size="14">DIC</text>
	
		<line opacity="0.23" fill="none" stroke="#FFFFFF" stroke-width="0.727" stroke-miterlimit="10" stroke-opacity="0.4" x1="67.1" y1="310.4" x2="818.1" y2="310.4"/>
	<g>
		<g opacity="0.55">
			<rect x="290" y="369.7" fill="none" width="149.7" height="13"/>
			<text transform="matrix(1 0 0 1 305.5293 378.8315)" fill="#CDCCCC" font-family="'Roboto-Regular'" font-size="12">Temperatura MÁXIMA</text>
		</g>
		<g opacity="0.55">
			<rect x="446" y="369.7" fill="none" width="36.1" height="13"/>
			<text transform="matrix(1 0 0 1 446.0381 378.8318)" fill="#CDCCCC" font-family="'Roboto-Regular'" font-size="12">19ºC</text>
		</g>
		<g opacity="0.55">
			<rect x="531" y="369.7" fill="none" width="27.1" height="13"/>
			<text transform="matrix(1 0 0 1 531.0381 378.8318)" fill="#CDCCCC" font-family="'Roboto-Regular'" font-size="12">37ºC</text>
		</g>
		<g>
			<linearGradient id="SVGID_1_" gradientUnits="userSpaceOnUse" x1="478.8163" y1="374.9137" x2="526.1815" y2="374.9137">
				<stop  offset="0" style="stop-color:#D4B263"/>
				<stop  offset="0.3551" style="stop-color:#DB9E7E"/>
				<stop  offset="0.9707" style="stop-color:#E77A9C"/>
			</linearGradient>
			<path fill="url(#SVGID_1_)" d="M526.2,376.1c0,1.9-1.6,3.5-3.5,3.5h-40.3c-1.9,0-3.5-1.6-3.5-3.5v-2.4c0-1.9,1.6-3.5,3.5-3.5
				h40.3c1.9,0,3.5,1.6,3.5,3.5V376.1z"/>
		</g>
	</g>
	
		<line opacity="0.23" fill="none" stroke="#FFFFFF" stroke-width="0.6357" stroke-miterlimit="10" stroke-opacity="0.4" stroke-dasharray="7.9684" x1="67.1" y1="237.8" x2="818.1" y2="237.8"/>
	<g opacity="0.23">
		<g opacity="0.4">
			<line fill="none" stroke="#FFFFFF" stroke-miterlimit="10" x1="67.6" y1="163.5" x2="71.6" y2="163.5"/>
			<line fill="none" stroke="#FFFFFF" stroke-miterlimit="10" stroke-dasharray="8,8" x1="79.6" y1="163.5" x2="813.6" y2="163.5"/>
			<line fill="none" stroke="#FFFFFF" stroke-miterlimit="10" x1="817.6" y1="163.5" x2="821.6" y2="163.5"/>
		</g>
	</g>
	<g opacity="0.23">
		<g opacity="0.4">
			<line fill="none" stroke="#FFFFFF" stroke-miterlimit="10" x1="67.6" y1="82.5" x2="71.6" y2="82.5"/>
			<line fill="none" stroke="#FFFFFF" stroke-miterlimit="10" stroke-dasharray="8,8" x1="79.6" y1="82.5" x2="813.6" y2="82.5"/>
			<line fill="none" stroke="#FFFFFF" stroke-miterlimit="10" x1="817.6" y1="82.5" x2="821.6" y2="82.5"/>
		</g>
	</g>
	<g opacity="0.23">
		<g opacity="0.4">
			<line fill="none" stroke="#FFFFFF" stroke-miterlimit="10" x1="67.6" y1="6.5" x2="71.6" y2="6.5"/>
			<line fill="none" stroke="#FFFFFF" stroke-miterlimit="10" stroke-dasharray="8,8" x1="79.6" y1="6.5" x2="813.6" y2="6.5"/>
			<line fill="none" stroke="#FFFFFF" stroke-miterlimit="10" x1="817.6" y1="6.5" x2="821.6" y2="6.5"/>
		</g>
	</g>
	<g>
		<defs>
			<path id="SVGID_2_" d="M338.4,223c-0.1,0-0.1,0-0.2,0c-1.5-0.1-2.9-0.6-3.5-1.6L317.4,190H308l-15.4,20.7
				c-0.8,1.1-2.5,1.6-4.1,1.4c-1.7-0.2-3-1.2-3.3-2.5l-16.7-61.6L253,92.6l-12.3,20.5c0,0.1-0.1,0.1-0.1,0.1L226,134.6
				c0,0-0.1,0.1-0.1,0.1l-18.7,24.6c-0.7,0.9-2,1.7-3.5,1.7h0c-1.4,0-2.7-0.8-3.5-1.7l-17-22.3l-17.1-14.5l-10.3-2.9l-17.6,19.9
				c-0.7,0.8-2,1.4-3.3,1.4h-64c-2.2,0-4-1.3-4-3s1.8-3,4-3H133l18.1-20.6c1-1.2,3-1.7,4.7-1.2l14.2,3.9c0.6,0.2,1.2,0.4,1.6,0.8
				l18,15.2c0.2,0.2,0.3,0.3,0.5,0.5l13.7,17.9l15.2-19.8l14.6-21.2l17.3-28.8c0.7-1.2,2.4-1.9,4.1-1.8c1.7,0.1,3.1,1.1,3.5,2.4
				l18,64.4l14.5,53.6l11.3-15.6c0.7-1,2-1.8,3.5-1.8h14.5c1.6,0,3.1,1,3.7,2.1l15.1,27.8l14.7-20.3c0.7-1,2-1.6,3.5-1.6h14.2
				l16.1-13.7c0.9-0.8,2.3-1.1,3.7-1l17.2,2.4c1.2,0.2,2.2,0.5,2.8,1.3l13.9,19h30.3l16.7-35.5l14-34.3c0.2-0.4,0.4-0.7,0.7-1
				l18.7-17.2c0.9-0.8,2.1-1.2,3.5-1.1c1.3,0.1,2.5,0.7,3.1,1.6l11.2,16.1l14.9-13.7c0.8-0.7,1.9-0.9,3.1-0.9h67.1l14.7-14.1
				l17.8-35.2c0.2-0.4,0.5-0.8,0.8-1l15.3-12.3L674.2,36c0.8-0.6,1.8-1,2.9-1h31.4l6.9-11.9c0.6-1.1,2.1-1.8,3.7-1.8l43-3.8
				c0.9,0,1.7,0.2,2.4,0.6l33,22.8c0.7,0.4,1.3,1,1.5,1.7l17.3,54.8c0.5,1.6-0.8,3.3-3,3.7c-2.2,0.4-4.3-0.6-4.8-2.2l-17-53.7
				l-30.8-21.6l-39.1,3.8l-6.9,11.8c-0.6,1.1-2.1,1.8-3.7,1.8h-32.2l-16.1,13.4l-14.8,11.9l-17.7,35c-0.1,0.3-0.4,0.6-0.6,0.8
				l-16.3,15.6c-0.8,0.7-1.9,1.3-3.1,1.3H543l-17.5,16.1c-0.8,0.8-2.1,1.1-3.5,1c-1.3-0.1-2.5-0.7-3.1-1.6l-11.2-16.1l-14.3,13.3
				l-13.8,33.9c0,0,0,0.1-0.1,0.1l-17.7,38c-0.6,1.2-2.1,2.3-3.8,2.3h-35.5c-1.5,0-2.8-0.8-3.5-1.8L405,184.6l-13.1-1.9l-15.8,13.3
				c-0.8,0.6-1.8,0.9-3,0.9h-13.6l-17.5,24.4C341.2,222.3,339.9,223,338.4,223z"/>
		</defs>
		<clipPath id="SVGID_3_">
			<use xlink:href="#SVGID_2_"  overflow="visible"/>
		</clipPath>
		<linearGradient id="SVGID_4_" gradientUnits="userSpaceOnUse" x1="63.5075" y1="119.4556" x2="834.1741" y2="119.4556">
			<stop  offset="0" style="stop-color:#C464A7"/>
			<stop  offset="4.501995e-02" style="stop-color:#C568A4"/>
			<stop  offset="0.1107" style="stop-color:#C6719F"/>
			<stop  offset="0.1889" style="stop-color:#C97F98"/>
			<stop  offset="0.277" style="stop-color:#CC9189"/>
			<stop  offset="0.3719" style="stop-color:#D1A772"/>
			<stop  offset="0.4121" style="stop-color:#D4B263"/>
			<stop  offset="0.7127" style="stop-color:#D4B263"/>
			<stop  offset="0.7729" style="stop-color:#CFA07A"/>
			<stop  offset="0.8825" style="stop-color:#CA8296"/>
			<stop  offset="0.961" style="stop-color:#C66DA1"/>
			<stop  offset="1" style="stop-color:#C464A7"/>
		</linearGradient>
		<rect x="63.5" y="10.9" clip-path="url(#SVGID_3_)" fill="url(#SVGID_4_)" width="770.7" height="217.1"/>
	</g>
	<line fill="none" stroke="#FFFFFF" stroke-miterlimit="10" stroke-opacity="0.4" x1="763.5" y1="43.7" x2="763.5" y2="25.2"/>
	<g>
		<circle fill="#C464A7" cx="762.8" cy="22.1" r="5.6"/>
		<g>
			
				<image overflow="visible" opacity="0.2" width="132" height="132" xlink:href="A4D26F53A7EBEAE.png"  transform="matrix(0.24 0 0 0.24 749.4825 8.9926)">
			</image>
			<g>
				<path fill="#FFFFFF" d="M762.8,14c-4.6,0-8.4,3.7-8.4,8.4s3.7,8.4,8.4,8.4c4.6,0,8.4-3.7,8.4-8.4S767.4,14,762.8,14z
					 M762.8,26.8c-2.4,0-4.4-2-4.4-4.4s2-4.4,4.4-4.4c2.4,0,4.4,2,4.4,4.4S765.3,26.8,762.8,26.8z"/>
			</g>
		</g>
	</g>
</g>
</svg>
