<?xml version="1.0" encoding="utf-8"?>
<!-- Generator: Adobe Illustrator 18.0.0, SVG Export Plug-In . SVG Version: 6.00 Build 0)  -->
<!DOCTYPE svg PUBLIC "-//W3C//DTD SVG 1.1//EN" "http://www.w3.org/Graphics/SVG/1.1/DTD/svg11.dtd">
<svg version="1.1" id="Layer_1" xmlns="http://www.w3.org/2000/svg" xmlns:xlink="http://www.w3.org/1999/xlink" x="0px" y="0px"
	 viewBox="0 0 828.1 362" enable-background="new 0 0 828.1 362" xml:space="preserve">
<g>
	<g>
		
			<text transform="matrix(0.7071 -0.7071 0.7071 0.7071 8.0904 78.6771)" fill="#ABABB4" font-family="'FontAwesome'" font-size="13"></text>
	</g>
	<rect x="71.5" y="301.2" fill="none" width="29.8" height="21.8"/>
	<text transform="matrix(1 0 0 1 73.7373 311.8828)" fill="#ABABB4" font-family="'Roboto-Bold'" font-size="14">ENE</text>
	<rect x="27.5" y="1.2" fill="none" width="29.8" height="21.8"/>
	<text transform="matrix(1 0 0 1 42.4692 11.1211)" opacity="0.17" fill="#ABABB4" font-family="'Roboto-Bold'" font-size="13">60</text>
	<rect x="2.4" y="14.6" fill="none" width="17.3" height="273.6"/>
	<text transform="matrix(0 -1 1 0 12.3232 218.0757)" opacity="0.17" fill="#ABABB4" font-family="'Roboto-Bold'" font-size="13">Cantidad de vuelos</text>
	<rect x="27.5" y="48.2" fill="none" width="29.8" height="21.8"/>
	<text transform="matrix(1 0 0 1 42.4692 58.1211)" opacity="0.17" fill="#ABABB4" font-family="'Roboto-Bold'" font-size="13">50</text>
	<rect x="27.5" y="96.6" fill="none" width="29.8" height="21.8"/>
	<text transform="matrix(1 0 0 1 42.4692 106.4541)" opacity="0.17" fill="#ABABB4" font-family="'Roboto-Bold'" font-size="13">40</text>
	<rect x="27.5" y="141.2" fill="none" width="29.8" height="21.8"/>
	<text transform="matrix(1 0 0 1 42.4692 151.1211)" opacity="0.17" fill="#ABABB4" font-family="'Roboto-Bold'" font-size="13">30</text>
	<rect x="27.5" y="189.2" fill="none" width="29.8" height="21.8"/>
	<text transform="matrix(1 0 0 1 42.4692 199.1211)" opacity="0.17" fill="#ABABB4" font-family="'Roboto-Bold'" font-size="13">20</text>
	<rect x="27.5" y="231.6" fill="none" width="29.8" height="21.8"/>
	<text transform="matrix(1 0 0 1 42.4692 241.4541)" opacity="0.17" fill="#ABABB4" font-family="'Roboto-Bold'" font-size="13">10</text>
	<rect x="27.5" y="277.6" fill="none" width="29.8" height="21.8"/>
	<text transform="matrix(1 0 0 1 49.9277 287.4541)" opacity="0.17" fill="#ABABB4" font-family="'Roboto-Bold'" font-size="13">0</text>
	<rect x="136.5" y="301.2" fill="none" width="29.8" height="21.8"/>
	<text transform="matrix(1 0 0 1 139.2158 311.8828)" fill="#ABABB4" font-family="'Roboto-Bold'" font-size="14">FEB</text>
	<rect x="201.5" y="301.2" fill="none" width="35.8" height="21.8"/>
	<text transform="matrix(1 0 0 1 204.4575 311.8828)" fill="#ABABB4" font-family="'Roboto-Bold'" font-size="14">MAR</text>
	<rect x="266.5" y="301.2" fill="none" width="29.8" height="21.8"/>
	<text transform="matrix(1 0 0 1 268.0879 311.8828)" fill="#ABABB4" font-family="'Roboto-Bold'" font-size="14">ABR</text>
	<rect x="331.5" y="301.2" fill="none" width="29.8" height="21.8"/>
	<text transform="matrix(1 0 0 1 335.918 311.8828)" fill="#ABABB4" font-family="'Roboto-Bold'" font-size="14">MA</text>
	<rect x="396.5" y="301.2" fill="none" width="29.8" height="21.8"/>
	<text transform="matrix(1 0 0 1 397.8281 311.8828)" fill="#ABABB4" font-family="'Roboto-Bold'" font-size="14">JUN</text>
	<rect x="461.5" y="301.2" fill="none" width="29.8" height="21.8"/>
	<text transform="matrix(1 0 0 1 463.8774 311.8828)" fill="#ABABB4" font-family="'Roboto-Bold'" font-size="14">JUL</text>
	<rect x="526.5" y="301.2" fill="none" width="29.8" height="21.8"/>
	<text transform="matrix(1 0 0 1 527.5308 311.8828)" fill="#ABABB4" font-family="'Roboto-Bold'" font-size="14">AGO</text>
	<rect x="591.5" y="301.2" fill="none" width="29.8" height="21.8"/>
	<text transform="matrix(1 0 0 1 593.7817 311.8828)" fill="#ABABB4" font-family="'Roboto-Bold'" font-size="14">SEP</text>
	<rect x="656.5" y="301.2" fill="none" width="29.8" height="21.8"/>
	<text transform="matrix(1 0 0 1 658.1768 311.8828)" fill="#ABABB4" font-family="'Roboto-Bold'" font-size="14">OCT</text>
	<rect x="721.5" y="301.2" fill="none" width="29.8" height="21.8"/>
	<text transform="matrix(1 0 0 1 722.2539 311.8828)" fill="#ABABB4" font-family="'Roboto-Bold'" font-size="14">NOV</text>
	<rect x="786.5" y="301.2" fill="none" width="29.8" height="21.8"/>
	<text transform="matrix(1 0 0 1 790.3232 311.8828)" fill="#ABABB4" font-family="'Roboto-Bold'" font-size="14">DIC</text>
	
		<line opacity="0.23" fill="none" stroke="#FFFFFF" stroke-width="0.727" stroke-miterlimit="10" stroke-opacity="0.4" x1="67.1" y1="287" x2="818.1" y2="287"/>
	<g opacity="0.23">
		<g opacity="0.4">
			<line fill="none" stroke="#FFFFFF" stroke-miterlimit="10" x1="66.6" y1="147.2" x2="70.6" y2="147.2"/>
			<line fill="none" stroke="#FFFFFF" stroke-miterlimit="10" stroke-dasharray="9,9" x1="79.6" y1="147.2" x2="811.6" y2="147.2"/>
			<line fill="none" stroke="#FFFFFF" stroke-miterlimit="10" x1="815.6" y1="147.2" x2="820.6" y2="147.2"/>
		</g>
	</g>
	<g opacity="0.23">
		<g opacity="0.4">
			<line fill="none" stroke="#FFFFFF" stroke-miterlimit="10" x1="66.6" y1="240.2" x2="70.6" y2="240.2"/>
			<line fill="none" stroke="#FFFFFF" stroke-miterlimit="10" stroke-dasharray="9,9" x1="79.6" y1="240.2" x2="811.6" y2="240.2"/>
			<line fill="none" stroke="#FFFFFF" stroke-miterlimit="10" x1="815.6" y1="240.2" x2="820.6" y2="240.2"/>
		</g>
	</g>
	<g opacity="0.23">
		<g opacity="0.4">
			<line fill="none" stroke="#FFFFFF" stroke-miterlimit="10" x1="66.6" y1="194.2" x2="70.6" y2="194.2"/>
			<line fill="none" stroke="#FFFFFF" stroke-miterlimit="10" stroke-dasharray="9,9" x1="79.6" y1="194.2" x2="811.6" y2="194.2"/>
			<line fill="none" stroke="#FFFFFF" stroke-miterlimit="10" x1="815.6" y1="194.2" x2="820.6" y2="194.2"/>
		</g>
	</g>
	<g opacity="0.23">
		<g opacity="0.4">
			<line fill="none" stroke="#FFFFFF" stroke-miterlimit="10" x1="66.6" y1="100.2" x2="70.6" y2="100.2"/>
			<line fill="none" stroke="#FFFFFF" stroke-miterlimit="10" stroke-dasharray="9,9" x1="79.6" y1="100.2" x2="811.6" y2="100.2"/>
			<line fill="none" stroke="#FFFFFF" stroke-miterlimit="10" x1="815.6" y1="100.2" x2="820.6" y2="100.2"/>
		</g>
	</g>
	<g opacity="0.23">
		<g opacity="0.4">
			<line fill="none" stroke="#FFFFFF" stroke-miterlimit="10" x1="66.6" y1="54.2" x2="70.6" y2="54.2"/>
			<line fill="none" stroke="#FFFFFF" stroke-miterlimit="10" stroke-dasharray="9,9" x1="79.6" y1="54.2" x2="811.6" y2="54.2"/>
			<line fill="none" stroke="#FFFFFF" stroke-miterlimit="10" x1="815.6" y1="54.2" x2="820.6" y2="54.2"/>
		</g>
	</g>
	<g opacity="0.23">
		<g opacity="0.4">
			<line fill="none" stroke="#FFFFFF" stroke-miterlimit="10" x1="66.6" y1="7.2" x2="70.6" y2="7.2"/>
			<line fill="none" stroke="#FFFFFF" stroke-miterlimit="10" stroke-dasharray="9,9" x1="79.6" y1="7.2" x2="811.6" y2="7.2"/>
			<line fill="none" stroke="#FFFFFF" stroke-miterlimit="10" x1="815.6" y1="7.2" x2="820.6" y2="7.2"/>
		</g>
	</g>
	<g>
		<g opacity="0.55">
			<rect x="290" y="349" fill="none" width="149.7" height="13"/>
			<text transform="matrix(1 0 0 1 305.5293 358.165)" fill="#CDCCCC" font-family="'Roboto-Regular'" font-size="12">Temperatura MÁXIMA</text>
		</g>
		<g opacity="0.55">
			<rect x="446" y="349" fill="none" width="36.1" height="13"/>
			<text transform="matrix(1 0 0 1 446.0381 358.1653)" fill="#CDCCCC" font-family="'Roboto-Regular'" font-size="12">-4ºC</text>
		</g>
		<g opacity="0.55">
			<rect x="531" y="349" fill="none" width="27.1" height="13"/>
			<text transform="matrix(1 0 0 1 531.0381 358.1653)" fill="#CDCCCC" font-family="'Roboto-Regular'" font-size="12">30ºC</text>
		</g>
		<g>
			
				<linearGradient id="SVGID_1_" gradientUnits="userSpaceOnUse" x1="10318.8164" y1="2738.9141" x2="10366.1816" y2="2738.9141" gradientTransform="matrix(-1 0 0 -1 10844.998 3093.1614)">
				<stop  offset="0" style="stop-color:#D4B263"/>
				<stop  offset="7.861691e-02" style="stop-color:#CCB46E"/>
				<stop  offset="0.2244" style="stop-color:#B7BA89"/>
				<stop  offset="0.4196" style="stop-color:#8FC1B4"/>
				<stop  offset="0.5591" style="stop-color:#61C9D8"/>
				<stop  offset="0.5625" style="stop-color:#60C3D6"/>
				<stop  offset="0.5921" style="stop-color:#52A8CA"/>
				<stop  offset="0.6244" style="stop-color:#4691C0"/>
				<stop  offset="0.6592" style="stop-color:#3E7FB7"/>
				<stop  offset="0.6971" style="stop-color:#3771B1"/>
				<stop  offset="0.7394" style="stop-color:#3167AC"/>
				<stop  offset="0.7887" style="stop-color:#2E60A9"/>
				<stop  offset="0.8511" style="stop-color:#2C5CA7"/>
				<stop  offset="0.9707" style="stop-color:#2B5BA7"/>
			</linearGradient>
			<path fill="url(#SVGID_1_)" d="M478.8,353c0-1.9,1.6-3.5,3.5-3.5h40.3c1.9,0,3.5,1.6,3.5,3.5v2.4c0,1.9-1.6,3.5-3.5,3.5h-40.3
				c-1.9,0-3.5-1.6-3.5-3.5V353z"/>
		</g>
	</g>
	<rect x="386.5" y="20.9" fill="none" width="74.1" height="48.7"/>
	<text transform="matrix(1 0 0 1 388.6504 31.604)"><tspan x="0" y="0" fill="#0075C9" font-family="'Roboto-Bold'" font-size="14">55 vuelos </tspan><tspan x="48.6" y="16" fill="#0075C9" font-family="'Roboto-Bold'" font-size="14">6cº</tspan></text>
	<g>
		<defs>
			<path id="SVGID_2_" d="M407.1,205.7h-31.5c-0.4,0-0.9-0.2-1.3-0.3c-6.4-1.8-14.4-3.8-16.7-3.9c-1.9,0.6-5.4,0.6-17.5-10.3
				l-17.6-2.1c-1.2-0.1-2.2-0.7-2.8-1.6l-12.9-17.4l-12.4,9.9c-0.8,0.6-1.8,1-2.9,0.9l-18-0.6c-1.5-0.1-2.8-0.6-3.4-1.7l-16.4-28.9
				h-13.8l-16.8,1.2c-1.5,0.1-3-0.5-3.8-1.5l-16.3-21.7h-13.3c-0.5,0-1-0.2-1.5-0.3l-16.7-5.6l-15.4-2.9l-17.7,3.2
				c-0.9,0.2-1.8,0.1-2.6-0.3l-16.6-6.7c-0.3-0.1-0.5-0.2-0.7-0.4l-15.5-10L89,105.5c-5.6,8.1-13.7,19.8-14.3,20.9
				c-1,1.7-3.4,2.3-5.4,1.5c-2-0.8-2.8-2.8-1.8-4.5c1-1.7,14.1-20.7,15.6-22.8c0.7-1,1.9-1.6,3.2-1.7l17.5-1c1-0.1,1.9,0.2,2.7,0.7
				l16.4,10.6l15,6l17.2-3.1c0.6-0.1,1.2-0.1,1.7,0l16.5,3.1c0.2,0,0.4,0.1,0.6,0.1l16.3,5.4h14.7c1.4,0,2.7,0.6,3.4,1.6l16.2,21.5
				l14.5-1.2c0.1,0,0.3,0.1,0.4,0.1h16.5c1.5,0,3,0.7,3.6,1.9l16.5,29.2l13.9,0.5l14.8-11.7c0.9-0.7,2.1-1,3.3-0.9
				c1.2,0.1,2.2,0.7,2.9,1.6l14.5,19.6l17.2,2.1c0.9,0.1,1.8,0.5,2.4,1.1c4.5,4.1,9.5,8,11.5,9c2.1-0.2,6.9-0.1,19.7,3.9h29.2
				l14.1-11.4l18.3-20.4l15.8-53.5c0-0.1,0.1-0.2,0.1-0.2l17.5-44.5c0.1-0.2,0.2-0.5,0.4-0.7l18-25c0,0,0.1-0.1,0.1-0.1l15-19
				c0.7-0.9,1.9-1.5,3.2-1.5c1.3-0.1,2.5,0.5,3.3,1.3l17.1,18.6l16.2,2.5l14.2-2.4c1.9-0.3,3.7,0.5,4.5,2l17.5,35.2
				c0.1,0.1,0.1,0.1,0.2,0.2l15.2,44.8h31c1.4,0,2.6,0.7,3.4,1.7l14.7,19.1l15.5,3.7c0.4,0.1,0.8,0.2,1.1,0.4l16,8.7
				c0.2,0.1,0.5,0.4,0.7,0.6l18.3,15.8h12.1l16.3-22.4c0.4-0.5,0.9-1,1.5-1.3l16.5-7.6c1.6-0.7,3.7-0.4,4.9,0.8l15.3,14.5h13.1
				c3.8-3,13.4-11.2,16.3-12.9c2.3-1.7,16.1-17,28.1-30.8c1.3-1.5,3.8-1.8,5.6-0.8c1.8,1.1,2.2,3.2,0.9,4.7
				c-9.9,11.3-26.9,30.6-30,32.3c-1.8,1-10.7,8.5-16.4,13.2c-0.8,0.6-1.8,1.2-2.8,1.2h-16.5c-1.1,0-2.2-0.7-3-1.4l-14.4-13.6
				l-12.8,5.8l-16.9,22.9c-0.7,1-2,1.4-3.4,1.4h-16c-1.1,0-2.1-0.1-2.9-0.8l-19.2-16.3l-15.1-8.2l-16.4-3.8
				c-0.9-0.2-1.8-0.7-2.3-1.4l-14.3-18.6h-31.8c-1.8,0-3.4-1-3.8-2.5L573.3,82l-16.1-32.5l-11.8,2c-0.5,0.1-1,0.1-1.5,0l-18.5-2.9
				c-1-0.2-1.8-0.6-2.4-1.3l-14.6-15.9l-11.9,15l-17.7,24.6l-17.3,44l-16,54.1c-0.1,0.4-0.4,0.8-0.7,1.2l-19,21.2
				c-0.1,0.1-0.3,0.3-0.4,0.4l-15.5,12.7C409.1,205.2,408.1,205.7,407.1,205.7z"/>
		</defs>
		<clipPath id="SVGID_3_">
			<use xlink:href="#SVGID_2_"  overflow="visible"/>
		</clipPath>
		<linearGradient id="SVGID_4_" gradientUnits="userSpaceOnUse" x1="57.7943" y1="112.7901" x2="832.4803" y2="112.7901">
			<stop  offset="0" style="stop-color:#D4B263"/>
			<stop  offset="7.767007e-02" style="stop-color:#D2B366"/>
			<stop  offset="0.1442" style="stop-color:#CCB46F"/>
			<stop  offset="0.2066" style="stop-color:#C1B77D"/>
			<stop  offset="0.2665" style="stop-color:#B1BB90"/>
			<stop  offset="0.3247" style="stop-color:#9AC0A9"/>
			<stop  offset="0.3808" style="stop-color:#78C5C8"/>
			<stop  offset="0.4048" style="stop-color:#61C9D8"/>
			<stop  offset="0.5813" style="stop-color:#2B5BA7"/>
			<stop  offset="0.6817" style="stop-color:#2A5DA8"/>
			<stop  offset="0.6856" style="stop-color:#2A5DA8"/>
			<stop  offset="0.7126" style="stop-color:#2B5FA9"/>
			<stop  offset="0.7336" style="stop-color:#2E64AB"/>
			<stop  offset="0.7525" style="stop-color:#336CAF"/>
			<stop  offset="0.7702" style="stop-color:#3979B5"/>
			<stop  offset="0.7871" style="stop-color:#428ABD"/>
			<stop  offset="0.8033" style="stop-color:#4EA1C8"/>
			<stop  offset="0.8188" style="stop-color:#5DBDD3"/>
			<stop  offset="0.8232" style="stop-color:#61C9D8"/>
			<stop  offset="0.8264" style="stop-color:#69C7D3"/>
			<stop  offset="0.8546" style="stop-color:#93C1B0"/>
			<stop  offset="0.8832" style="stop-color:#ADBC94"/>
			<stop  offset="0.9119" style="stop-color:#BFB880"/>
			<stop  offset="0.9408" style="stop-color:#CBB570"/>
			<stop  offset="0.97" style="stop-color:#D2B366"/>
			<stop  offset="1" style="stop-color:#D4B263"/>
		</linearGradient>
		<rect x="57.8" y="9.1" clip-path="url(#SVGID_3_)" fill="url(#SVGID_4_)" width="774.7" height="207.3"/>
	</g>
	<g>
		
			<image overflow="visible" opacity="0.2" width="132" height="132" xlink:href="14C27C6516F397EC.png"  transform="matrix(0.24 0 0 0.24 493.5751 14.9)">
		</image>
		<g>
			<path fill="#FFFFFF" d="M506.9,19.9c-4.6,0-8.4,3.7-8.4,8.4s3.7,8.4,8.4,8.4c4.6,0,8.4-3.7,8.4-8.4S511.5,19.9,506.9,19.9z
				 M506.9,32.7c-2.4,0-4.4-2-4.4-4.4s2-4.4,4.4-4.4c2.4,0,4.4,2,4.4,4.4S509.4,32.7,506.9,32.7z"/>
		</g>
	</g>
	
		<line fill="none" stroke="#FFFFFF" stroke-width="0.8246" stroke-miterlimit="10" stroke-opacity="0.4" x1="466.6" y1="29.2" x2="501.3" y2="29.2"/>
</g>
</svg>
