<?xml version="1.0" encoding="utf-8"?>
<!-- Generator: Adobe Illustrator 18.0.0, SVG Export Plug-In . SVG Version: 6.00 Build 0)  -->
<!DOCTYPE svg PUBLIC "-//W3C//DTD SVG 1.1//EN" "http://www.w3.org/Graphics/SVG/1.1/DTD/svg11.dtd">
<svg version="1.1" id="Layer_1" xmlns="http://www.w3.org/2000/svg" xmlns:xlink="http://www.w3.org/1999/xlink" x="0px" y="0px"
	 viewBox="0 0 353.4 382.7" enable-background="new 0 0 353.4 382.7" xml:space="preserve">
<g>
	<rect x="49.3" y="321.2" fill="none" width="11.2" height="21.8"/>
	<text transform="matrix(1 0 0 1 51.0337 331.8821)" fill="#ABABB4" font-family="'Roboto-Bold'" font-size="14">E</text>
	<rect x="75.7" y="321.2" fill="none" width="11.2" height="21.8"/>
	<text transform="matrix(1 0 0 1 77.4287 331.8821)" fill="#ABABB4" font-family="'Roboto-Bold'" font-size="14">F</text>
	<rect x="102.1" y="321.2" fill="none" width="13.2" height="21.8"/>
	<text transform="matrix(1 0 0 1 102.626 331.8821)" fill="#ABABB4" font-family="'Roboto-Bold'" font-size="14">M</text>
	<rect x="128.5" y="321.2" fill="none" width="11.2" height="21.8"/>
	<text transform="matrix(1 0 0 1 129.6582 331.8821)" fill="#ABABB4" font-family="'Roboto-Bold'" font-size="14">A</text>
	<rect x="154.9" y="321.2" fill="none" width="13.2" height="21.8"/>
	<text transform="matrix(1 0 0 1 155.416 331.8821)" fill="#ABABB4" font-family="'Roboto-Bold'" font-size="14">M</text>
	<rect x="181.3" y="321.2" fill="none" width="11.2" height="21.8"/>
	<text transform="matrix(1 0 0 1 183.0161 331.8821)" fill="#ABABB4" font-family="'Roboto-Bold'" font-size="14">J</text>
	<rect x="207.7" y="321.2" fill="none" width="11.2" height="21.8"/>
	<text transform="matrix(1 0 0 1 209.4106 331.8821)" fill="#ABABB4" font-family="'Roboto-Bold'" font-size="14">J</text>
	<rect x="234.1" y="321.2" fill="none" width="11.2" height="21.8"/>
	<text transform="matrix(1 0 0 1 235.2388 331.8821)" fill="#ABABB4" font-family="'Roboto-Bold'" font-size="14">A</text>
	<rect x="260.5" y="321.2" fill="none" width="11.2" height="21.8"/>
	<text transform="matrix(1 0 0 1 261.7607 331.8821)" fill="#ABABB4" font-family="'Roboto-Bold'" font-size="14">S</text>
	<rect x="286.9" y="321.2" fill="none" width="11.2" height="21.8"/>
	<text transform="matrix(1 0 0 1 287.6665 331.8821)" fill="#ABABB4" font-family="'Roboto-Bold'" font-size="14">O</text>
	<rect x="313.3" y="321.2" fill="none" width="11.2" height="21.8"/>
	<text transform="matrix(1 0 0 1 313.938 331.8821)" fill="#ABABB4" font-family="'Roboto-Bold'" font-size="14">N</text>
	<rect x="339.7" y="321.2" fill="none" width="11.2" height="21.8"/>
	<text transform="matrix(1 0 0 1 340.6401 331.8821)" fill="#ABABB4" font-family="'Roboto-Bold'" font-size="14">D</text>
	<g>
		
			<text transform="matrix(0.7071 -0.7071 0.7071 0.7071 9.6475 102.0106)" fill="#ABABB4" font-family="'FontAwesome'" font-size="13"></text>
	</g>
	<rect x="11.3" y="1.2" fill="none" width="29.8" height="21.8"/>
	<text transform="matrix(1 0 0 1 26.2671 11.1211)" opacity="0.17" fill="#ABABB4" font-family="'Roboto-Bold'" font-size="13">30</text>
	<rect x="11.3" y="77.2" fill="none" width="29.8" height="21.8"/>
	<text transform="matrix(1 0 0 1 26.2671 87.1211)" opacity="0.17" fill="#ABABB4" font-family="'Roboto-Bold'" font-size="13">25</text>
	<rect x="11.3" y="158.6" fill="none" width="29.8" height="21.8"/>
	<text transform="matrix(1 0 0 1 26.2671 168.4541)" opacity="0.17" fill="#ABABB4" font-family="'Roboto-Bold'" font-size="13">20</text>
	<rect x="1.2" y="37.9" fill="none" width="17.3" height="273.6"/>
	<text transform="matrix(0 -1 1 0 11.1211 241.4092)" opacity="0.17" fill="#ABABB4" font-family="'Roboto-Bold'" font-size="13">Cantidad de vuelos</text>
	<rect x="11.3" y="229.6" fill="none" width="29.8" height="21.8"/>
	<text transform="matrix(1 0 0 1 26.2671 239.4541)" opacity="0.17" fill="#ABABB4" font-family="'Roboto-Bold'" font-size="13">15</text>
	<rect x="11.3" y="302.2" fill="none" width="29.8" height="21.8"/>
	<text transform="matrix(1 0 0 1 33.7256 312.1211)" opacity="0.17" fill="#ABABB4" font-family="'Roboto-Bold'" font-size="13">0</text>
	
		<line opacity="0.23" fill="none" stroke="#FFFFFF" stroke-width="0.727" stroke-miterlimit="10" stroke-opacity="0.4" x1="50.9" y1="310.4" x2="349.9" y2="310.4"/>
	<g>
		<g>
			<g opacity="0.55">
				<rect x="52.6" y="369.7" fill="none" width="135.7" height="13"/>
				<text transform="matrix(1 0 0 1 54.1548 378.8315)" fill="#CDCCCC" font-family="'Roboto-Regular'" font-size="12">Temperatura MÁXIMA</text>
			</g>
			<g opacity="0.55">
				<rect x="194.7" y="369.7" fill="none" width="36.1" height="13"/>
				<text transform="matrix(1 0 0 1 194.6626 378.8315)" fill="#CDCCCC" font-family="'Roboto-Regular'" font-size="12">19ºC</text>
			</g>
			<g opacity="0.55">
				<rect x="279.7" y="369.7" fill="none" width="27.1" height="13"/>
				<text transform="matrix(1 0 0 1 279.6626 378.8315)" fill="#CDCCCC" font-family="'Roboto-Regular'" font-size="12">37ºC</text>
			</g>
			<g>
				<linearGradient id="SVGID_1_" gradientUnits="userSpaceOnUse" x1="227.4406" y1="374.9137" x2="274.8058" y2="374.9137">
					<stop  offset="0" style="stop-color:#D4B263"/>
					<stop  offset="0.3551" style="stop-color:#DB9E7E"/>
					<stop  offset="0.9707" style="stop-color:#E77A9C"/>
				</linearGradient>
				<path fill="url(#SVGID_1_)" d="M274.8,376.1c0,1.9-1.6,3.5-3.5,3.5H231c-1.9,0-3.5-1.6-3.5-3.5v-2.4c0-1.9,1.6-3.5,3.5-3.5h40.3
					c1.9,0,3.5,1.6,3.5,3.5V376.1z"/>
			</g>
		</g>
	</g>
	
		<line opacity="0.23" fill="none" stroke="#FFFFFF" stroke-width="0.6357" stroke-miterlimit="10" stroke-opacity="0.4" stroke-dasharray="7.9684" x1="50.9" y1="237.8" x2="349.9" y2="237.8"/>
	<g opacity="0.23">
		<g opacity="0.4">
			<line fill="none" stroke="#FFFFFF" stroke-miterlimit="10" x1="51" y1="163.2" x2="55" y2="163.2"/>
			<line fill="none" stroke="#FFFFFF" stroke-miterlimit="10" stroke-dasharray="8,8" x1="63" y1="163.2" x2="345" y2="163.2"/>
			<line fill="none" stroke="#FFFFFF" stroke-miterlimit="10" x1="349" y1="163.2" x2="353" y2="163.2"/>
		</g>
	</g>
	<g opacity="0.23">
		<g opacity="0.4">
			<line fill="none" stroke="#FFFFFF" stroke-miterlimit="10" x1="51" y1="82.2" x2="55" y2="82.2"/>
			<line fill="none" stroke="#FFFFFF" stroke-miterlimit="10" stroke-dasharray="8,8" x1="63" y1="82.2" x2="345" y2="82.2"/>
			<line fill="none" stroke="#FFFFFF" stroke-miterlimit="10" x1="349" y1="82.2" x2="353" y2="82.2"/>
		</g>
	</g>
	<g opacity="0.23">
		<g opacity="0.4">
			<line fill="none" stroke="#FFFFFF" stroke-miterlimit="10" x1="51" y1="6.2" x2="55" y2="6.2"/>
			<line fill="none" stroke="#FFFFFF" stroke-miterlimit="10" stroke-dasharray="8,8" x1="63" y1="6.2" x2="345" y2="6.2"/>
			<line fill="none" stroke="#FFFFFF" stroke-miterlimit="10" x1="349" y1="6.2" x2="353" y2="6.2"/>
		</g>
	</g>
	<g>
		<defs>
			<path id="SVGID_2_" d="M159.3,221.9c-0.2,0-0.5,0-0.7-0.1c-1.7-0.4-4.3-0.9-11.5-26.7c-1.8,5.7-4.2,13.2-5.7,16
				c-0.7,1.3-2,1.9-3.4,1.7c-2.5-0.5-2.8-2.9-3.5-8.2c-0.4-3.4-1-8.3-1.5-14.6c-1-10.6-2.2-25.4-3.6-43.8
				c-1.3-17.7-2.5-35.5-3.4-47.7l-18.8,59.2c-0.4,1.3-1.6,2.1-2.9,2.1c-1.3,0-2.5-0.9-2.8-2.2l-11-37.4l-4.1-1.7l-7.9,20.1
				c-0.4,1.1-1.5,1.7-2.7,1.7L51,140.7c0,0-0.1,0-0.1,0c-1.6,0-3-1.1-3-2.8c0-1.7,1.3-3,2.9-3l22.8-0.6l8.3-21.1
				c0.3-0.8,0.9-1.3,1.6-1.7c0.7-0.3,1.6-0.3,2.3,0l8.2,3.5c0.8,0.4,1.5,1.1,1.7,1.9l8.6,29.4l20.6-65c0.4-1.4,1.8-2.3,3.2-2.1
				c1.4,0.2,2.5,1.3,2.6,2.8c2.5,38.5,6.4,93.4,8.8,116.1c1.4-4.4,2.9-9,3.6-11.6l0.6-4.1c0.2-1.4,1.4-2.5,2.8-2.6
				c1.4-0.1,2.7,0.9,3.1,2.2c2.9,11.4,6.8,24.3,9.2,30.6c1.8-4.8,4.3-13,6.3-20.3c0.2-0.9,0.9-1.6,1.7-2c0,0,1.6-0.7,5-2.3
				c2-0.9,6.6-6.2,9.1-9.4c0.5-0.7,1.2-1.1,2.1-1.2l5.8-0.6c1.5-0.1,2.8,0.8,3.2,2.2l5.8,21.9c1.3,0.5,3.6,1,5.2-0.5
				c2.4-4,8.8-40.1,13.6-72.9c0-0.3,0.1-0.6,0.3-0.9l8.9-18.3c0.6-1.2,1.9-1.9,3.3-1.6c1.3,0.3,2.3,1.4,2.4,2.7
				c0.4,5.8,1.1,12.5,1.8,16.5c1.9-2.3,4.4-5.7,6.5-8.8c0.5-0.8,1.4-1.3,2.4-1.3l26.1-1.2l4.8-19.6c0,0,0-0.1,0-0.1l8.6-29.7
				c0-0.1,0-0.1,0.1-0.2l10.1-27.7c0.4-1.2,1.6-2,2.9-2l13.9,0.5l0.4-10.9c0-1.2,0.8-2.2,1.8-2.7l16-6.7c1.4-0.6,3,0,3.8,1.3
				l14.5,26.5c0.2,0.3,0.3,0.7,0.3,1.1l6.9,53.7c0.2,1.6-1,3.1-2.6,3.4c-1.6,0.2-3.1-1-3.4-2.6L340,46.1L327,22.5l-11.7,4.9l-0.4,12
				c0,0.8-0.4,1.5-0.9,2.1c-0.6,0.5-1.4,0.8-2.2,0.8l-14.7-0.5l-9.3,25.5l-8.6,29.5l-5.4,21.7c-0.3,1.3-1.4,2.2-2.8,2.3l-26.8,1.2
				c-8.5,12.4-10.7,12.4-12,12.4c-3.4,0-4.3-3.3-5.5-13.4c0,0,0-0.1,0-0.1l-4,8.2c-0.4,2.9-2.8,19-5.6,35.4
				c-6.3,37.2-8.3,39.2-9.5,40.4c-4.4,4.4-10.6,2.8-13.6,1.2c-0.7-0.4-1.2-1.1-1.4-1.9l-5.5-20.8l-2,0.2c-2.1,2.6-7.1,8.6-10.5,10.2
				c-1.8,0.8-3,1.4-3.9,1.8c-1.8,6.5-6.2,21.8-8.8,25C161.4,221.4,160.4,221.9,159.3,221.9z"/>
		</defs>
		<clipPath id="SVGID_3_">
			<use xlink:href="#SVGID_2_"  overflow="visible"/>
		</clipPath>
		<linearGradient id="SVGID_4_" gradientUnits="userSpaceOnUse" x1="46.7854" y1="116.1223" x2="357.3836" y2="116.1223">
			<stop  offset="0" style="stop-color:#C464A7"/>
			<stop  offset="4.501995e-02" style="stop-color:#C568A4"/>
			<stop  offset="0.1107" style="stop-color:#C6719F"/>
			<stop  offset="0.1889" style="stop-color:#C97F98"/>
			<stop  offset="0.277" style="stop-color:#CC9189"/>
			<stop  offset="0.3719" style="stop-color:#D1A772"/>
			<stop  offset="0.4121" style="stop-color:#D4B263"/>
			<stop  offset="0.7127" style="stop-color:#D4B263"/>
			<stop  offset="0.7729" style="stop-color:#CFA07A"/>
			<stop  offset="0.8825" style="stop-color:#CA8296"/>
			<stop  offset="0.961" style="stop-color:#C66DA1"/>
			<stop  offset="1" style="stop-color:#C464A7"/>
		</linearGradient>
		<rect x="46.8" y="7.6" clip-path="url(#SVGID_3_)" fill="url(#SVGID_4_)" width="310.6" height="217.1"/>
	</g>
	<rect x="191.6" y="17.3" fill="none" width="74.1" height="48.7"/>
	<text transform="matrix(1 0 0 1 193.7808 27.9373)"><tspan x="0" y="0" fill="#C464A7" font-family="'Roboto-Bold'" font-size="14">29 vuelos </tspan><tspan x="40.6" y="16" fill="#C464A7" font-family="'Roboto-Bold'" font-size="14">33cº</tspan></text>
	<line fill="none" stroke="#FFFFFF" stroke-miterlimit="10" stroke-opacity="0.4" x1="323.5" y1="21.4" x2="269" y2="21.4"/>
	<g>
		<circle fill="#C464A7" cx="327.6" cy="21.1" r="5.6"/>
		<g>
			
				<image overflow="visible" opacity="0.2" width="132" height="132" xlink:href="70FD31D2AE13D256.png"  transform="matrix(0.24 0 0 0.24 314.2804 7.9926)">
			</image>
			<g>
				<path fill="#FFFFFF" d="M327.6,13c-4.6,0-8.4,3.7-8.4,8.4s3.7,8.4,8.4,8.4c4.6,0,8.4-3.7,8.4-8.4S332.2,13,327.6,13z
					 M327.6,25.8c-2.4,0-4.4-2-4.4-4.4s2-4.4,4.4-4.4c2.4,0,4.4,2,4.4,4.4S330.1,25.8,327.6,25.8z"/>
			</g>
		</g>
	</g>
</g>
</svg>
