<?xml version="1.0" encoding="utf-8"?>
<!-- Generator: Adobe Illustrator 18.0.0, SVG Export Plug-In . SVG Version: 6.00 Build 0)  -->
<!DOCTYPE svg PUBLIC "-//W3C//DTD SVG 1.1//EN" "http://www.w3.org/Graphics/SVG/1.1/DTD/svg11.dtd">
<svg version="1.1" id="Layer_1" xmlns="http://www.w3.org/2000/svg" xmlns:xlink="http://www.w3.org/1999/xlink" x="0px" y="0px"
	 viewBox="0 0 397.8 378.5" enable-background="new 0 0 397.8 378.5" xml:space="preserve">
<g>
	<g>
		<g>
			<g>
				
					<polygon fill-rule="evenodd" clip-rule="evenodd" fill="#2D2D43" stroke="#A6A7AA" stroke-width="0.521" stroke-miterlimit="10" points="
					232.3,62.2 234.8,66.5 235,68.2 237,70.3 245.4,65.3 248.1,65 252.9,61.5 255,51.9 253.8,49.4 252.3,44.1 245.7,45.2 
					244.5,53.2 238.9,58.2 				"/>
				
					<polygon fill-rule="evenodd" clip-rule="evenodd" fill="none" stroke="#A6A7AA" stroke-width="0.521" stroke-miterlimit="10" points="
					231.2,74 225.1,81.6 219.7,88.1 213.3,93.8 210.3,100.8 204.9,95.9 191.6,97.2 191.7,92.9 196,80.6 197.1,71.1 199.9,68.1 
					201.2,62.7 211.3,63.7 228.2,64.2 232.3,62.2 234.9,66.5 235,68.2 237,70.3 				"/>
				
					<polygon fill-rule="evenodd" clip-rule="evenodd" fill="none" stroke="#A6A7AA" stroke-width="0.521" stroke-miterlimit="10" points="
					165.3,8.2 166.6,10 169,11.1 178.5,19.7 185.3,25.8 191.3,26.6 202.9,34.3 205,36.6 208.5,36.8 213.6,39.9 214.1,42.1 
					208.5,49.8 206.3,57.4 193.7,49.4 191.5,45.3 182.2,36.8 173.3,31.5 172.2,29.8 165.3,27 				"/>
				
					<polygon fill-rule="evenodd" clip-rule="evenodd" fill="none" stroke="#A6A7AA" stroke-width="0.521" stroke-miterlimit="10" points="
					133.6,96.4 129.5,86.6 122.9,81.3 122.1,78 117.8,75 115,76.5 110.1,76 101.2,70.8 94.3,69.5 90.9,75.5 95.8,78.3 99.1,81.8 
					99.6,89.3 106.8,92.9 110.9,96.6 116,103.2 117.5,109.2 119.8,115.7 124.9,116.2 128.8,115.5 128.8,102.4 				"/>
				
					<polyline fill-rule="evenodd" clip-rule="evenodd" fill="none" stroke="#A6A7AA" stroke-width="0.521" stroke-miterlimit="10" points="
					137.7,64 137.4,68.7 135.1,69.5 131.1,70.8 127.5,67 127.5,63.5 125.9,61.7 126.7,57.2 124.2,54.7 124.2,52.1 128.8,51.9 
					130.5,49.4 141.8,51.4 				"/>
				
					<polygon fill-rule="evenodd" clip-rule="evenodd" fill="none" stroke="#A6A7AA" stroke-width="0.521" stroke-miterlimit="10" points="
					115.5,116 115.2,121.5 111.4,119.8 106.5,119 104,121.8 100.4,122.5 100.4,119.5 94.3,120.3 93.2,123.3 87.1,124.5 85.6,121.3 
					86.1,119 83.5,117 83,110.2 85.3,104.4 87.6,97.9 85.6,87.1 88.1,85.1 90.9,75.5 95.8,78.3 99.1,81.8 99.6,89.3 106.8,92.9 
					110.9,96.6 116,103.2 117.5,109.2 119.8,115.7 				"/>
				
					<polygon fill-rule="evenodd" clip-rule="evenodd" fill="none" stroke="#A6A7AA" stroke-width="0.521" stroke-miterlimit="10" points="
					165.3,97.1 171.2,73.8 171.1,71.1 197.1,71.1 196,80.6 191.7,92.9 191.6,97.2 190.1,101.9 186.3,107.2 183.2,112 181.1,115.2 
					180.9,122.3 185.2,131.6 182.7,134.6 178.8,134.3 170.9,143.4 154.3,143.4 169.1,125.5 166.8,120 165.6,115.5 168.6,102.9 				
					"/>
				
					<polygon fill-rule="evenodd" clip-rule="evenodd" fill="none" stroke="#A6A7AA" stroke-width="0.521" stroke-miterlimit="10" points="
					210.3,100.8 204.9,95.9 191.6,97.2 190.1,101.9 186.3,107.2 183.2,112 181.1,115.2 180.9,122.3 185.2,131.6 192.4,135.1 
					197.2,138.6 203.1,140.4 202.9,134.6 202.9,130.3 205.4,127.5 205.4,114.7 208.7,106.7 				"/>
				
					<polygon fill-rule="evenodd" clip-rule="evenodd" fill="none" stroke="#A6A7AA" stroke-width="0.521" stroke-miterlimit="10" points="
					115.5,116 115.2,121.5 115.7,126.8 117.5,132.3 123.1,142.6 124.9,148.1 123.9,159.4 137.2,159.4 137.2,130.3 139,124.8 
					138.7,120.3 136.2,119.8 134.6,117.5 128.8,115.5 124.9,116.2 119.8,115.7 				"/>
				
					<polygon fill-rule="evenodd" clip-rule="evenodd" fill="#2D2D43" stroke="#A6A7AA" stroke-width="0.521" stroke-miterlimit="10" points="
					137.2,150.7 137.2,130.3 139,124.8 138.7,120.3 136.2,119.8 134.6,117.5 128.8,115.5 128.8,102.4 133.6,96.4 136.7,95.4 
					139.7,92.6 140.3,88.8 144.3,87.3 150.7,88.6 159.2,89.6 162.5,96.4 165.3,97.1 168.6,102.9 165.6,115.5 166.8,120 169.1,125.5 
					154.3,143.4 154.3,150.7 				"/>
				
					<polygon fill-rule="evenodd" clip-rule="evenodd" fill="#2D2D43" stroke="#A6A7AA" stroke-width="0.521" stroke-miterlimit="10" points="
					87.1,124.5 93.2,123.3 94.3,120.3 100.4,119.5 100.4,122.5 104,121.8 106.5,119 111.4,119.8 115.2,121.5 115.7,126.8 
					117.5,132.3 123.1,142.6 124.9,148.1 123.9,159.4 110.9,159.4 110.9,181.6 101.9,177.8 96.8,176.5 94.3,173 89.9,171.3 
					87.1,166.7 87.1,157.7 85.6,155.7 87.4,153.4 89.9,144.4 91.2,142.4 91.2,133.1 88.6,131.1 				"/>
				<polygon fill-rule="evenodd" clip-rule="evenodd" fill="#232332" points="107.5,200.4 111.9,198.1 110.9,195.1 110.9,181.6 
					101.9,177.8 96.8,176.5 94.3,173 89.9,171.3 87.1,166.7 84,168.5 81.7,176.3 82.5,180.8 81.7,185.6 86.3,194.1 81.5,199.1 
					81,206.7 78.4,208.2 79.9,215.7 78.9,218.7 79.9,223.8 86.6,223.3 87.9,218.5 93.5,216.2 96.8,210.7 97.8,207.9 				"/>
				
					<polygon fill-rule="evenodd" clip-rule="evenodd" fill="none" stroke="#A6A7AA" stroke-width="0.521" stroke-miterlimit="10" points="
					110.9,181.6 110.9,159.4 123.9,159.4 137.2,159.4 137.2,150.7 154.3,150.7 154.3,200.9 144.9,195.6 134.6,195.4 127.7,194.4 
					121.3,190.9 116.7,189.9 115.2,184.6 113.2,182.3 				"/>
				
					<polygon fill-rule="evenodd" clip-rule="evenodd" fill="#2D2D43" stroke="#A6A7AA" stroke-width="0.521" stroke-miterlimit="10" points="
					203.1,140.4 197.2,138.6 192.4,135.1 185.2,131.6 182.7,134.6 178.8,134.3 170.9,143.4 154.3,143.4 154.3,200.9 154.3,215.5 
					157.9,217.2 160.2,220 164.8,215.5 163.8,210.5 164.8,203.9 166.8,202.9 164.8,197.9 163.8,193.1 164.8,191.9 168.6,193.9 
					177.1,194.9 185,194.4 193.4,192.4 203.6,188.3 210.8,181.8 217.2,172.3 217.2,165.7 213.3,165.7 211.5,160.5 212.6,155.9 
					212.1,152.9 206.4,148.4 202.9,144.6 				"/>
				
					<polygon fill-rule="evenodd" clip-rule="evenodd" fill="#2D2D43" stroke="#A6A7AA" stroke-width="0.521" stroke-miterlimit="10" points="
					160.2,220 157.9,217.2 154.3,215.5 154.3,200.9 144.9,195.6 134.6,195.4 127.7,194.4 121.3,190.9 116.7,189.9 115.2,184.6 
					113.2,182.3 110.9,181.6 110.9,195.1 111.9,198.1 107.5,200.4 97.8,207.9 96.8,210.7 93.5,216.2 87.9,218.5 86.6,223.3 
					79.9,223.8 81.5,231.6 141.5,231.6 142.3,225.5 140,220.5 140,217.5 142.6,217.2 148.9,220 153.5,221 158.4,221.5 				"/>
				
					<polygon fill-rule="evenodd" clip-rule="evenodd" fill="none" stroke="#A6A7AA" stroke-width="0.521" stroke-miterlimit="10" points="
					142,233.6 145.1,233.6 146.1,235.6 148.7,234.3 147.2,232.3 152.3,232.3 154.1,238.3 149.7,240.4 149.7,238.1 146.1,237.1 
					143.6,238.3 143.6,240.4 147.4,241.6 147.7,242.9 142.6,246.4 140.5,250.9 140.8,257.2 138.7,259.2 138.2,261.7 139.7,263.7 
					138,265.5 132.6,266 130.8,267.7 127.5,268.7 123.9,273.3 122.4,277.5 88.4,277.5 90.2,273.5 89.7,270.5 85.8,269.8 83.8,267.5 
					84,265.7 90.9,265.5 90.4,262.2 86.1,261.5 84.5,256.7 85.3,254.2 85.1,251.7 83.3,250.7 81.5,243.6 79.4,242.1 79.4,237.1 
					82,234.1 81.5,231.6 141.5,231.6 				"/>
				
					<polygon fill-rule="evenodd" clip-rule="evenodd" fill="none" stroke="#A6A7AA" stroke-width="0.521" stroke-miterlimit="10" points="
					87.9,279.8 89.7,288.1 87.6,292.4 85.8,301.2 86.8,306.7 87.1,316.7 83.8,323.3 84,332.8 85.6,335.3 87.6,339.9 90.9,337.8 
					94.8,338.8 94.5,343.6 97.6,349.4 112.1,349.4 116.2,350.2 119.8,350.9 121.1,349.9 116.7,343.1 114.4,335.6 115.7,328 
					123.4,320.8 124.2,316.2 125.9,310 133.1,302.9 135.7,302.7 135.9,299.9 138.2,293.6 137.7,290.4 135.7,288.3 130,287.3 
					125.9,284.3 122.9,281.1 122.4,277.5 88.4,277.5 				"/>
				
					<polygon fill-rule="evenodd" clip-rule="evenodd" fill="none" stroke="#A6A7AA" stroke-width="0.521" stroke-miterlimit="10" points="
					120.1,353.9 120.1,372 126.7,372.3 130.8,373.3 129.8,374.8 119.8,373.8 119.8,377.5 127.7,377 133.4,376.8 138,377.3 
					143.1,376.5 144.3,374.5 137.7,373.3 133.6,370.3 129.5,366.7 126.5,364 124.4,361.2 121.3,360.5 122.6,357.7 				"/>
				
					<polygon fill-rule="evenodd" clip-rule="evenodd" fill="none" stroke="#A6A7AA" stroke-width="0.521" stroke-miterlimit="10" points="
					202.4,325.4 201.6,326.9 200.1,327 200.4,328.1 198,331 196.1,333.3 194.4,332.8 193.2,333.7 192.2,335.3 190.8,336.3 
					190.1,335 188.5,334.8 187.2,333 189.4,332.5 190.9,332 191.6,330.3 190.9,328.5 193.2,328.5 194.8,329.1 192.5,326.9 
					191.3,325.6 189.8,324.2 191.1,323.4 192.9,325.5 195.5,324.9 197.7,325.1 199.9,325.6 200.8,323.9 202.4,323.6 				"/>
				
					<polygon fill-rule="evenodd" clip-rule="evenodd" fill="none" stroke="#A6A7AA" stroke-width="0.521" stroke-miterlimit="10" points="
					203.1,330.8 201.9,329.3 200.1,330.4 198.5,332.4 197.5,334.2 198,335.9 199.3,337.6 199.6,338.6 201.2,338.2 200.3,336.3 
					202.4,336 203.3,334.8 204.5,336 205.3,334.4 203.6,332.4 204.2,331.7 206.4,332.3 208.4,332.5 211,330.5 212.4,328.5 
					214.3,328.3 214.3,326.9 213,324.9 210.9,324.7 211,327 208.8,326 207.2,325.7 207.2,324.6 209.1,324.6 209.2,323.2 207.3,323 
					205,323.2 205.4,325.2 203.3,326.6 202.8,328.1 203.7,329.9 				"/>
				
					<polygon fill-rule="evenodd" clip-rule="evenodd" fill="#2D2D43" stroke="#A6A7AA" stroke-width="0.521" stroke-miterlimit="10" points="
					152.1,44.9 165.3,28.7 165.3,27 165.3,8.2 159.3,2 145.6,2 142.3,9.1 139.2,5.7 136.2,4.7 132.9,4.6 132.6,12.7 135,14.2 
					136.6,18.9 140.8,18.5 144.7,19.8 144.7,29.3 141.9,31.4 137.2,32.6 130.5,31.1 125.7,25.8 125.7,21 121.3,19.8 120.8,26 
					117.8,27.8 111.9,24.3 110.4,27.5 100.1,33.1 98.6,36.1 99.1,38.8 108.3,40.4 120.8,41.1 121.1,45.6 118.5,46.6 122.4,52.2 
					128.8,51.9 130.5,49.4 141.8,51.4 144.9,46.1 151,45.9 152,44.9 				"/>
				
					<polygon fill-rule="evenodd" clip-rule="evenodd" fill="none" stroke="#A6A7AA" stroke-width="0.521" stroke-miterlimit="10" points="
					124.2,54.7 126.7,57.2 125.9,61.7 127.5,63.5 127.5,67 131.1,70.8 135.1,69.5 135.7,75.5 136.2,81.6 139.7,84.8 140.3,88.8 
					139.7,92.6 136.7,95.4 133.6,96.4 129.5,86.6 122.9,81.3 122.1,78 117.8,75 115,76.5 110.1,76 101.2,70.8 94.3,69.5 96,61.7 
					100.4,61 100.9,58.7 98.1,53.9 99.6,50.2 99.1,38.8 108.3,40.4 120.8,41.1 121.1,45.6 118.5,46.6 122.4,52.2 124.2,52.1 				"/>
				
					<polygon fill-rule="evenodd" clip-rule="evenodd" fill="none" stroke="#A6A7AA" stroke-width="0.521" stroke-miterlimit="10" points="
					199.9,68.1 201.2,62.7 206.3,57.4 193.7,49.4 191.5,45.3 182.2,36.8 173.3,31.5 172.2,29.8 165.3,27 165.3,28.7 152.1,44.9 
					171.1,44.9 171.1,71.1 197.1,71.1 				"/>
				
					<polygon fill-rule="evenodd" clip-rule="evenodd" fill="none" stroke="#A6A7AA" stroke-width="0.521" stroke-miterlimit="10" points="
					152.1,44.9 171.1,44.9 171.1,71.1 171.2,73.8 165.3,97.1 162.5,96.4 159.2,89.6 150.7,88.6 144.3,87.3 140.3,88.8 139.7,84.8 
					136.2,81.6 135.7,75.5 135.1,69.5 137.4,68.7 137.7,64 142,55.9 141.8,51.4 144.9,46.1 151,45.9 				"/>
				
					<polygon fill-rule="evenodd" clip-rule="evenodd" fill="none" stroke="#A6A7AA" stroke-width="0.521" stroke-miterlimit="10" points="
					113.4,14.2 112.1,11.7 115.5,8.2 119.8,5.7 120.6,2.2 122.4,0.9 129,4.4 132.9,4.6 132.6,12.7 135,14.2 136.6,18.9 140.8,18.5 
					144.7,19.8 144.7,29.3 141.9,31.4 137.2,32.6 130.5,31.1 125.7,25.8 125.7,21 121.3,19.8 120.8,26 117.8,27.8 111.9,24.3 				
					"/>
			</g>
		</g>
		<path id="stroke_p01_2_" fill="none" stroke="#A6A7AA" stroke-width="0.521" stroke-miterlimit="10" d="M221.2,153.6L221.2,153.6"
			/>
		<path fill="none" stroke="#A6A7AA" stroke-width="0.521" stroke-miterlimit="10" d="M201.4,139.8l-1.3,0.4l-0.9,0.1l-0.4,0.9h0.5
			l0.3,0.7l-0.1,0.5l-0.3,0.2l-0.3,0.5l-0.3,0l-0.6,0.8l-0.4,0.4l0,0.4l0,0.8l0,0.4l0.7,1.1c0,0,0.1,0.6,0.1,0.8
			c0,0.2,1.4,0.6,1.4,0.6l0.8,1l0,0.7l0.5,0.6l1.3,0l1.4-0.3l0.6,0.2l2.1-2.3"/>
		<polyline fill="none" stroke="#A6A7AA" stroke-width="0.521" stroke-miterlimit="10" points="204.2,146 203.6,146.5 203.6,146.5 
			203.6,146.4 203.5,146.4 203.5,146.4 203.5,146.4 203.5,146.4 203.4,146.4 203.2,146.4 203.2,146.4 203,146.7 202.9,146.9 
			202.7,147.1 201.9,146.3 201.9,145.7 202.3,144.6 202.8,144.4 202.8,144.4 202.9,144.4 202.9,144.3 202.9,144.3 		"/>
	</g>
	<g>
		
			<path fill-rule="evenodd" clip-rule="evenodd" fill="none" stroke="#808184" stroke-width="1.8119" stroke-linecap="round" stroke-linejoin="round" stroke-miterlimit="10" d="
			M253.8,49.4l-1.5-5.3l-6.6,1.1l-1.2,7.9l-5.6,5l-6.6,4.1l-4.2,2l-16.9-0.5l-10.1-1.1l5.1-5.3l2.2-7.5l5.6-7.7l-0.5-2.3l-5.1-3
			l-3.5-0.2l-2.1-2.3l-11.5-7.7l-6-0.8l-6.9-6.1l-9.5-8.6l-2.4-1.2l-1.3-1.8l-6-6.1h-13.7l-3.3,7l-3.1-3.4l-3.1-1l-3.2-0.1L129,4.4
			l-6.6-3.5l-1.8,1.3l-0.8,3.5l-4.3,2.5l-3.3,3.5l1.3,2.5l-1.5,10.1l-1.5,3.3l-10.2,5.5l-1.5,3l0.5,2.8l0.5,11.3l-1.5,3.8l2.8,4.8
			l-0.5,2.3L96,61.7l-1.8,7.8l-3.3,6l-2.8,9.5l-2.6,2l2,10.8l-2.3,6.5l-2.3,5.8l0.5,6.8l2.6,2l-0.5,2.3l1.5,3.3l1.5,6.5l2.6,2v9.3
			l-1.3,2l-2.6,9l-1.8,2.3l1.5,2v9l-3.1,1.8l-2.3,7.8l0.8,4.5l-0.8,4.8l4.6,8.5l-4.9,5l-0.5,7.5l-2.6,1.5l1.5,7.5l-1,3l1,5l1.5,7.8
			l0.5,2.5l-2.6,3v5l2,1.5l1.8,7l1.8,1l0.3,2.5l-0.8,2.5l1.5,4.8l4.3,0.8l0.5,3.3l-6.9,0.3l-0.3,1.8l2,2.3l3.8,0.8l0.5,3l-1.8,4
			l-0.5,2.3l1.8,8.3l-2,4.3l-1.8,8.8l1,5.5l0.3,10.1l-3.3,6.5l0.3,9.5l1.5,2.5l2,4.5l3.3-2l3.8,1l-0.3,4.8l3.1,5.8h14.6l4.1,0.8
			l3.6,0.8l1.3-1l-4.3-6.8l-2.3-7.5l1.3-7.5l7.7-7.3l0.8-4.5l1.8-6.3l7.2-7l2.6-0.3l0.3-2.8l2.3-6.3l-0.5-3.3l-2-2l-5.6-1l-4.1-3
			l-3.1-3.3l-0.5-3.5l1.5-4.3l3.6-4.5l3.3-1l1.8-1.8l5.4-0.5l1.8-1.8l-1.5-2l0.5-2.5l2-2l-0.3-6.3l2-4.5l5.1-3.5l-0.3-1.3l-3.8-1.3
			v-2l2.6-1.3l3.6,1v2.3l4.3-2l-1.8-6h-5.1l1.5,2l-2.6,1.3l-1-2H142l-0.5-2l0.8-6l-2.3-5v-3l2.6-0.3l6.4,2.8l4.6,1l4.9,0.5l1.8-1.5
			l4.6-4.5l-1-5l1-6.5l2-1l-2-5l-1-4.8l1-1.3l3.8,2l8.4,1l7.9-0.5l8.4-2l10.2-4l7.2-6.5l6.4-9.5v-6.5h-3.8l-1.8-5.3l1-4.5l-0.5-3
			l-5.6-4.5l-3.6-3.8l0.3-4.3l-0.3-5.8v-4.3l2.6-2.8v-12.8l3.3-8l1.6-5.9l3.1-7l6.4-5.7l5.4-6.5l6.1-7.5l5.8-3.8l8.4-4.9l2.7-0.4
			l4.9-3.5l2-9.5L253.8,49.4z"/>
		
			<polygon fill-rule="evenodd" clip-rule="evenodd" fill="none" stroke="#808184" stroke-width="1.8119" stroke-miterlimit="10" points="
			133.6,370.3 129.5,366.7 126.5,364 124.4,361.2 121.3,360.5 122.6,357.7 120.1,353.9 120.1,372 126.7,372.3 130.8,373.3 
			129.8,374.8 119.8,373.8 119.8,377.5 127.7,377 133.4,376.8 138,377.3 143.1,376.5 144.3,374.5 137.7,373.3 		"/>
		
			<polygon fill-rule="evenodd" clip-rule="evenodd" fill="none" stroke="#808184" stroke-width="1.8119" stroke-miterlimit="10" points="
			200.4,328.1 200.1,327 201.6,326.9 202.4,325.4 202.4,323.6 200.8,323.9 199.9,325.6 197.7,325.1 195.5,324.9 192.9,325.5 
			191.1,323.4 189.8,324.2 191.3,325.6 192.5,326.9 194.8,329.1 193.2,328.5 190.9,328.5 191.6,330.3 190.9,332 189.4,332.5 
			187.2,333 188.5,334.8 190.1,335 190.8,336.3 192.2,335.3 193.2,333.7 194.4,332.8 196.1,333.3 198,331 		"/>
		
			<polygon fill-rule="evenodd" clip-rule="evenodd" fill="none" stroke="#808184" stroke-width="1.8119" stroke-miterlimit="10" points="
			210.9,324.7 211,327 208.8,326 207.2,325.7 207.2,324.6 209.1,324.6 209.2,323.2 207.3,323 205,323.2 205.4,325.2 203.3,326.6 
			202.8,328.1 203.7,329.9 203.1,330.8 201.9,329.3 200.1,330.4 198.5,332.4 197.5,334.2 198,335.9 199.3,337.6 199.6,338.6 
			201.2,338.2 200.3,336.3 202.4,336 203.3,334.8 204.5,336 205.3,334.4 203.6,332.4 204.2,331.7 206.4,332.3 208.4,332.5 
			211,330.5 212.4,328.5 214.3,328.3 214.3,326.9 213,324.9 		"/>
	</g>
	<g>
		<linearGradient id="SVGID_1_" gradientUnits="userSpaceOnUse" x1="200.2582" y1="97.1746" x2="254.6957" y2="97.1746">
			<stop  offset="0" style="stop-color:#009DDA;stop-opacity:0.5"/>
			<stop  offset="0.2193" style="stop-color:#019BD8;stop-opacity:0.4781"/>
			<stop  offset="0.3811" style="stop-color:#0494CE;stop-opacity:0.4619"/>
			<stop  offset="0.5245" style="stop-color:#0888BE;stop-opacity:0.4475"/>
			<stop  offset="0.6572" style="stop-color:#0F77A7;stop-opacity:0.4343"/>
			<stop  offset="0.7824" style="stop-color:#18628A;stop-opacity:0.4218"/>
			<stop  offset="0.9005" style="stop-color:#224867;stop-opacity:0.4099"/>
			<stop  offset="1" style="stop-color:#2D2D43;stop-opacity:0.4"/>
		</linearGradient>
		
			<path fill-rule="evenodd" clip-rule="evenodd" fill="none" stroke="url(#SVGID_1_)" stroke-width="1.8119" stroke-miterlimit="10" d="
			M247.5,47.9c28.1,86.1-47.1,97.8-47.1,97.8"/>
		<linearGradient id="SVGID_2_" gradientUnits="userSpaceOnUse" x1="203.0031" y1="152.798" x2="85.0724" y2="220.8853">
			<stop  offset="0" style="stop-color:#009DDA;stop-opacity:0.5"/>
			<stop  offset="0.2193" style="stop-color:#019BD8;stop-opacity:0.4781"/>
			<stop  offset="0.3811" style="stop-color:#0494CE;stop-opacity:0.4619"/>
			<stop  offset="0.5245" style="stop-color:#0888BE;stop-opacity:0.4475"/>
			<stop  offset="0.6572" style="stop-color:#0F77A7;stop-opacity:0.4343"/>
			<stop  offset="0.7824" style="stop-color:#18628A;stop-opacity:0.4218"/>
			<stop  offset="0.9005" style="stop-color:#224867;stop-opacity:0.4099"/>
			<stop  offset="1" style="stop-color:#2D2D43;stop-opacity:0.4"/>
		</linearGradient>
		
			<path fill-rule="evenodd" clip-rule="evenodd" fill="none" stroke="url(#SVGID_2_)" stroke-width="0.906" stroke-miterlimit="10" d="
			M199,146.2c0,0-40.3,48-111,79.7"/>
		<linearGradient id="SVGID_3_" gradientUnits="userSpaceOnUse" x1="140.605" y1="129.4821" x2="200.8513" y2="129.4821">
			<stop  offset="0" style="stop-color:#009DDA;stop-opacity:0.5"/>
			<stop  offset="0.2193" style="stop-color:#019BD8;stop-opacity:0.4781"/>
			<stop  offset="0.3811" style="stop-color:#0494CE;stop-opacity:0.4619"/>
			<stop  offset="0.5245" style="stop-color:#0888BE;stop-opacity:0.4475"/>
			<stop  offset="0.6572" style="stop-color:#0F77A7;stop-opacity:0.4343"/>
			<stop  offset="0.7824" style="stop-color:#18628A;stop-opacity:0.4218"/>
			<stop  offset="0.9005" style="stop-color:#224867;stop-opacity:0.4099"/>
			<stop  offset="1" style="stop-color:#2D2D43;stop-opacity:0.4"/>
		</linearGradient>
		<linearGradient id="SVGID_4_" gradientUnits="userSpaceOnUse" x1="195.7075" y1="156.3127" x2="145.5636" y2="106.1688">
			<stop  offset="0" style="stop-color:#009DDA;stop-opacity:0.5"/>
			<stop  offset="0.2193" style="stop-color:#019BD8;stop-opacity:0.4781"/>
			<stop  offset="0.3811" style="stop-color:#0494CE;stop-opacity:0.4619"/>
			<stop  offset="0.5245" style="stop-color:#0888BE;stop-opacity:0.4475"/>
			<stop  offset="0.6572" style="stop-color:#0F77A7;stop-opacity:0.4343"/>
			<stop  offset="0.7824" style="stop-color:#18628A;stop-opacity:0.4218"/>
			<stop  offset="0.9005" style="stop-color:#224867;stop-opacity:0.4099"/>
			<stop  offset="1" style="stop-color:#2D2D43;stop-opacity:0.4"/>
		</linearGradient>
		
			<path fill-rule="evenodd" clip-rule="evenodd" fill="url(#SVGID_3_)" stroke="url(#SVGID_4_)" stroke-width="9.0596" stroke-miterlimit="10" d="
			M200.9,146.7c0,0-36.7-0.5-60.2-34.4"/>
		<linearGradient id="SVGID_5_" gradientUnits="userSpaceOnUse" x1="167.4081" y1="164.295" x2="133.1675" y2="104.9885">
			<stop  offset="0" style="stop-color:#009DDA;stop-opacity:0.5"/>
			<stop  offset="0.2193" style="stop-color:#019BD8;stop-opacity:0.4781"/>
			<stop  offset="0.3811" style="stop-color:#0494CE;stop-opacity:0.4619"/>
			<stop  offset="0.5245" style="stop-color:#0888BE;stop-opacity:0.4475"/>
			<stop  offset="0.6572" style="stop-color:#0F77A7;stop-opacity:0.4343"/>
			<stop  offset="0.7824" style="stop-color:#18628A;stop-opacity:0.4218"/>
			<stop  offset="0.9005" style="stop-color:#224867;stop-opacity:0.4099"/>
			<stop  offset="1" style="stop-color:#2D2D43;stop-opacity:0.4"/>
		</linearGradient>
		
			<path fill-rule="evenodd" clip-rule="evenodd" fill="none" stroke="url(#SVGID_5_)" stroke-width="5.4358" stroke-miterlimit="10" d="
			M101.2,126.5c0,0,63-22.9,97.4,19.3"/>
		<linearGradient id="SVGID_6_" gradientUnits="userSpaceOnUse" x1="165.0769" y1="146.6839" x2="165.0769" y2="32.7454">
			<stop  offset="0" style="stop-color:#009DDA;stop-opacity:0.5"/>
			<stop  offset="0.2193" style="stop-color:#019BD8;stop-opacity:0.4781"/>
			<stop  offset="0.3811" style="stop-color:#0494CE;stop-opacity:0.4619"/>
			<stop  offset="0.5245" style="stop-color:#0888BE;stop-opacity:0.4475"/>
			<stop  offset="0.6572" style="stop-color:#0F77A7;stop-opacity:0.4343"/>
			<stop  offset="0.7824" style="stop-color:#18628A;stop-opacity:0.4218"/>
			<stop  offset="0.9005" style="stop-color:#224867;stop-opacity:0.4099"/>
			<stop  offset="1" style="stop-color:#2D2D43;stop-opacity:0.4"/>
		</linearGradient>
		
			<path fill-rule="evenodd" clip-rule="evenodd" fill="none" stroke="url(#SVGID_6_)" stroke-width="3.6238" stroke-miterlimit="10" d="
			M198.6,146.2c0,0-22.2-88.3-67.9-111.9"/>
	</g>
	<circle fill-rule="evenodd" clip-rule="evenodd" fill="#009DDA" cx="100.6" cy="127.5" r="1.7"/>
	<circle fill-rule="evenodd" clip-rule="evenodd" fill="#009DDA" cx="87.9" cy="226.3" r="1.7"/>
	<circle fill-rule="evenodd" clip-rule="evenodd" fill="#009DDA" cx="141.4" cy="112.1" r="1.7"/>
	<circle fill-rule="evenodd" clip-rule="evenodd" fill="#009DDA" cx="129.6" cy="34.2" r="1.7"/>
	<circle fill-rule="evenodd" clip-rule="evenodd" fill="#009DDA" cx="248.3" cy="48.7" r="1.7"/>
	<rect x="264" y="41.8" fill="none" width="133.8" height="16.2"/>
	<text transform="matrix(1 0 0 1 263.9996 52.4477)"><tspan x="0" y="0" fill="#009DDA" font-family="'Roboto-Regular'" font-size="14">Puerto Iguazú / </tspan><tspan x="100.6" y="0" fill="#009DDA" font-family="'Roboto-Bold'" font-size="14">50%</tspan></text>
	<rect x="42.5" y="27.1" fill="none" width="80.2" height="16.2"/>
	<text transform="matrix(1 0 0 1 51.3326 37.781)"><tspan x="0" y="0" fill="#009DDA" font-family="'Roboto-Regular'" font-size="14">Salta / </tspan><tspan x="45" y="0" fill="#009DDA" font-family="'Roboto-Bold'" font-size="14">50%</tspan></text>
	<rect x="0" y="125.1" fill="none" width="78.4" height="16.2"/>
	<text transform="matrix(1 0 0 1 6.9991 135.781)"><tspan x="0" y="0" fill="#009DDA" font-family="'Roboto-Regular'" font-size="14">Salta / </tspan><tspan x="45" y="0" fill="#009DDA" font-family="'Roboto-Bold'" font-size="14">50%</tspan></text>
	<rect x="65.6" y="92.4" fill="none" width="78.7" height="16.2"/>
	<text transform="matrix(1 0 0 1 72.9991 103.1144)"><tspan x="0" y="0" fill="#009DDA" font-family="'Roboto-Regular'" font-size="14">Salta / </tspan><tspan x="45" y="0" fill="#009DDA" font-family="'Roboto-Bold'" font-size="14">50%</tspan></text>
	<rect x="1.5" y="219.1" fill="none" width="76.9" height="16.2"/>
	<text transform="matrix(1 0 0 1 6.9991 229.7801)"><tspan x="0" y="0" fill="#009DDA" font-family="'Roboto-Regular'" font-size="14">Salta / </tspan><tspan x="45" y="0" fill="#009DDA" font-family="'Roboto-Bold'" font-size="14">50%</tspan></text>
	<polyline fill-rule="evenodd" clip-rule="evenodd" fill="none" stroke="#A6A7AA" stroke-miterlimit="10" points="199.9,150.3 
		199.9,159.8 222.4,159.8 	"/>
	<rect x="223" y="153.6" fill="none" width="86.1" height="13.5"/>
	<text transform="matrix(1 0 0 1 222.9625 164.2218)" fill="#FFFFFF" font-family="'Roboto-Regular'" font-size="14">Buenos Aires</text>
	<g>
		<path fill-rule="evenodd" clip-rule="evenodd" fill="#232332" d="M200.1,149.4c-2.5,0-4.6-2-4.6-4.6s2-4.6,4.6-4.6s4.6,2,4.6,4.6
			S202.6,149.4,200.1,149.4z"/>
		<path fill="#FFFFFF" d="M200.1,141.3c1.9,0,3.5,1.6,3.5,3.5c0,1.9-1.6,3.5-3.5,3.5c-1.9,0-3.5-1.6-3.5-3.5
			C196.5,142.9,198.1,141.3,200.1,141.3 M200.1,139.2c-3.1,0-5.6,2.5-5.6,5.6c0,3.1,2.5,5.6,5.6,5.6c3.1,0,5.6-2.5,5.6-5.6
			C205.7,141.7,203.2,139.2,200.1,139.2L200.1,139.2z"/>
	</g>
</g>
</svg>
