<?xml version="1.0" encoding="utf-8"?>
<!-- Generator: Adobe Illustrator 18.0.0, SVG Export Plug-In . SVG Version: 6.00 Build 0)  -->
<!DOCTYPE svg PUBLIC "-//W3C//DTD SVG 1.1//EN" "http://www.w3.org/Graphics/SVG/1.1/DTD/svg11.dtd">
<svg version="1.1" id="Layer_1" xmlns="http://www.w3.org/2000/svg" xmlns:xlink="http://www.w3.org/1999/xlink" x="0px" y="0px"
	 viewBox="0 0 503.4 465.8" enable-background="new 0 0 503.4 465.8" xml:space="preserve">
<g>
	<g>
		<defs>
			<rect id="SVGID_1_" x="0" y="0" width="409" height="465.8"/>
		</defs>
		<clipPath id="SVGID_2_">
			<use xlink:href="#SVGID_1_"  overflow="visible"/>
		</clipPath>
		<g clip-path="url(#SVGID_2_)">
			
				<polygon fill-rule="evenodd" clip-rule="evenodd" fill="#2D2D43" stroke="#A6A7AA" stroke-width="0.6461" stroke-miterlimit="10" points="
				288.7,279 288.5,276.9 286.9,279.2 285.9,282.1 286.1,285 285,286.2 285,288.9 285.5,290.6 285.4,295.6 283.6,296.6 283.4,300.1 
				284.8,300.7 286.3,302.2 286.6,303.3 287.7,303.6 289.4,304.3 291.3,304.5 291.7,305.9 293.4,306 294.7,307 297.2,307.2 
				300.7,307.2 304,306.7 304.1,305.3 305.7,305.4 306.7,304.2 307.2,303.2 307.5,301.3 307.4,299.6 306.5,298.6 306.7,297.1 
				308,296.7 308.4,294.3 307.2,293.4 305.5,291.7 304.1,290.1 302.4,289.8 301.7,288.4 300.6,287.5 300.7,286.5 297.6,286.2 
				296.8,284.9 295.7,284.8 295.7,284 293.7,284 293.7,282.8 292.4,282.5 292.1,280.7 290.9,280.2 290.9,279.1 			"/>
			
				<polygon fill-rule="evenodd" clip-rule="evenodd" fill="none" stroke="#A6A7AA" stroke-width="0.8905" stroke-miterlimit="10" points="
				261.9,231 261,232.7 261.9,236.6 264.5,239.1 267.5,241.1 269.7,243 270.5,244.7 272,245.5 275.5,245.1 277.6,246.9 278.6,248.6 
				281.1,248.4 283.4,249 285.2,250.5 284.8,253.2 282.5,257.7 281.3,259.6 280.7,262.2 285,262.2 287.1,263.9 288.3,265.6 
				289.4,262.7 291.4,262.3 294.3,262.7 295.6,260 298.3,259.1 298.3,255.4 299.1,252.3 298.9,250.3 297.9,249.4 298.5,248.6 
				299.7,248.6 300.3,246.9 300.1,244.3 299.3,243 294.3,243 294.1,240.9 292.7,240.3 292.9,238 294.1,235.6 292.9,234.5 
				291.4,234.5 290.6,233.1 283.4,233.1 281.5,231.8 283,230.4 283.2,226.5 282.3,225.8 281.9,221.9 280.7,221.1 281.1,220 279,220 
				278.4,218.6 277,217.8 276.8,216.5 270.1,216.9 269.9,217.8 266.4,217.6 265.8,219 264.3,219.4 263.7,220.9 263.7,222.9 
				262.3,223.2 262.1,226.1 262.9,227.9 262.7,229.8 			"/>
			
				<polygon fill-rule="evenodd" clip-rule="evenodd" fill="none" stroke="#A6A7AA" stroke-width="0.8905" stroke-miterlimit="10" points="
				236.4,237.2 240.1,237.8 240.1,236.4 244.3,231.6 246.3,232.5 246.5,234.1 250.1,233.9 250.3,236.2 252.5,236.4 252.8,232.7 
				261,232.7 262.7,229.8 262.9,227.9 262.1,226.1 262.3,223.2 263.7,222.9 263.7,220.9 264.3,219.4 265.8,219 266.4,217.6 
				269.9,217.8 270.1,216.9 276.8,216.5 277,217.8 278.4,218.6 279,220 281.1,220 280.3,218 281.9,217.8 281.9,214.9 283.2,214.1 
				283.2,211.1 282.1,210.5 282.1,207.2 279.7,206.2 278.6,204.7 278.8,201.2 273.7,200.6 270.8,201.2 269.7,199.4 270.1,196.5 
				268.3,195.6 268.9,193.6 270.3,190 268.3,188.6 268.3,186.1 262.1,185.9 260.4,183 256.5,182.4 255.2,180.5 250.9,179.9 
				246.1,176 245.9,170.4 244.3,169.6 244.1,165.4 239.5,165 239.3,166.9 234.4,169.6 232.1,170.2 231,172.1 229.4,172.1 
				227.5,170.6 225.2,171.2 226.1,174.1 229,177.8 230,180.9 229.6,185.3 228.4,185.9 228.1,188.2 229,190 228.8,192.5 227.3,193.2 
				227.5,198.9 229.6,200.2 229.8,202.7 228.1,204.5 226.1,204.9 225.9,208.5 228.1,209.5 229.4,212.2 229.6,214.5 230.8,216.9 
				232.7,217.6 232.3,222.1 231.2,223.2 231.2,226 232.9,226.7 235.2,227.9 234.4,231.2 235.6,232.9 			"/>
			
				<polygon fill-rule="evenodd" clip-rule="evenodd" fill="#2D2D43" stroke="#A6A7AA" stroke-width="0.6461" stroke-miterlimit="10" points="
				309,300.1 310.7,299.1 312.3,298.2 311.7,295.6 313,294.9 313.2,290.4 312.1,289.2 312.3,286.9 314,286.2 314.8,283.6 
				315.9,283.1 315.9,279 317.7,280.2 319.8,280.2 318.8,281.7 317.3,283.8 317.1,285.6 316.7,286.9 314.4,287.9 313.2,288.3 
				314.2,290.2 317.5,289.4 318.1,287.5 320.4,285.2 321.4,280.3 322.7,278.8 322.1,276.3 323.7,275.3 323.9,273.2 326.6,271.6 
				327.7,269.5 328.1,262 327.2,253.4 329.9,250.5 333.9,245.3 338,242.8 341.9,242 342.5,240.3 344.8,240.3 345,238.7 346.5,238.7 
				347.3,237.4 349.2,237.2 349.2,238.5 352.5,238.7 352.5,236.8 354.7,236.8 355.8,238.3 358.5,237 358.3,234.9 360.5,234.3 
				362.6,232.5 362.2,228.1 363.7,226.1 364.1,223.6 366.5,222.5 366.1,219.6 368,218.6 368.2,216.3 368,210.5 369.4,208.7 
				370.7,207.4 370.1,203.5 370.3,199.8 371.9,198.3 371.9,196.1 370.5,195.6 370.3,189.2 369.6,187.6 369.7,184.5 371.9,183.6 
				371.7,181.4 370.7,180.7 370.7,179.3 373.4,180.3 374.8,179.5 374.6,177.6 375.9,175.4 377.3,175.2 378.8,171.8 378.1,170.8 
				379.4,169 381.2,169.6 382.9,167.9 382.7,166.1 384.5,165.8 385.2,162.9 387.7,159.6 387.9,156.5 389.3,154.7 389.3,152 
				391,150.5 390.3,147.9 388.9,147.2 389.3,144.7 387.7,143.9 388.1,140 385.8,138.3 380.8,138.5 377.7,136.3 375.4,133.8 
				372.3,130.5 368.8,128.2 366.7,126.3 365.1,124.7 363.2,124.7 362.4,125.9 358.3,126.3 358.1,124.5 352.5,124.9 351.2,123.8 
				347.7,123.8 347.1,124.9 344.4,125.3 344.4,122 343,121.2 343,119.5 341.5,117.8 339.2,117.6 338,118.5 336.5,117.6 335.7,115.4 
				333.7,114.3 331.2,115 329.9,115.2 328.9,114.3 326.6,114.3 326.2,116.6 325.4,118.5 323.5,120.3 320.4,120.7 320.4,119.5 
				322.5,119.1 324.3,117 324.5,112.1 320.6,111.6 316.1,112.3 315.6,114.3 313,114.7 312.8,117.2 310.5,119.1 309.2,120.9 
				307.2,120.1 309.6,117.4 309.7,114.9 311.3,114.5 311.5,112.1 315.2,110.6 315.7,107.9 318.1,105.8 318.3,101.9 316.1,101.5 
				315,99 314.8,95.9 313.2,95.3 313.8,91.4 312.6,89.1 310.3,88.7 307.6,90.3 305.9,94.7 304.3,98.4 300.8,100.5 299.1,99 
				297.4,100.5 294.8,100.5 294.3,98.6 287.9,98 286.7,99.4 288.3,101.7 280.7,101.9 279.5,103.4 277.2,103.2 275.7,106.7 
				273.2,105.2 272,102.7 269.9,101.3 269.3,93 271,91.2 271.2,88.5 269.1,87 269.3,84.1 266.6,82.7 266,86.8 263.5,87.2 
				262.3,89.5 256.5,89.7 255.5,91.6 253,91.4 252.1,89.7 247.6,89.5 248.2,91.6 249.7,92.6 249.4,94.3 248,95.1 248.2,98.2 
				250.1,98.6 252.8,98 252.6,99.9 250.9,101.9 248.6,103.4 246.5,105.9 244.1,106.7 242.4,105.9 241,107.7 239.3,107.3 
				238.5,105.4 236.2,104.8 236,102.7 233.9,100.1 231,102.5 228.6,102.3 223.4,102.1 222.1,104.6 223,105.9 225.4,105.8 
				225.5,108.5 222.6,108.3 222.4,113.7 224,115.2 223.8,117.4 225.2,118.3 225.2,124.3 222.1,124.8 221.8,127.7 220.1,130.5 
				220.5,131.8 222.5,131.7 223.2,132.7 222.3,135.8 220.1,135.1 219.2,136.4 216.2,136.1 212.9,137 209.5,140.3 209.4,143.6 
				208.2,144.2 208.3,146.9 209.5,147.5 209.3,149.1 205.6,149 205.3,157.6 205.6,159 207.9,159 208.2,161.1 210.5,161.7 
				210.7,163.2 212.9,163.2 212.9,165.3 215.2,165.8 217,165.1 217.5,163.8 218.5,163.8 218.6,162.6 220.7,162.6 220.4,171.1 
				225.2,171.2 227.5,170.6 229.4,172.1 231,172.1 232.1,170.2 234.4,169.6 239.3,166.9 239.5,165 244.1,165.4 244.3,169.6 
				245.9,170.4 246.1,176 250.9,179.9 255.2,180.5 256.5,182.4 260.4,183 262.1,185.9 268.3,186.1 268.3,188.6 270.3,190 
				268.3,195.6 270.1,196.5 269.7,199.4 270.8,201.2 273.7,200.6 278.8,201.2 278.6,204.7 279.7,206.2 282.1,207.2 282.1,210.5 
				283.2,211.1 283.2,214.1 281.9,214.9 281.9,217.8 280.3,218 281.1,220 280.7,221.1 281.9,221.9 282.3,225.8 283.2,226.5 
				283,230.4 281.5,231.8 283.4,233.1 290.6,233.1 291.4,234.5 292.9,234.5 294.1,235.6 292.9,238 292.7,240.3 294.1,240.9 
				294.3,243 299.3,243 300.1,244.3 300.3,246.9 299.7,248.6 298.5,248.6 297.9,249.4 298.9,250.3 299.1,252.3 301.4,252.5 
				302.8,255 303.2,258.9 302.8,262 301,263.9 298.3,264.1 297.9,266.2 296,268.2 293.9,269.3 292.5,271.2 291,275.9 288.5,276.9 
				288.7,279 290.9,279.1 290.9,280.2 292.1,280.7 292.4,282.5 293.7,282.8 293.7,284 295.7,284 295.7,284.8 296.8,284.9 
				297.6,286.2 300.7,286.5 300.6,287.5 301.7,288.4 302.4,289.8 304.1,290.1 307.2,293.4 308.4,294.3 308,296.7 306.7,297.1 
				306.5,298.6 307.5,301.3 			"/>
			
				<polygon fill-rule="evenodd" clip-rule="evenodd" fill="none" stroke="#A6A7AA" stroke-width="0.8905" stroke-miterlimit="10" points="
				173.5,129.4 177.1,127.4 177.5,123.8 176.1,123.9 174.4,125.6 171.8,123.2 172.7,118.6 171.1,117.4 172.2,114.7 173.9,114.8 
				174.8,111.1 176.1,109.3 175.1,105.6 180.6,103.9 184,106.4 186.4,110 189.8,110.8 191.8,109.3 196.2,110.7 197.7,112.9 
				197.9,117.9 196.2,118.7 195.9,120.7 192.4,123.3 191.8,125.6 188.8,126.3 189.1,127.9 186.6,129.1 186.7,130.7 184,132.3 
				183.5,134.4 183.8,136.4 181.4,137.1 181.6,139.8 179.2,140 179.1,137.3 177.7,137 176.8,135 174.5,135.3 173.5,134.6 
				174.6,133.6 174.9,132 174.4,130.7 173.3,130.3 			"/>
			
				<polygon fill-rule="evenodd" clip-rule="evenodd" fill="none" stroke="#A6A7AA" stroke-width="0.8905" stroke-miterlimit="10" points="
				214.9,47.1 218.2,46.9 219.2,44.4 218.8,42.5 215.3,42.1 213,44.2 212.4,47.1 209.5,49.4 205.4,47.7 203.9,48.7 203.1,51.2 
				200.4,51.2 197.9,54.3 197.7,60.7 194.2,60.5 192.6,63.2 191.9,67.4 188.8,63.1 188.2,68.8 186.1,70.9 187,72.8 188.2,73.4 
				188.6,78.3 190.9,79.6 189.5,82.9 187.4,83.1 187.8,90.3 190.3,90.8 189.5,93.4 185.9,96.5 182,98.4 180.6,103.9 184,106.4 
				186.4,110 189.8,110.8 191.8,109.3 196.2,110.7 197.7,112.9 199.3,112.3 201.7,114.1 202.3,116.2 204.4,117.4 204.9,119 
				206.9,119.6 207.9,120.9 208.1,123.1 212.8,123.4 217.6,122.7 220.2,123.2 220.6,124.6 222.1,124.8 225.2,124.3 225.2,118.3 
				223.8,117.4 224,115.2 222.4,113.7 222.6,108.3 225.5,108.5 225.4,105.8 223,105.9 222.1,104.6 223.4,102.1 228.6,102.3 
				231,102.5 233.9,100.1 234.1,98 232.7,97 233.1,95.1 234.8,94.5 234.8,92 232.9,90.8 232.5,85 232.1,82.5 234.8,82.3 233.9,78.3 
				231.2,77.7 229.6,79.4 228.3,79.2 227.5,77.7 224.4,78.1 223.6,75.9 222.4,75.2 220.5,73.2 213.5,73.2 211.4,71.9 211.2,68.8 
				213.2,68 212.8,66.3 211.2,65.7 211.4,63.2 209.9,62 207.2,63.4 207,61.4 209.5,60.3 209.7,56.6 208.9,54.8 210.1,52.9 
				212.2,52.5 212.6,49.4 			"/>
			
				<polygon fill-rule="evenodd" clip-rule="evenodd" fill="none" stroke="#A6A7AA" stroke-width="0.8905" stroke-miterlimit="10" points="
				264.6,80.8 262.5,79.4 262.7,76.7 267.4,75 267.2,72.8 266,70.9 268.3,67.8 271,65.5 270.6,63.2 267.9,63.9 265.8,64.5 
				265.4,62.8 267.4,61 266.2,58.5 260.8,56.8 260.4,54.3 257.9,52.3 251.3,52.3 251.3,54.7 248,56.4 245.1,56.2 242.2,53.9 
				241.8,52.1 236.2,52.1 234.1,54.3 231.7,52.7 231.5,48.7 229.4,47.9 226.1,47.1 225.4,43.8 223.8,44.8 224,47.7 225.7,48.5 
				221.7,51.2 217.2,51.9 214.9,47.1 212.6,49.4 212.2,52.5 210.1,52.9 208.9,54.8 209.7,56.6 209.5,60.3 207,61.4 207.2,63.4 
				209.9,62 211.4,63.2 211.2,65.7 212.8,66.3 213.2,68 211.2,68.8 211.4,71.9 213.5,73.2 220.5,73.2 223.6,75.9 224.4,78.1 
				227.5,77.7 228.3,79.2 229.6,79.4 231.2,77.7 233.9,78.3 234.8,82.3 232.1,82.5 232.9,90.8 234.8,92 234.8,94.5 233.1,95.1 
				232.7,97 234.1,98 233.9,100.1 236,102.7 236.2,104.8 238.5,105.4 239.3,107.3 241,107.7 242.4,105.9 244.1,106.7 246.5,105.9 
				248.6,103.4 250.9,101.9 252.6,99.9 252.8,98 250.1,98.6 248.2,98.2 248,95.1 249.4,94.3 249.7,92.6 248.2,91.6 247.6,89.5 
				252.1,89.7 253,91.4 255.5,91.6 256.5,89.7 262.3,89.5 263.5,87.2 266,86.8 266.6,82.7 			"/>
			
				<polygon fill-rule="evenodd" clip-rule="evenodd" fill="none" stroke="#A6A7AA" stroke-width="0.8905" stroke-miterlimit="10" points="
				271,65.5 273.5,65.5 275.9,68.8 276.8,72.1 279,72.3 278.6,75 282.6,75 285,79 281.9,80 281.9,84.7 279.5,85.4 278.8,89.9 
				280.9,93.4 282.5,93.8 282.5,96.7 284.2,99 284.2,101.7 280.7,101.9 279.5,103.4 277.2,103.2 275.7,106.7 273.2,105.2 272,102.7 
				269.9,101.3 269.3,93 271,91.2 271.2,88.5 269.1,87 269.3,84.1 266.6,82.7 264.6,80.8 262.5,79.4 262.7,76.7 267.4,75 
				267.2,72.8 266,70.9 268.3,67.8 			"/>
			
				<polygon fill-rule="evenodd" clip-rule="evenodd" fill="none" stroke="#A6A7AA" stroke-width="0.8905" stroke-miterlimit="10" points="
				294.8,97.4 294.8,95.1 297,93.8 297.7,91.8 295.6,90.1 294.8,84.8 297.4,82.1 297,79 291.7,78.8 290.2,80.8 287.9,80.6 285,79 
				281.9,80 281.9,84.7 279.5,85.4 278.8,89.9 280.9,93.4 282.5,93.8 282.5,96.7 284.2,99 284.2,101.7 288.3,101.7 286.7,99.4 
				287.9,98 294.3,98.6 			"/>
			
				<polygon fill-rule="evenodd" clip-rule="evenodd" fill="none" stroke="#A6A7AA" stroke-width="0.8905" stroke-miterlimit="10" points="
				297,79 300.5,79.2 303,81.8 307.4,82.9 310.3,88.7 307.6,90.3 304.3,98.4 300.8,100.5 299.1,99 297.4,100.5 294.8,100.5 
				294.3,98.6 294.8,97.4 294.8,95.1 297,93.8 297.7,91.8 295.6,90.1 294.8,84.8 297.4,82.1 			"/>
			
				<polygon fill-rule="evenodd" clip-rule="evenodd" fill="none" stroke="#A6A7AA" stroke-width="0.8905" stroke-miterlimit="10" points="
				262.8,47.4 262.2,44.4 264.2,44.2 264.8,46 			"/>
			
				<polygon fill-rule="evenodd" clip-rule="evenodd" fill="none" stroke="#A6A7AA" stroke-width="0.8905" stroke-miterlimit="10" points="
				273.5,41.3 272.8,38.4 274.8,38.2 275.4,40 			"/>
			
				<polygon fill-rule="evenodd" clip-rule="evenodd" fill="none" stroke="#A6A7AA" stroke-width="0.8905" stroke-miterlimit="10" points="
				266.9,36.7 266.2,35.7 266.1,33.1 267,32.8 267,31.8 266,30.9 266.7,29.2 268.9,29.6 270.1,32.2 268.8,33.8 268.5,36.7 			"/>
			
				<polygon fill-rule="evenodd" clip-rule="evenodd" fill="none" stroke="#A6A7AA" stroke-width="0.8905" stroke-miterlimit="10" points="
				265.4,24.7 262.3,22.9 265.2,20.4 266.4,22.3 			"/>
			
				<polygon fill-rule="evenodd" clip-rule="evenodd" fill="none" stroke="#A6A7AA" stroke-width="0.8905" stroke-miterlimit="10" points="
				260.4,17.3 258.5,15.9 261.7,14.4 265.4,15.9 264.3,17.5 261.9,15.7 			"/>
			
				<polygon fill-rule="evenodd" clip-rule="evenodd" fill="none" stroke="#A6A7AA" stroke-width="0.8905" stroke-miterlimit="10" points="
				251.5,13.8 249.7,12.7 250.5,11.3 252.6,11.9 			"/>
			
				<polygon fill-rule="evenodd" clip-rule="evenodd" fill="none" stroke="#A6A7AA" stroke-width="0.8905" stroke-miterlimit="10" points="
				257.7,11.3 256.7,9 259.2,9.2 258.8,11.1 			"/>
			
				<polygon fill-rule="evenodd" clip-rule="evenodd" fill="none" stroke="#A6A7AA" stroke-width="0.8905" stroke-miterlimit="10" points="
				243.9,14 239.9,12.7 238.9,9.2 247.6,9 247.6,11.1 			"/>
			
				<polygon fill-rule="evenodd" clip-rule="evenodd" fill="none" stroke="#A6A7AA" stroke-width="0.8905" stroke-miterlimit="10" points="
				219.4,14.4 217,12.7 216.4,2.8 218.2,2.8 218.2,1.2 223.6,1.4 224,3 230.2,3.7 229.8,5.5 228.3,7.2 232.7,7.8 233.3,10.1 
				229,11.7 226.5,10.5 224.8,12.7 221.1,10.7 220.7,12.7 			"/>
			
				<polygon fill-rule="evenodd" clip-rule="evenodd" fill="none" stroke="#A6A7AA" stroke-width="0.8905" stroke-miterlimit="10" points="
				207.5,13 204.4,9.2 211.8,8.2 212.4,6.7 211.6,4.9 210.3,4.3 210.6,1.4 212.8,0.1 216.8,0.5 218.2,1.2 218.2,2.8 216.4,2.8 
				217,12.7 214.7,11.3 212.8,12.1 212.4,13.2 210.3,11.9 209.1,13.6 			"/>
			
				<polygon fill-rule="evenodd" clip-rule="evenodd" fill="none" stroke="#A6A7AA" stroke-width="0.8905" stroke-miterlimit="10" points="
				193.4,13 191.3,14.4 189,12.3 186.4,11.5 186.3,8.8 187.8,9.2 188.2,7.4 193.8,7.8 194.2,9.7 197.5,10.3 197.7,13.4 			"/>
			
				<polygon fill-rule="evenodd" clip-rule="evenodd" fill="none" stroke="#A6A7AA" stroke-width="0.8905" stroke-miterlimit="10" points="
				157.8,-9 160.1,-11.7 160.1,-13.7 165.9,-16.8 168.6,-16.4 169,-19.1 178.7,-17.5 182.2,-15.6 184.5,-11.7 188.4,-12.5 
				189.9,-9.4 193.4,-10.2 197.7,-5.5 200.8,-5.5 201.5,-3.2 204.6,-2.8 207.7,-0.1 203.9,1.8 190.7,2.2 191.9,-0.5 193.8,-1.7 
				192.3,-3.6 188.8,-2.8 186.8,-6.3 186.4,-9 180.3,-8.3 177.5,-11.4 171.7,-10.6 171.7,-13.3 169.4,-14.1 167.1,-11.7 162.8,-9.8 
							"/>
			
				<polygon fill-rule="evenodd" clip-rule="evenodd" fill="none" stroke="#A6A7AA" stroke-width="0.8905" stroke-miterlimit="10" points="
				133.2,32.8 133,30 134.8,29.2 134.4,28.2 137.6,26.3 137.4,24.7 140.1,23.9 142.1,23.8 144.5,23.6 144.8,25.2 150.2,25 
				150.3,22.8 158.7,22.8 158.9,25.1 160.7,24.6 161.7,26.7 164.2,26.7 164.2,28.1 160.1,28.9 158.2,32 153.2,31.8 150.3,36.1 
				146.6,36.1 142.5,40.1 140.4,39.4 141,37.8 140.2,35.9 137.7,36.3 136.9,34.3 134.9,34.6 134.6,33.1 			"/>
			
				<polygon fill-rule="evenodd" clip-rule="evenodd" fill="none" stroke="#A6A7AA" stroke-width="0.8905" stroke-miterlimit="10" points="
				129.3,36.3 134.4,37.8 137.3,39.6 140.4,39.4 141,37.8 140.2,35.9 137.7,36.3 136.9,34.3 134.9,34.6 134.6,33.1 133.2,32.8 
				131.3,34.6 129.6,34.8 			"/>
			
				<polygon fill-rule="evenodd" clip-rule="evenodd" fill="none" stroke="#A6A7AA" stroke-width="0.8905" stroke-miterlimit="10" points="
				125.6,35.1 122.9,34 122.6,31.9 120.2,31.8 119.6,29 121.6,26.8 121.8,24.6 123.3,23.4 129.2,23.6 129.2,21.8 127.7,21 
				127.4,19.3 125.6,18.7 124.6,17 126.4,15.7 126.4,14.1 132.1,13.7 135.4,14.6 135.4,18.1 133.6,20.1 133.7,24 136.1,24.4 
				137.4,24.7 137.6,26.3 134.4,28.2 134.8,29.2 133,30 133.2,32.8 131.3,34.6 129.6,34.8 129.3,36.3 127.3,36.2 			"/>
			
				<polygon fill-rule="evenodd" clip-rule="evenodd" fill="none" stroke="#A6A7AA" stroke-width="0.8905" stroke-miterlimit="10" points="
				138.9,21.9 140.6,21.8 140.5,20.2 141.8,19.8 142,13.1 143.2,11.4 144.5,11.3 144.1,9.4 142.1,7.7 140.9,8.9 140.5,10.7 
				136.9,12.7 135.4,14.6 135.4,18.1 133.6,20.1 133.7,24 137.4,24.7 140.1,23.9 138.8,23 			"/>
			
				<polygon fill-rule="evenodd" clip-rule="evenodd" fill="none" stroke="#A6A7AA" stroke-width="0.8905" stroke-miterlimit="10" points="
				119.7,8.3 121.7,7 124.4,7 124.4,9.1 126.5,10.1 126.4,6.9 128.6,5.5 129.3,3.1 131,2.1 131,-3.5 133.2,-6.2 137.4,-6.6 
				138.2,-7.9 142.6,-7.9 144,-9 147.5,-8.2 148.9,-6.6 150.3,-6.2 150.1,-3 146.9,-0.2 146.8,6.9 144.6,7.5 144.1,9.4 142.1,7.7 
				140.9,8.9 140.5,10.7 136.9,12.7 135.4,14.6 132.1,13.7 126.4,14.1 126.4,15.7 124.6,17 125.6,18.7 127.4,19.3 127.7,21 
				129.2,21.8 129.2,23.6 123.3,23.4 121.8,24.6 121.6,26.8 119.6,29 117.8,28 117.2,26.8 115.6,24.4 111.4,23.4 109.7,21.9 
				107.7,21.9 106.4,24 103.3,26.3 99.5,25.4 96.4,23.2 92.8,22.4 91.5,19.9 87.1,19.5 82.8,16.6 79.1,14.1 76.7,12.2 73.1,11.8 
				70.6,9.3 69.4,7.4 66.2,6.2 64.7,3.9 60.4,1 60,-2.1 62.7,-4.6 62.3,-9 61,-11.7 60.3,-14.3 58.2,-17.8 55.2,-21.4 52,-24.7 
				51.8,-28.3 49,-29.1 48.3,-30.4 45.9,-31.1 45.7,-34 47.8,-35.2 47.1,-37 44.9,-38.6 42.2,-39.5 39.9,-43.8 36.4,-46.4 
				35.9,-48.7 34.3,-50.2 33.9,-54.5 32.3,-55.9 32.1,-58.3 31.1,-58.5 30.7,-62.8 29.3,-64.4 26.1,-64.9 24.2,-64 24.5,-60.1 
				25,-54.9 29.1,-51.6 32.2,-46 31.8,-43.4 34.6,-41.8 35,-38.3 35.9,-36.3 37.9,-36.2 38.2,-30.6 39.5,-30.3 39.9,-27.4 41,-25.8 
				41,-23.2 43.3,-23.1 43.8,-20 46.1,-18.4 44.9,-16.2 40.7,-15.7 41.1,-18.6 38.7,-21.2 35.9,-23.2 33,-26 32.9,-29.5 32.7,-33.9 
				29.4,-37.1 26.1,-37.2 23.8,-40.4 22.2,-40.3 21.8,-42.4 20.1,-42.4 20.1,-44.7 23.8,-45.2 23.4,-46.3 25.4,-47.8 23.5,-50 
				21.4,-51.9 20.6,-54.4 18.3,-54.8 17.9,-60.7 15.7,-64.7 15.4,-69.2 14.6,-70.9 24.5,-71.1 38.3,-62.9 52.8,-62.7 53.1,-66.4 
				62.6,-66.7 62.8,-62.5 68.6,-58.8 68.7,-52.4 75.9,-49 78.4,-53.4 78.3,-55.5 84.5,-55.7 84.5,-53.2 87.3,-50.8 87.3,-45.4 
				91.6,-40.3 90.9,-35.9 98,-32.2 98.8,-27.9 99.3,-22.7 97.5,-20.8 99.5,-18.8 99.2,-17 98.1,-15.4 97.7,-11.3 99.3,-11 100,-8.6 
				101.2,-7.8 100.9,-5.8 99.6,-5.4 99.6,-2.9 102.3,-0.7 102.5,2.6 105.3,5.3 105.5,7.7 109.6,7.4 111.3,10.7 113.8,10.2 
				113.7,8.5 			"/>
			<g>
				
					<polygon fill-rule="evenodd" clip-rule="evenodd" fill="none" stroke="#A6A7AA" stroke-width="0.8905" stroke-miterlimit="10" points="
					257.9,439 257.9,436.2 255.1,435.3 252.6,435 252.6,432.3 252.6,415.6 249.4,416.2 247.7,418.2 245,419.8 243.3,420.4 
					243.3,422.5 245.1,422.6 245.8,421.7 249,421.7 248.8,423.9 247.4,425.4 248.4,427 249.7,427.5 250.1,428.9 251,429.9 
					251.1,431.4 250.9,433 247.4,433.2 247.3,435.6 250.7,436.1 250.7,437.7 254.5,436.9 256,437.6 256.1,439 				"/>
				
					<polygon fill-rule="evenodd" clip-rule="evenodd" fill="none" stroke="#A6A7AA" stroke-width="0.8905" stroke-miterlimit="10" points="
					243.1,424.2 243.3,422.5 243.3,420.4 243.2,418.4 245.5,417.8 245.9,416.6 247.7,415.7 250.1,415.1 252.7,414 235.4,413.9 
					235.3,415.4 236.5,416.6 237.1,417.5 239.6,417.5 240.3,419 239.9,420.1 238.2,420.9 237.1,421.9 237.6,423.7 240.3,423.5 
					241.3,424.6 				"/>
				
					<polygon fill-rule="evenodd" clip-rule="evenodd" fill="none" stroke="#A6A7AA" stroke-width="0.8905" stroke-miterlimit="10" points="
					244.4,425.7 244.8,424.2 246.3,424.3 246.4,426.9 248.4,427 249.7,427.5 250.1,428.9 251,429.9 251.1,431.4 244.4,431.5 
					243.9,428.8 245.7,428.2 244.9,426.9 				"/>
				
					<polygon fill-rule="evenodd" clip-rule="evenodd" fill="none" stroke="#A6A7AA" stroke-width="0.8905" stroke-miterlimit="10" points="
					242.6,430.7 242.3,428.5 240.7,427.8 240.8,426.1 238.2,425.2 236.7,424.2 235.9,425.9 238.5,427.8 238.4,430.3 240.4,431.5 
									"/>
				
					<polygon fill-rule="evenodd" clip-rule="evenodd" fill="none" stroke="#A6A7AA" stroke-width="0.8905" stroke-miterlimit="10" points="
					235.9,418.2 237.7,418.9 236.7,420.7 235.3,422.6 230.7,422.2 230.9,420 234,419.4 				"/>
				
					<polygon fill-rule="evenodd" clip-rule="evenodd" fill="none" stroke="#A6A7AA" stroke-width="0.8905" stroke-miterlimit="10" points="
					231.1,423.5 234.4,423.9 234.1,426 233.4,427.1 231.9,425.5 				"/>
				
					<polygon fill-rule="evenodd" clip-rule="evenodd" fill="none" stroke="#A6A7AA" stroke-width="0.8905" stroke-miterlimit="10" points="
					225.1,417.2 229,420 230.6,418.9 233.6,418.2 236.5,416.6 235.3,415.4 235.4,413.9 235.4,410.2 233.1,410.2 232.7,412.5 
					230.5,413.1 229.7,414.5 229.8,417.2 227.9,417.4 225.8,416.3 				"/>
				
					<polygon fill-rule="evenodd" clip-rule="evenodd" fill="none" stroke="#A6A7AA" stroke-width="0.8905" stroke-miterlimit="10" points="
					229.4,411.8 231.5,411.5 233.1,410.2 232.7,405.2 228.4,404.8 228.1,406.9 228.2,408.6 225.5,409 225.4,410.8 227.6,410.7 
					227.6,411.9 				"/>
				
					<polygon fill-rule="evenodd" clip-rule="evenodd" fill="#2D2D43" stroke="#A6A7AA" stroke-width="0.6461" stroke-miterlimit="10" points="
					226,208.5 226.1,204.9 228.1,204.5 229.8,202.7 229.6,200.2 227.5,198.9 227.3,193.2 228.8,192.5 229,190 228.1,188.2 
					228.4,185.9 229.6,185.3 230,180.9 229,177.8 226.1,174.1 225.2,171.2 220.4,171.1 220.7,162.6 218.6,162.6 218.5,163.8 
					217.5,163.8 217,165.1 215.2,165.8 212.9,165.3 212.9,163.2 210.7,163.2 210.5,161.7 208.2,161.1 207.9,159 205.6,159 
					205.3,157.6 205.6,149 209.3,149.1 209.5,147.5 208.3,146.9 208.2,144.2 209.4,143.6 209.5,140.3 211.5,138.2 212.9,137 
					216.2,136.1 219.2,136.4 220.1,135.1 222.3,135.8 223.2,132.7 222.5,131.7 220.5,131.8 220.1,130.5 221,129.3 221.8,127.7 
					222.1,125.9 222.1,124.8 220.6,124.6 220.2,123.2 217.6,122.7 212.8,123.4 208.1,123.1 207.9,120.9 206.9,119.6 204.9,119 
					204.4,117.4 202.3,116.2 201.7,114.1 199.3,112.3 197.7,112.9 198,115.1 197.9,117.9 196.2,118.7 195.9,120.7 193.9,122.2 
					192.4,123.3 191.8,125.6 188.8,126.3 189.1,127.9 186.6,129.1 186.7,130.7 184,132.3 183.5,134.4 183.8,136.4 181.4,137.1 
					181.6,139.8 179.2,140 179.1,137.3 177.7,137 176.8,135 174.5,135.3 173.5,134.6 174.6,133.6 174.9,132 174.4,130.7 
					173.3,130.3 172.2,130.6 172,132.2 170.5,133.5 170.5,138.9 171.5,139.5 171.5,144.8 174.1,144.8 174.3,146.3 176.4,146.6 
					177.2,148 178.9,148.2 180.2,149.8 180.7,153.7 182,154.4 183.2,156 183.3,162.5 184.2,162.8 184.7,163.8 187,166.6 
					187.7,170.3 190.1,172.8 190.9,177.8 192.7,178.4 193,180.5 194.7,181.7 194.8,183.4 196.6,183.6 196.5,185.5 194.8,185.6 
					195,188.9 197.2,189 197.4,190.9 202,195.7 204.3,196.4 209.7,200.9 215.1,202.4 221.2,209.9 223.6,209.4 				"/>
				
					<polygon fill-rule="evenodd" clip-rule="evenodd" fill="#2D2D43" stroke="#A6A7AA" stroke-width="0.6461" stroke-miterlimit="10" points="
					223.6,209.4 224.8,210.5 223.7,212.2 223.7,217.9 224.9,218.5 225,224.9 226.5,225.6 226.2,229.6 225.3,230.2 225.6,238.1 
					223.9,238.5 223.8,246.2 225.5,246.7 225.5,249.3 224.7,250 224.4,251.4 225.5,252.8 225.6,259.1 224.3,259.3 224.5,264.4 
					223.3,265.1 223.4,268.6 222,269.3 221.8,272.9 223.3,274.1 223.3,278.6 221.9,279.4 222.1,283.8 223,285 222.8,290.5 
					224.4,290.9 224.5,293.5 223.1,294 223.4,302.2 222.2,302.5 222.1,307.6 220.6,308.1 221.2,315.7 218.8,316 219,319.7 
					217.5,319.8 217.3,323.7 218.7,324.4 218.4,330.2 220.1,330.4 220.4,335.4 219.8,336.4 217.7,337.6 218,343.7 219.1,345.5 
					220.1,345.6 221.1,346.3 223.9,346.3 224,348.5 224.8,349.1 224.7,350.6 224,350.9 224,352.8 224.8,353.3 224.7,355.8 
					223.9,357.5 224.1,362.8 225.7,364.3 225.8,366.7 224.1,368.9 224.4,374.8 221.8,372.8 221.9,368.6 219.1,368.5 219.5,372.2 
					217,372.4 216.9,375.2 215.4,375.6 215.6,380.5 217.7,380.8 217.9,379.1 219.4,379.1 221.8,379.3 222.6,380.8 220.8,381.9 
					220,384.4 221.4,386 221.5,388.6 219.7,389 219,386.2 216.6,386.5 217.6,391.1 219.8,391.7 220,393.5 218,394.1 218.1,396.6 
					219.6,397.6 219.5,398.8 221.6,399.7 223.1,401.4 223.3,403.1 221.4,403.4 221.2,404.9 222.3,405.6 222.2,407.3 220.6,408.3 
					220.9,409.9 222.2,410.6 222.8,414 224.3,414 224.4,409.7 223.1,409.3 223.5,408.2 224.7,407.9 224.7,406.2 226.9,406.3 
					227,405.1 228.4,404.8 227.9,395.1 231,392.8 231.7,390.1 229.2,388.2 228.6,385.6 231.4,382.9 231.5,378.9 233.7,377.5 
					230.8,376 230.6,372.7 232.7,371.3 231.9,368.6 229.6,367.8 229.6,365.3 230.8,362.8 228.8,358 227.1,357.2 227.1,354.1 
					227.5,352 228.2,350 228.3,346 227.1,344.2 226.1,340 226.1,335.9 228.1,336.1 227.3,331.3 230.8,331.1 230,328.3 228.3,328 
					228.6,325.1 227.1,323.5 227.3,317.9 229.2,316.9 229.8,313.6 228.1,310 229.4,308 229.8,305.3 231.9,304.2 231.9,298.9 
					230.8,297.2 230.2,294.9 228.4,293.9 228.1,290.6 226.5,288.1 227.1,285.4 229,284.8 229.2,281.5 229.2,277.1 229.6,273.6 
					231.4,272.6 231.2,268.9 233.1,266.2 233.1,263.5 235.8,262.7 235.6,260.4 233.9,258.9 233.9,255.8 234.6,254.2 233.3,251.7 
					235.2,250.9 235.2,248.2 233.9,248 233.9,246.3 236.2,246.1 237.9,244.5 238.7,242.2 240.6,241.4 240.1,237.8 236.4,237.2 
					235.6,232.9 234.4,231.2 235.2,227.9 231.2,226 231.2,223.2 232.3,222.1 232.7,217.6 230.8,216.9 229.6,214.5 229.4,212.2 
					228.1,209.5 225.9,208.5 				"/>
				
					<polygon fill-rule="evenodd" clip-rule="evenodd" fill="none" stroke="#A6A7AA" stroke-width="0.8905" stroke-miterlimit="10" points="
					218.4,353 217.4,351.5 217.6,349.7 219.3,349 219.1,347.4 221.2,347.4 222.1,348.9 223.1,349.7 222.8,352.2 220.7,352.4 
					220.9,353.5 223,353.5 222.6,357.2 221.3,357.4 221.2,359.4 218.1,359.2 218.1,357.7 216.7,357.7 216.6,355.8 218.1,355.5 				
					"/>
				
					<polygon fill-rule="evenodd" clip-rule="evenodd" fill="none" stroke="#A6A7AA" stroke-width="0.8905" stroke-miterlimit="10" points="
					218.6,364 218.8,366.7 222.1,366.6 222.1,363 220.1,362.7 				"/>
			</g>
			<g>
				
					<polygon fill-rule="evenodd" clip-rule="evenodd" fill="#2D2D43" stroke="#A6A7AA" stroke-width="0.6461" stroke-miterlimit="10" points="
					251.7,413.9 235.4,413.9 235.4,410.2 233.1,410.2 232.7,405.2 228.4,404.8 227.9,395.1 231,392.8 231.7,390.1 229.2,388.2 
					228.6,385.6 231.4,382.9 231.5,378.9 233.7,377.5 230.8,376 230.6,372.7 232.7,371.3 231.9,368.6 229.6,367.8 229.6,365.3 
					230.8,362.8 229.8,360.1 228.8,358 227.1,357.2 227.1,354.1 227.5,352 228.3,350.2 228.3,346 227.1,344.2 226.1,340 
					226.1,335.9 228.1,336.1 227.3,331.3 230.8,331.1 230,328.3 228.3,328 228.6,325.1 227.1,323.5 227.3,317.9 229.2,316.9 
					229.8,313.6 228.1,310 229.4,308 229.8,305.3 231.9,304.2 231.9,298.9 230.8,297.2 230.2,294.9 228.4,293.9 228.1,290.6 
					226.5,288.1 227.1,285.4 229,284.8 229.2,281.5 229.2,277.1 229.6,273.6 231.4,272.6 231.2,268.9 233.1,266.2 233.1,263.5 
					235.8,262.7 235.6,260.4 233.9,258.9 233.9,255.8 234.6,254.2 233.3,251.7 235.2,250.9 235.2,248.2 233.9,248 233.9,246.3 
					236.2,246.1 237.9,244.5 238.7,242.2 240.6,241.4 240.1,236.4 244.3,231.6 246.3,232.5 246.5,234.1 250.1,233.9 250.3,236.2 
					252.5,236.4 252.8,232.7 261,232.7 261.9,236.6 264.5,239.1 267.5,241.1 269.7,243 270.5,244.7 272,245.5 275.5,245.1 
					277.6,246.9 278.6,248.6 281.1,248.4 283.4,249 285.2,250.5 284.8,253.2 283.6,255.8 282.5,257.7 281.3,259.6 280.7,262.2 
					285,262.2 287.1,263.9 288.3,265.6 289.4,262.7 291.4,262.3 294.3,262.7 295.6,260 298.3,259.1 298.3,255.4 299.1,252.3 
					301.4,252.5 302.8,255 303.2,258.9 302.8,262 301,263.9 298.3,264.1 297.9,266.2 296,268.2 293.9,269.3 292.5,271.2 
					291.6,274.2 291,275.9 288.5,276.9 286.9,279.2 285.9,282.1 286.1,285 285,286.2 285,288.9 285.5,290.6 285.4,295.6 
					283.6,296.6 283.4,300.1 284.8,300.7 285.4,304 285,305.3 286.9,304.9 289.4,306.7 292.3,309.6 291.2,311.5 291.2,313.6 
					292.5,315 294.1,315.4 294.5,317.7 294.1,320.4 292.9,321.8 291.9,324.1 290.4,326.6 287.5,328.5 285.2,329.5 283.4,330.3 
					282.1,331.1 278,330.9 276.8,332.2 274.1,332 272.6,330.5 270.8,330.3 269.7,331.3 270.1,332.6 271.2,333.6 272.6,334.5 
					271.4,335.9 270.6,336.9 271.2,339 271.2,341.5 270.6,342.9 269.5,343.8 267.9,344.2 266.2,343.4 263.5,344 263.1,342.7 
					260.4,342.7 260,341.1 258.8,341.3 258.5,342.5 257.7,342.9 257.7,344.2 259.4,344.4 259.2,346.9 259.2,348.9 260.8,349.3 
					260.8,350.2 261.7,351.2 262.9,351.2 263.9,350 265.7,350.1 266.4,352.4 265.9,354.4 264,354.5 262.5,353.7 261.5,354.5 
					262.8,356.6 261.8,357.7 259.7,357.8 259.7,359.8 259,361.5 260.5,362 260.5,365.3 259,366.7 259,368.3 256.6,368.5 
					255.4,368.3 255.2,369.7 253.4,370.9 252.3,371.9 252.1,373.2 251,374.1 251,376.3 252.3,377.2 253,378.5 253.6,380 
					255.3,380.2 255.3,381.2 257.4,380.7 258.8,380.8 259,381.6 260.1,381.6 259.9,384.7 260.3,387.8 258.9,387.9 257.8,389.5 
					256.6,390.5 255.7,391.8 255.1,392.6 254.2,392.6 253.6,394.5 253.4,399 252.4,399.5 252.3,400.8 250.1,400.8 250.1,402.4 
					248.9,402.5 248.9,405.2 248.9,407.5 250.6,407.8 250.5,409.7 250.8,411.5 252.4,412 252.7,414 				"/>
				
					<polygon fill-rule="evenodd" clip-rule="evenodd" fill="none" stroke="#A6A7AA" stroke-width="0.8905" stroke-miterlimit="10" points="
					271,432.3 271.1,430.8 272.4,429.9 274.5,430 275.2,431.2 274.7,432.2 273,432 272,432.4 				"/>
				<path fill-rule="evenodd" clip-rule="evenodd" fill="none" stroke="#A6A7AA" stroke-width="0.8905" stroke-miterlimit="10" d="
					M253.3,415.8l0.3,0.9l0.5,0.7l0.3,3.4l1.6,0.9l1,1.9l2.2,1.8l1.8,1.2l1.8,2.1l1.7,0.5l1.6,0.1h1.9l0.9,1.1l-0.6,1l-2.3,2.3
					l-5.6-1.2l-1,1.9l-4.6-0.6l-0.6-1.9l-1.4,0.4v-14.9c0,0-0.1-1.8,0-1.8L253.3,415.8z"/>
			</g>
			
				<polygon fill-rule="evenodd" clip-rule="evenodd" fill="none" stroke="#A6A7AA" stroke-width="0.8905" stroke-miterlimit="10" points="
				287,411.4 287,410.1 285.7,409.8 285.7,408.1 287,407.9 287.2,408.9 290.1,408.6 291.5,409.6 291.3,411.3 290,412.2 289.1,413.3 
				286.9,413.6 287,415.2 285.7,415.3 284.8,414.2 283.6,413.8 283.4,413.1 285.5,413.2 			"/>
			
				<polygon fill-rule="evenodd" clip-rule="evenodd" fill="none" stroke="#A6A7AA" stroke-width="0.8905" stroke-miterlimit="10" points="
				292.5,411.4 292.6,409.5 293.4,408.1 295,409.6 296.9,409.7 297,411.6 295.4,412.9 294.2,412.6 293.4,414.5 291.7,414.5 
				291.3,415.6 289.3,414.9 289.4,414.3 290.9,413.7 			"/>
			
				<polygon fill-rule="evenodd" clip-rule="evenodd" fill="none" stroke="#A6A7AA" stroke-width="0.8905" stroke-miterlimit="10" points="
				161.5,67.9 168.2,67.7 170,69.6 172.5,70 173.6,72.1 176.5,70.4 176.2,67.9 174.4,66.1 177.1,64.4 178.9,65.4 179.8,61.7 
				182.5,62.1 184.3,63.8 186.4,65.4 184.1,66.7 184.3,68.5 186.1,71 188.2,68.8 188.7,63 184.9,59.8 179.1,58.4 173.6,62.1 
				167.4,61.5 165,58.4 162.9,60.5 162.6,64.2 			"/>
			
				<polygon fill-rule="evenodd" clip-rule="evenodd" fill="none" stroke="#A6A7AA" stroke-width="0.8905" stroke-miterlimit="10" points="
				160.7,49.1 160.7,42.7 162,41.2 161.3,35 164.3,31.7 164.2,28.2 160.1,29 158.2,32.1 153.1,31.9 150.2,36.1 146.5,36.1 
				142.5,40.2 145,44.8 150,49.9 152.2,50.3 155.4,51.2 157.4,54 159.5,53.8 159.8,52.4 161.4,52.1 			"/>
			
				<polygon fill-rule="evenodd" clip-rule="evenodd" fill="none" stroke="#A6A7AA" stroke-width="0.8905" stroke-miterlimit="10" points="
				165,58.4 162,54.7 161.4,52.1 159.8,52.4 159.5,53.8 157.4,54 155.4,51.2 152.2,50.3 150.1,49.9 150.6,53.6 149.6,56.1 
				152.5,59.6 154.7,57.6 157.2,60.9 160.3,61.7 160.5,65.4 161.4,67.9 162.6,64.2 162.9,60.5 			"/>
			
				<polygon fill-rule="evenodd" clip-rule="evenodd" fill="none" stroke="#A6A7AA" stroke-width="0.8905" stroke-miterlimit="10" points="
				122.9,114.5 121.3,114.3 121,112.4 122.6,112.1 122.2,109.7 124,109.7 124.5,111.5 125.8,111.8 125.5,113.8 126.8,114.2 
				126.5,116.7 123.6,117.4 122.2,115.7 			"/>
			
				<polygon fill-rule="evenodd" clip-rule="evenodd" fill="none" stroke="#A6A7AA" stroke-width="0.8905" stroke-miterlimit="10" points="
				127.7,113.1 128,115.4 129.8,114.2 			"/>
			
				<polygon fill-rule="evenodd" clip-rule="evenodd" fill="none" stroke="#A6A7AA" stroke-width="0.8905" stroke-miterlimit="10" points="
				131.7,114.3 131.9,115.9 133.5,116.1 134.9,115.4 134.6,113.2 133.1,113.1 133.1,114.3 			"/>
		</g>
		<g clip-path="url(#SVGID_2_)">
			
				<path fill-rule="evenodd" clip-rule="evenodd" fill="none" stroke="#808184" stroke-width="2" stroke-linecap="round" stroke-linejoin="round" stroke-miterlimit="10" d="
				M390.3,147.9l-1.4-0.8l0.4-2.5l-1.5-0.8l0.4-3.9l-2.3-1.7l-5,0.2l-3.1-2.1l-2.3-2.5l-3.1-3.3l-3.5-2.3l-2.1-1.6l-1.5-1.2h-1.9
				l-0.8,0.8l-4.1,0.2l-0.2-1.8l-5.6,0.2l-1.4-1.4h-3.5l-0.6,1.4l-2.7,0.6V122l-2-0.8v-1.7l-1.2-1.7l-2.2-0.2l-1.1,1l-1.5-1
				l-0.8-2.1l-1.9-1.2l-2.5,0.8l-1.4,0.7l-1-0.4h-2.3l-0.4,1.8l-0.8,1.7l-2.4,1.6l-3.6,0.2v-1.2l2.6-0.4l2-2.1l0.3-4.8l-3.8-0.6
				l-4.4,0.8l-0.6,1.9l-2.5,0.4l-0.2,2.5l-2.3,1.9l-1.4,1.7l-1.9-0.8l2.3-2.7l0.2-2.5l1.5-0.4l0.2-2.3l3.7-1.5l0.6-2.7l2.3-2.1
				l0.2-3.9l-2.1-0.4L315,99l-0.2-3.1l-1.5-0.6l0.6-3.9l-1.2-2.3l-2.3-0.4l-2.9-5.8l-4.5-1.2l-2.5-2.5L297,79l-5.2-0.2l-1.5,1.9
				l-2.3-0.2l-2.9-1.4l-2.3-3.9h-4.1l0.4-2.9l-2.1-0.3l-1-2.9l-2.3-2.9H271l-0.4-2.8l-2.7,0.6l-2.1,0.5l-0.4-1.8l1.9-1.8l-1.2-2.5
				l-5.4-1.7l-0.4-2l-2.5-1.4h-6.4v1.3l-3.4,1.7l-2.9-0.2l-2.9-1.7l-0.4-1.1h-5.6l-2.1,1.5l-2.3-1.9l-0.2-4.2l-2.1-0.9l-3.3-0.8
				l-0.8-3.3l-1.5,1l0.2,2.9l1.7,0.8l-4.1,2.7l-4.5,0.8l-2.3-4.8l3.3-0.2l1-2.5l-0.4-1.9l-3.5-0.4l-2.3,2.1l-0.6,2.9l-2.9,2.3
				l-4.1-1.7l-1.5,1.6l-0.8,3.1h-2.7l-2.5,2.5l-0.2,6.1l-3.5-0.3l-1.5,2.6l-0.8,4.2l-3.1-4.3l-0.6,5.7l0,0l0.6-5.8l-3.9-3.3
				l-5.8-1.4l-5.4,3.7l-6.2-0.6l-2.4-3.1l-3-3.6l-0.6-2.6l-0.7-3l0-6.4l1.4-1.5l-0.8-6.2l3.1-3.3l-0.2-3.5l-4.1,0.8l-1.9,3.1l-5-0.4
				l0,0l5,0.3l1.9-3l4.1-0.4l0-1.1h-2.5l-0.9-2.5l-1.9,1.1l-0.1-1.7h-8.4l-0.1,1.4l-5.5-0.1l-0.3-1.8l-2.4,0l-2,0.1l-1.3-1l0.1-1.1
				l1.7-0.1l-0.1-1.6l1.3-0.4l0.1-6.7l1.2-1.7l1.3-0.1l-0.4-1.9l0.5-1.9l2.1-0.7l0.1-7.1l3.2-2.8l0.3-3.2l-1.5-0.4l-1.3-1.6L144-8.3
				l-1.3,1.7h-4.4l-0.8,0.7l-4.6,0.1l-2.4,2.3v5.6L129,3.1l-0.5,2.4l-2.2,1.3l-0.3,3.2l-2.6-0.9V8.4h-1.7l-2,0.6l-6-0.2l0.1,1.6
				l-2.5,0.4l-1.7-3.4l-4.1,0.2l-0.1-2.4l-2.8-2.7l-0.8-3.3l-3.2-2.1v-2.5l1.9-0.4l0.6-2l-1.1-0.8L99.2-11l-1.5-0.3l0.4-4.1l1.1-1.6
				l0.3-1.9l-2-2l1.9-1.9l-0.7-5.2l1.8-0.1v-1.3l1.1-0.9l0.9-1.1v-3l-1-0.6l-0.4-5.3l1.8-0.5l-0.3-2.3l1.9-0.1l0.2-1.7l2.6,0.1
				l-0.2-1.3l2.9-0.1l2.1-2l1.6-1.8l1-2.1l2.4-0.1l0.5-1.8l1.9,0.2l0.7-1.1l3.9-0.3l1.2,2.4l2.2,0.4l0.9-1.9l3.5,1.5l-0.1,1.8
				l2.2,1.6l3.3-0.8l1.3-2.6l1,1l0.2,2.5l2.8,0.1l0.1-2.9l-2.4-0.7l0.3-1.9L139-56l-2.1-0.7l0.3-1.8l1.8,0.8l2.4,0.9l3.4-0.6
				l2.3-1.6l1.7,0.5l0.2,1.1l6.9,0.3l0.5,1.4l2,0.5l-0.3,1.7l5.3,0.2l0.1-2l1.1-1.4l0.8,1.9v2.4l2.7,1.4l2.2,0.4l0.6,3.7l-1.5,1v3.9
				l1.1,1.8l0.1,2.2l1.4,1.4l-0.1,2l1.6,1.8l0.1,2.3l2,0.2l0.2,3l4.2-0.1l0.5-3.2l1.3-0.9l0.5-2.5v-5.4l-1-1.6V-43l-1.1-1.4
				l-0.3-5.1l-2.6-1.2v-2.2l-0.6-0.8l0.5-6.4l2-1.1l0.9-3.6l-0.1-2.1l1.9-1.1l0.3-0.5h3.6l3.2-4.1l0.7-2.8l2.6-2.2h3.7l4.1-4.8
				l3.2-0.5l0.8-2.3l-204.1-1l1.4,1.2l-0.2,2.9l3.7,0.4l1.4,1.9l3.7-0.2l1.2,2.3l1.7,0.2l2.7,2.7l-1.1,3.9l0.8,1.7l0.3,4.5l2.3,4
				l0.4,5.9l2.3,0.4l0.8,2.5l2.1,1.9l1.9,2.3l-2,1.5l0.6,1.1l-3.5,0.5v3.1h1.4l0.4,1.7l1.6-0.3l2.3,3.1l3.3,0.1l3.3,3.2l0.1,4.4
				L33-26l2.9,2.8l2.8,2l2.4,2.7l-0.4,2.9l4.1-0.5l1.2-2.3L43.8-20L43-23.1l-2.5-0.1v-2.5l-0.8-1.6l-0.3-2.9l-1.3-0.3l-0.2-5.6
				l-2-0.1l-0.9-2l-0.4-3.5l-2.8-1.6l0.4-2.7l-3.1-5.6L25-54.9l-0.5-5.2L24.2-64l1.9-0.9l3.2,0.5l1.5,1.6l0.4,4.3l0.9,0.3l0.3,2.4
				l1.6,1.3l0.4,4.4l1.6,1.5l0.5,2.3l3.5,2.7l2.3,4.3l2.7,0.9l2.3,1.6l0.7,1.7L45.7-34l0.3,2.9l2.4,0.7l0.7,1.3l2.8,0.8l0.3,3.6
				l3.2,3.3l2.9,3.6l2.1,3.5l0.7,2.7L62.3-9l0.4,4.4L60-2.1L60.4,1l4.3,2.9l1.5,2.3l3.2,1.2l1.2,1.9l2.5,2.5l3.6,0.4l2.4,1.9
				l3.7,2.5l4.3,2.9l4.4,0.4l1.3,2.5l3.6,0.8l3.1,2.1l3.9,0.9l3.1-1.5l1.3-1.4h2l1.7,0.7l4.1,0.7l1.6,2.2l0.7,1.1l1.7,0.9l0.7,2.8
				l2.4,0.1l0.3,2.1l2.7,1.1l1.7,1.1l2,0.1l5.1,1.5l2.9,1.9l3.1-0.3l2.2,0.6l0,0l2.5,4.8l5,5.1l0,0l0.5,3.7l-1,2.5l2.9,3.5l2.1-1.9
				l2.5,3.3l3.1,0.8l0.2,3.7l1,2.5l1.2-3.7l-1.2,3.7l6.8-0.2l1.7,1.9l2.5,0.4l1.2,2.1l2.9-1.7l-0.4-2.5l-1.7-1.7l2.7-1.7l1.7,1
				l1-3.7l2.7,0.4l1.7,1.7l2.1,1.5l-2.3,1.4l0.2,1.7l1.8,2.5l0,0l0.9,1.9l1.2,0.6l0.4,4.8l2.3,1.4l-1.4,3.3l-2.1,0.2l0.4,7.2
				l2.5,0.6l-0.8,2.5l-3.7,3.1l-3.9,1.9l-1.4,5.5l-5.5,1.6l1,3.7l-1.3,1.8l-0.9,3.7l-1.8-0.1l-1.1,2.7l1.6,1.2l-1,4.6l2.6,2.4
				l1.8-1.8l1.4-0.1l-0.4,3.6l-3.6,2l-0.1,0.9l-1.1,0.3l-0.2,1.6l-1.6,1.3l0.1,5.5l1,1.3l-0.1,6.1h2.6l0.2,0.7l2.1-0.1l0.9,1.2
				l1.6,0.1l1.3,1.6l0.5,3.8l1.3,0.8l1.2,1.6l0.2,6.5l0.9,0.3l0.5,1l2.3,2.8l0.7,3.7l2.3,2.5l0.9,5l1.7,0.5l0.4,2.1l1.6,1.2l0.1,1.7
				l1.9,0.2l-0.2,2l-1.7,0.1l0.2,3.3l2.3,0.2l0.2,1.9l4.6,4.8l2.3,0.7l5.4,4.4l5.4,1.6l6.1,7.5l2.4-0.5l1.2-0.5l-1.2,0.5l1.1,1
				l-1.2,1.7v5.7l1.3,0.6l0.2,6.4l1.5,0.7l-0.2,4.1l-0.9,0.5l0.3,7.9l-1.7,0.4l-0.1,7.7l1.6,0.5l0.1,2.6l-0.9,0.7l-0.3,1.4l1.2,1.5
				l0.1,6.3l-1.3,0.2l0.2,5.1l-1.2,0.7l0.2,3.6l-1.4,0.6l-0.2,3.6l1.5,1.2l0.1,4.5l-1.5,0.8l0.2,4.4l0.9,1.2l-0.2,5.5l1.6,0.4
				l0.1,2.6l-1.4,0.5l0.3,8.2l-1.2,0.4l-0.1,5.1l-1.5,0.5l0.5,7.6l-2.4,0.2l0.2,3.7l-1.5,0.2l-0.2,3.8l1.4,0.8l-0.2,5.8l1.6,0.2
				l0.3,5.1l-0.6,0.9l-2.1,1.2l0.3,6.1l1.1,1.8l1,0.2l1,0.7l2.8-0.1l0.2,2.3l0.8,0.5l-0.5,1.6l-0.9,0.3v1.9l1.1,0.5l0.1,2.5
				l-0.8,1.8l0.3,5.3l1.6,1.4l0.2,2.5l-1.7,2.2l0.2,5.8l-2.6-1.9l0.1-4.2l-2.7-0.2l0.4,3.7l-2.5,0.2l-0.2,2.7l-1.5,0.4l0.2,4.9
				l2.2,0.3l0.2-1.6l1.5-0.1l2.4,0.2l0.9,1.5l-1.9,1.1l-0.8,2.6l1.4,1.6l0.1,2.7l-1.8,0.4l-0.7-2.8l-2.3,0.2l0.9,4.7l2.3,0.5
				l0.2,1.8l-2,0.6l0.2,2.5l1.5,1l-0.2,1.2l2.1,0.9l1.5,1.7l0.2,1.6l-1.9,0.3l-0.2,1.5l1.2,0.7l-0.2,1.6l-1.5,1l0.2,1.6l1.3,0.7
				l0.6,3.4l1.5-0.1l0.1-4.3l-1.2-0.4l0.2-1.1l1.1-0.3v-1.6l2.3,0.1l0.2-1.2l1.5-0.3l-0.3,2.1l0.1,1.7l-2.7,0.5l-0.1,1.8l2.2-0.2
				l0.1,1.2l1.8-0.1l2-0.3l1.6-1.2l-0.4,2.3l-2.2,0.6l-0.9,1.4l0.2,2.7l-1.9,0.2l-2.1-1.1l-0.8,0.9l3.9,2.7l1.6-1.1l3-0.7l3-1.5
				l0.6,0.9l2.5-0.1l0.6,1.6l-0.4,1.1l-1.7,0.8l-1,1l0.5,1.8l2.7-0.2l1,1.1l1.9-0.5l0.2-1.6l1.8,0.1l0.7-0.9l3.2,0.1l-0.2,2.1
				l-1.4,1.6l0.9,1.6l-1.9-0.1l-0.1-2.6l-1.6-0.1l-0.4,1.5l0.5,1.2l0.9,1.3l-1.8,0.6l0.5,2.6l6.7-0.1l-0.2,1.6l-3.5,0.2l0.2,2.4
				l3.8,0.5v1.6l3.5-0.9l1.3,0.7L256,439l1.5,0.1v-2.8l-2.5-0.9l-2.5-0.3l0.1-2.7l1.4-0.4l0.6,1.9l4.7,0.6l1-1.9l5.6,1.2l2.3-2.3
				l0.6-0.5l-0.9-0.5h-1.9l-1.6-0.7l-1.7-0.8l-1.8-2.2l-1.8-1.3l-2.2-1.8l-1-1.9l-1.6-0.9l-0.3-3.4l-0.5-0.7l-0.3-0.9l-0.7-0.2
				l-3.3,0.6l-1.7,1.9l-2.6,1.6l-1.7,0.6l-0.1-2l2.3-0.5l0.4-1.2l1.8-0.9l2.5-0.6l2.6-0.8l-17.3,0.2h16.3l1.1-0.2l-0.3-2.1l-1.7-0.6
				l-0.3-1.8l-0.1-1.9l-1.9-0.3v-2.3v-2.7l1-0.1v0h2.9l0.1-2.1l1-0.9l0.2-3.8l0.6-1.2h0.9l0.6-1.7l0.9-1.7l1.2-1.2l1.1-1.7l1.4-0.2
				l-0.4-3.2l0.2-3.2H259l-0.2-0.8l-1.8,0l-2.5,0.6v-1l-1.2-0.2l-0.4-1.5l-0.3-1.3l-1-0.9v-2.2l1-0.9l0.1-1.3l1-1.1l1.8-1.2l0.2-1.4
				l0.9,0.2l2.1-0.2v-1.6l1-1.4V362l-1.6-0.5l0.6-1.8v-2l2.7-0.1l1.4-1.1l-1.2-2l1.2-0.8l1.5,0.8l1.9-0.1l0.5-2l-0.7-2.4l-1.9,0.6
				l-1,1.8h-1.2l-1.3-2.2v-1l-2-0.4v-1.9l0.5-2.5l-1.5-0.2v-1.4l0.9-0.4l0.4-1.2l1.2,0.2l0.4,1.9h2.7l0.4,1l2.7-0.8l1.7,0.7l1.5-0.4
				l0.8-1l0.2-1.4V339l-0.2-2.1l1-1l1.3-1.4l-1.3-1l-1.1-1l-0.4-1.4l1.2-1l1.7,0.2l1.5,1.5l2.7,0.2l1.2-1.4l4.1,0.2l1.4-0.8l1.7-0.8
				l2.3-1l2.9-1.9l1.5-2.5l1-2.3l1.2-1.4l0.4-2.7l-0.4-2.3l-1.9-0.4l-1.7-1.4v-2.1l1.5-1.9l-2.7-2.9l-2.4-1.7l-1.9,0.4l0.4-1.4
				l-0.6-3.3l1.5,1.5l0.3,1.1l1.1,0.3l1.7,0.6l1.9,0.2l0.4,1.4l1.8,0.1l1.2,1.6l2.6,0.8h3.5l3.2-1.1l0.1-1.7l1.7,0l1-1.3l0.4-1
				l0.3-2l1.5-1.2l1.7-1l1.5-1l-0.6-2.5l1.4-0.8l0.2-4.5l-1.2-1.2l0.2-2.3l1.7-0.8l1-2.5l1.4-0.6V279l1.2,2.4h2.1l-1,0.9l-1.5,1.8
				l-0.2,1.6l-0.4,1.3l-2.3,0.9l-1.2,0.4l1,1.9l3.3-0.8l0.6-1.9l2.3-2.3l1-4.8l1.4-1.5l-0.6-2.5l1.5-1l0.2-2.1l2.7-1.5l1.2-2.1
				l0.4-7.5l-1-8.5l2.7-2.9l4.1-5.2l4.1-2.5l3.9-0.2l0.6-1.2h2.3l0.2-2h1.5l0.4-1.7l1.5-0.5v1.4l3,0.2v-1.4h3.2l1.2,1.3l2.7-1.5
				l-0.2-2.2l2.1-0.6l2.1-1.8l-0.4-4.5l1.5-1.9l0.4-2.5l2.3-1.2l-0.4-2.9l1.9-1l0.2-2.3l-0.2-5.8l1.4-1.7l1.4-1.4l-0.6-3.9l0-3.7
				l1.3-1.5v-2.1l-1.1-0.6l-0.1-6.4l-0.7-1.5l0.2-3.1l2.1-1l-0.8-2.1l-1.6-0.8v-1.4l3.4,1l1.7-0.8l0-1.9l1.4-2.1l1.4-0.2l1.6-3.5
				l-0.8-1l1.4-1.7l1.7,0.6l1.7-1.7l-0.2-1.7l1.7-0.4l0.8-2.9l2.5-3.3l-0.2-3.1l0.9-1.7V152l2.2-1.5L390.3,147.9z M227.4,350v0.2
				l-0.8,1.7L227.4,350V346V350L227.4,350z M228.8,358l1,2.1l1,2.7L228.8,358z"/>
			
				<polygon fill-rule="evenodd" clip-rule="evenodd" fill="none" stroke="#808184" stroke-width="2.0657" stroke-linecap="round" stroke-linejoin="round" stroke-miterlimit="10" points="
				262.8,47.4 264.8,46 264.2,44.2 262.2,44.4 			"/>
			
				<polygon fill-rule="evenodd" clip-rule="evenodd" fill="none" stroke="#808184" stroke-width="2.0657" stroke-linecap="round" stroke-linejoin="round" stroke-miterlimit="10" points="
				275.4,40 274.8,38.2 272.8,38.4 273.5,41.3 			"/>
			
				<polygon fill-rule="evenodd" clip-rule="evenodd" fill="none" stroke="#808184" stroke-width="2.0657" stroke-linecap="round" stroke-linejoin="round" stroke-miterlimit="10" points="
				267,31.8 267,32.8 266.1,33.1 266.2,35.7 266.9,36.7 268.5,36.7 268.8,33.8 270.1,32.2 268.9,29.6 266.7,29.2 266,30.9 			"/>
			
				<polygon fill-rule="evenodd" clip-rule="evenodd" fill="none" stroke="#808184" stroke-width="2.0657" stroke-linecap="round" stroke-linejoin="round" stroke-miterlimit="10" points="
				262.3,22.9 265.4,24.7 266.4,22.3 265.2,20.4 			"/>
			
				<polygon fill-rule="evenodd" clip-rule="evenodd" fill="none" stroke="#808184" stroke-width="2.0657" stroke-linecap="round" stroke-linejoin="round" stroke-miterlimit="10" points="
				260.4,17.3 261.9,15.7 264.3,17.5 265.4,15.9 261.7,14.4 258.5,15.9 			"/>
			
				<polygon fill-rule="evenodd" clip-rule="evenodd" fill="none" stroke="#808184" stroke-width="2.0657" stroke-linecap="round" stroke-linejoin="round" stroke-miterlimit="10" points="
				252.6,11.9 250.5,11.3 249.7,12.7 251.5,13.8 			"/>
			
				<polygon fill-rule="evenodd" clip-rule="evenodd" fill="none" stroke="#808184" stroke-width="2.0657" stroke-linecap="round" stroke-linejoin="round" stroke-miterlimit="10" points="
				258.8,11.1 259.2,9.2 256.7,9 257.7,11.3 			"/>
			
				<polygon fill-rule="evenodd" clip-rule="evenodd" fill="none" stroke="#808184" stroke-width="2" stroke-linecap="round" stroke-linejoin="round" stroke-miterlimit="10" points="
				243.8,14 247.4,11.1 247.4,9 238.8,9.2 239.8,12.7 			"/>
			
				<polygon fill-rule="evenodd" clip-rule="evenodd" fill="none" stroke="#808184" stroke-width="2.0657" stroke-linecap="round" stroke-linejoin="round" stroke-miterlimit="10" points="
				210.6,1.4 210.3,4.3 211.6,4.9 212.4,6.7 211.8,8.2 204.4,9.2 207.5,13 209.1,13.6 210.3,11.9 212.4,13.2 212.8,12.1 214.7,11.3 
				217,12.7 219.4,14.4 220.7,12.7 221.1,10.7 224.8,12.7 226.5,10.5 229,11.7 233.3,10.1 232.7,7.8 228.3,7.2 229.8,5.5 230.2,3.7 
				224,3 223.6,1.4 218.2,1.2 216.8,0.5 212.8,0.1 			"/>
			
				<polygon fill-rule="evenodd" clip-rule="evenodd" fill="none" stroke="#808184" stroke-width="2.0657" stroke-linecap="round" stroke-linejoin="round" stroke-miterlimit="10" points="
				193.8,7.8 188.2,7.4 187.8,9.2 186.3,8.8 186.4,11.5 189,12.3 191.3,14.4 193.4,13 197.7,13.4 197.5,10.3 194.2,9.7 			"/>
			
				<polygon fill-rule="evenodd" clip-rule="evenodd" fill="none" stroke="#808184" stroke-width="2" stroke-linecap="round" stroke-linejoin="round" stroke-miterlimit="10" points="
				207.7,-0.1 204.6,-2.8 201.5,-2.8 200.8,-4.6 197.7,-4.6 193.4,-9.7 189.9,-9.2 188.4,-12.4 184.5,-11.7 182.2,-15.6 
				178.7,-17.5 169,-19.1 168.6,-16.4 165.6,-16.8 159.4,-13.7 159.4,-11.7 157.5,-9 162.7,-9.8 167,-11.7 168.7,-14.1 170.4,-13.3 
				170.4,-10.6 176.9,-11.4 179.9,-8.3 186.3,-9 186.8,-6.3 188.7,-2.8 192.2,-3.6 193.8,-1.7 191.9,-0.5 190.7,2.2 203.9,1.8 			
				"/>
			
				<polygon fill-rule="evenodd" clip-rule="evenodd" fill="none" stroke="#808184" stroke-width="2.0657" stroke-linecap="round" stroke-linejoin="round" stroke-miterlimit="10" points="
				240.7,427.8 240.8,426.1 238.2,425.2 236.7,424.2 235.9,425.9 238.5,427.8 238.4,430.3 240.4,431.5 242.6,430.7 242.3,428.5 			
				"/>
			
				<polygon fill-rule="evenodd" clip-rule="evenodd" fill="none" stroke="#808184" stroke-width="2.0657" stroke-linecap="round" stroke-linejoin="round" stroke-miterlimit="10" points="
				237.7,418.9 235.9,418.2 234,419.4 230.9,420 230.7,422.2 235.3,422.6 236.7,420.7 			"/>
			
				<polygon fill-rule="evenodd" clip-rule="evenodd" fill="none" stroke="#808184" stroke-width="2.0657" stroke-linecap="round" stroke-linejoin="round" stroke-miterlimit="10" points="
				231.9,425.5 233.4,427.1 234.1,426 234.4,423.9 231.1,423.5 			"/>
			
				<polygon fill-rule="evenodd" clip-rule="evenodd" fill="none" stroke="#808184" stroke-width="2" stroke-linecap="round" stroke-linejoin="round" stroke-miterlimit="10" points="
				216.6,355.8 216.7,357.7 218.1,357.7 218.1,359.2 221.2,359.4 221.3,357.4 222.6,357.6 223,354.4 220.9,354.4 220.7,352.8 
				222.8,352.4 223.1,349.8 222.1,349.5 221.2,348.4 219.1,348.4 219.3,349.5 217.6,349.9 217.4,351.6 218.4,353 218.1,355.5 			"/>
			
				<polygon fill-rule="evenodd" clip-rule="evenodd" fill="none" stroke="#808184" stroke-width="2.0657" stroke-linecap="round" stroke-linejoin="round" stroke-miterlimit="10" points="
				218.6,364 218.8,366.7 222.1,366.6 222.1,363 220.1,362.7 			"/>
			
				<polygon fill-rule="evenodd" clip-rule="evenodd" fill="none" stroke="#808184" stroke-width="2.0657" stroke-linecap="round" stroke-linejoin="round" stroke-miterlimit="10" points="
				272.4,429.9 271.1,430.8 271,432.3 272,432.4 273,432 274.7,432.2 275.2,431.2 274.5,430 			"/>
			
				<polygon fill-rule="evenodd" clip-rule="evenodd" fill="none" stroke="#808184" stroke-width="2" stroke-linecap="round" stroke-linejoin="round" stroke-miterlimit="10" points="
				290,412.2 291.3,411.3 291.5,409.6 290.1,408.6 287.2,408.9 286.9,407.9 285.4,408.1 285.4,409.8 286.4,410.1 286.4,411.4 
				285.2,413.2 283.3,413.1 283.5,413.8 284.8,414.2 285.7,415.3 287,415.2 286.9,413.6 289.1,413.3 			"/>
			
				<polygon fill-rule="evenodd" clip-rule="evenodd" fill="none" stroke="#808184" stroke-width="2.0657" stroke-linecap="round" stroke-linejoin="round" stroke-miterlimit="10" points="
				295,409.6 293.4,408.1 292.6,409.5 292.5,411.4 290.9,413.7 289.4,414.3 289.3,414.9 291.3,415.6 291.7,414.5 293.4,414.5 
				294.2,412.6 295.4,412.9 297,411.6 296.9,409.7 			"/>
			
				<polygon fill-rule="evenodd" clip-rule="evenodd" fill="none" stroke="#808184" stroke-width="2" stroke-linecap="round" stroke-linejoin="round" stroke-miterlimit="10" points="
				125.8,111.8 124.5,112.4 124,111.4 122.2,111.4 122.6,112.9 121,112.8 121.3,114.5 122.9,114.6 122.2,115.7 123.6,117.4 
				126.5,116.8 126.8,114.2 125.5,113.8 			"/>
			
				<polygon fill-rule="evenodd" clip-rule="evenodd" fill="none" stroke="#808184" stroke-width="2.0657" stroke-linecap="round" stroke-linejoin="round" stroke-miterlimit="10" points="
				128,115.4 129.8,114.2 127.7,113.1 			"/>
			
				<polygon fill-rule="evenodd" clip-rule="evenodd" fill="none" stroke="#808184" stroke-width="2" stroke-linecap="round" stroke-linejoin="round" stroke-miterlimit="10" points="
				133.4,113.1 133.4,115.4 131.7,115.4 131.9,116.4 133.5,116.3 134.9,115.5 134.7,113.2 			"/>
		</g>
	</g>
	<circle fill-rule="evenodd" clip-rule="evenodd" fill="#009DDA" cx="193.4" cy="168.6" r="1.9"/>
	<circle fill-rule="evenodd" clip-rule="evenodd" fill="#009DDA" cx="228.9" cy="298" r="5.9"/>
	<linearGradient id="SVGID_3_" gradientUnits="userSpaceOnUse" x1="229.3926" y1="301.7372" x2="278.1078" y2="301.7372">
		<stop  offset="0" style="stop-color:#009DDA;stop-opacity:0.5"/>
		<stop  offset="0.2193" style="stop-color:#019BD8;stop-opacity:0.4781"/>
		<stop  offset="0.3811" style="stop-color:#0494CE;stop-opacity:0.4619"/>
		<stop  offset="0.5245" style="stop-color:#0888BE;stop-opacity:0.4475"/>
		<stop  offset="0.6572" style="stop-color:#0F77A7;stop-opacity:0.4343"/>
		<stop  offset="0.7824" style="stop-color:#18628A;stop-opacity:0.4218"/>
		<stop  offset="0.9005" style="stop-color:#224867;stop-opacity:0.4099"/>
		<stop  offset="1" style="stop-color:#2D2D43;stop-opacity:0.4"/>
	</linearGradient>
	<linearGradient id="SVGID_4_" gradientUnits="userSpaceOnUse" x1="227.0459" y1="302.0192" x2="280.492" y2="302.0192">
		<stop  offset="0" style="stop-color:#009DDA;stop-opacity:0.5"/>
		<stop  offset="0.2193" style="stop-color:#019BD8;stop-opacity:0.4781"/>
		<stop  offset="0.3811" style="stop-color:#0494CE;stop-opacity:0.4619"/>
		<stop  offset="0.5245" style="stop-color:#0888BE;stop-opacity:0.4475"/>
		<stop  offset="0.6572" style="stop-color:#0F77A7;stop-opacity:0.4343"/>
		<stop  offset="0.7824" style="stop-color:#18628A;stop-opacity:0.4218"/>
		<stop  offset="0.9005" style="stop-color:#224867;stop-opacity:0.4099"/>
		<stop  offset="1" style="stop-color:#2D2D43;stop-opacity:0.4"/>
	</linearGradient>
	
		<path fill-rule="evenodd" clip-rule="evenodd" fill="url(#SVGID_3_)" stroke="url(#SVGID_4_)" stroke-width="10.3283" stroke-miterlimit="10" d="
		M278.1,302.8c0,0-18.9,9.9-48.7-5.3"/>
	<linearGradient id="SVGID_5_" gradientUnits="userSpaceOnUse" x1="278.0363" y1="269.5038" x2="333.9619" y2="269.5038">
		<stop  offset="0" style="stop-color:#009DDA;stop-opacity:0.5"/>
		<stop  offset="0.2193" style="stop-color:#019BD8;stop-opacity:0.4781"/>
		<stop  offset="0.3811" style="stop-color:#0494CE;stop-opacity:0.4619"/>
		<stop  offset="0.5245" style="stop-color:#0888BE;stop-opacity:0.4475"/>
		<stop  offset="0.6572" style="stop-color:#0F77A7;stop-opacity:0.4343"/>
		<stop  offset="0.7824" style="stop-color:#18628A;stop-opacity:0.4218"/>
		<stop  offset="0.9005" style="stop-color:#224867;stop-opacity:0.4099"/>
		<stop  offset="1" style="stop-color:#2D2D43;stop-opacity:0.4"/>
	</linearGradient>
	
		<path fill-rule="evenodd" clip-rule="evenodd" fill="none" stroke="url(#SVGID_5_)" stroke-width="6.197" stroke-miterlimit="10" d="
		M281,301.3c0,0,12-46.1,51.8-61.5"/>
	<linearGradient id="SVGID_6_" gradientUnits="userSpaceOnUse" x1="276.2148" y1="266.0475" x2="353.702" y2="266.0475">
		<stop  offset="0" style="stop-color:#009DDA;stop-opacity:0.5"/>
		<stop  offset="0.2193" style="stop-color:#019BD8;stop-opacity:0.4781"/>
		<stop  offset="0.3811" style="stop-color:#0494CE;stop-opacity:0.4619"/>
		<stop  offset="0.5245" style="stop-color:#0888BE;stop-opacity:0.4475"/>
		<stop  offset="0.6572" style="stop-color:#0F77A7;stop-opacity:0.4343"/>
		<stop  offset="0.7824" style="stop-color:#18628A;stop-opacity:0.4218"/>
		<stop  offset="0.9005" style="stop-color:#224867;stop-opacity:0.4099"/>
		<stop  offset="1" style="stop-color:#2D2D43;stop-opacity:0.4"/>
	</linearGradient>
	
		<path fill-rule="evenodd" clip-rule="evenodd" fill="none" stroke="url(#SVGID_6_)" stroke-width="4.1313" stroke-miterlimit="10" d="
		M278.3,302c0,0,1.7-76.4,75.2-69.4"/>
	<linearGradient id="SVGID_7_" gradientUnits="userSpaceOnUse" x1="192.7268" y1="236.9541" x2="279.2321" y2="236.9541">
		<stop  offset="0" style="stop-color:#009DDA;stop-opacity:0.5"/>
		<stop  offset="0.2193" style="stop-color:#019BD8;stop-opacity:0.4781"/>
		<stop  offset="0.3811" style="stop-color:#0494CE;stop-opacity:0.4619"/>
		<stop  offset="0.5245" style="stop-color:#0888BE;stop-opacity:0.4475"/>
		<stop  offset="0.6572" style="stop-color:#0F77A7;stop-opacity:0.4343"/>
		<stop  offset="0.7824" style="stop-color:#18628A;stop-opacity:0.4218"/>
		<stop  offset="0.9005" style="stop-color:#224867;stop-opacity:0.4099"/>
		<stop  offset="1" style="stop-color:#2D2D43;stop-opacity:0.4"/>
	</linearGradient>
	
		<path fill-rule="evenodd" clip-rule="evenodd" fill="none" stroke="url(#SVGID_7_)" stroke-width="1.0328" stroke-miterlimit="10" d="
		M193.2,169.4C193.1,253,279,304,279,304"/>
	<linearGradient id="SVGID_8_" gradientUnits="userSpaceOnUse" x1="279.5251" y1="299.6494" x2="294.7651" y2="299.6494">
		<stop  offset="0" style="stop-color:#009DDA;stop-opacity:0.5"/>
		<stop  offset="0.2193" style="stop-color:#019BD8;stop-opacity:0.4781"/>
		<stop  offset="0.3811" style="stop-color:#0494CE;stop-opacity:0.4619"/>
		<stop  offset="0.5245" style="stop-color:#0888BE;stop-opacity:0.4475"/>
		<stop  offset="0.6572" style="stop-color:#0F77A7;stop-opacity:0.4343"/>
		<stop  offset="0.7824" style="stop-color:#18628A;stop-opacity:0.4218"/>
		<stop  offset="0.9005" style="stop-color:#224867;stop-opacity:0.4099"/>
		<stop  offset="1" style="stop-color:#2D2D43;stop-opacity:0.4"/>
	</linearGradient>
	
		<line fill-rule="evenodd" clip-rule="evenodd" fill="none" stroke="url(#SVGID_8_)" stroke-width="1.0328" stroke-miterlimit="10" x1="279.7" y1="301.6" x2="294.6" y2="297.7"/>
	<polyline fill-rule="evenodd" clip-rule="evenodd" fill="none" stroke="#A6A7AA" stroke-miterlimit="10" points="277.9,308.4 
		277.9,317.9 300.4,317.9 	"/>
	<rect x="19" y="292.5" fill="none" width="197.7" height="16.2"/>
	<text transform="matrix(1 0 0 1 68.0442 303.1415)"><tspan x="0" y="0" fill="#009DDA" font-family="'Roboto-Regular'" font-size="14">Santiago de Chile /</tspan><tspan x="118.8" y="0" fill="#009DDA" font-family="'Roboto-Bold'" font-size="14"> 50%</tspan></text>
	<rect x="366.6" y="230" fill="none" width="136.9" height="12.6"/>
	<text transform="matrix(1 0 0 1 366.5872 240.6552)"><tspan x="0" y="0" fill="#009DDA" font-family="'Roboto-Regular'" font-size="14">Ro de Janeiro /</tspan><tspan x="99" y="0" fill="#009DDA" font-family="'Roboto-Bold'" font-size="14"> 30%</tspan></text>
	<rect x="337.7" y="247" fill="none" width="114.6" height="14.7"/>
	<text transform="matrix(1 0 0 1 337.6682 257.6962)"><tspan x="0" y="0" fill="#009DDA" font-family="'Roboto-Regular'" font-size="14">San Pablo / </tspan><tspan x="76.5" y="0" fill="#009DDA" font-family="'Roboto-Bold'" font-size="14">30%</tspan></text>
	<rect x="316" y="294.5" fill="none" width="124.5" height="14.1"/>
	<text transform="matrix(1 0 0 1 315.9788 305.2069)"><tspan x="0" y="0" fill="#009DDA" font-family="'Roboto-Regular'" font-size="14">Montevideo / </tspan><tspan x="86.7" y="0" fill="#009DDA" font-family="'Roboto-Bold'" font-size="14">30%</tspan></text>
	<rect x="301" y="311.6" fill="none" width="86.1" height="13.5"/>
	<text transform="matrix(1 0 0 1 301.0032 322.248)" fill="#FFFFFF" font-family="'Roboto-Regular'" font-size="14">Buenos Aires</text>
	<rect x="59.9" y="164.8" fill="none" width="127.5" height="14.1"/>
	<text transform="matrix(1 0 0 1 116.9949 175.4358)"><tspan x="0" y="0" fill="#009DDA" font-family="'Roboto-Regular'" font-size="14">Lima / </tspan><tspan x="43.9" y="0" fill="#009DDA" font-family="'Roboto-Bold'" font-size="14">30%</tspan></text>
	<g>
		<path fill-rule="evenodd" clip-rule="evenodd" fill="#232332" d="M278.1,307.4c-2.5,0-4.6-2-4.6-4.6s2-4.6,4.6-4.6s4.6,2,4.6,4.6
			S280.6,307.4,278.1,307.4z"/>
		<path fill="#FFFFFF" d="M278.1,299.3c1.9,0,3.5,1.6,3.5,3.5s-1.6,3.5-3.5,3.5c-1.9,0-3.5-1.6-3.5-3.5S276.2,299.3,278.1,299.3
			 M278.1,297.2c-3.1,0-5.6,2.5-5.6,5.6s2.5,5.6,5.6,5.6c3.1,0,5.6-2.5,5.6-5.6S281.2,297.2,278.1,297.2L278.1,297.2z"/>
	</g>
	<circle fill-rule="evenodd" clip-rule="evenodd" fill="#009DDA" cx="294.6" cy="297.7" r="1.9"/>
	<circle fill-rule="evenodd" clip-rule="evenodd" fill="#009DDA" cx="332.8" cy="239.8" r="2.6"/>
	<circle fill-rule="evenodd" clip-rule="evenodd" fill="#009DDA" cx="353.5" cy="232.6" r="1.9"/>
</g>
</svg>
