<?xml version="1.0" encoding="utf-8"?>
<!-- Generator: Adobe Illustrator 18.0.0, SVG Export Plug-In . SVG Version: 6.00 Build 0)  -->
<!DOCTYPE svg PUBLIC "-//W3C//DTD SVG 1.1//EN" "http://www.w3.org/Graphics/SVG/1.1/DTD/svg11.dtd">
<svg version="1.1" id="Layer_1" xmlns="http://www.w3.org/2000/svg" xmlns:xlink="http://www.w3.org/1999/xlink" x="0px" y="0px"
	 viewBox="0 0 429.7 397.7" enable-background="new 0 0 429.7 397.7" xml:space="preserve">
<g>
	<defs>
		<rect id="SVGID_1_" width="322" height="439.5"/>
	</defs>
	<clipPath id="SVGID_2_">
		<use xlink:href="#SVGID_1_"  overflow="visible"/>
	</clipPath>
	<g clip-path="url(#SVGID_2_)">
		<polygon fill-rule="evenodd" clip-rule="evenodd" fill="#2D2D43" stroke="#4E4E5B" stroke-miterlimit="10" points="213.7,267.8 
			213.6,266.3 212.4,268 211.7,270.2 211.8,272.3 211,273.2 211,275.2 211.4,276.5 211.3,280.2 210,281 209.8,283.6 210.8,284 
			212,285.1 212.2,286 213,286.2 214.3,286.7 215.7,286.8 216,287.9 217.3,288 218.2,288.7 220.1,288.9 222.7,288.9 225.1,288.5 
			225.2,287.4 226.4,287.5 227.2,286.6 227.5,285.9 227.7,284.4 227.7,283.2 227,282.4 227.2,281.4 228.1,281 228.4,279.3 
			227.5,278.6 226.3,277.3 225.2,276.1 224,275.9 223.4,274.8 222.7,274.2 222.7,273.4 220.4,273.2 219.8,272.3 219,272.2 
			219,271.6 217.5,271.6 217.5,270.7 216.5,270.4 216.3,269.1 215.4,268.8 215.4,267.9 		"/>
		<polygon fill-rule="evenodd" clip-rule="evenodd" fill="none" stroke="#4E4E5B" stroke-miterlimit="10" points="193.8,232.1 
			193.1,233.4 193.8,236.3 195.7,238.2 198,239.6 199.6,241 200.2,242.3 201.3,242.9 203.9,242.6 205.5,243.9 206.2,245.2 
			208.1,245.1 209.8,245.5 211.1,246.7 210.8,248.7 209.1,252 208.2,253.4 207.8,255.3 211,255.3 212.6,256.6 213.4,257.9 
			214.3,255.7 215.7,255.5 217.9,255.7 218.9,253.7 220.9,253 220.9,250.3 221.5,248 221.4,246.5 220.6,245.8 221.1,245.2 
			221.9,245.2 222.4,243.9 222.2,242 221.6,241 217.9,241 217.8,239.5 216.7,239 216.9,237.3 217.8,235.6 216.9,234.7 215.7,234.7 
			215.2,233.7 209.8,233.7 208.4,232.7 209.5,231.7 209.7,228.8 209,228.2 208.7,225.3 207.8,224.8 208.1,223.9 206.5,223.9 
			206.1,222.9 205.1,222.3 204.9,221.3 199.9,221.6 199.7,222.3 197.1,222.2 196.7,223.2 195.6,223.5 195.1,224.6 195.1,226 
			194.1,226.3 194,228.5 194.6,229.8 194.4,231.2 		"/>
		<polygon fill-rule="evenodd" clip-rule="evenodd" fill="none" stroke="#4E4E5B" stroke-miterlimit="10" points="174.8,236.7 
			177.5,237.1 177.5,236.1 180.7,232.5 182.2,233.3 182.3,234.4 185,234.3 185.2,236 186.8,236.1 187.1,233.4 193.1,233.4 
			194.4,231.2 194.6,229.8 194,228.5 194.1,226.3 195.1,226 195.1,224.6 195.6,223.5 196.7,223.2 197.1,222.2 199.7,222.3 
			199.9,221.6 204.9,221.3 205.1,222.3 206.1,222.9 206.5,223.9 208.1,223.9 207.5,222.4 208.7,222.3 208.7,220.1 209.7,219.6 
			209.7,217.3 208.8,216.8 208.8,214.4 207.1,213.7 206.2,212.5 206.4,209.9 202.6,209.5 200.5,209.9 199.6,208.6 199.9,206.4 
			198.6,205.7 199,204.3 200,201.5 198.6,200.5 198.6,198.7 194,198.5 192.7,196.4 189.8,195.9 188.8,194.5 185.6,194.1 182,191.2 
			181.9,187 180.7,186.4 180.6,183.2 177.1,183 177,184.4 173.4,186.4 171.6,186.8 170.8,188.3 169.6,188.3 168.2,187.1 
			166.4,187.6 167.2,189.7 169.3,192.5 170.1,194.8 169.8,198.1 168.9,198.5 168.6,200.3 169.3,201.5 169.2,203.4 168,204 
			168.2,208.2 169.8,209.2 169.9,211.1 168.6,212.4 167.2,212.6 167,215.4 168.6,216.1 169.6,218.1 169.8,219.9 170.6,221.6 
			172.1,222.2 171.8,225.5 170.9,226.3 170.9,228.4 172.2,228.9 173.9,229.8 173.4,232.2 174.2,233.5 		"/>
		<polygon fill-rule="evenodd" clip-rule="evenodd" fill="#2D2D43" stroke="#4E4E5B" stroke-miterlimit="10" points="228.9,283.6 
			230.1,282.8 231.3,282.1 230.9,280.2 231.9,279.7 232,276.3 231.2,275.5 231.3,273.8 232.6,273.2 233.2,271.3 234,270.9 
			234,267.8 235.3,268.7 236.9,268.7 236.2,269.9 235,271.4 234.9,272.7 234.6,273.8 232.9,274.5 232,274.8 232.7,276.2 
			235.2,275.6 235.6,274.2 237.4,272.5 238.1,268.9 239.1,267.7 238.7,265.8 239.8,265.1 239.9,263.5 242,262.4 242.8,260.8 
			243.1,255.2 242.4,248.8 244.4,246.7 247.4,242.8 250.5,240.9 253.4,240.3 253.8,239 255.5,239 255.7,237.9 256.8,237.9 
			257.4,236.9 258.8,236.7 258.8,237.7 261.3,237.9 261.3,236.4 262.9,236.4 263.7,237.6 265.7,236.6 265.6,235 267.2,234.6 
			268.8,233.3 268.5,229.9 269.6,228.5 269.9,226.6 271.7,225.8 271.4,223.6 272.8,222.9 273,221.1 272.8,216.8 273.8,215.5 
			274.8,214.5 274.4,211.6 274.5,208.9 275.7,207.7 275.7,206.2 274.7,205.7 274.5,201 274,199.8 274.1,197.5 275.7,196.8 
			275.5,195.2 274.8,194.6 274.8,193.6 276.8,194.3 277.9,193.8 277.7,192.3 278.7,190.7 279.7,190.6 280.9,188 280.3,187.3 
			281.3,186 282.6,186.4 283.9,185.1 283.8,183.8 285.1,183.5 285.6,181.4 287.5,178.9 287.7,176.6 288.7,175.3 288.7,173.3 
			290,172.1 289.4,170.3 288.4,169.7 288.7,167.8 287.5,167.2 287.8,164.4 286.1,163.1 282.3,163.2 280,161.6 278.3,159.8 
			276,157.3 273.4,155.6 271.8,154.1 270.6,153 269.2,153 268.6,153.8 265.6,154.1 265.5,152.8 261.3,153.1 260.3,152.3 
			257.7,152.3 257.2,153.1 255.2,153.4 255.2,151 254.2,150.4 254.2,149.1 253.1,147.8 251.3,147.6 250.5,148.4 249.3,147.6 
			248.7,146.1 247.3,145.2 245.4,145.8 244.4,145.9 243.7,145.2 242,145.2 241.7,146.9 241.1,148.4 239.7,149.7 237.4,150 
			237.4,149.1 238.9,148.8 240.2,147.2 240.4,143.6 237.5,143.2 234.2,143.8 233.8,145.2 231.9,145.5 231.7,147.4 230,148.8 
			229,150.1 227.6,149.5 229.3,147.5 229.4,145.6 230.6,145.3 230.7,143.6 233.5,142.5 233.9,140.4 235.6,138.9 235.8,136 
			234.2,135.7 233.3,133.8 233.2,131.5 232,131.1 232.5,128.2 231.6,126.5 229.9,126.2 227.8,127.3 226.5,130.6 225.4,133.4 
			222.8,135 221.5,133.8 220.2,135 218.3,135 217.9,133.5 213.1,133.1 212.3,134.1 213.4,135.8 207.8,136 206.9,137.1 205.2,137 
			204.1,139.6 202.2,138.4 201.3,136.6 199.7,135.5 199.3,129.3 200.6,128 200.7,126 199.2,124.9 199.3,122.7 197.3,121.7 
			196.9,124.7 195,125 194.1,126.8 189.8,126.9 189.1,128.3 187.2,128.2 186.5,126.9 183.2,126.8 183.6,128.3 184.8,129.1 
			184.5,130.4 183.5,130.9 183.6,133.2 185,133.5 187.1,133.1 186.9,134.5 185.6,136 183.9,137.1 182.3,139 180.6,139.6 179.3,139 
			178.3,140.3 177,140 176.4,138.6 174.7,138.1 174.5,136.6 172.9,134.7 170.8,136.4 169,136.3 165.2,136.1 164.1,138 164.9,139 
			166.6,138.9 166.7,140.9 164.6,140.7 164.4,144.8 165.6,145.9 165.4,147.5 166.4,148.2 166.4,152.7 164.2,153 164,155.2 
			162.7,157.3 163,158.2 164.5,158.2 165,159 164.3,161.3 162.7,160.7 162,161.6 159.7,161.5 157.3,162.1 154.8,164.6 154.7,167 
			153.8,167.5 153.9,169.5 154.8,170 154.6,171.1 151.9,171 151.6,177.5 151.9,178.5 153.6,178.5 153.8,180 155.5,180.5 
			155.7,181.7 157.3,181.6 157.3,183.2 159,183.6 160.4,183.1 160.8,182.1 161.5,182.1 161.5,181.2 163.2,181.2 162.9,187.5 
			166.4,187.6 168.2,187.1 169.6,188.3 170.8,188.3 171.6,186.8 173.4,186.4 177,184.4 177.1,183 180.6,183.2 180.7,186.4 
			181.9,187 182,191.2 185.6,194.1 188.8,194.5 189.8,195.9 192.7,196.4 194,198.5 198.6,198.7 198.6,200.5 200,201.5 198.6,205.7 
			199.9,206.4 199.6,208.6 200.5,209.9 202.6,209.5 206.4,209.9 206.2,212.5 207.1,213.7 208.8,214.4 208.8,216.8 209.7,217.3 
			209.7,219.6 208.7,220.1 208.7,222.3 207.5,222.4 208.1,223.9 207.8,224.8 208.7,225.3 209,228.2 209.7,228.8 209.5,231.7 
			208.4,232.7 209.8,233.7 215.2,233.7 215.7,234.7 216.9,234.7 217.8,235.6 216.9,237.3 216.7,239 217.8,239.5 217.9,241 
			221.6,241 222.2,242 222.4,243.9 221.9,245.2 221.1,245.2 220.6,245.8 221.4,246.5 221.5,248 223.2,248.1 224.2,250 224.5,252.9 
			224.2,255.2 222.9,256.6 220.9,256.7 220.6,258.3 219.2,259.8 217.6,260.6 216.6,262.1 215.4,265.5 213.6,266.3 213.7,267.8 
			215.4,267.9 215.4,268.8 216.3,269.1 216.5,270.4 217.5,270.7 217.5,271.6 219,271.6 219,272.2 219.8,272.3 220.4,273.2 
			222.7,273.4 222.7,274.2 223.4,274.8 224,275.9 225.2,276.1 227.5,278.6 228.4,279.3 228.1,281 227.2,281.4 227,282.4 
			227.7,284.4 		"/>
		<polygon fill-rule="evenodd" clip-rule="evenodd" fill="none" stroke="#4E4E5B" stroke-miterlimit="10" points="128,156.4 
			130.7,155 131,152.3 129.9,152.4 128.6,153.7 126.7,151.9 127.4,148.4 126.2,147.5 127,145.5 128.3,145.6 129,142.8 129.9,141.5 
			129.2,138.7 133.3,137.5 135.8,139.3 137.6,142 140.1,142.6 141.6,141.5 144.9,142.6 146,144.2 146.2,147.9 144.9,148.5 
			144.7,150 142.1,151.9 141.6,153.6 139.4,154.2 139.6,155.3 137.8,156.2 137.8,157.4 135.8,158.6 135.4,160.2 135.7,161.7 
			133.9,162.2 134,164.2 132.2,164.3 132.2,162.3 131.1,162.1 130.5,160.6 128.7,160.9 128,160.3 128.8,159.6 129,158.4 
			128.7,157.4 127.9,157.1 		"/>
		<polygon fill-rule="evenodd" clip-rule="evenodd" fill="none" stroke="#4E4E5B" stroke-miterlimit="10" points="158.8,95.2 
			161.3,95 162,93.2 161.7,91.7 159.1,91.4 157.4,93 156.9,95.2 154.8,96.9 151.7,95.6 150.6,96.3 150,98.2 148,98.2 146.1,100.5 
			146,105.3 143.4,105.1 142.2,107.2 141.7,110.3 139.4,107.1 138.9,111.3 137.3,112.9 138.1,114.4 138.9,114.8 139.2,118.4 
			140.9,119.4 139.9,121.9 138.3,122 138.6,127.3 140.5,127.8 139.9,129.6 137.2,131.9 134.3,133.4 133.3,137.5 135.8,139.3 
			137.6,142 140.1,142.6 141.6,141.5 144.9,142.6 146,144.2 147.2,143.8 149,145.1 149.4,146.7 151,147.5 151.4,148.7 152.9,149.2 
			153.6,150.1 153.8,151.8 157.3,152 160.8,151.5 162.8,151.9 163.1,152.9 164.2,153 166.4,152.7 166.4,148.2 165.4,147.5 
			165.6,145.9 164.4,144.8 164.6,140.7 166.7,140.9 166.6,138.9 164.9,139 164.1,138 165.2,136.1 169,136.3 170.8,136.4 
			172.9,134.7 173.1,133.1 172.1,132.4 172.4,130.9 173.7,130.5 173.7,128.6 172.2,127.8 171.9,123.4 171.6,121.6 173.7,121.4 
			172.9,118.4 170.9,118 169.8,119.3 168.8,119.1 168.2,118 165.9,118.2 165.3,116.7 164.4,116.1 163,114.6 157.8,114.6 
			156.2,113.6 156.1,111.3 157.5,110.8 157.2,109.5 156.1,109 156.2,107.2 155.1,106.3 153,107.3 152.9,105.9 154.8,105 
			154.9,102.3 154.3,101 155.2,99.5 156.8,99.2 157.1,96.9 		"/>
		<polygon fill-rule="evenodd" clip-rule="evenodd" fill="none" stroke="#4E4E5B" stroke-miterlimit="10" points="195.8,120.3 
			194.3,119.3 194.4,117.2 197.9,115.9 197.7,114.4 196.9,112.9 198.6,110.6 200.6,108.9 200.3,107.2 198.3,107.7 196.7,108.2 
			196.4,106.9 197.9,105.6 197,103.7 193,102.4 192.7,100.5 190.8,99.1 185.9,99.1 185.9,100.8 183.5,102.1 181.3,102 179.1,100.2 
			178.8,98.9 174.7,98.9 173.1,100.5 171.3,99.4 171.2,96.3 169.6,95.8 167.2,95.2 166.6,92.7 165.4,93.5 165.6,95.6 166.9,96.2 
			163.9,98.2 160.5,98.8 158.8,95.2 157.1,96.9 156.8,99.2 155.2,99.5 154.3,101 154.9,102.3 154.8,105 152.9,105.9 153,107.3 
			155.1,106.3 156.2,107.2 156.1,109 157.2,109.5 157.5,110.8 156.1,111.3 156.2,113.6 157.8,114.6 163,114.6 165.3,116.7 
			165.9,118.2 168.2,118 168.8,119.1 169.8,119.3 170.9,118 172.9,118.4 173.7,121.4 171.6,121.6 172.2,127.8 173.7,128.6 
			173.7,130.5 172.4,130.9 172.1,132.4 173.1,133.1 172.9,134.7 174.5,136.6 174.7,138.1 176.4,138.6 177,140 178.3,140.3 
			179.3,139 180.6,139.6 182.3,139 183.9,137.1 185.6,136 186.9,134.5 187.1,133.1 185,133.5 183.6,133.2 183.5,130.9 184.5,130.4 
			184.8,129.1 183.6,128.3 183.2,126.8 186.5,126.9 187.2,128.2 189.1,128.3 189.8,126.9 194.1,126.8 195,125 196.9,124.7 
			197.3,121.7 		"/>
		<polygon fill-rule="evenodd" clip-rule="evenodd" fill="none" stroke="#4E4E5B" stroke-miterlimit="10" points="200.6,108.9 
			202.5,108.9 204.2,111.3 204.9,113.8 206.5,113.9 206.2,115.9 209.3,115.9 211,119 208.7,119.7 208.7,123.1 206.9,123.7 
			206.4,127 208,129.6 209.1,129.9 209.1,132.1 210.4,133.8 210.4,135.8 207.8,136 206.9,137.1 205.2,137 204.1,139.6 202.2,138.4 
			201.3,136.6 199.7,135.5 199.3,129.3 200.6,128 200.7,126 199.2,124.9 199.3,122.7 197.3,121.7 195.8,120.3 194.3,119.3 
			194.4,117.2 197.9,115.9 197.7,114.4 196.9,112.9 198.6,110.6 		"/>
		<polygon fill-rule="evenodd" clip-rule="evenodd" fill="none" stroke="#4E4E5B" stroke-miterlimit="10" points="218.3,132.7 
			218.3,130.9 219.9,129.9 220.5,128.5 218.9,127.2 218.3,123.3 220.2,121.3 219.9,119 216,118.8 214.9,120.3 213.1,120.1 211,119 
			208.7,119.7 208.7,123.1 206.9,123.7 206.4,127 208,129.6 209.1,129.9 209.1,132.1 210.4,133.8 210.4,135.8 213.4,135.8 
			212.3,134.1 213.1,133.1 217.9,133.5 		"/>
		<polygon fill-rule="evenodd" clip-rule="evenodd" fill="none" stroke="#4E4E5B" stroke-miterlimit="10" points="219.9,119 
			222.5,119.1 224.4,121 227.7,121.9 229.9,126.2 227.8,127.3 225.4,133.4 222.8,135 221.5,133.8 220.2,135 218.3,135 217.9,133.5 
			218.3,132.7 218.3,130.9 219.9,129.9 220.5,128.5 218.9,127.2 218.3,123.3 220.2,121.3 		"/>
		<polygon fill-rule="evenodd" clip-rule="evenodd" fill="none" stroke="#4E4E5B" stroke-miterlimit="10" points="194.5,95.4 
			194,93.2 195.5,93 196,94.4 		"/>
		<polygon fill-rule="evenodd" clip-rule="evenodd" fill="none" stroke="#4E4E5B" stroke-miterlimit="10" points="202.4,90.9 
			201.9,88.7 203.4,88.5 203.9,89.9 		"/>
		<polygon fill-rule="evenodd" clip-rule="evenodd" fill="none" stroke="#4E4E5B" stroke-miterlimit="10" points="197.5,87.5 
			197,86.7 196.9,84.8 197.6,84.6 197.6,83.8 196.9,83.1 197.4,81.9 199,82.1 199.9,84.1 199,85.3 198.7,87.4 		"/>
		<polygon fill-rule="evenodd" clip-rule="evenodd" fill="none" stroke="#4E4E5B" stroke-miterlimit="10" points="196.4,78.5 
			194.1,77.2 196.3,75.3 197.1,76.7 		"/>
		<polygon fill-rule="evenodd" clip-rule="evenodd" fill="none" stroke="#4E4E5B" stroke-miterlimit="10" points="192.7,73 
			191.2,72 193.7,70.8 196.4,72 195.6,73.1 193.8,71.8 		"/>
		<polygon fill-rule="evenodd" clip-rule="evenodd" fill="none" stroke="#4E4E5B" stroke-miterlimit="10" points="186,70.4 
			184.8,69.5 185.3,68.5 186.9,69 		"/>
		<polygon fill-rule="evenodd" clip-rule="evenodd" fill="none" stroke="#4E4E5B" stroke-miterlimit="10" points="190.7,68.5 
			189.9,66.8 191.8,66.9 191.5,68.4 		"/>
		<polygon fill-rule="evenodd" clip-rule="evenodd" fill="none" stroke="#4E4E5B" stroke-miterlimit="10" points="180.4,70.5 
			177.4,69.5 176.7,66.9 183.2,66.8 183.2,68.4 		"/>
		<polygon fill-rule="evenodd" clip-rule="evenodd" fill="none" stroke="#4E4E5B" stroke-miterlimit="10" points="162.1,70.8 
			160.4,69.5 160,62.2 161.3,62.2 161.3,61 165.3,61.2 165.6,62.3 170.2,62.9 169.9,64.2 168.8,65.5 172.1,65.9 172.5,67.7 
			169.3,68.8 167.5,67.9 166.2,69.5 163.4,68.1 163.1,69.5 		"/>
		<polygon fill-rule="evenodd" clip-rule="evenodd" fill="none" stroke="#4E4E5B" stroke-miterlimit="10" points="153.3,69.8 
			151,66.9 156.5,66.2 156.9,65.1 156.4,63.8 155.4,63.3 155.6,61.2 157.2,60.2 160.3,60.5 161.3,61 161.3,62.2 160,62.2 
			160.4,69.5 158.7,68.5 157.2,69.1 156.9,70 155.4,69 154.5,70.3 		"/>
		<polygon fill-rule="evenodd" clip-rule="evenodd" fill="none" stroke="#4E4E5B" stroke-miterlimit="10" points="142.8,69.8 
			141.2,70.8 139.5,69.2 137.6,68.7 137.5,66.7 138.6,66.9 138.9,65.6 143.1,65.9 143.4,67.4 145.8,67.8 146,70.1 		"/>
		<polygon fill-rule="evenodd" clip-rule="evenodd" fill="none" stroke="#4E4E5B" stroke-miterlimit="10" points="116.3,53.4 
			118,51.4 118,49.9 122.3,47.6 124.4,47.9 124.7,45.9 131.9,47.1 134.5,48.5 136.2,51.4 139.1,50.8 140.2,53.1 142.8,52.5 146,56 
			148.3,56 148.9,57.7 151.2,58 153.5,60 150.6,61.5 140.8,61.8 141.7,59.7 143.1,58.9 141.9,57.4 139.4,58 137.9,55.4 137.6,53.4 
			133,54 131,51.7 126.7,52.2 126.7,50.2 124.9,49.6 123.2,51.4 120,52.8 		"/>
		<polygon fill-rule="evenodd" clip-rule="evenodd" fill="none" stroke="#4E4E5B" stroke-miterlimit="10" points="98,84.6 
			97.9,82.5 99.1,81.9 98.8,81.1 101.2,79.7 101.1,78.5 103.1,77.9 104.6,77.8 106.4,77.7 106.6,78.9 110.6,78.7 110.7,77.1 
			117,77.1 117.1,78.8 118.5,78.4 119.2,80 121.1,80 121.1,81.1 118,81.6 116.6,83.9 112.8,83.8 110.7,87 107.9,87 104.9,90 
			103.3,89.4 103.8,88.2 103.2,86.8 101.3,87.1 100.7,85.7 99.2,85.8 99,84.8 		"/>
		<polygon fill-rule="evenodd" clip-rule="evenodd" fill="none" stroke="#4E4E5B" stroke-miterlimit="10" points="95.1,87.1 
			98.8,88.2 101,89.6 103.3,89.4 103.8,88.2 103.2,86.8 101.3,87.1 100.7,85.7 99.2,85.8 99,84.8 98,84.6 96.6,85.8 95.3,86 		"/>
		<polygon fill-rule="evenodd" clip-rule="evenodd" fill="none" stroke="#4E4E5B" stroke-miterlimit="10" points="92.3,86.2 
			90.3,85.5 90.1,83.9 88.3,83.8 87.8,81.7 89.3,80.1 89.5,78.4 90.6,77.5 95,77.7 95,76.3 93.9,75.7 93.7,74.5 92.3,74.1 
			91.6,72.8 92.9,71.8 92.9,70.6 97.2,70.3 99.6,71 99.6,73.6 98.3,75 98.3,78 100.1,78.3 101.1,78.5 101.2,79.7 98.8,81.1 
			99.1,81.9 97.9,82.5 98,84.6 96.6,85.8 95.3,86 95.1,87.1 93.6,87 		"/>
		<polygon fill-rule="evenodd" clip-rule="evenodd" fill="none" stroke="#4E4E5B" stroke-miterlimit="10" points="102.2,76.4 
			103.5,76.3 103.4,75.1 104.4,74.8 104.5,69.9 105.4,68.6 106.4,68.5 106.1,67.1 104.6,65.8 103.7,66.7 103.4,68.1 100.7,69.6 
			99.6,71 99.6,73.6 98.3,75 98.3,78 101.1,78.5 103.1,77.9 102.1,77.2 		"/>
		<polygon fill-rule="evenodd" clip-rule="evenodd" fill="none" stroke="#4E4E5B" stroke-miterlimit="10" points="87.9,66.3 
			89.4,65.3 91.4,65.3 91.4,66.9 93,67.6 92.9,65.2 94.6,64.2 95.1,62.4 96.4,61.7 96.4,57.5 98,55.5 101.1,55.2 101.7,54.2 
			105,54.2 106,53.4 108.7,54 109.6,55.2 110.7,55.5 110.5,57.9 108.2,60 108.1,65.2 106.5,65.7 106.1,67.1 104.6,65.8 103.7,66.7 
			103.4,68.1 100.7,69.6 99.6,71 97.2,70.3 92.9,70.6 92.9,71.8 91.6,72.8 92.3,74.1 93.7,74.5 93.9,75.7 95,76.3 95,77.7 
			90.6,77.5 89.5,78.4 89.3,80.1 87.8,81.7 86.5,81 86,80.1 84.9,78.3 81.8,77.5 80.5,76.4 79,76.4 78,78 75.7,79.7 72.9,79 
			70.6,77.4 67.9,76.8 66.9,74.9 63.6,74.7 60.5,72.5 57.7,70.6 55.9,69.2 53.2,68.9 51.3,67 50.4,65.6 48.1,64.7 47,63 43.8,60.9 
			43.5,58.6 45.5,56.7 45.2,53.4 44.2,51.4 43.7,49.5 42.1,46.9 39.9,44.2 37.5,41.7 37.3,39 35.3,38.5 34.8,37.5 33,37 32.8,34.8 
			34.4,33.9 33.9,32.6 32.2,31.4 30.2,30.7 28.5,27.5 25.9,25.6 25.5,23.9 24.4,22.8 24.1,19.5 22.9,18.5 22.7,16.7 22,16.5 
			21.7,13.4 20.6,12.2 18.2,11.8 16.8,12.5 17,15.3 17.4,19.2 20.5,21.7 22.8,25.9 22.5,27.8 24.6,29 24.9,31.6 25.5,33.1 27,33.2 
			27.2,37.4 28.2,37.6 28.5,39.7 29.3,40.9 29.3,42.8 31,42.9 31.4,45.2 33.1,46.4 32.2,48.1 29.1,48.5 29.4,46.3 27.6,44.3 
			25.5,42.8 23.4,40.7 23.3,38.2 23.2,34.9 20.7,32.5 18.2,32.4 16.5,30 15.3,30.1 15,28.5 13.7,28.5 13.7,26.8 16.5,26.4 
			16.2,25.7 17.7,24.6 16.3,22.9 14.7,21.5 14.1,19.6 12.5,19.3 12.2,14.9 10.5,12 10.3,8.6 9.7,7.3 17,7.2 27.3,13.3 38.1,13.4 
			38.3,10.7 45.4,10.5 45.6,13.5 49.8,16.3 49.9,21.1 55.3,23.7 57.2,20.4 57.1,18.8 61.8,18.6 61.8,20.5 63.8,22.3 63.8,26.3 
			67,30.1 66.5,33.4 71.8,36.2 72.4,39.3 72.8,43.2 71.4,44.6 72.9,46.1 72.7,47.5 71.9,48.7 71.6,51.7 72.8,51.9 73.2,53.7 
			74.1,54.3 73.9,55.8 73,56.1 73,58 74.9,59.6 75.1,62.1 77.2,64 77.3,65.8 80.4,65.6 81.7,68.1 83.6,67.7 83.5,66.4 		"/>
		<polyline fill-rule="evenodd" clip-rule="evenodd" fill="none" stroke="#4E4E5B" stroke-miterlimit="10" points="-1,-4.1 0,-3.2 
			-0.2,-1.1 2.6,-0.8 3.6,0.6 6.3,0.5 7.2,2.2 8.5,2.4 10.5,4.4 9.7,7.3 17,7.2 27.3,13.3 38.1,13.4 38.3,10.7 45.4,10.5 45.6,13.5 
			49.8,16.3 49.9,21.1 55.3,23.7 57.2,20.4 57.1,18.8 61.8,18.6 61.8,20.5 63.8,22.3 63.8,26.3 67,30.1 66.5,33.4 71.8,36.2 
			72.4,39.3 73.8,39.2 73.8,38.2 74.8,37.5 75.5,36.7 75.5,34.5 74.5,34 74.1,30.1 75.5,29.7 75.2,28 76.6,27.9 76.8,26.7 
			78.7,26.8 78.5,25.8 80.7,25.7 82.3,24.2 83.4,22.9 84.2,21.4 86,21.3 86.4,19.9 87.8,20.1 88.3,19.3 91.2,19 92.1,20.8 
			93.8,21.1 94.4,19.6 97.1,20.8 97,22.1 98.6,23.2 101,22.6 102.1,20.7 102.8,21.5 103,23.3 105.1,23.4 105.1,21.2 103.4,20.7 
			103.6,19.3 102.3,18.4 100.7,17.9 101,16.6 102.3,17.2 104.1,17.9 106.6,17.4 108.3,16.3 109.6,16.6 109.7,17.5 114.9,17.7 
			115.3,18.8 116.7,19.2 116.5,20.5 120.4,20.6 120.5,19.1 121.7,18 122.7,19.4 122.7,21.2 124.3,22.2 125.8,22.5 126,25.3 
			124.7,26.1 124.7,29 125.7,30.4 125.8,32 126.9,33.1 126.8,34.5 128,35.9 128.1,37.5 129.6,37.7 129.7,39.9 132.9,39.8 
			133.3,37.5 134.3,36.8 134.8,34.9 134.8,30.9 134,29.8 134,28.1 133.1,27 133.4,23.2 132,22.3 132,20.7 131,20.1 131,15.3 
			132.4,14.5 133,11.8 133,10.2 134.3,8.9 134.6,8 137.3,8 139.6,5.5 140.2,3.6 142.1,2.1 144.9,2.1 147.9,-1.3 150.3,-1.7 
			150.9,-3.4 		"/>
		<polygon fill-rule="evenodd" clip-rule="evenodd" fill="none" stroke="#4E4E5B" stroke-miterlimit="10" points="141.7,33.4 
			140.4,33 138.1,33.7 137.7,32.6 139.7,31.3 142.4,31.7 144.4,31.3 145.6,33.9 144.6,35.5 144.3,37.4 143,37.2 142.4,35.7 
			143,34.1 		"/>
		<polygon fill-rule="evenodd" clip-rule="evenodd" fill="none" stroke="#4E4E5B" stroke-miterlimit="10" points="139.9,42.6 
			139.3,41.7 140.1,39.5 141.9,39.8 141.7,42.4 142.8,43.7 142.4,46 140.8,45.7 140.8,43.9 		"/>
		<polygon fill-rule="evenodd" clip-rule="evenodd" fill="none" stroke="#4E4E5B" stroke-miterlimit="10" points="147.3,41.1 
			146.4,40.9 146.5,39.5 145.5,38.7 146,37.7 147.6,38.6 		"/>
		<polygon fill-rule="evenodd" clip-rule="evenodd" fill="none" stroke="#4E4E5B" stroke-miterlimit="10" points="156.7,57.7 
			154.6,57.1 154.9,55.8 156.1,55.6 156.7,54.4 158,54.4 158.3,56.7 		"/>
		<polygon fill-rule="evenodd" clip-rule="evenodd" fill="none" stroke="#4E4E5B" stroke-miterlimit="10" points="150,43.5 
			148.9,42.2 149.1,40.7 150.7,41.5 		"/>
		<polygon fill-rule="evenodd" clip-rule="evenodd" fill="none" stroke="#4E4E5B" stroke-miterlimit="10" points="153.6,50.3 
			152.9,52.3 154.2,52.4 154.5,51.3 155.7,51.2 154.9,48.5 152.7,48.4 152.7,49.5 		"/>
		<polygon fill-rule="evenodd" clip-rule="evenodd" fill="none" stroke="#4E4E5B" stroke-miterlimit="10" points="151.1,48.3 
			150,47.8 149.5,46.4 149.6,45.6 150.9,45.3 151.6,47 		"/>
		<polygon fill-rule="evenodd" clip-rule="evenodd" fill="none" stroke="#4E4E5B" stroke-miterlimit="10" points="159.7,51.6 
			159.1,50.9 157.1,51 157.1,49.5 158.6,48.8 160.1,49.9 160.2,51.1 		"/>
		<polygon fill-rule="evenodd" clip-rule="evenodd" fill="none" stroke="#4E4E5B" stroke-miterlimit="10" points="162.5,54 
			161.8,53.6 161.8,52.4 162.9,52.2 163.6,53.5 		"/>
		<g>
			<polygon fill-rule="evenodd" clip-rule="evenodd" fill="none" stroke="#4E4E5B" stroke-miterlimit="10" points="190.8,387 
				190.8,384.9 188.8,384.2 186.9,384 186.9,382 186.9,369.5 184.5,370 183.2,371.5 181.2,372.7 180,373.2 180,374.7 181.3,374.8 
				181.8,374.1 184.2,374.1 184.1,375.7 183,376.9 183.7,378 184.7,378.4 185,379.5 185.7,380.2 185.8,381.3 185.6,382.5 183,382.7 
				182.9,384.5 185.5,384.8 185.5,386 188.3,385.4 189.4,385.9 189.5,387 			"/>
			<polygon fill-rule="evenodd" clip-rule="evenodd" fill="none" stroke="#4E4E5B" stroke-miterlimit="10" points="179.8,375.9 
				180,374.7 180,373.2 179.9,371.6 181.6,371.2 181.9,370.3 183.2,369.6 185.1,369.2 187,368.3 174.1,368.3 174,369.4 174.9,370.3 
				175.4,371 177.2,370.9 177.7,372.1 177.4,372.9 176.1,373.5 175.4,374.3 175.7,375.6 177.7,375.5 178.4,376.3 			"/>
			<polygon fill-rule="evenodd" clip-rule="evenodd" fill="none" stroke="#4E4E5B" stroke-miterlimit="10" points="180.8,377.1 
				181.1,376 182.2,376.1 182.3,378 183.7,378 184.7,378.4 185,379.5 185.7,380.2 185.8,381.3 180.8,381.4 180.4,379.4 181.8,379 
				181.1,378 			"/>
			<polygon fill-rule="evenodd" clip-rule="evenodd" fill="none" stroke="#4E4E5B" stroke-miterlimit="10" points="179.4,380.8 
				179.2,379.2 178,378.7 178.1,377.4 176.1,376.7 175.1,375.9 174.4,377.2 176.4,378.7 176.3,380.5 177.8,381.4 			"/>
			<polygon fill-rule="evenodd" clip-rule="evenodd" fill="none" stroke="#4E4E5B" stroke-miterlimit="10" points="174.4,371.5 
				175.8,372 175.1,373.3 174,374.8 170.6,374.5 170.7,372.8 173,372.4 			"/>
			<polygon fill-rule="evenodd" clip-rule="evenodd" fill="none" stroke="#4E4E5B" stroke-miterlimit="10" points="170.9,375.4 
				173.3,375.8 173.1,377.3 172.6,378.1 171.5,376.9 			"/>
			<polygon fill-rule="evenodd" clip-rule="evenodd" fill="none" stroke="#4E4E5B" stroke-miterlimit="10" points="166.4,370.8 
				169.3,372.8 170.5,372 172.7,371.5 174.9,370.3 174,369.4 174.1,368.3 174.1,365.6 172.4,365.6 172.1,367.2 170.4,367.7 
				169.8,368.7 169.9,370.8 168.5,370.9 167,370.1 			"/>
			<polygon fill-rule="evenodd" clip-rule="evenodd" fill="none" stroke="#4E4E5B" stroke-miterlimit="10" points="169.6,366.7 
				171.1,366.5 172.4,365.6 172.1,361.8 168.9,361.5 168.6,363.1 168.7,364.3 166.7,364.7 166.6,366 168.2,365.9 168.3,366.8 			"/>
			<polygon fill-rule="evenodd" clip-rule="evenodd" fill="#2D2D43" stroke="#4E4E5B" stroke-miterlimit="10" points="167,215.4 
				167.2,212.6 168.6,212.4 169.9,211.1 169.8,209.2 168.2,208.2 168,204 169.2,203.4 169.3,201.5 168.6,200.3 168.9,198.5 
				169.8,198.1 170.1,194.8 169.3,192.5 167.2,189.7 166.4,187.6 162.9,187.5 163.2,181.2 161.5,181.2 161.5,182.1 160.8,182.1 
				160.4,183.1 159,183.6 157.3,183.2 157.3,181.6 155.7,181.7 155.5,180.5 153.8,180 153.6,178.5 151.9,178.5 151.6,177.5 
				151.9,171 154.6,171.1 154.8,170 153.9,169.5 153.8,167.5 154.7,167 154.8,164.6 156.3,163 157.3,162.1 159.7,161.5 162,161.6 
				162.7,160.7 164.3,161.3 165,159 164.5,158.2 163,158.2 162.7,157.3 163.3,156.4 164,155.2 164.2,153.9 164.2,153 163.1,152.9 
				162.8,151.9 160.8,151.5 157.3,152 153.8,151.8 153.6,150.1 152.9,149.2 151.4,148.7 151,147.5 149.4,146.7 149,145.1 
				147.2,143.8 146,144.2 146.2,145.8 146.2,147.9 144.9,148.5 144.7,150 143.2,151.1 142.1,151.9 141.6,153.6 139.4,154.2 
				139.6,155.3 137.8,156.2 137.8,157.4 135.8,158.6 135.4,160.2 135.7,161.7 133.9,162.2 134,164.2 132.2,164.3 132.2,162.3 
				131.1,162.1 130.5,160.6 128.7,160.9 128,160.3 128.8,159.6 129,158.4 128.7,157.4 127.9,157.1 127,157.4 126.9,158.5 
				125.7,159.5 125.8,163.6 126.5,164 126.5,168 128.4,168 128.6,169.1 130.1,169.2 130.8,170.3 132,170.5 133,171.7 133.3,174.5 
				134.3,175.1 135.2,176.3 135.3,181.1 135.9,181.3 136.3,182.1 138.1,184.2 138.6,186.9 140.3,188.8 141,192.5 142.2,192.9 
				142.5,194.5 143.8,195.4 143.8,196.7 145.2,196.8 145.1,198.3 143.8,198.3 144,200.7 145.7,200.9 145.8,202.3 149.2,205.8 
				150.9,206.4 154.9,209.7 159,210.8 163.5,216.4 165.3,216.1 			"/>
			<polygon fill-rule="evenodd" clip-rule="evenodd" fill="#2D2D43" stroke="#4E4E5B" stroke-miterlimit="10" points="165.3,216.1 
				166.2,216.8 165.4,218.1 165.4,222.3 166.3,222.8 166.3,227.5 167.4,228.1 167.2,231.1 166.5,231.5 166.8,237.4 165.5,237.7 
				165.4,243.4 166.7,243.8 166.7,245.7 166.1,246.2 165.9,247.3 166.7,248.4 166.8,253.1 165.8,253.2 166,257 165,257.5 
				165.2,260.1 164.1,260.6 163.9,263.3 165,264.2 165.1,267.6 164,268.2 164.2,271.5 164.9,272.3 164.7,276.4 165.9,276.7 
				166,278.7 164.9,279 165.2,285.1 164.2,285.4 164.2,289.2 163.1,289.5 163.5,295.2 161.7,295.4 161.9,298.1 160.8,298.3 
				160.6,301.1 161.6,301.7 161.4,306 162.7,306.1 162.9,309.9 162.4,310.6 160.9,311.5 161.1,316 161.9,317.3 162.7,317.5 
				163.4,318 165.5,317.9 165.6,319.6 166.2,320 166.1,321.2 165.6,321.4 165.6,322.8 166.2,323.2 166.1,325 165.5,326.3 
				165.7,330.3 166.8,331.3 167,333.2 165.7,334.8 165.9,339.2 163.9,337.7 164,334.6 162,334.5 162.3,337.2 160.4,337.4 
				160.3,339.5 159.2,339.7 159.3,343.4 160.9,343.6 161,342.4 162.1,342.4 163.9,342.5 164.6,343.6 163.2,344.4 162.6,346.4 
				163.7,347.5 163.7,349.5 162.4,349.8 161.9,347.7 160.1,347.9 160.8,351.3 162.5,351.8 162.6,353.1 161.1,353.5 161.2,355.4 
				162.3,356.2 162.2,357 163.8,357.7 164.9,359 165,360.2 163.7,360.5 163.5,361.6 164.3,362.1 164.2,363.3 163.1,364.1 
				163.2,365.3 164.2,365.8 164.7,368.4 165.8,368.3 165.9,365.1 164.9,364.9 165.2,364 166.1,363.8 166.1,362.6 167.7,362.7 
				167.8,361.8 168.9,361.5 168.5,354.3 170.8,352.6 171.3,350.6 169.5,349.1 169,347.3 171.1,345.2 171.2,342.2 172.8,341.2 
				170.6,340 170.5,337.6 172.1,336.6 171.5,334.6 169.8,334 169.8,332.1 170.6,330.2 169.2,326.6 167.9,326.1 167.9,323.8 
				168.2,322.2 168.7,320.7 168.8,317.7 167.9,316.4 167.2,313.2 167.2,310.2 168.6,310.4 168,306.8 170.6,306.6 170.1,304.6 
				168.8,304.3 169,302.1 167.9,301 168,296.8 169.5,296.1 169.9,293.6 168.6,290.9 169.6,289.5 169.9,287.4 171.5,286.6 
				171.5,282.7 170.6,281.4 170.2,279.7 168.9,278.9 168.6,276.5 167.5,274.6 167.9,272.6 169.3,272.2 169.5,269.7 169.5,266.4 
				169.8,263.8 171.1,263.1 170.9,260.4 172.4,258.3 172.4,256.3 174.4,255.7 174.2,254 172.9,252.9 172.9,250.6 173.5,249.4 
				172.5,247.5 173.9,246.9 173.9,244.9 172.9,244.8 172.9,243.5 174.7,243.3 176,242.2 176.5,240.5 178,239.9 177.5,237.1 
				174.8,236.7 174.2,233.5 173.4,232.2 173.9,229.8 170.9,228.4 170.9,226.3 171.8,225.5 172.1,222.2 170.6,221.6 169.8,219.9 
				169.6,218.1 168.6,216.1 167,215.4 			"/>
			<polygon fill-rule="evenodd" clip-rule="evenodd" fill="none" stroke="#4E4E5B" stroke-miterlimit="10" points="161.4,322.9 
				160.7,321.8 160.8,320.5 162.1,320 162,318.8 163.5,318.8 164.1,319.9 164.9,320.5 164.7,322.4 163.1,322.5 163.3,323.3 
				164.9,323.3 164.6,326.1 163.6,326.2 163.5,327.7 161.2,327.5 161.2,326.4 160.2,326.5 160,325 161.2,324.8 			"/>
			<polygon fill-rule="evenodd" clip-rule="evenodd" fill="none" stroke="#4E4E5B" stroke-miterlimit="10" points="161.6,331.2 
				161.7,333.2 164.1,333 164.2,330.4 162.7,330.2 			"/>
		</g>
		<g>
			<polygon fill-rule="evenodd" clip-rule="evenodd" fill="#2D2D43" stroke="#4E4E5B" stroke-miterlimit="10" points="186.2,368.3 
				174.1,368.3 174.1,365.6 172.4,365.6 172.1,361.8 168.9,361.5 168.5,354.3 170.8,352.6 171.3,350.6 169.5,349.1 169,347.3 
				171.1,345.2 171.2,342.2 172.8,341.2 170.6,340 170.5,337.6 172.1,336.6 171.5,334.6 169.8,334 169.8,332.1 170.6,330.2 
				169.9,328.2 169.2,326.6 167.9,326.1 167.9,323.8 168.2,322.2 168.8,320.9 168.8,317.7 167.9,316.4 167.2,313.2 167.2,310.2 
				168.6,310.4 168,306.8 170.6,306.6 170.1,304.6 168.8,304.3 169,302.1 167.9,301 168,296.8 169.5,296.1 169.9,293.6 168.6,290.9 
				169.6,289.5 169.9,287.4 171.5,286.6 171.5,282.7 170.6,281.4 170.2,279.7 168.9,278.9 168.6,276.5 167.5,274.6 167.9,272.6 
				169.3,272.2 169.5,269.7 169.5,266.4 169.8,263.8 171.1,263.1 170.9,260.4 172.4,258.3 172.4,256.3 174.4,255.7 174.2,254 
				172.9,252.9 172.9,250.6 173.5,249.4 172.5,247.5 173.9,246.9 173.9,244.9 172.9,244.8 172.9,243.5 174.7,243.3 176,242.2 
				176.5,240.5 178,239.9 177.5,236.1 180.7,232.5 182.2,233.3 182.3,234.4 185,234.3 185.2,236 186.8,236.1 187.1,233.4 
				193.1,233.4 193.8,236.3 195.7,238.2 198,239.6 199.6,241 200.2,242.3 201.3,242.9 203.9,242.6 205.5,243.9 206.2,245.2 
				208.1,245.1 209.8,245.5 211.1,246.7 210.8,248.7 210,250.6 209.1,252 208.2,253.4 207.8,255.3 211,255.3 212.6,256.6 
				213.4,257.9 214.3,255.7 215.7,255.5 217.9,255.7 218.9,253.7 220.9,253 220.9,250.3 221.5,248 223.2,248.1 224.2,250 
				224.5,252.9 224.2,255.2 222.9,256.6 220.9,256.7 220.6,258.3 219.2,259.8 217.6,260.6 216.6,262.1 215.9,264.2 215.4,265.5 
				213.6,266.3 212.4,268 211.7,270.2 211.8,272.3 211,273.2 211,275.2 211.4,276.5 211.3,280.2 210,281 209.8,283.6 210.8,284 
				211.3,286.4 211,287.4 212.4,287.2 214.3,288.5 216.5,290.6 215.6,292.1 215.6,293.6 216.6,294.7 217.8,294.9 218,296.7 
				217.8,298.7 216.9,299.7 216.2,301.4 215,303.3 212.9,304.7 211.1,305.5 209.8,306 208.8,306.6 205.8,306.5 204.9,307.5 
				202.9,307.3 201.8,306.2 200.5,306 199.6,306.8 199.9,307.8 200.7,308.5 201.8,309.2 200.9,310.2 200.3,310.9 200.7,312.5 
				200.7,314.4 200.3,315.4 199.5,316.1 198.3,316.4 197,315.8 195,316.3 194.7,315.3 192.7,315.3 192.4,314.1 191.5,314.3 
				191.2,315.1 190.7,315.4 190.7,316.4 192,316.6 191.8,318.4 191.8,319.9 193,320.2 193,320.9 193.7,321.6 194.6,321.6 
				195.3,320.7 196.7,320.8 197.2,322.5 196.8,324 195.4,324.1 194.3,323.5 193.5,324.1 194.5,325.6 193.7,326.4 192.1,326.5 
				192.1,328 191.6,329.3 192.7,329.7 192.7,332.1 191.6,333.2 191.6,334.3 189.9,334.5 189,334.3 188.8,335.4 187.5,336.2 
				186.7,337.1 186.5,338 185.7,338.7 185.7,340.3 186.7,341 187.2,341.9 187.7,343.1 188.9,343.2 188.9,343.9 190.5,343.5 
				191.5,343.6 191.6,344.3 192.4,344.3 192.3,346.6 192.6,348.9 191.5,348.9 190.8,350.1 189.9,350.9 189.2,351.8 188.8,352.5 
				188.1,352.5 187.7,353.9 187.5,357.2 186.8,357.6 186.7,358.5 185,358.5 185,359.7 184.1,359.8 184.1,361.8 184.1,363.5 
				185.4,363.8 185.3,365.2 185.5,366.5 186.8,366.9 187,368.3 			"/>
			<polygon fill-rule="evenodd" clip-rule="evenodd" fill="none" stroke="#4E4E5B" stroke-miterlimit="10" points="200.6,382 
				200.7,380.9 201.7,380.2 203.2,380.3 203.7,381.2 203.4,381.9 202.1,381.8 201.3,382.1 			"/>
			<path fill-rule="evenodd" clip-rule="evenodd" fill="none" stroke="#4E4E5B" stroke-miterlimit="10" d="M187.4,369.7l0.2,0.7
				l0.3,0.5l0.2,2.5l1.2,0.7l0.7,1.4l1.6,1.3l1.3,0.9l1.3,1.6l1.3,0.4l1.2,0.1h1.4l0.7,0.8l-0.4,0.8l-1.7,1.7l-4.2-0.9l-0.7,1.4
				l-3.5-0.4l-0.4-1.4l-1,0.3v-11.1c0,0-0.1-1.3,0-1.3L187.4,369.7z"/>
		</g>
		<polygon fill-rule="evenodd" clip-rule="evenodd" fill="none" stroke="#4E4E5B" stroke-miterlimit="10" points="212.5,366.4 
			212.5,365.5 211.6,365.2 211.6,364 212.5,363.8 212.6,364.6 214.8,364.4 215.8,365.1 215.7,366.3 214.7,367.1 214.1,367.9 
			212.4,368.1 212.5,369.2 211.5,369.3 210.9,368.6 210,368.2 209.8,367.7 211.4,367.7 		"/>
		<polygon fill-rule="evenodd" clip-rule="evenodd" fill="none" stroke="#4E4E5B" stroke-miterlimit="10" points="216.6,366.5 
			216.6,365 217.2,364 218.4,365.1 219.9,365.2 220,366.6 218.8,367.5 217.9,367.3 217.3,368.7 216,368.7 215.7,369.6 214.2,369 
			214.3,368.6 215.4,368.2 		"/>
		<polygon fill-rule="evenodd" clip-rule="evenodd" fill="none" stroke="#4E4E5B" stroke-miterlimit="10" points="119,110.7 
			124.1,110.5 125.3,112 127.2,112.2 128.1,113.8 130.2,112.5 130,110.7 128.7,109.4 130.7,108.1 132,108.8 132.7,106 134.7,106.3 
			136,107.6 137.6,108.8 135.9,109.8 136,111.1 137.3,113 138.9,111.4 139.3,107.1 136.4,104.6 132.1,103.6 128.1,106.3 
			123.5,105.9 121.7,103.6 120.1,105.2 119.9,107.9 		"/>
		<polygon fill-rule="evenodd" clip-rule="evenodd" fill="none" stroke="#4E4E5B" stroke-miterlimit="10" points="118.4,96.7 
			118.4,91.9 119.4,90.8 118.9,86.2 121.2,83.7 121,81.1 118,81.7 116.6,84 112.8,83.9 110.6,87 107.9,87 104.9,90 106.8,93.5 
			110.5,97.3 112.1,97.6 114.5,98.3 116,100.3 117.5,100.2 117.8,99.1 119,98.9 		"/>
		<polygon fill-rule="evenodd" clip-rule="evenodd" fill="none" stroke="#4E4E5B" stroke-miterlimit="10" points="121.7,103.6 
			119.4,100.9 119,98.9 117.8,99.1 117.5,100.2 116,100.3 114.5,98.3 112.1,97.6 110.5,97.3 110.9,100 110.2,101.9 112.4,104.5 
			114,103 115.8,105.5 118.1,106 118.3,108.8 119,110.7 119.9,107.9 120.1,105.2 		"/>
		<polygon fill-rule="evenodd" clip-rule="evenodd" fill="none" stroke="#4E4E5B" stroke-miterlimit="10" points="90.3,145.4 
			89.1,145.2 88.9,143.8 90.1,143.6 89.8,141.8 91.2,141.8 91.5,143.1 92.5,143.4 92.2,144.9 93.2,145.2 93,147 90.8,147.5 
			89.8,146.2 		"/>
		<polygon fill-rule="evenodd" clip-rule="evenodd" fill="none" stroke="#4E4E5B" stroke-miterlimit="10" points="93.9,144.3 
			94.1,146 95.4,145.2 		"/>
		<polygon fill-rule="evenodd" clip-rule="evenodd" fill="none" stroke="#4E4E5B" stroke-miterlimit="10" points="96.9,145.2 
			97,146.4 98.2,146.5 99.2,146 99,144.4 97.9,144.3 97.9,145.2 		"/>
	</g>
</g>
<circle fill-rule="evenodd" clip-rule="evenodd" fill="#009DDA" cx="147.8" cy="190.6" r="1.4"/>
<circle fill-rule="evenodd" clip-rule="evenodd" fill="#009DDA" cx="255.8" cy="235.6" r="1.4"/>
<circle fill-rule="evenodd" clip-rule="evenodd" fill="#009DDA" cx="166.2" cy="286" r="4.4"/>
<linearGradient id="SVGID_3_" gradientUnits="userSpaceOnUse" x1="176.6863" y1="285.6008" x2="213.2139" y2="285.6008">
	<stop  offset="0" style="stop-color:#009DDA"/>
	<stop  offset="0.1208" style="stop-color:#0494CE;stop-opacity:0.9192"/>
	<stop  offset="0.342" style="stop-color:#0E7BAD;stop-opacity:0.7711"/>
	<stop  offset="0.6365" style="stop-color:#1D5478;stop-opacity:0.574"/>
	<stop  offset="0.8964" style="stop-color:#2D2D43;stop-opacity:0.4"/>
</linearGradient>
<path fill-rule="evenodd" clip-rule="evenodd" fill="none" stroke="url(#SVGID_3_)" stroke-width="6" stroke-miterlimit="10" d="
	M211.9,287.6c0,0-13.9-6.9-34.5-1.8"/>
<linearGradient id="SVGID_4_" gradientUnits="userSpaceOnUse" x1="205.2339" y1="267.4527" x2="242.8461" y2="267.4527">
	<stop  offset="0.1439" style="stop-color:#293751;stop-opacity:0.4552"/>
	<stop  offset="0.1942" style="stop-color:#234564;stop-opacity:0.4872"/>
	<stop  offset="0.303" style="stop-color:#186088;stop-opacity:0.5564"/>
	<stop  offset="0.4178" style="stop-color:#1076A6;stop-opacity:0.6295"/>
	<stop  offset="0.5386" style="stop-color:#0987BD;stop-opacity:0.7064"/>
	<stop  offset="0.6679" style="stop-color:#0493CE;stop-opacity:0.7887"/>
	<stop  offset="0.8119" style="stop-color:#019BD7;stop-opacity:0.8803"/>
	<stop  offset="1" style="stop-color:#009DDA"/>
</linearGradient>
<path fill-rule="evenodd" clip-rule="evenodd" fill="none" stroke="url(#SVGID_4_)" stroke-width="11" stroke-miterlimit="10" d="
	M210.5,289c0,0,5.5-18.2,28.5-40.8"/>
<linearGradient id="SVGID_5_" gradientUnits="userSpaceOnUse" x1="146.8779" y1="244.9094" x2="213.7901" y2="244.9094">
	<stop  offset="0" style="stop-color:#009DDA"/>
	<stop  offset="0.1985" style="stop-color:#019BD8;stop-opacity:0.8684"/>
	<stop  offset="0.345" style="stop-color:#0494CE;stop-opacity:0.7713"/>
	<stop  offset="0.4748" style="stop-color:#0888BE;stop-opacity:0.6853"/>
	<stop  offset="0.5949" style="stop-color:#0F77A7;stop-opacity:0.6057"/>
	<stop  offset="0.7083" style="stop-color:#18628A;stop-opacity:0.5305"/>
	<stop  offset="0.8152" style="stop-color:#224867;stop-opacity:0.4597"/>
	<stop  offset="0.9053" style="stop-color:#2D2D43;stop-opacity:0.4"/>
</linearGradient>
<path fill-rule="evenodd" clip-rule="evenodd" fill="none" stroke="url(#SVGID_5_)" stroke-width="5" stroke-miterlimit="10" d="
	M149.4,199.5c6.8,55.6,63.2,89,63.2,89"/>
<polyline fill-rule="evenodd" clip-rule="evenodd" fill="none" stroke="#A5A7AA" stroke-miterlimit="10" points="212.5,288 
	212.5,297.5 235,297.5 "/>
<g>
	<path fill="#009DDA" d="M69.4,286c0-0.3-0.1-0.6-0.3-0.8s-0.6-0.4-1.2-0.6c-1-0.3-1.7-0.6-2.2-1s-0.8-1-0.8-1.6
		c0-0.7,0.3-1.3,0.9-1.7s1.3-0.7,2.2-0.7c0.9,0,1.7,0.2,2.3,0.7s0.9,1.1,0.8,1.9l0,0h-1.7c0-0.4-0.1-0.8-0.4-1s-0.6-0.3-1.1-0.3
		c-0.4,0-0.7,0.1-1,0.3s-0.3,0.5-0.3,0.8c0,0.3,0.1,0.5,0.4,0.7s0.7,0.4,1.3,0.6c0.9,0.3,1.7,0.6,2.1,1s0.7,1,0.7,1.7
		c0,0.7-0.3,1.3-0.9,1.7s-1.3,0.6-2.3,0.6c-0.9,0-1.7-0.2-2.4-0.7s-1-1.1-1-2l0,0h1.7c0,0.5,0.1,0.9,0.4,1.1s0.7,0.4,1.2,0.4
		c0.5,0,0.8-0.1,1-0.3S69.4,286.3,69.4,286z"/>
	<path fill="#009DDA" d="M76,288.2c-0.1-0.1-0.1-0.3-0.2-0.5s-0.1-0.3-0.1-0.5c-0.2,0.3-0.4,0.6-0.7,0.8s-0.6,0.3-1,0.3
		c-0.7,0-1.2-0.2-1.5-0.5s-0.5-0.8-0.5-1.4c0-0.6,0.2-1.1,0.7-1.4s1.2-0.5,2.1-0.5h1V284c0-0.3-0.1-0.5-0.2-0.7s-0.4-0.3-0.7-0.3
		c-0.3,0-0.5,0.1-0.6,0.2s-0.2,0.3-0.2,0.6h-1.6l0,0c0-0.5,0.2-1,0.7-1.4s1.1-0.6,1.9-0.6c0.8,0,1.4,0.2,1.8,0.6s0.7,0.9,0.7,1.6
		v2.6c0,0.3,0,0.6,0.1,0.8s0.1,0.5,0.2,0.8H76z M74.4,287.1c0.3,0,0.6-0.1,0.8-0.2s0.4-0.3,0.5-0.5v-0.9h-1c-0.4,0-0.6,0.1-0.8,0.3
		s-0.3,0.4-0.3,0.7c0,0.2,0.1,0.4,0.2,0.5S74.2,287.1,74.4,287.1z"/>
	<path fill="#009DDA" d="M80.3,281.9l0.1,0.9c0.2-0.3,0.5-0.6,0.8-0.8s0.7-0.3,1-0.3c0.6,0,1.1,0.2,1.5,0.6s0.5,1.1,0.5,2v3.9h-1.7
		v-3.9c0-0.5-0.1-0.8-0.2-1s-0.4-0.3-0.7-0.3c-0.3,0-0.5,0-0.7,0.1s-0.4,0.2-0.5,0.4v4.6h-1.7v-6.3H80.3z"/>
	<path fill="#009DDA" d="M87.5,280.4v1.6h1.1v1.2h-1.1v3.2c0,0.2,0.1,0.4,0.2,0.5s0.2,0.2,0.4,0.2c0.1,0,0.2,0,0.2,0s0.1,0,0.2,0
		l0.1,1.2c-0.2,0.1-0.3,0.1-0.5,0.1s-0.3,0-0.5,0c-0.6,0-1-0.2-1.4-0.5s-0.5-0.8-0.5-1.5v-3.2h-0.9v-1.2h0.9v-1.6H87.5z"/>
	<path fill="#009DDA" d="M91.5,280.4h-1.7v-1.3h1.7V280.4z M91.5,288.2h-1.7v-6.3h1.7V288.2z"/>
	<path fill="#009DDA" d="M96.6,288.2c-0.1-0.1-0.1-0.3-0.2-0.5s-0.1-0.3-0.1-0.5c-0.2,0.3-0.4,0.6-0.7,0.8s-0.6,0.3-1,0.3
		c-0.7,0-1.2-0.2-1.5-0.5s-0.5-0.8-0.5-1.4c0-0.6,0.2-1.1,0.7-1.4s1.2-0.5,2.1-0.5h1V284c0-0.3-0.1-0.5-0.2-0.7s-0.4-0.3-0.7-0.3
		c-0.3,0-0.5,0.1-0.6,0.2s-0.2,0.3-0.2,0.6h-1.6l0,0c0-0.5,0.2-1,0.7-1.4s1.1-0.6,1.9-0.6c0.8,0,1.4,0.2,1.8,0.6s0.7,0.9,0.7,1.6
		v2.6c0,0.3,0,0.6,0.1,0.8s0.1,0.5,0.2,0.8H96.6z M95,287.1c0.3,0,0.6-0.1,0.8-0.2s0.4-0.3,0.5-0.5v-0.9h-1c-0.4,0-0.6,0.1-0.8,0.3
		s-0.3,0.4-0.3,0.7c0,0.2,0.1,0.4,0.2,0.5S94.8,287.1,95,287.1z"/>
	<path fill="#009DDA" d="M99.1,285.1c0-1,0.2-1.8,0.7-2.4s1-0.9,1.8-0.9c0.4,0,0.7,0.1,0.9,0.2s0.5,0.4,0.7,0.7l0.1-0.8h1.5v6.3
		c0,0.8-0.3,1.5-0.8,1.9s-1.3,0.7-2.3,0.7c-0.3,0-0.7,0-1-0.1s-0.7-0.2-1-0.4l0.3-1.3c0.3,0.1,0.5,0.2,0.8,0.3s0.6,0.1,0.9,0.1
		c0.5,0,0.8-0.1,1-0.3s0.3-0.5,0.3-0.9v-0.6c-0.2,0.2-0.4,0.4-0.7,0.5s-0.5,0.2-0.9,0.2c-0.8,0-1.4-0.3-1.8-0.9s-0.7-1.3-0.7-2.3
		V285.1z M100.8,285.2c0,0.6,0.1,1,0.3,1.3s0.5,0.5,0.9,0.5c0.3,0,0.5,0,0.7-0.1s0.3-0.2,0.4-0.4v-2.7c-0.1-0.2-0.3-0.3-0.4-0.5
		s-0.4-0.2-0.7-0.2c-0.4,0-0.7,0.2-0.9,0.6s-0.3,0.9-0.3,1.5V285.2z"/>
	<path fill="#009DDA" d="M105.8,285c0-0.9,0.3-1.7,0.8-2.3s1.3-0.9,2.2-0.9c0.9,0,1.7,0.3,2.2,0.9s0.8,1.4,0.8,2.3v0.1
		c0,1-0.3,1.7-0.8,2.3s-1.3,0.9-2.2,0.9c-0.9,0-1.7-0.3-2.2-0.9s-0.8-1.4-0.8-2.3V285z M107.5,285.1c0,0.6,0.1,1,0.3,1.4
		s0.5,0.5,1,0.5c0.4,0,0.8-0.2,1-0.5s0.3-0.8,0.3-1.4V285c0-0.6-0.1-1-0.3-1.4s-0.5-0.5-1-0.5c-0.4,0-0.8,0.2-1,0.5
		s-0.3,0.8-0.3,1.4V285.1z"/>
	<path fill="#009DDA" d="M115.6,285.1c0-1,0.2-1.8,0.6-2.4s1-0.9,1.8-0.9c0.3,0,0.6,0.1,0.9,0.2s0.5,0.3,0.7,0.6v-3.5h1.7v9.1h-1.5
		l-0.1-0.8c-0.2,0.3-0.4,0.5-0.7,0.7s-0.6,0.2-0.9,0.2c-0.8,0-1.4-0.3-1.8-0.9s-0.6-1.3-0.6-2.3V285.1z M117.3,285.2
		c0,0.6,0.1,1,0.3,1.3s0.5,0.5,0.9,0.5c0.2,0,0.5,0,0.6-0.1s0.3-0.2,0.5-0.4v-2.7c-0.1-0.2-0.3-0.4-0.4-0.5s-0.4-0.2-0.6-0.2
		c-0.4,0-0.7,0.2-0.9,0.6s-0.3,0.9-0.3,1.5V285.2z"/>
	<path fill="#009DDA" d="M125.4,288.4c-0.9,0-1.7-0.3-2.2-0.9s-0.8-1.3-0.8-2.2V285c0-0.9,0.3-1.7,0.8-2.3s1.2-0.9,2.1-0.9
		c0.9,0,1.5,0.3,2,0.8s0.7,1.2,0.7,2.1v0.9h-3.8l0,0c0,0.4,0.2,0.8,0.4,1.1s0.6,0.4,1.1,0.4c0.4,0,0.7,0,1-0.1s0.5-0.2,0.8-0.4
		l0.5,1.1c-0.3,0.2-0.6,0.4-1,0.5S125.9,288.4,125.4,288.4z M125.2,283.1c-0.3,0-0.6,0.1-0.8,0.4s-0.3,0.5-0.3,0.9l0,0h2.1v-0.1
		c0-0.4-0.1-0.7-0.2-0.9S125.6,283.1,125.2,283.1z"/>
	<path fill="#009DDA" d="M138.4,285.4L138.4,285.4c0,0.9-0.2,1.7-0.8,2.2s-1.4,0.8-2.4,0.8c-1,0-1.8-0.3-2.5-1s-0.9-1.5-0.9-2.6
		v-1.7c0-1,0.3-1.9,0.9-2.6s1.4-1,2.4-1c1,0,1.9,0.3,2.4,0.8s0.9,1.2,0.9,2.1l0,0h-1.7c0-0.5-0.1-1-0.4-1.2s-0.7-0.4-1.2-0.4
		c-0.5,0-0.9,0.2-1.2,0.6s-0.4,0.9-0.4,1.6v1.7c0,0.7,0.2,1.2,0.5,1.6s0.7,0.6,1.3,0.6c0.5,0,0.9-0.1,1.1-0.4s0.4-0.7,0.4-1.2H138.4
		z"/>
	<path fill="#009DDA" d="M141.2,282.7c0.2-0.3,0.4-0.5,0.7-0.7s0.6-0.2,1-0.2c0.7,0,1.2,0.2,1.6,0.7s0.6,1.1,0.6,2v3.8h-1.7v-3.8
		c0-0.5-0.1-0.8-0.2-1s-0.4-0.3-0.7-0.3c-0.3,0-0.5,0-0.7,0.1s-0.4,0.2-0.5,0.4v4.6h-1.7v-9.1h1.7V282.7z"/>
	<path fill="#009DDA" d="M148.1,280.4h-1.7v-1.3h1.7V280.4z M148.1,288.2h-1.7v-6.3h1.7V288.2z"/>
	<path fill="#009DDA" d="M151.3,288.2h-1.7v-9.1h1.7V288.2z"/>
	<path fill="#009DDA" d="M155.4,288.4c-0.9,0-1.7-0.3-2.2-0.9s-0.8-1.3-0.8-2.2V285c0-0.9,0.3-1.7,0.8-2.3s1.2-0.9,2.1-0.9
		c0.9,0,1.5,0.3,2,0.8s0.7,1.2,0.7,2.1v0.9h-3.8l0,0c0,0.4,0.2,0.8,0.4,1.1s0.6,0.4,1.1,0.4c0.4,0,0.7,0,1-0.1s0.5-0.2,0.8-0.4
		l0.5,1.1c-0.3,0.2-0.6,0.4-1,0.5S156,288.4,155.4,288.4z M155.3,283.1c-0.3,0-0.6,0.1-0.8,0.4s-0.3,0.5-0.3,0.9l0,0h2.1v-0.1
		c0-0.4-0.1-0.7-0.2-0.9S155.7,283.1,155.3,283.1z"/>
	<path fill="#009DDA" d="M93.2,297.9c0.5,0,0.9-0.1,1.1-0.4s0.3-0.6,0.3-1.1c0-0.4-0.1-0.8-0.3-1s-0.6-0.4-1-0.4
		c-0.4,0-0.8,0.1-1.1,0.4s-0.4,0.6-0.4,1h-1.1l0,0c0-0.6,0.2-1.2,0.7-1.6s1.1-0.7,1.9-0.7c0.8,0,1.4,0.2,1.9,0.6s0.7,1,0.7,1.8
		c0,0.4-0.1,0.8-0.3,1.1s-0.5,0.6-0.9,0.8c0.4,0.2,0.8,0.4,1,0.8s0.3,0.8,0.3,1.3c0,0.8-0.2,1.4-0.7,1.8s-1.1,0.7-1.9,0.7
		c-0.7,0-1.4-0.2-1.9-0.6s-0.8-1-0.8-1.7l0,0h1.1c0,0.4,0.1,0.8,0.4,1s0.7,0.4,1.2,0.4c0.5,0,0.8-0.1,1.1-0.4s0.4-0.7,0.4-1.1
		c0-0.5-0.1-0.9-0.4-1.2s-0.6-0.4-1.2-0.4h-0.9v-0.9H93.2z"/>
	<path fill="#009DDA" d="M98.7,302.7h-1.2v-1.2h1.2V302.7z"/>
	<path fill="#009DDA" d="M103.2,297.9c0.5,0,0.9-0.1,1.1-0.4s0.3-0.6,0.3-1.1c0-0.4-0.1-0.8-0.3-1s-0.6-0.4-1-0.4
		c-0.4,0-0.8,0.1-1.1,0.4s-0.4,0.6-0.4,1h-1.1l0,0c0-0.6,0.2-1.2,0.7-1.6s1.1-0.7,1.9-0.7c0.8,0,1.4,0.2,1.9,0.6s0.7,1,0.7,1.8
		c0,0.4-0.1,0.8-0.3,1.1s-0.5,0.6-0.9,0.8c0.4,0.2,0.8,0.4,1,0.8s0.3,0.8,0.3,1.3c0,0.8-0.2,1.4-0.7,1.8s-1.1,0.7-1.9,0.7
		c-0.7,0-1.4-0.2-1.9-0.6s-0.8-1-0.8-1.7l0,0h1.1c0,0.4,0.1,0.8,0.4,1s0.7,0.4,1.2,0.4c0.5,0,0.8-0.1,1.1-0.4s0.4-0.7,0.4-1.1
		c0-0.5-0.1-0.9-0.4-1.2s-0.6-0.4-1.2-0.4h-0.9v-0.9H103.2z"/>
	<path fill="#009DDA" d="M112.5,296.4c0,0.4-0.1,0.8-0.4,1.2s-0.6,0.6-1,0.8c0.5,0.2,0.9,0.4,1.2,0.8s0.4,0.8,0.4,1.3
		c0,0.8-0.3,1.4-0.8,1.8s-1.2,0.6-1.9,0.6c-0.8,0-1.5-0.2-2-0.6s-0.8-1-0.8-1.8c0-0.5,0.1-0.9,0.4-1.3s0.7-0.6,1.2-0.8
		c-0.4-0.2-0.8-0.4-1-0.8s-0.4-0.7-0.4-1.2c0-0.7,0.2-1.3,0.7-1.7s1.1-0.6,1.9-0.6c0.7,0,1.3,0.2,1.8,0.6S112.5,295.6,112.5,296.4z
		 M111.6,300.3c0-0.5-0.2-0.8-0.5-1.1s-0.7-0.5-1.1-0.5c-0.5,0-0.9,0.2-1.2,0.5s-0.5,0.7-0.5,1.1c0,0.5,0.2,0.9,0.5,1.2
		s0.7,0.4,1.2,0.4c0.4,0,0.8-0.1,1.1-0.4S111.6,300.8,111.6,300.3z M111.3,296.4c0-0.4-0.1-0.7-0.4-1s-0.6-0.4-1-0.4
		c-0.4,0-0.8,0.1-1,0.4s-0.4,0.6-0.4,1c0,0.4,0.1,0.8,0.4,1.1s0.6,0.4,1,0.4c0.4,0,0.7-0.1,0.9-0.4S111.3,296.8,111.3,296.4z"/>
	<path fill="#009DDA" d="M114.3,298.9l0.5-4.7h4.3v1h-3.3l-0.3,2.5c0.2-0.1,0.4-0.2,0.6-0.3s0.5-0.1,0.8-0.1c0.8,0,1.4,0.2,1.9,0.7
		s0.7,1.2,0.7,2.1c0,0.9-0.2,1.5-0.7,2.1s-1.1,0.8-2,0.8c-0.7,0-1.3-0.2-1.8-0.6s-0.7-1-0.7-1.7l0,0h1c0,0.5,0.1,0.8,0.4,1.1
		s0.6,0.4,1,0.4c0.5,0,0.9-0.2,1.1-0.5s0.4-0.8,0.4-1.4c0-0.5-0.1-1-0.4-1.3s-0.6-0.5-1.1-0.5c-0.5,0-0.8,0.1-1,0.2
		s-0.4,0.3-0.5,0.6L114.3,298.9z"/>
	<path fill="#009DDA" d="M126,300.8l0.1,0.4h0l0.1-0.4l1.5-4.5h1.2l-2.3,6.3h-0.9l-2.4-6.3h1.2L126,300.8z"/>
	<path fill="#009DDA" d="M134,301.8c-0.2,0.3-0.5,0.6-0.8,0.8s-0.7,0.3-1.1,0.3c-0.7,0-1.2-0.2-1.6-0.7s-0.6-1.1-0.6-2.1v-3.7h1.2
		v3.8c0,0.7,0.1,1.1,0.3,1.4s0.5,0.4,0.9,0.4c0.4,0,0.7-0.1,1-0.2s0.5-0.4,0.6-0.7v-4.6h1.2v6.3h-1L134,301.8z"/>
	<path fill="#009DDA" d="M139.4,302.8c-0.9,0-1.6-0.3-2.1-0.9s-0.8-1.3-0.8-2.3v-0.3c0-0.9,0.3-1.7,0.8-2.3s1.2-0.9,1.9-0.9
		c0.8,0,1.5,0.3,1.9,0.8s0.6,1.2,0.6,2.1v0.6h-4.1l0,0c0,0.6,0.1,1.2,0.4,1.5s0.7,0.6,1.3,0.6c0.4,0,0.7-0.1,1-0.2s0.5-0.3,0.8-0.5
		l0.5,0.8c-0.2,0.2-0.5,0.4-0.9,0.6S139.9,302.8,139.4,302.8z M139.2,297.2c-0.4,0-0.7,0.2-1,0.5s-0.4,0.7-0.5,1.2l0,0h2.9v-0.1
		c0-0.5-0.1-0.8-0.3-1.1S139.7,297.2,139.2,297.2z"/>
	<path fill="#009DDA" d="M144.3,302.7h-1.2v-9.1h1.2V302.7z"/>
	<path fill="#009DDA" d="M145.8,299.5c0-0.9,0.3-1.7,0.8-2.3s1.2-0.9,2.1-0.9c0.9,0,1.6,0.3,2.1,0.9s0.8,1.4,0.8,2.3v0.1
		c0,0.9-0.3,1.7-0.8,2.3s-1.2,0.9-2.1,0.9s-1.6-0.3-2.1-0.9s-0.8-1.4-0.8-2.3V299.5z M146.9,299.6c0,0.7,0.1,1.2,0.4,1.7
		s0.7,0.7,1.3,0.7c0.6,0,1-0.2,1.3-0.7s0.4-1,0.4-1.7v-0.1c0-0.7-0.1-1.2-0.4-1.7s-0.7-0.7-1.3-0.7c-0.6,0-1,0.2-1.3,0.7
		s-0.4,1-0.4,1.7V299.6z"/>
	<path fill="#009DDA" d="M156.6,301c0-0.3-0.1-0.5-0.3-0.6s-0.6-0.3-1.1-0.4c-0.7-0.2-1.3-0.4-1.7-0.7s-0.6-0.7-0.6-1.2
		c0-0.5,0.2-1,0.7-1.3s1-0.6,1.7-0.6c0.7,0,1.3,0.2,1.7,0.6s0.7,0.8,0.6,1.4l0,0h-1.1c0-0.3-0.1-0.5-0.4-0.7s-0.5-0.3-0.9-0.3
		c-0.4,0-0.7,0.1-0.9,0.3s-0.3,0.4-0.3,0.7c0,0.2,0.1,0.4,0.3,0.6s0.5,0.3,1.1,0.4c0.8,0.2,1.4,0.4,1.8,0.7s0.6,0.7,0.6,1.2
		c0,0.6-0.2,1-0.7,1.4s-1,0.5-1.8,0.5c-0.8,0-1.4-0.2-1.9-0.6s-0.7-0.9-0.7-1.4l0,0h1.1c0,0.4,0.2,0.7,0.5,0.9s0.6,0.3,1,0.3
		c0.4,0,0.7-0.1,1-0.3S156.6,301.3,156.6,301z"/>
</g>
<g>
	<g>
		<path fill="#009DDA" d="M252,251.7c0-0.3-0.1-0.6-0.3-0.8s-0.6-0.4-1.2-0.6c-1-0.3-1.7-0.6-2.2-1s-0.8-1-0.8-1.6
			c0-0.7,0.3-1.3,0.9-1.7s1.3-0.7,2.2-0.7c0.9,0,1.7,0.2,2.3,0.7s0.9,1.1,0.8,1.9l0,0h-1.7c0-0.4-0.1-0.8-0.4-1s-0.6-0.3-1.1-0.3
			c-0.4,0-0.7,0.1-1,0.3s-0.3,0.5-0.3,0.8c0,0.3,0.1,0.5,0.4,0.7s0.7,0.4,1.3,0.6c0.9,0.3,1.7,0.6,2.1,1s0.7,1,0.7,1.7
			c0,0.7-0.3,1.3-0.9,1.7s-1.3,0.6-2.3,0.6c-0.9,0-1.7-0.2-2.4-0.7s-1-1.1-1-2l0,0h1.7c0,0.5,0.1,0.9,0.4,1.1s0.7,0.4,1.2,0.4
			c0.5,0,0.8-0.1,1-0.3S252,252.1,252,251.7z"/>
		<path fill="#009DDA" d="M258.5,254c-0.1-0.1-0.1-0.3-0.2-0.5s-0.1-0.3-0.1-0.5c-0.2,0.3-0.4,0.6-0.7,0.8s-0.6,0.3-1,0.3
			c-0.7,0-1.2-0.2-1.5-0.5s-0.5-0.8-0.5-1.4c0-0.6,0.2-1.1,0.7-1.4s1.2-0.5,2.1-0.5h1v-0.5c0-0.3-0.1-0.5-0.2-0.7s-0.4-0.3-0.7-0.3
			c-0.3,0-0.5,0.1-0.6,0.2s-0.2,0.3-0.2,0.6h-1.6l0,0c0-0.5,0.2-1,0.7-1.4s1.1-0.6,1.9-0.6c0.8,0,1.4,0.2,1.8,0.6s0.7,0.9,0.7,1.6
			v2.6c0,0.3,0,0.6,0.1,0.8s0.1,0.5,0.2,0.8H258.5z M257,252.8c0.3,0,0.6-0.1,0.8-0.2s0.4-0.3,0.5-0.5v-0.9h-1
			c-0.4,0-0.6,0.1-0.8,0.3s-0.3,0.4-0.3,0.7c0,0.2,0.1,0.4,0.2,0.5S256.7,252.8,257,252.8z"/>
		<path fill="#009DDA" d="M262.8,247.6l0.1,0.9c0.2-0.3,0.5-0.6,0.8-0.8s0.7-0.3,1-0.3c0.6,0,1.1,0.2,1.5,0.6s0.5,1.1,0.5,2v3.9H265
			v-3.9c0-0.5-0.1-0.8-0.2-1s-0.4-0.3-0.7-0.3c-0.3,0-0.5,0-0.7,0.1s-0.4,0.2-0.5,0.4v4.6h-1.7v-6.3H262.8z"/>
		<path fill="#009DDA" d="M272.9,250.9v3.1h-1.7v-8.5h3.3c1,0,1.8,0.2,2.3,0.8s0.8,1.2,0.8,2s-0.3,1.5-0.8,2s-1.3,0.7-2.3,0.7H272.9
			z M272.9,249.6h1.6c0.5,0,0.8-0.1,1.1-0.4s0.4-0.6,0.4-1c0-0.4-0.1-0.7-0.4-1s-0.6-0.4-1.1-0.4h-1.6V249.6z"/>
		<path fill="#009DDA" d="M282.3,254c-0.1-0.1-0.1-0.3-0.2-0.5s-0.1-0.3-0.1-0.5c-0.2,0.3-0.4,0.6-0.7,0.8s-0.6,0.3-1,0.3
			c-0.7,0-1.2-0.2-1.5-0.5s-0.5-0.8-0.5-1.4c0-0.6,0.2-1.1,0.7-1.4s1.2-0.5,2.1-0.5h1v-0.5c0-0.3-0.1-0.5-0.2-0.7s-0.4-0.3-0.7-0.3
			c-0.3,0-0.5,0.1-0.6,0.2s-0.2,0.3-0.2,0.6h-1.6l0,0c0-0.5,0.2-1,0.7-1.4s1.1-0.6,1.9-0.6c0.8,0,1.4,0.2,1.8,0.6s0.7,0.9,0.7,1.6
			v2.6c0,0.3,0,0.6,0.1,0.8s0.1,0.5,0.2,0.8H282.3z M280.8,252.8c0.3,0,0.6-0.1,0.8-0.2s0.4-0.3,0.5-0.5v-0.9h-1
			c-0.4,0-0.6,0.1-0.8,0.3s-0.3,0.4-0.3,0.7c0,0.2,0.1,0.4,0.2,0.5S280.5,252.8,280.8,252.8z"/>
		<path fill="#009DDA" d="M290.8,251c0,0.9-0.2,1.7-0.6,2.3s-1,0.8-1.8,0.8c-0.4,0-0.7-0.1-1-0.2s-0.5-0.4-0.7-0.7l-0.1,0.8H285
			v-9.1h1.7v3.5c0.2-0.3,0.4-0.4,0.7-0.6s0.5-0.2,0.9-0.2c0.8,0,1.4,0.3,1.8,0.9s0.6,1.4,0.6,2.4V251z M289.1,250.8
			c0-0.6-0.1-1.1-0.3-1.5s-0.5-0.5-0.9-0.5c-0.3,0-0.5,0.1-0.7,0.2s-0.3,0.3-0.4,0.5v2.7c0.1,0.2,0.3,0.3,0.4,0.4s0.4,0.2,0.7,0.2
			c0.4,0,0.8-0.2,0.9-0.5s0.3-0.8,0.3-1.3V250.8z"/>
		<path fill="#009DDA" d="M293.6,254h-1.7v-9.1h1.7V254z"/>
		<path fill="#009DDA" d="M294.8,250.7c0-0.9,0.3-1.7,0.8-2.3s1.3-0.9,2.2-0.9c0.9,0,1.7,0.3,2.2,0.9s0.8,1.4,0.8,2.3v0.1
			c0,1-0.3,1.7-0.8,2.3s-1.3,0.9-2.2,0.9c-0.9,0-1.7-0.3-2.2-0.9s-0.8-1.4-0.8-2.3V250.7z M296.5,250.9c0,0.6,0.1,1,0.3,1.4
			s0.5,0.5,1,0.5c0.4,0,0.8-0.2,1-0.5s0.3-0.8,0.3-1.4v-0.1c0-0.6-0.1-1-0.3-1.4s-0.5-0.5-1-0.5c-0.4,0-0.8,0.2-1,0.5
			s-0.3,0.8-0.3,1.4V250.9z"/>
		<path fill="#009DDA" d="M305.7,254.7H304l3.1-9.3h1.7L305.7,254.7z"/>
		<path fill="#009DDA" d="M317.2,251.1h1.2v0.9h-1.2v2H316v-2h-3.7v-0.7l3.6-5.9h1.2V251.1z M313.6,251.1h2.4v-4l0,0l-0.1,0.3
			L313.6,251.1z"/>
		<path fill="#009DDA" d="M320.8,254h-1.2v-1.2h1.2V254z"/>
		<path fill="#009DDA" d="M328,251c0,1-0.2,1.7-0.7,2.3s-1.1,0.8-2,0.8c-0.8,0-1.5-0.3-2-0.8s-0.7-1.3-0.7-2.3v-2.5
			c0-1,0.2-1.7,0.7-2.3s1.1-0.8,2-0.8c0.8,0,1.5,0.3,2,0.8s0.7,1.3,0.7,2.3V251z M326.9,248.2c0-0.6-0.1-1.1-0.4-1.5
			s-0.7-0.5-1.2-0.5c-0.5,0-0.9,0.2-1.1,0.5s-0.4,0.8-0.4,1.5v3c0,0.6,0.1,1.1,0.4,1.5s0.7,0.5,1.2,0.5c0.5,0,0.9-0.2,1.2-0.5
			s0.4-0.8,0.4-1.5V248.2z"/>
		<path fill="#009DDA" d="M334.8,251c0,1-0.2,1.7-0.7,2.3s-1.1,0.8-2,0.8c-0.8,0-1.5-0.3-2-0.8s-0.7-1.3-0.7-2.3v-2.5
			c0-1,0.2-1.7,0.7-2.3s1.1-0.8,2-0.8c0.8,0,1.5,0.3,2,0.8s0.7,1.3,0.7,2.3V251z M333.6,248.2c0-0.6-0.1-1.1-0.4-1.5
			s-0.7-0.5-1.2-0.5c-0.5,0-0.9,0.2-1.1,0.5s-0.4,0.8-0.4,1.5v3c0,0.6,0.1,1.1,0.4,1.5s0.7,0.5,1.2,0.5c0.5,0,0.9-0.2,1.2-0.5
			s0.4-0.8,0.4-1.5V248.2z"/>
		<path fill="#009DDA" d="M341.7,246.3c-1.1,1.3-1.8,2.4-2.2,3.4s-0.6,2.1-0.6,3.3v0.9h-1.2V253c0-1.3,0.2-2.5,0.7-3.5
			s1.2-2.1,2.1-3.2H336v-0.9h5.7V246.3z"/>
		<path fill="#009DDA" d="M348.1,252.1l0.1,0.4h0l0.1-0.4l1.5-4.5h1.2l-2.3,6.3h-0.9l-2.4-6.3h1.2L348.1,252.1z"/>
		<path fill="#009DDA" d="M356.1,253c-0.2,0.3-0.5,0.6-0.8,0.8s-0.7,0.3-1.1,0.3c-0.7,0-1.2-0.2-1.6-0.7s-0.6-1.1-0.6-2.1v-3.7h1.2
			v3.8c0,0.7,0.1,1.1,0.3,1.4s0.5,0.4,0.9,0.4c0.4,0,0.7-0.1,1-0.2s0.5-0.4,0.6-0.7v-4.6h1.2v6.3h-1L356.1,253z"/>
		<path fill="#009DDA" d="M361.5,254.1c-0.9,0-1.6-0.3-2.1-0.9s-0.8-1.3-0.8-2.3v-0.3c0-0.9,0.3-1.7,0.8-2.3s1.2-0.9,1.9-0.9
			c0.8,0,1.5,0.3,1.9,0.8s0.6,1.2,0.6,2.1v0.6h-4.1l0,0c0,0.6,0.1,1.2,0.4,1.5s0.7,0.6,1.3,0.6c0.4,0,0.7-0.1,1-0.2s0.5-0.3,0.8-0.5
			l0.5,0.8c-0.2,0.2-0.5,0.4-0.9,0.6S362,254.1,361.5,254.1z M361.3,248.4c-0.4,0-0.7,0.2-1,0.5s-0.4,0.7-0.5,1.2l0,0h2.9V250
			c0-0.5-0.1-0.8-0.3-1.1S361.8,248.4,361.3,248.4z"/>
		<path fill="#009DDA" d="M366.4,254h-1.2v-9.1h1.2V254z"/>
		<path fill="#009DDA" d="M367.9,250.7c0-0.9,0.3-1.7,0.8-2.3s1.2-0.9,2.1-0.9c0.9,0,1.6,0.3,2.1,0.9s0.8,1.4,0.8,2.3v0.1
			c0,0.9-0.3,1.7-0.8,2.3s-1.2,0.9-2.1,0.9s-1.6-0.3-2.1-0.9s-0.8-1.4-0.8-2.3V250.7z M369,250.9c0,0.7,0.1,1.2,0.4,1.7
			s0.7,0.7,1.3,0.7c0.6,0,1-0.2,1.3-0.7s0.4-1,0.4-1.7v-0.1c0-0.7-0.1-1.2-0.4-1.7s-0.7-0.7-1.3-0.7c-0.6,0-1,0.2-1.3,0.7
			s-0.4,1-0.4,1.7V250.9z"/>
		<path fill="#009DDA" d="M378.7,252.3c0-0.3-0.1-0.5-0.3-0.6s-0.6-0.3-1.1-0.4c-0.7-0.2-1.3-0.4-1.7-0.7s-0.6-0.7-0.6-1.2
			c0-0.5,0.2-1,0.7-1.3s1-0.6,1.7-0.6c0.7,0,1.3,0.2,1.7,0.6s0.7,0.8,0.6,1.4l0,0h-1.1c0-0.3-0.1-0.5-0.4-0.7s-0.5-0.3-0.9-0.3
			c-0.4,0-0.7,0.1-0.9,0.3s-0.3,0.4-0.3,0.7c0,0.2,0.1,0.4,0.3,0.6s0.5,0.3,1.1,0.4c0.8,0.2,1.4,0.4,1.8,0.7s0.6,0.7,0.6,1.2
			c0,0.6-0.2,1-0.7,1.4s-1,0.5-1.8,0.5c-0.8,0-1.4-0.2-1.9-0.6s-0.7-0.9-0.7-1.4l0,0h1.1c0,0.4,0.2,0.7,0.5,0.9s0.6,0.3,1,0.3
			c0.4,0,0.7-0.1,1-0.3S378.7,252.5,378.7,252.3z"/>
	</g>
</g>
<g>
	<g>
		<path fill="#009DDA" d="M262.1,234.4v3.4h-1.7v-8.5h3c1,0,1.7,0.2,2.3,0.7s0.8,1.1,0.8,1.9c0,0.4-0.1,0.8-0.3,1.1s-0.6,0.6-1,0.8
			c0.5,0.1,0.9,0.4,1.1,0.7s0.3,0.8,0.3,1.3v0.6c0,0.2,0,0.5,0.1,0.7s0.2,0.5,0.3,0.6v0.1h-1.8c-0.2-0.1-0.3-0.3-0.3-0.6
			s-0.1-0.6-0.1-0.8v-0.6c0-0.4-0.1-0.8-0.3-1s-0.6-0.4-1-0.4H262.1z M262.1,233.1h1.2c0.5,0,0.8-0.1,1.1-0.3s0.4-0.5,0.4-0.9
			c0-0.4-0.1-0.7-0.4-0.9s-0.6-0.3-1-0.3h-1.2V233.1z"/>
		<path fill="#009DDA" d="M269.8,237.8h-1.7v-6.3h1.7V237.8z M269.3,228.9h1.9l0,0l-1.6,1.5h-1.5L269.3,228.9z"/>
		<path fill="#009DDA" d="M271,234.6c0-0.9,0.3-1.7,0.8-2.3s1.3-0.9,2.2-0.9c0.9,0,1.7,0.3,2.2,0.9s0.8,1.4,0.8,2.3v0.1
			c0,1-0.3,1.7-0.8,2.3s-1.3,0.9-2.2,0.9c-0.9,0-1.7-0.3-2.2-0.9s-0.8-1.4-0.8-2.3V234.6z M272.7,234.7c0,0.6,0.1,1,0.3,1.4
			s0.5,0.5,1,0.5c0.4,0,0.8-0.2,1-0.5s0.3-0.8,0.3-1.4v-0.1c0-0.6-0.1-1-0.3-1.4s-0.5-0.5-1-0.5c-0.4,0-0.8,0.2-1,0.5
			s-0.3,0.8-0.3,1.4V234.7z"/>
		<path fill="#009DDA" d="M280.7,234.7c0-1,0.2-1.8,0.6-2.4s1-0.9,1.8-0.9c0.3,0,0.6,0.1,0.9,0.2s0.5,0.3,0.7,0.6v-3.5h1.7v9.1H285
			l-0.1-0.8c-0.2,0.3-0.4,0.5-0.7,0.7s-0.6,0.2-0.9,0.2c-0.8,0-1.4-0.3-1.8-0.9s-0.6-1.3-0.6-2.3V234.7z M282.4,234.8
			c0,0.6,0.1,1,0.3,1.3s0.5,0.5,0.9,0.5c0.2,0,0.5,0,0.6-0.1s0.3-0.2,0.5-0.4v-2.7c-0.1-0.2-0.3-0.4-0.4-0.5s-0.4-0.2-0.6-0.2
			c-0.4,0-0.7,0.2-0.9,0.6s-0.3,0.9-0.3,1.5V234.8z"/>
		<path fill="#009DDA" d="M290.5,237.9c-0.9,0-1.7-0.3-2.2-0.9s-0.8-1.3-0.8-2.2v-0.2c0-0.9,0.3-1.7,0.8-2.3s1.2-0.9,2.1-0.9
			c0.9,0,1.5,0.3,2,0.8s0.7,1.2,0.7,2.1v0.9h-3.8l0,0c0,0.4,0.2,0.8,0.4,1.1s0.6,0.4,1.1,0.4c0.4,0,0.7,0,1-0.1s0.5-0.2,0.8-0.4
			l0.5,1.1c-0.3,0.2-0.6,0.4-1,0.5S291,237.9,290.5,237.9z M290.4,232.7c-0.3,0-0.6,0.1-0.8,0.4s-0.3,0.5-0.3,0.9l0,0h2.1v-0.1
			c0-0.4-0.1-0.7-0.2-0.9S290.8,232.7,290.4,232.7z"/>
		<path fill="#009DDA" d="M300.6,229.3h1.7v5.9c0,0.8-0.3,1.5-0.8,2s-1.2,0.8-2,0.8c-0.9,0-1.6-0.2-2.1-0.7s-0.8-1.1-0.8-1.9l0,0
			h1.7c0,0.5,0.1,0.8,0.3,1s0.5,0.3,0.9,0.3c0.3,0,0.6-0.1,0.8-0.4s0.3-0.6,0.3-1.1V229.3z"/>
		<path fill="#009DDA" d="M307.4,237.8c-0.1-0.1-0.1-0.3-0.2-0.5s-0.1-0.3-0.1-0.5c-0.2,0.3-0.4,0.6-0.7,0.8s-0.6,0.3-1,0.3
			c-0.7,0-1.2-0.2-1.5-0.5s-0.5-0.8-0.5-1.4c0-0.6,0.2-1.1,0.7-1.4s1.2-0.5,2.1-0.5h1v-0.5c0-0.3-0.1-0.5-0.2-0.7s-0.4-0.3-0.7-0.3
			c-0.3,0-0.5,0.1-0.6,0.2s-0.2,0.3-0.2,0.6h-1.6l0,0c0-0.5,0.2-1,0.7-1.4s1.1-0.6,1.9-0.6c0.8,0,1.4,0.2,1.8,0.6s0.7,0.9,0.7,1.6
			v2.6c0,0.3,0,0.6,0.1,0.8s0.1,0.5,0.2,0.8H307.4z M305.9,236.7c0.3,0,0.6-0.1,0.8-0.2s0.4-0.3,0.5-0.5V235h-1
			c-0.4,0-0.6,0.1-0.8,0.3s-0.3,0.4-0.3,0.7c0,0.2,0.1,0.4,0.2,0.5S305.6,236.7,305.9,236.7z"/>
		<path fill="#009DDA" d="M311.7,231.5l0.1,0.9c0.2-0.3,0.5-0.6,0.8-0.8s0.7-0.3,1-0.3c0.6,0,1.1,0.2,1.5,0.6s0.5,1.1,0.5,2v3.9
			h-1.7v-3.9c0-0.5-0.1-0.8-0.2-1s-0.4-0.3-0.7-0.3c-0.3,0-0.5,0-0.7,0.1s-0.4,0.2-0.5,0.4v4.6h-1.7v-6.3H311.7z"/>
		<path fill="#009DDA" d="M319.7,237.9c-0.9,0-1.7-0.3-2.2-0.9s-0.8-1.3-0.8-2.2v-0.2c0-0.9,0.3-1.7,0.8-2.3s1.2-0.9,2.1-0.9
			c0.9,0,1.5,0.3,2,0.8s0.7,1.2,0.7,2.1v0.9h-3.8l0,0c0,0.4,0.2,0.8,0.4,1.1s0.6,0.4,1.1,0.4c0.4,0,0.7,0,1-0.1s0.5-0.2,0.8-0.4
			l0.5,1.1c-0.3,0.2-0.6,0.4-1,0.5S320.2,237.9,319.7,237.9z M319.6,232.7c-0.3,0-0.6,0.1-0.8,0.4s-0.3,0.5-0.3,0.9l0,0h2.1v-0.1
			c0-0.4-0.1-0.7-0.2-0.9S319.9,232.7,319.6,232.7z"/>
		<path fill="#009DDA" d="M325,229.9h-1.7v-1.3h1.7V229.9z M325,237.8h-1.7v-6.3h1.7V237.8z"/>
		<path fill="#009DDA" d="M329.7,232.9l-0.6,0c-0.3,0-0.5,0.1-0.6,0.2s-0.3,0.3-0.4,0.4v4.3h-1.7v-6.3h1.6l0.1,0.9
			c0.1-0.3,0.3-0.6,0.6-0.8s0.5-0.3,0.8-0.3c0.1,0,0.2,0,0.2,0s0.1,0,0.2,0L329.7,232.9z"/>
		<path fill="#009DDA" d="M330.2,234.6c0-0.9,0.3-1.7,0.8-2.3s1.3-0.9,2.2-0.9c0.9,0,1.7,0.3,2.2,0.9s0.8,1.4,0.8,2.3v0.1
			c0,1-0.3,1.7-0.8,2.3s-1.3,0.9-2.2,0.9c-0.9,0-1.7-0.3-2.2-0.9s-0.8-1.4-0.8-2.3V234.6z M332,234.7c0,0.6,0.1,1,0.3,1.4
			s0.5,0.5,1,0.5c0.4,0,0.8-0.2,1-0.5s0.3-0.8,0.3-1.4v-0.1c0-0.6-0.1-1-0.3-1.4s-0.5-0.5-1-0.5c-0.4,0-0.8,0.2-1,0.5
			s-0.3,0.8-0.3,1.4V234.7z"/>
		<path fill="#009DDA" d="M341.2,238.5h-1.7l3.1-9.3h1.7L341.2,238.5z"/>
		<path fill="#009DDA" d="M353.6,237.8h-5.3V237l2.7-3.2c0.5-0.6,0.8-1,1-1.4s0.3-0.7,0.3-1c0-0.4-0.1-0.7-0.3-1s-0.5-0.4-1-0.4
			c-0.5,0-0.9,0.2-1.2,0.5s-0.4,0.7-0.4,1.2h-1.1l0,0c0-0.7,0.2-1.3,0.7-1.8s1.1-0.7,2-0.7c0.8,0,1.4,0.2,1.8,0.6s0.7,1,0.7,1.6
			c0,0.4-0.1,0.9-0.4,1.3s-0.6,1-1.1,1.6l-2.2,2.5l0,0h3.9V237.8z"/>
		<path fill="#009DDA" d="M356.3,237.8h-1.2v-1.2h1.2V237.8z"/>
		<path fill="#009DDA" d="M363.5,234.8c0,1-0.2,1.7-0.7,2.3s-1.2,0.8-2,0.8c-0.8,0-1.5-0.3-2-0.8s-0.7-1.3-0.7-2.3v-2.5
			c0-1,0.2-1.7,0.7-2.3s1.1-0.8,2-0.8c0.8,0,1.5,0.3,2,0.8s0.7,1.3,0.7,2.3V234.8z M362.3,232c0-0.6-0.1-1.1-0.4-1.5
			s-0.7-0.5-1.2-0.5c-0.5,0-0.9,0.2-1.1,0.5s-0.4,0.8-0.4,1.5v3c0,0.6,0.1,1.1,0.4,1.5s0.7,0.5,1.2,0.5c0.5,0,0.9-0.2,1.2-0.5
			s0.4-0.8,0.4-1.5V232z"/>
		<path fill="#009DDA" d="M370.3,237.8H365V237l2.7-3.2c0.5-0.6,0.8-1,1-1.4s0.3-0.7,0.3-1c0-0.4-0.1-0.7-0.3-1s-0.5-0.4-1-0.4
			c-0.5,0-0.9,0.2-1.2,0.5s-0.4,0.7-0.4,1.2H365l0,0c0-0.7,0.2-1.3,0.7-1.8s1.1-0.7,2-0.7c0.8,0,1.4,0.2,1.8,0.6s0.7,1,0.7,1.6
			c0,0.4-0.1,0.9-0.4,1.3s-0.6,1-1.1,1.6l-2.2,2.5l0,0h3.9V237.8z"/>
		<path fill="#009DDA" d="M374.3,232.9c0.5,0,0.9-0.1,1.1-0.4s0.3-0.6,0.3-1.1c0-0.4-0.1-0.8-0.3-1s-0.6-0.4-1-0.4
			c-0.4,0-0.8,0.1-1.1,0.4s-0.4,0.6-0.4,1h-1.1l0,0c0-0.6,0.2-1.2,0.7-1.6s1.1-0.7,1.9-0.7c0.8,0,1.4,0.2,1.9,0.6s0.7,1,0.7,1.8
			c0,0.4-0.1,0.8-0.3,1.1s-0.5,0.6-0.9,0.8c0.4,0.2,0.8,0.4,1,0.8s0.3,0.8,0.3,1.3c0,0.8-0.2,1.4-0.7,1.8s-1.1,0.7-1.9,0.7
			c-0.7,0-1.4-0.2-1.9-0.6s-0.8-1-0.8-1.7l0,0h1.1c0,0.4,0.2,0.8,0.4,1s0.7,0.4,1.2,0.4c0.5,0,0.8-0.1,1.1-0.4s0.4-0.7,0.4-1.1
			c0-0.5-0.1-0.9-0.4-1.2s-0.6-0.4-1.2-0.4h-0.9v-0.9H374.3z"/>
		<path fill="#009DDA" d="M383.6,235.9l0.1,0.4h0l0.1-0.4l1.5-4.5h1.2l-2.3,6.3h-0.9l-2.4-6.3h1.2L383.6,235.9z"/>
		<path fill="#009DDA" d="M391.6,236.9c-0.2,0.3-0.5,0.6-0.8,0.8s-0.7,0.3-1.1,0.3c-0.7,0-1.2-0.2-1.6-0.7s-0.6-1.1-0.6-2.1v-3.7
			h1.2v3.8c0,0.7,0.1,1.1,0.3,1.4s0.5,0.4,0.9,0.4c0.4,0,0.8-0.1,1-0.2s0.5-0.4,0.6-0.7v-4.6h1.2v6.3h-1L391.6,236.9z"/>
		<path fill="#009DDA" d="M397,237.9c-0.9,0-1.6-0.3-2.1-0.9s-0.8-1.3-0.8-2.3v-0.3c0-0.9,0.3-1.7,0.8-2.3s1.2-0.9,1.9-0.9
			c0.8,0,1.5,0.3,1.9,0.8s0.6,1.2,0.6,2.1v0.6h-4.1l0,0c0,0.6,0.1,1.2,0.4,1.5s0.7,0.6,1.3,0.6c0.4,0,0.7-0.1,1-0.2s0.5-0.3,0.8-0.5
			l0.5,0.8c-0.2,0.2-0.5,0.4-0.9,0.6S397.5,237.9,397,237.9z M396.8,232.2c-0.4,0-0.7,0.2-1,0.5s-0.4,0.7-0.5,1.2l0,0h2.9v-0.1
			c0-0.5-0.1-0.8-0.3-1.1S397.3,232.2,396.8,232.2z"/>
		<path fill="#009DDA" d="M401.9,237.8h-1.2v-9.1h1.2V237.8z"/>
		<path fill="#009DDA" d="M403.4,234.6c0-0.9,0.3-1.7,0.8-2.3s1.2-0.9,2.1-0.9c0.9,0,1.6,0.3,2.1,0.9s0.8,1.4,0.8,2.3v0.1
			c0,0.9-0.3,1.7-0.8,2.3s-1.2,0.9-2.1,0.9s-1.6-0.3-2.1-0.9s-0.8-1.4-0.8-2.3V234.6z M404.5,234.7c0,0.7,0.1,1.2,0.4,1.7
			s0.7,0.7,1.3,0.7c0.6,0,1-0.2,1.3-0.7s0.4-1,0.4-1.7v-0.1c0-0.7-0.1-1.2-0.4-1.7s-0.7-0.7-1.3-0.7c-0.6,0-1,0.2-1.2,0.7
			s-0.4,1-0.4,1.7V234.7z"/>
		<path fill="#009DDA" d="M414.2,236.1c0-0.3-0.1-0.5-0.3-0.6s-0.6-0.3-1.1-0.4c-0.7-0.2-1.3-0.4-1.7-0.7s-0.6-0.7-0.6-1.2
			c0-0.5,0.2-1,0.7-1.3s1-0.6,1.7-0.6c0.7,0,1.3,0.2,1.7,0.6s0.7,0.8,0.6,1.4l0,0h-1.1c0-0.3-0.1-0.5-0.4-0.7s-0.5-0.3-0.9-0.3
			c-0.4,0-0.7,0.1-0.9,0.3s-0.3,0.4-0.3,0.7c0,0.2,0.1,0.4,0.3,0.6s0.5,0.3,1.1,0.4c0.8,0.2,1.4,0.4,1.8,0.7s0.6,0.7,0.6,1.2
			c0,0.6-0.2,1-0.7,1.4s-1.1,0.5-1.8,0.5c-0.8,0-1.4-0.2-1.9-0.6s-0.7-0.9-0.7-1.4l0,0h1.1c0,0.4,0.2,0.7,0.5,0.9s0.6,0.3,1,0.3
			c0.4,0,0.7-0.1,1-0.3S414.2,236.4,414.2,236.1z"/>
	</g>
</g>
<g>
	<path fill="#009DDA" d="M159.2,34.6L159.2,34.6l2.2-6.3h2.2v8.5H162V31l0,0l-2.1,5.8h-1.2l-2.1-5.8l0,0v5.8h-1.7v-8.5h2.2
		L159.2,34.6z"/>
	<path fill="#009DDA" d="M166.9,29h-1.7v-1.3h1.7V29z M166.9,36.8h-1.7v-6.3h1.7V36.8z"/>
	<path fill="#009DDA" d="M172.1,36.8c-0.1-0.1-0.1-0.3-0.2-0.5s-0.1-0.3-0.1-0.5c-0.2,0.3-0.4,0.6-0.7,0.8s-0.6,0.3-1,0.3
		c-0.7,0-1.2-0.2-1.5-0.5S168,35.6,168,35c0-0.6,0.2-1.1,0.7-1.4s1.2-0.5,2.1-0.5h1v-0.5c0-0.3-0.1-0.5-0.2-0.7s-0.4-0.3-0.7-0.3
		c-0.3,0-0.5,0.1-0.6,0.2s-0.2,0.3-0.2,0.6h-1.6l0,0c0-0.5,0.2-1,0.7-1.4s1.1-0.6,1.9-0.6c0.8,0,1.4,0.2,1.8,0.6s0.7,0.9,0.7,1.6
		v2.6c0,0.3,0,0.6,0.1,0.8s0.1,0.5,0.2,0.8H172.1z M170.5,35.7c0.3,0,0.6-0.1,0.8-0.2s0.4-0.3,0.5-0.5V34h-1c-0.4,0-0.6,0.1-0.8,0.3
		s-0.3,0.4-0.3,0.7c0,0.2,0.1,0.4,0.2,0.5S170.3,35.7,170.5,35.7z"/>
	<path fill="#009DDA" d="M176.4,30.5l0.1,0.8c0.2-0.3,0.5-0.5,0.8-0.7s0.7-0.2,1.1-0.2c0.4,0,0.8,0.1,1,0.3s0.5,0.5,0.7,0.8
		c0.2-0.3,0.4-0.6,0.8-0.8s0.7-0.3,1.1-0.3c0.6,0,1.1,0.2,1.5,0.7s0.5,1.1,0.5,2v3.8h-1.7V33c0-0.5-0.1-0.9-0.2-1.1
		s-0.4-0.3-0.7-0.3c-0.2,0-0.5,0.1-0.6,0.2s-0.3,0.3-0.4,0.4c0,0.1,0,0.1,0,0.2s0,0.1,0,0.2v4.2h-1.7V33c0-0.5-0.1-0.8-0.2-1.1
		s-0.4-0.3-0.7-0.3c-0.2,0-0.4,0-0.6,0.1s-0.3,0.2-0.4,0.4v4.6h-1.7v-6.3H176.4z"/>
	<path fill="#009DDA" d="M187,29h-1.7v-1.3h1.7V29z M187,36.8h-1.7v-6.3h1.7V36.8z"/>
	<path fill="#009DDA" d="M160.2,51.3h-5.3v-0.8l2.7-3.2c0.5-0.6,0.8-1,1-1.4s0.3-0.7,0.3-1c0-0.4-0.1-0.7-0.3-1s-0.5-0.4-1-0.4
		c-0.5,0-0.9,0.2-1.2,0.5s-0.4,0.7-0.4,1.2h-1.1l0,0c0-0.7,0.2-1.3,0.7-1.8s1.1-0.7,2-0.7c0.8,0,1.4,0.2,1.8,0.6s0.7,1,0.7,1.6
		c0,0.4-0.1,0.9-0.4,1.3s-0.6,1-1.1,1.6l-2.2,2.5l0,0h3.9V51.3z"/>
	<path fill="#009DDA" d="M162.9,51.3h-1.2v-1.2h1.2V51.3z"/>
	<path fill="#009DDA" d="M170.1,48.3c0,1-0.2,1.7-0.7,2.3s-1.1,0.8-2,0.8c-0.8,0-1.5-0.3-2-0.8s-0.7-1.3-0.7-2.3v-2.5
		c0-1,0.2-1.7,0.7-2.3s1.1-0.8,2-0.8c0.8,0,1.5,0.3,2,0.8s0.7,1.3,0.7,2.3V48.3z M169,45.5c0-0.6-0.1-1.1-0.4-1.5s-0.7-0.5-1.2-0.5
		c-0.5,0-0.9,0.2-1.1,0.5s-0.4,0.8-0.4,1.5v3c0,0.6,0.1,1.1,0.4,1.5s0.7,0.5,1.2,0.5c0.5,0,0.9-0.2,1.2-0.5s0.4-0.8,0.4-1.5V45.5z"
		/>
	<path fill="#009DDA" d="M174.5,42.6c0.3,0,0.7,0,1,0.1s0.6,0.2,0.8,0.3l-0.2,0.9c-0.2-0.1-0.5-0.2-0.7-0.2s-0.5-0.1-0.9-0.1
		c-0.5,0-1,0.2-1.3,0.7s-0.5,1-0.5,1.7v0.7c0.2-0.2,0.5-0.4,0.8-0.6s0.7-0.2,1.1-0.2c0.7,0,1.3,0.2,1.7,0.7s0.6,1.1,0.6,1.9
		c0,0.9-0.2,1.6-0.7,2.1s-1.1,0.8-1.9,0.8c-0.8,0-1.4-0.3-2-0.9s-0.8-1.4-0.8-2.5v-2c0-1,0.3-1.8,0.9-2.5S173.7,42.6,174.5,42.6z
		 M174.2,46.7c-0.4,0-0.7,0.1-0.9,0.2s-0.5,0.4-0.6,0.6v0.6c0,0.7,0.2,1.3,0.5,1.7s0.7,0.6,1.2,0.6c0.5,0,0.9-0.2,1.1-0.5
		s0.4-0.8,0.4-1.4c0-0.6-0.1-1-0.4-1.3S174.8,46.7,174.2,46.7z"/>
	<path fill="#009DDA" d="M183.8,43.6c-1.1,1.3-1.8,2.4-2.2,3.4s-0.6,2.1-0.6,3.3v0.9h-1.2v-0.9c0-1.3,0.2-2.5,0.7-3.5
		s1.2-2.1,2.1-3.2h-4.5v-0.9h5.7V43.6z"/>
	<path fill="#009DDA" d="M190.2,49.4l0.1,0.4h0l0.1-0.4l1.5-4.5h1.2l-2.3,6.3h-0.9l-2.4-6.3h1.2L190.2,49.4z"/>
	<path fill="#009DDA" d="M198.2,50.3c-0.2,0.3-0.5,0.6-0.8,0.8s-0.7,0.3-1.1,0.3c-0.7,0-1.2-0.2-1.6-0.7s-0.6-1.1-0.6-2.1v-3.7h1.2
		v3.8c0,0.7,0.1,1.1,0.3,1.4s0.5,0.4,0.9,0.4c0.4,0,0.7-0.1,1-0.2s0.5-0.4,0.6-0.7v-4.6h1.2v6.3h-1L198.2,50.3z"/>
	<path fill="#009DDA" d="M203.6,51.4c-0.9,0-1.6-0.3-2.1-0.9s-0.8-1.3-0.8-2.3V48c0-0.9,0.3-1.7,0.8-2.3s1.2-0.9,1.9-0.9
		c0.8,0,1.5,0.3,1.9,0.8s0.6,1.2,0.6,2.1v0.6h-4.1l0,0c0,0.6,0.1,1.2,0.4,1.5s0.7,0.6,1.3,0.6c0.4,0,0.7-0.1,1-0.2s0.5-0.3,0.8-0.5
		l0.5,0.8c-0.2,0.2-0.5,0.4-0.9,0.6S204.1,51.4,203.6,51.4z M203.4,45.7c-0.4,0-0.7,0.2-1,0.5s-0.4,0.7-0.5,1.2l0,0h2.9v-0.1
		c0-0.5-0.1-0.8-0.3-1.1S203.9,45.7,203.4,45.7z"/>
	<path fill="#009DDA" d="M208.5,51.3h-1.2v-9.1h1.2V51.3z"/>
	<path fill="#009DDA" d="M210,48c0-0.9,0.3-1.7,0.8-2.3s1.2-0.9,2.1-0.9c0.9,0,1.6,0.3,2.1,0.9s0.8,1.4,0.8,2.3v0.1
		c0,0.9-0.3,1.7-0.8,2.3s-1.2,0.9-2.1,0.9s-1.6-0.3-2.1-0.9s-0.8-1.4-0.8-2.3V48z M211.1,48.2c0,0.7,0.1,1.2,0.4,1.7
		s0.7,0.7,1.3,0.7c0.6,0,1-0.2,1.3-0.7s0.4-1,0.4-1.7V48c0-0.7-0.1-1.2-0.4-1.7s-0.7-0.7-1.3-0.7c-0.6,0-1,0.2-1.3,0.7
		s-0.4,1-0.4,1.7V48.2z"/>
	<path fill="#009DDA" d="M220.8,49.6c0-0.3-0.1-0.5-0.3-0.6s-0.6-0.3-1.1-0.4c-0.7-0.2-1.3-0.4-1.7-0.7s-0.6-0.7-0.6-1.2
		c0-0.5,0.2-1,0.7-1.3s1-0.6,1.7-0.6c0.7,0,1.3,0.2,1.7,0.6s0.7,0.8,0.6,1.4l0,0h-1.1c0-0.3-0.1-0.5-0.4-0.7s-0.5-0.3-0.9-0.3
		c-0.4,0-0.7,0.1-0.9,0.3s-0.3,0.4-0.3,0.7c0,0.2,0.1,0.4,0.3,0.6s0.5,0.3,1.1,0.4c0.8,0.2,1.4,0.4,1.8,0.7s0.6,0.7,0.6,1.2
		c0,0.6-0.2,1-0.7,1.4s-1,0.5-1.8,0.5c-0.8,0-1.4-0.2-1.9-0.6s-0.7-0.9-0.7-1.4l0,0h1.1c0,0.4,0.2,0.7,0.5,0.9s0.6,0.3,1,0.3
		c0.4,0,0.7-0.1,1-0.3S220.8,49.8,220.8,49.6z"/>
</g>
<g>
	<path fill="#FFFFFF" d="M243.3,299.8h-3.2l-0.8,2.2h-1.2l3.1-8.5h1l3,8.5h-1.2L243.3,299.8z M240.4,298.9h2.5l-1.2-3.7h0
		L240.4,298.9z"/>
	<path fill="#FFFFFF" d="M249,302.1c-0.9,0-1.6-0.3-2.1-0.9s-0.8-1.3-0.8-2.3v-0.3c0-0.9,0.3-1.7,0.8-2.3s1.2-0.9,1.9-0.9
		c0.8,0,1.5,0.3,1.9,0.8s0.6,1.2,0.6,2.1v0.6h-4.1l0,0c0,0.6,0.1,1.2,0.4,1.5s0.7,0.6,1.3,0.6c0.4,0,0.7-0.1,1-0.2s0.5-0.3,0.8-0.5
		l0.5,0.8c-0.2,0.2-0.5,0.4-0.9,0.6S249.5,302.1,249,302.1z M248.8,296.5c-0.4,0-0.7,0.2-1,0.5s-0.4,0.7-0.5,1.2l0,0h2.9v-0.1
		c0-0.5-0.1-0.8-0.3-1.1S249.2,296.5,248.8,296.5z"/>
	<path fill="#FFFFFF" d="M255.6,296.7l-0.6,0c-0.3,0-0.6,0.1-0.8,0.2s-0.4,0.3-0.5,0.6v4.5h-1.2v-6.3h1l0.1,0.9
		c0.2-0.3,0.4-0.6,0.7-0.8s0.6-0.3,0.9-0.3c0.1,0,0.2,0,0.2,0s0.1,0,0.2,0L255.6,296.7z"/>
	<path fill="#FFFFFF" d="M256.4,298.8c0-0.9,0.3-1.7,0.8-2.3s1.2-0.9,2.1-0.9c0.9,0,1.6,0.3,2.1,0.9s0.8,1.4,0.8,2.3v0.1
		c0,0.9-0.3,1.7-0.8,2.3s-1.2,0.9-2.1,0.9s-1.6-0.3-2.1-0.9s-0.8-1.4-0.8-2.3V298.8z M257.6,298.9c0,0.7,0.1,1.2,0.4,1.7
		s0.7,0.7,1.3,0.7c0.6,0,1-0.2,1.3-0.7s0.4-1,0.4-1.7v-0.1c0-0.7-0.1-1.2-0.4-1.7s-0.7-0.7-1.3-0.7c-0.6,0-1,0.2-1.3,0.7
		s-0.4,1-0.4,1.7V298.9z"/>
	<path fill="#FFFFFF" d="M268.9,299.1c0,0.9-0.2,1.7-0.7,2.2s-1,0.8-1.8,0.8c-0.4,0-0.7-0.1-1-0.2s-0.5-0.3-0.8-0.6v3.1h-1.2v-8.8
		h0.9l0.2,0.8c0.2-0.3,0.5-0.5,0.8-0.7s0.7-0.2,1.1-0.2c0.8,0,1.4,0.3,1.8,0.9s0.7,1.4,0.7,2.5V299.1z M267.8,299
		c0-0.7-0.1-1.3-0.4-1.8s-0.7-0.7-1.2-0.7c-0.3,0-0.6,0.1-0.8,0.2s-0.4,0.4-0.6,0.6v3.1c0.1,0.3,0.3,0.5,0.6,0.6s0.5,0.2,0.9,0.2
		c0.5,0,1-0.2,1.2-0.6s0.4-0.9,0.4-1.5V299z"/>
	<path fill="#FFFFFF" d="M274.4,301.1c-0.2,0.3-0.5,0.6-0.8,0.8s-0.7,0.3-1.1,0.3c-0.7,0-1.2-0.2-1.6-0.7s-0.6-1.1-0.6-2.1v-3.7h1.2
		v3.8c0,0.7,0.1,1.1,0.3,1.4s0.5,0.4,0.9,0.4c0.4,0,0.7-0.1,1-0.2s0.5-0.4,0.6-0.7v-4.6h1.2v6.3h-1L274.4,301.1z"/>
	<path fill="#FFFFFF" d="M279.8,302.1c-0.9,0-1.6-0.3-2.1-0.9s-0.8-1.3-0.8-2.3v-0.3c0-0.9,0.3-1.7,0.8-2.3s1.2-0.9,1.9-0.9
		c0.8,0,1.5,0.3,1.9,0.8s0.6,1.2,0.6,2.1v0.6h-4.1l0,0c0,0.6,0.1,1.2,0.4,1.5s0.7,0.6,1.3,0.6c0.4,0,0.7-0.1,1-0.2s0.5-0.3,0.8-0.5
		l0.5,0.8c-0.2,0.2-0.5,0.4-0.9,0.6S280.3,302.1,279.8,302.1z M279.6,296.5c-0.4,0-0.7,0.2-1,0.5s-0.4,0.7-0.5,1.2l0,0h2.9v-0.1
		c0-0.5-0.1-0.8-0.3-1.1S280.1,296.5,279.6,296.5z"/>
	<path fill="#FFFFFF" d="M286.4,296.7l-0.6,0c-0.3,0-0.6,0.1-0.8,0.2s-0.4,0.3-0.5,0.6v4.5h-1.2v-6.3h1l0.1,0.9
		c0.2-0.3,0.4-0.6,0.7-0.8s0.6-0.3,0.9-0.3c0.1,0,0.2,0,0.2,0s0.1,0,0.2,0L286.4,296.7z"/>
	<path fill="#FFFFFF" d="M289.3,294.1v1.5h1.2v0.9h-1.2v3.8c0,0.3,0.1,0.5,0.2,0.6s0.3,0.2,0.5,0.2c0.1,0,0.1,0,0.2,0s0.2,0,0.2-0.1
		l0.2,0.8c-0.1,0.1-0.2,0.1-0.4,0.2s-0.3,0.1-0.5,0.1c-0.5,0-0.8-0.1-1.1-0.4s-0.4-0.7-0.4-1.3v-3.8h-1v-0.9h1v-1.5H289.3z"/>
	<path fill="#FFFFFF" d="M291.5,298.8c0-0.9,0.3-1.7,0.8-2.3s1.2-0.9,2.1-0.9c0.9,0,1.6,0.3,2.1,0.9s0.8,1.4,0.8,2.3v0.1
		c0,0.9-0.3,1.7-0.8,2.3s-1.2,0.9-2.1,0.9s-1.6-0.3-2.1-0.9s-0.8-1.4-0.8-2.3V298.8z M292.7,298.9c0,0.7,0.1,1.2,0.4,1.7
		s0.7,0.7,1.3,0.7c0.6,0,1-0.2,1.3-0.7s0.4-1,0.4-1.7v-0.1c0-0.7-0.1-1.2-0.4-1.7s-0.7-0.7-1.3-0.7c-0.6,0-1,0.2-1.3,0.7
		s-0.4,1-0.4,1.7V298.9z"/>
	<path fill="#FFFFFF" d="M305.2,293.5h1.2v6.1c0,0.8-0.2,1.4-0.7,1.9s-1.1,0.7-1.9,0.7c-0.8,0-1.4-0.2-1.9-0.6s-0.7-1-0.7-1.8l0,0
		h1.1c0,0.5,0.1,0.9,0.4,1.2s0.6,0.4,1,0.4c0.4,0,0.8-0.2,1-0.5s0.4-0.7,0.4-1.2V293.5z"/>
	<path fill="#FFFFFF" d="M307.9,298.8c0-0.9,0.3-1.7,0.8-2.3s1.2-0.9,2.1-0.9c0.9,0,1.6,0.3,2.1,0.9s0.8,1.4,0.8,2.3v0.1
		c0,0.9-0.3,1.7-0.8,2.3s-1.2,0.9-2.1,0.9s-1.6-0.3-2.1-0.9s-0.8-1.4-0.8-2.3V298.8z M309,298.9c0,0.7,0.1,1.2,0.4,1.7
		s0.7,0.7,1.3,0.7c0.6,0,1-0.2,1.3-0.7s0.4-1,0.4-1.7v-0.1c0-0.7-0.1-1.2-0.4-1.7s-0.7-0.7-1.3-0.7c-0.6,0-1,0.2-1.3,0.7
		s-0.4,1-0.4,1.7V298.9z"/>
	<path fill="#FFFFFF" d="M318,296.7l-0.6,0c-0.3,0-0.6,0.1-0.8,0.2s-0.4,0.3-0.5,0.6v4.5H315v-6.3h1l0.1,0.9
		c0.2-0.3,0.4-0.6,0.7-0.8s0.6-0.3,0.9-0.3c0.1,0,0.2,0,0.2,0s0.1,0,0.2,0L318,296.7z"/>
	<path fill="#FFFFFF" d="M318.9,299c0-1,0.2-1.8,0.7-2.5s1-0.9,1.8-0.9c0.4,0,0.8,0.1,1.1,0.2s0.6,0.4,0.8,0.7l0.1-0.8h0.9v6.4
		c0,0.8-0.2,1.4-0.7,1.9s-1.2,0.7-2,0.7c-0.3,0-0.6,0-1-0.1s-0.7-0.2-0.9-0.3l0.2-0.9c0.2,0.1,0.5,0.2,0.8,0.3s0.6,0.1,0.9,0.1
		c0.6,0,1-0.1,1.2-0.4s0.4-0.6,0.4-1.2v-0.7c-0.2,0.3-0.5,0.5-0.7,0.6s-0.6,0.2-1,0.2c-0.8,0-1.4-0.3-1.8-0.8s-0.7-1.3-0.7-2.2V299z
		 M320,299.1c0,0.6,0.1,1.1,0.4,1.5s0.7,0.6,1.2,0.6c0.3,0,0.6-0.1,0.9-0.2s0.4-0.4,0.6-0.7v-2.9c-0.1-0.3-0.3-0.5-0.6-0.6
		s-0.5-0.2-0.9-0.2c-0.6,0-1,0.2-1.2,0.7s-0.4,1.1-0.4,1.8V299.1z"/>
	<path fill="#FFFFFF" d="M328.5,302.1c-0.9,0-1.6-0.3-2.1-0.9s-0.8-1.3-0.8-2.3v-0.3c0-0.9,0.3-1.7,0.8-2.3s1.2-0.9,1.9-0.9
		c0.8,0,1.5,0.3,1.9,0.8s0.6,1.2,0.6,2.1v0.6h-4.1l0,0c0,0.6,0.1,1.2,0.4,1.5s0.7,0.6,1.3,0.6c0.4,0,0.7-0.1,1-0.2s0.5-0.3,0.8-0.5
		l0.5,0.8c-0.2,0.2-0.5,0.4-0.9,0.6S329,302.1,328.5,302.1z M328.3,296.5c-0.4,0-0.7,0.2-1,0.5s-0.4,0.7-0.5,1.2l0,0h2.9v-0.1
		c0-0.5-0.1-0.8-0.3-1.1S328.8,296.5,328.3,296.5z"/>
	<path fill="#FFFFFF" d="M341.8,302h-1.2l-4.1-6.5l0,0v6.5h-1.2v-8.5h1.2l4.1,6.5l0,0v-6.5h1.2V302z"/>
	<path fill="#FFFFFF" d="M346.2,302.1c-0.9,0-1.6-0.3-2.1-0.9s-0.8-1.3-0.8-2.3v-0.3c0-0.9,0.3-1.7,0.8-2.3s1.2-0.9,1.9-0.9
		c0.8,0,1.5,0.3,1.9,0.8s0.6,1.2,0.6,2.1v0.6h-4.1l0,0c0,0.6,0.1,1.2,0.4,1.5s0.7,0.6,1.3,0.6c0.4,0,0.7-0.1,1-0.2s0.5-0.3,0.8-0.5
		l0.5,0.8c-0.2,0.2-0.5,0.4-0.9,0.6S346.8,302.1,346.2,302.1z M346,296.5c-0.4,0-0.7,0.2-1,0.5s-0.4,0.7-0.5,1.2l0,0h2.9v-0.1
		c0-0.5-0.1-0.8-0.3-1.1S346.5,296.5,346,296.5z"/>
	<path fill="#FFFFFF" d="M351.5,299.7l0.1,0.8h0l0.2-0.8l1.3-4h0.9l1.3,4l0.2,0.9h0l0.2-0.9l0.9-4h1.2L356,302h-0.9l-1.3-3.9l-0.2-1
		h0l-0.2,1l-1.2,3.9h-0.9l-1.8-6.3h1.2L351.5,299.7z"/>
	<path fill="#FFFFFF" d="M364.4,299.1c0,0.9-0.2,1.7-0.7,2.2s-1,0.8-1.8,0.8c-0.4,0-0.8-0.1-1.1-0.2s-0.6-0.4-0.8-0.7l-0.2,0.9H359
		v-9.1h1.2v3.6c0.2-0.3,0.4-0.5,0.7-0.6s0.6-0.2,1-0.2c0.8,0,1.4,0.3,1.8,0.9s0.7,1.4,0.7,2.5V299.1z M363.2,299
		c0-0.7-0.1-1.3-0.4-1.8s-0.7-0.7-1.2-0.7c-0.4,0-0.7,0.1-0.9,0.3s-0.4,0.4-0.6,0.7v2.7c0.1,0.3,0.3,0.6,0.6,0.7s0.5,0.3,0.9,0.3
		c0.5,0,0.9-0.2,1.2-0.6s0.4-0.9,0.4-1.5V299z"/>
	<path fill="#FFFFFF" d="M368.4,302.1c-0.9,0-1.6-0.3-2.1-0.9s-0.8-1.3-0.8-2.3v-0.3c0-0.9,0.3-1.7,0.8-2.3s1.2-0.9,1.9-0.9
		c0.8,0,1.5,0.3,1.9,0.8s0.6,1.2,0.6,2.1v0.6h-4.1l0,0c0,0.6,0.1,1.2,0.4,1.5s0.7,0.6,1.3,0.6c0.4,0,0.7-0.1,1-0.2s0.5-0.3,0.8-0.5
		l0.5,0.8c-0.2,0.2-0.5,0.4-0.9,0.6S368.9,302.1,368.4,302.1z M368.2,296.5c-0.4,0-0.7,0.2-1,0.5s-0.4,0.7-0.5,1.2l0,0h2.9v-0.1
		c0-0.5-0.1-0.8-0.3-1.1S368.7,296.5,368.2,296.5z"/>
	<path fill="#FFFFFF" d="M375.1,296.7l-0.6,0c-0.3,0-0.6,0.1-0.8,0.2s-0.4,0.3-0.5,0.6v4.5h-1.2v-6.3h1l0.1,0.9
		c0.2-0.3,0.4-0.6,0.7-0.8s0.6-0.3,0.9-0.3c0.1,0,0.2,0,0.2,0s0.1,0,0.2,0L375.1,296.7z"/>
	<path fill="#FFFFFF" d="M379.3,296.7l-0.6,0c-0.3,0-0.6,0.1-0.8,0.2s-0.4,0.3-0.5,0.6v4.5h-1.2v-6.3h1l0.1,0.9
		c0.2-0.3,0.4-0.6,0.7-0.8s0.6-0.3,0.9-0.3c0.1,0,0.2,0,0.2,0s0.1,0,0.2,0L379.3,296.7z"/>
	<path fill="#FFFFFF" d="M382.5,299.7l0.2,0.8h0l1.6-4.8h1.3l-2.7,7.3c-0.2,0.4-0.4,0.8-0.7,1.1s-0.7,0.5-1.2,0.5
		c-0.1,0-0.2,0-0.4,0s-0.3,0-0.3-0.1l0.1-0.9c0,0,0,0,0.2,0s0.3,0,0.3,0c0.2,0,0.4-0.1,0.6-0.3s0.3-0.5,0.4-0.7l0.3-0.7l-2.4-6.2
		h1.3L382.5,299.7z"/>
	<path fill="#FFFFFF" d="M240.7,314.1l0.2,0.8h0l1.6-4.8h1.3l-2.7,7.3c-0.2,0.4-0.4,0.8-0.7,1.1s-0.7,0.5-1.2,0.5
		c-0.1,0-0.2,0-0.4,0s-0.3,0-0.3-0.1l0.1-0.9c0,0,0,0,0.2,0s0.3,0,0.3,0c0.2,0,0.4-0.1,0.6-0.3s0.3-0.5,0.4-0.7l0.3-0.7l-2.4-6.2
		h1.3L240.7,314.1z"/>
	<path fill="#FFFFFF" d="M252.6,312.5h-3.5v3.1h4.1v0.9h-5.3v-8.5h5.2v0.9h-4v2.8h3.5V312.5z"/>
	<path fill="#FFFFFF" d="M255.5,315.6h3.7v0.9h-5v-0.8l3.4-4.6h-3.4v-0.9h4.8v0.8L255.5,315.6z"/>
	<path fill="#FFFFFF" d="M262.9,316.6c-0.9,0-1.6-0.3-2.1-0.9s-0.8-1.3-0.8-2.3v-0.3c0-0.9,0.3-1.7,0.8-2.3s1.2-0.9,1.9-0.9
		c0.8,0,1.5,0.3,1.9,0.8s0.6,1.2,0.6,2.1v0.6h-4.1l0,0c0,0.6,0.1,1.2,0.4,1.5s0.7,0.6,1.3,0.6c0.4,0,0.7-0.1,1-0.2s0.5-0.3,0.8-0.5
		l0.5,0.8c-0.2,0.2-0.5,0.4-0.9,0.6S263.5,316.6,262.9,316.6z M262.8,310.9c-0.4,0-0.7,0.2-1,0.5s-0.4,0.7-0.5,1.2l0,0h2.9v-0.1
		c0-0.5-0.1-0.8-0.3-1.1S263.2,310.9,262.8,310.9z"/>
	<path fill="#FFFFFF" d="M267.8,308.5h-1.2v-1.2h1.2V308.5z M267.8,316.5h-1.2v-6.3h1.2V316.5z"/>
	<path fill="#FFFFFF" d="M270.7,315.6h3.7v0.9h-5v-0.8l3.4-4.6h-3.4v-0.9h4.8v0.8L270.7,315.6z"/>
	<path fill="#FFFFFF" d="M279.6,316.5c0-0.2-0.1-0.4-0.1-0.5s0-0.3,0-0.4c-0.2,0.3-0.5,0.6-0.8,0.8s-0.7,0.3-1.1,0.3
		c-0.7,0-1.2-0.2-1.5-0.5s-0.5-0.8-0.5-1.4c0-0.6,0.2-1.1,0.7-1.4s1.2-0.5,2-0.5h1.3v-0.6c0-0.4-0.1-0.7-0.3-0.9s-0.5-0.3-1-0.3
		c-0.4,0-0.7,0.1-0.9,0.3s-0.3,0.4-0.3,0.7l-1.1,0l0,0c0-0.5,0.2-0.9,0.6-1.3s1.1-0.6,1.8-0.6c0.7,0,1.3,0.2,1.7,0.5
		s0.7,0.9,0.7,1.6v3.1c0,0.2,0,0.4,0,0.7s0.1,0.4,0.1,0.6H279.6z M277.6,315.6c0.4,0,0.8-0.1,1.1-0.3s0.6-0.5,0.7-0.7v-1h-1.3
		c-0.5,0-0.8,0.1-1.1,0.4s-0.4,0.5-0.4,0.8c0,0.3,0.1,0.5,0.3,0.7S277.3,315.6,277.6,315.6z"/>
</g>
<g>
	<path fill="#009DDA" d="M112.4,193.1h3.8v1.3h-5.5v-8.5h1.7V193.1z"/>
	<path fill="#009DDA" d="M119,186.5h-1.7v-1.3h1.7V186.5z M119,194.4h-1.7V188h1.7V194.4z"/>
	<path fill="#009DDA" d="M122,188l0.1,0.8c0.2-0.3,0.5-0.5,0.8-0.7s0.7-0.2,1.1-0.2c0.4,0,0.8,0.1,1,0.3s0.5,0.5,0.7,0.8
		c0.2-0.3,0.4-0.6,0.8-0.8s0.7-0.3,1.1-0.3c0.6,0,1.1,0.2,1.5,0.7s0.5,1.1,0.5,2v3.8h-1.7v-3.8c0-0.5-0.1-0.9-0.2-1.1
		s-0.4-0.3-0.7-0.3c-0.2,0-0.5,0.1-0.6,0.2s-0.3,0.3-0.4,0.4c0,0.1,0,0.1,0,0.2s0,0.1,0,0.2v4.2h-1.7v-3.8c0-0.5-0.1-0.8-0.2-1.1
		s-0.4-0.3-0.7-0.3c-0.2,0-0.4,0-0.6,0.1s-0.3,0.2-0.4,0.4v4.6h-1.7V188H122z"/>
	<path fill="#009DDA" d="M134.5,194.4c-0.1-0.1-0.1-0.3-0.2-0.5s-0.1-0.3-0.1-0.5c-0.2,0.3-0.4,0.6-0.7,0.8s-0.6,0.3-1,0.3
		c-0.7,0-1.2-0.2-1.5-0.5s-0.5-0.8-0.5-1.4c0-0.6,0.2-1.1,0.7-1.4s1.2-0.5,2.1-0.5h1v-0.5c0-0.3-0.1-0.5-0.2-0.7s-0.4-0.3-0.7-0.3
		c-0.3,0-0.5,0.1-0.6,0.2s-0.2,0.3-0.2,0.6h-1.6l0,0c0-0.5,0.2-1,0.7-1.4s1.1-0.6,1.9-0.6c0.8,0,1.4,0.2,1.8,0.6s0.7,0.9,0.7,1.6
		v2.6c0,0.3,0,0.6,0.1,0.8s0.1,0.5,0.2,0.8H134.5z M132.9,193.2c0.3,0,0.6-0.1,0.8-0.2s0.4-0.3,0.5-0.5v-0.9h-1
		c-0.4,0-0.6,0.1-0.8,0.3s-0.3,0.4-0.3,0.7c0,0.2,0.1,0.4,0.2,0.5S132.7,193.2,132.9,193.2z"/>
	<path fill="#009DDA" d="M74.3,208.8H69V208l2.7-3.2c0.5-0.6,0.8-1,1-1.4s0.3-0.7,0.3-1c0-0.4-0.1-0.7-0.3-1s-0.5-0.4-1-0.4
		c-0.5,0-0.9,0.2-1.2,0.5s-0.4,0.7-0.4,1.2h-1.1l0,0c0-0.7,0.2-1.3,0.7-1.8s1.1-0.7,2-0.7c0.8,0,1.4,0.2,1.8,0.6s0.7,1,0.7,1.6
		c0,0.4-0.1,0.9-0.4,1.3s-0.6,1-1.1,1.6l-2.2,2.5l0,0h3.9V208.8z"/>
	<path fill="#009DDA" d="M76.9,208.8h-1.2v-1.2h1.2V208.8z"/>
	<path fill="#009DDA" d="M79.1,205l0.5-4.7h4.3v1h-3.3l-0.3,2.5c0.2-0.1,0.4-0.2,0.6-0.3s0.5-0.1,0.8-0.1c0.8,0,1.4,0.2,1.9,0.7
		s0.7,1.2,0.7,2.1c0,0.9-0.2,1.5-0.7,2.1s-1.1,0.8-2,0.8c-0.7,0-1.3-0.2-1.8-0.6s-0.7-1-0.7-1.7l0,0h1c0,0.5,0.1,0.8,0.4,1.1
		s0.6,0.4,1,0.4c0.5,0,0.9-0.2,1.1-0.5s0.4-0.8,0.4-1.4c0-0.5-0.1-1-0.4-1.3s-0.6-0.5-1.1-0.5c-0.5,0-0.8,0.1-1,0.2
		s-0.4,0.3-0.5,0.6L79.1,205z"/>
	<path fill="#009DDA" d="M85.8,205l0.5-4.7h4.3v1h-3.3l-0.3,2.5c0.2-0.1,0.4-0.2,0.6-0.3s0.5-0.1,0.8-0.1c0.8,0,1.4,0.2,1.9,0.7
		s0.7,1.2,0.7,2.1c0,0.9-0.2,1.5-0.7,2.1s-1.1,0.8-2,0.8c-0.7,0-1.3-0.2-1.8-0.6s-0.7-1-0.7-1.7l0,0h1c0,0.5,0.1,0.8,0.4,1.1
		s0.6,0.4,1,0.4c0.5,0,0.9-0.2,1.1-0.5s0.4-0.8,0.4-1.4c0-0.5-0.1-1-0.4-1.3s-0.6-0.5-1.1-0.5c-0.5,0-0.8,0.1-1,0.2
		s-0.4,0.3-0.5,0.6L85.8,205z"/>
	<path fill="#009DDA" d="M97.5,202.5c0,0.4-0.1,0.8-0.4,1.2s-0.6,0.6-1,0.8c0.5,0.2,0.9,0.4,1.2,0.8s0.4,0.8,0.4,1.3
		c0,0.8-0.3,1.4-0.8,1.8S95.8,209,95,209c-0.8,0-1.5-0.2-2-0.6s-0.8-1-0.8-1.8c0-0.5,0.1-0.9,0.4-1.3s0.7-0.6,1.2-0.8
		c-0.4-0.2-0.8-0.4-1-0.8s-0.4-0.7-0.4-1.2c0-0.7,0.2-1.3,0.7-1.7s1.1-0.6,1.9-0.6c0.7,0,1.3,0.2,1.8,0.6S97.5,201.7,97.5,202.5z
		 M96.6,206.5c0-0.5-0.2-0.8-0.5-1.1s-0.7-0.5-1.1-0.5c-0.5,0-0.9,0.2-1.2,0.5s-0.5,0.7-0.5,1.1c0,0.5,0.2,0.9,0.5,1.2
		s0.7,0.4,1.2,0.4c0.4,0,0.8-0.1,1.1-0.4S96.6,206.9,96.6,206.5z M96.3,202.5c0-0.4-0.1-0.7-0.4-1s-0.6-0.4-1-0.4
		c-0.4,0-0.8,0.1-1,0.4s-0.4,0.6-0.4,1c0,0.4,0.1,0.8,0.4,1.1s0.6,0.4,1,0.4c0.4,0,0.7-0.1,0.9-0.4S96.3,202.9,96.3,202.5z"/>
	<path fill="#009DDA" d="M104.3,207l0.1,0.4h0l0.1-0.4l1.5-4.5h1.2l-2.3,6.3h-0.9l-2.4-6.3h1.2L104.3,207z"/>
	<path fill="#009DDA" d="M112.2,207.9c-0.2,0.3-0.5,0.6-0.8,0.8s-0.7,0.3-1.1,0.3c-0.7,0-1.2-0.2-1.6-0.7s-0.6-1.1-0.6-2.1v-3.7h1.2
		v3.8c0,0.7,0.1,1.1,0.3,1.4s0.5,0.4,0.9,0.4c0.4,0,0.7-0.1,1-0.2s0.5-0.4,0.6-0.7v-4.6h1.2v6.3h-1L112.2,207.9z"/>
	<path fill="#009DDA" d="M117.6,209c-0.9,0-1.6-0.3-2.1-0.9s-0.8-1.3-0.8-2.3v-0.3c0-0.9,0.3-1.7,0.8-2.3s1.2-0.9,1.9-0.9
		c0.8,0,1.5,0.3,1.9,0.8s0.6,1.2,0.6,2.1v0.6h-4.1l0,0c0,0.6,0.1,1.2,0.4,1.5s0.7,0.6,1.3,0.6c0.4,0,0.7-0.1,1-0.2s0.5-0.3,0.8-0.5
		l0.5,0.8c-0.2,0.2-0.5,0.4-0.9,0.6S118.1,209,117.6,209z M117.4,203.3c-0.4,0-0.7,0.2-1,0.5s-0.4,0.7-0.5,1.2l0,0h2.9v-0.1
		c0-0.5-0.1-0.8-0.3-1.1S117.9,203.3,117.4,203.3z"/>
	<path fill="#009DDA" d="M122.5,208.8h-1.2v-9.1h1.2V208.8z"/>
	<path fill="#009DDA" d="M124,205.6c0-0.9,0.3-1.7,0.8-2.3s1.2-0.9,2.1-0.9c0.9,0,1.6,0.3,2.1,0.9s0.8,1.4,0.8,2.3v0.1
		c0,0.9-0.3,1.7-0.8,2.3s-1.2,0.9-2.1,0.9s-1.6-0.3-2.1-0.9s-0.8-1.4-0.8-2.3V205.6z M125.2,205.7c0,0.7,0.1,1.2,0.4,1.7
		s0.7,0.7,1.3,0.7c0.6,0,1-0.2,1.3-0.7s0.4-1,0.4-1.7v-0.1c0-0.7-0.1-1.2-0.4-1.7s-0.7-0.7-1.3-0.7c-0.6,0-1,0.2-1.3,0.7
		s-0.4,1-0.4,1.7V205.7z"/>
	<path fill="#009DDA" d="M134.8,207.1c0-0.3-0.1-0.5-0.3-0.6s-0.6-0.3-1.1-0.4c-0.7-0.2-1.3-0.4-1.7-0.7s-0.6-0.7-0.6-1.2
		c0-0.5,0.2-1,0.7-1.3s1-0.6,1.7-0.6c0.7,0,1.3,0.2,1.7,0.6s0.7,0.8,0.6,1.4l0,0h-1.1c0-0.3-0.1-0.5-0.4-0.7s-0.5-0.3-0.9-0.3
		c-0.4,0-0.7,0.1-0.9,0.3s-0.3,0.4-0.3,0.7c0,0.2,0.1,0.4,0.3,0.6s0.5,0.3,1.1,0.4c0.8,0.2,1.4,0.4,1.8,0.7s0.6,0.7,0.6,1.2
		c0,0.6-0.2,1-0.7,1.4s-1,0.5-1.8,0.5c-0.8,0-1.4-0.2-1.9-0.6s-0.7-0.9-0.7-1.4l0,0h1.1c0,0.4,0.2,0.7,0.5,0.9s0.6,0.3,1,0.3
		c0.4,0,0.7-0.1,1-0.3S134.8,207.4,134.8,207.1z"/>
</g>
<circle fill-rule="evenodd" clip-rule="evenodd" fill="#009DDA" cx="245.6" cy="240.7" r="2"/>
<circle fill-rule="evenodd" clip-rule="evenodd" fill="#009DDA" cx="133" cy="32.3" r="1.4"/>
<linearGradient id="SVGID_6_" gradientUnits="userSpaceOnUse" x1="174.3622" y1="279.7798" x2="174.3622" y2="34.6875">
	<stop  offset="0" style="stop-color:#2D2D43;stop-opacity:0.4"/>
	<stop  offset="1" style="stop-color:#009DDA"/>
</linearGradient>
<path fill-rule="evenodd" clip-rule="evenodd" fill="none" stroke="url(#SVGID_6_)" stroke-width="2" stroke-miterlimit="10" d="
	M137,35.3c0,0,69.9,89,74.5,244.4"/>
<polygon fill="#009DDA" points="141.3,34.7 135.2,39 135.9,33.9 "/>
<polygon fill="#009DDA" points="249.4,238.5 249.7,231 253.3,234.7 "/>
<polygon fill="#009DDA" points="154.5,199.4 144.2,200.6 148.7,194.9 "/>
<polygon fill="#009DDA" points="243.6,255.3 229.9,244.7 242,243.1 "/>
<polygon fill="#009DDA" points="177.7,281.1 178.8,290.4 173.6,286.3 "/>
<linearGradient id="SVGID_7_" gradientUnits="userSpaceOnUse" x1="207.5661" y1="260.1371" x2="250.2982" y2="260.1371">
	<stop  offset="0" style="stop-color:#2D2D43;stop-opacity:0.4"/>
	<stop  offset="1" style="stop-color:#009DDA"/>
</linearGradient>
<path fill-rule="evenodd" clip-rule="evenodd" fill="none" stroke="url(#SVGID_7_)" stroke-width="2" stroke-miterlimit="10" d="
	M211.3,286.4c0,0-18-54.6,39-51.8"/>
<g>
	<path fill-rule="evenodd" clip-rule="evenodd" fill="#222232" d="M211.9,291c-1.9,0-3.4-1.5-3.4-3.4s1.5-3.4,3.4-3.4
		s3.4,1.5,3.4,3.4S213.7,291,211.9,291z"/>
	<path fill="#FFFFFF" d="M211.9,285c1.5,0,2.6,1.2,2.6,2.6s-1.2,2.6-2.6,2.6s-2.6-1.2-2.6-2.6S210.4,285,211.9,285 M211.9,283.4
		c-2.3,0-4.2,1.9-4.2,4.2s1.9,4.2,4.2,4.2c2.3,0,4.2-1.9,4.2-4.2S214.2,283.4,211.9,283.4L211.9,283.4z"/>
</g>
</svg>
