<?xml version="1.0" encoding="utf-8"?>
<!-- Generator: Adobe Illustrator 18.0.0, SVG Export Plug-In . SVG Version: 6.00 Build 0)  -->
<!DOCTYPE svg PUBLIC "-//W3C//DTD SVG 1.1//EN" "http://www.w3.org/Graphics/SVG/1.1/DTD/svg11.dtd">
<svg version="1.1" id="Layer_1" xmlns="http://www.w3.org/2000/svg" xmlns:xlink="http://www.w3.org/1999/xlink" x="0px" y="0px"
	 viewBox="0 0 370.4 377.8" enable-background="new 0 0 370.4 377.8" xml:space="preserve">
<g>
	<g>
		<g>
			<g>
				<polygon fill-rule="evenodd" clip-rule="evenodd" fill="#424256" stroke="#4E4E5B" stroke-miterlimit="10" points="232,61.9 
					234.5,66.2 234.7,67.9 236.7,69.9 245.1,65 247.8,64.7 252.7,61.1 254.7,51.6 253.5,49.1 252,43.8 245.4,44.9 244.2,52.8 
					238.6,57.9 				"/>
				<polygon fill-rule="evenodd" clip-rule="evenodd" fill="#2D2D43" stroke="#4E4E5B" stroke-miterlimit="10" points="230.9,73.7 
					224.8,81.2 219.4,87.8 213.1,93.5 210,100.4 204.7,95.6 191.3,96.9 191.5,92.5 195.7,80.2 196.9,70.7 199.6,67.8 200.9,62.3 
					211,63.4 227.9,63.9 232,61.9 234.6,66.2 234.7,67.9 236.7,69.9 				"/>
				<polygon fill-rule="evenodd" clip-rule="evenodd" fill="#2D2D43" stroke="#4E4E5B" stroke-miterlimit="10" points="165,7.9 
					166.3,9.6 168.7,10.8 178.2,19.4 185,25.5 191.1,26.3 202.6,34 204.7,36.3 208.2,36.5 213.3,39.5 213.8,41.8 208.2,49.5 206,57 
					193.4,49.1 191.3,45 181.9,36.5 173.1,31.2 172,29.5 165,26.7 				"/>
				<polygon fill-rule="evenodd" clip-rule="evenodd" fill="#2D2D43" stroke="#4E4E5B" stroke-miterlimit="10" points="133.3,96.1 
					129.2,86.3 122.6,81 121.8,77.7 117.5,74.7 114.7,76.2 109.8,75.7 100.9,70.4 94,69.2 90.6,75.2 95.5,78 98.8,81.5 99.3,89 
					106.5,92.5 110.6,96.3 115.7,102.8 117.2,108.9 119.5,115.4 124.6,115.9 128.5,115.2 128.5,102.1 				"/>
				<polyline fill-rule="evenodd" clip-rule="evenodd" fill="#2D2D43" stroke="#4E4E5B" stroke-miterlimit="10" points="137.4,63.7 
					137.2,68.4 134.9,69.2 130.8,70.4 127.2,66.7 127.2,63.1 125.7,61.4 126.4,56.9 123.9,54.4 123.9,51.8 128.5,51.6 130.3,49.1 
					141.5,51.1 				"/>
				<polygon fill-rule="evenodd" clip-rule="evenodd" fill="#2D2D43" stroke="#4E4E5B" stroke-miterlimit="10" points="115.2,115.7 
					114.9,121.2 111.1,119.4 106.2,118.7 103.7,121.4 100.1,122.2 100.1,119.2 94,119.9 92.9,122.9 86.8,124.2 85.3,120.9 
					85.8,118.7 83.2,116.7 82.7,109.9 85,104.1 87.3,97.6 85.3,86.8 87.8,84.8 90.6,75.2 95.5,78 98.8,81.5 99.3,89 106.5,92.5 
					110.6,96.3 115.7,102.8 117.2,108.9 119.5,115.4 				"/>
				<polygon fill-rule="evenodd" clip-rule="evenodd" fill="#2D2D43" stroke="#4E4E5B" stroke-miterlimit="10" points="165,96.8 
					170.9,73.4 170.8,70.8 196.9,70.8 195.7,80.2 191.5,92.5 191.3,96.9 189.8,101.6 186,106.9 182.9,111.6 180.9,114.9 
					180.6,121.9 184.9,131.2 182.4,134.3 178.6,134 170.6,143 154,143 168.8,125.2 166.5,119.7 165.3,115.2 168.3,102.6 				"/>
				<polygon fill-rule="evenodd" clip-rule="evenodd" fill="#2D2D43" stroke="#4E4E5B" stroke-miterlimit="10" points="210,100.4 
					204.7,95.6 191.3,96.9 189.8,101.6 186,106.9 182.9,111.6 180.9,114.9 180.6,121.9 184.9,131.2 192.1,134.8 197,138.3 
					202.8,140 202.6,134.3 202.6,130 205.1,127.2 205.1,114.4 208.5,106.4 				"/>
				<polygon fill-rule="evenodd" clip-rule="evenodd" fill="#2D2D43" stroke="#4E4E5B" stroke-miterlimit="10" points="115.2,115.7 
					114.9,121.2 115.4,126.5 117.2,132 122.8,142.3 124.6,147.8 123.6,159.1 136.9,159.1 136.9,130 138.7,124.5 138.4,119.9 
					135.9,119.4 134.3,117.2 128.5,115.2 124.6,115.9 119.5,115.4 				"/>
				<polygon fill-rule="evenodd" clip-rule="evenodd" fill="#424256" stroke="#4E4E5B" stroke-miterlimit="10" points="136.9,150.3 
					136.9,130 138.7,124.5 138.4,119.9 135.9,119.4 134.3,117.2 128.5,115.2 128.5,102.1 133.3,96.1 136.4,95.1 139.5,92.3 
					140,88.5 144.1,87 150.4,88.3 158.9,89.3 162.2,96.1 165,96.8 168.3,102.6 165.3,115.2 166.5,119.7 168.8,125.2 154,143 
					154,150.3 				"/>
				<polygon fill-rule="evenodd" clip-rule="evenodd" fill="#424256" stroke="#4E4E5B" stroke-miterlimit="10" points="86.8,124.2 
					92.9,122.9 94,119.9 100.1,119.2 100.1,122.2 103.7,121.4 106.2,118.7 111.1,119.4 114.9,121.2 115.4,126.5 117.2,132 
					122.8,142.3 124.6,147.8 123.6,159.1 110.6,159.1 110.6,181.2 101.6,177.5 96.5,176.2 94,172.7 89.6,170.9 86.8,166.4 
					86.8,157.4 85.3,155.4 87.1,153.1 89.6,144.1 90.9,142 90.9,132.7 88.3,130.7 				"/>
				<polygon fill-rule="evenodd" clip-rule="evenodd" fill="#2D2D43" stroke="#4E4E5B" stroke-miterlimit="10" points="107.3,200.1 
					111.6,197.8 110.6,194.8 110.6,181.2 101.6,177.5 96.5,176.2 94,172.7 89.6,170.9 86.8,166.4 83.7,168.2 81.4,176 82.2,180.5 
					81.4,185.3 86,193.8 81.2,198.8 80.7,206.4 78.1,207.9 79.7,215.4 78.6,218.4 79.7,223.5 86.3,222.9 87.6,218.2 93.2,215.9 
					96.5,210.4 97.5,207.6 				"/>
				<polygon fill-rule="evenodd" clip-rule="evenodd" fill="#2D2D43" stroke="#4E4E5B" stroke-miterlimit="10" points="110.6,181.2 
					110.6,159.1 123.6,159.1 136.9,159.1 136.9,150.3 154,150.3 154,200.6 144.6,195.3 134.3,195.1 127.4,194.1 121.1,190.5 
					116.5,189.5 114.9,184.3 112.9,182 				"/>
				<polygon fill-rule="evenodd" clip-rule="evenodd" fill="#424256" stroke="#4E4E5B" stroke-miterlimit="10" points="202.8,140.1 
					196.9,138.3 192.1,134.8 184.9,131.3 182.4,134.3 178.5,134 170.6,143.1 154,143.1 154,200.6 154,215.2 157.6,216.9 
					159.9,219.7 164.5,215.2 163.4,210.2 164.5,203.6 166.5,202.6 164.5,197.6 163.4,192.8 164.5,191.6 168.3,193.6 176.7,194.6 
					184.7,194.1 193.1,192.1 203.3,188 210.5,181.5 216.9,172 216.9,165.4 213,165.4 211.2,160.2 212.3,155.6 211.7,152.6 
					206.1,148.1 202.5,144.3 				"/>
				<polygon fill-rule="evenodd" clip-rule="evenodd" fill="#424256" stroke="#4E4E5B" stroke-miterlimit="10" points="159.9,219.7 
					157.6,216.9 154,215.2 154,200.6 144.6,195.3 134.3,195.1 127.4,194.1 121.1,190.5 116.5,189.5 114.9,184.3 112.9,182 
					110.6,181.2 110.6,194.8 111.6,197.8 107.3,200.1 97.5,207.6 96.5,210.4 93.2,215.9 87.6,218.2 86.3,222.9 79.7,223.5 
					81.2,231.2 141.2,231.2 142,225.2 139.7,220.2 139.7,217.2 142.3,216.9 148.7,219.7 153.3,220.7 158.1,221.2 				"/>
				<polygon fill-rule="evenodd" clip-rule="evenodd" fill="#2D2D43" stroke="#4E4E5B" stroke-miterlimit="10" points="141.8,233.2 
					144.8,233.2 145.8,235.3 148.4,234 146.9,232 152,232 153.8,238 149.4,240 149.4,237.8 145.8,236.8 143.3,238 143.3,240 
					147.1,241.3 147.4,242.5 142.3,246.1 140.2,250.6 140.5,256.9 138.4,258.9 137.9,261.4 139.5,263.4 137.7,265.2 132.3,265.7 
					130.5,267.4 127.2,268.4 123.6,272.9 122.1,277.2 88.1,277.2 89.9,273.2 89.4,270.2 85.5,269.4 83.5,267.2 83.7,265.4 
					90.6,265.2 90.1,261.9 85.8,261.1 84.3,256.4 85,253.9 84.8,251.3 83,250.3 81.2,243.3 79.1,241.8 79.1,236.8 81.7,233.8 
					81.2,231.2 141.2,231.2 				"/>
				<polygon fill-rule="evenodd" clip-rule="evenodd" fill="#2D2D43" stroke="#4E4E5B" stroke-miterlimit="10" points="87.6,279.5 
					89.4,287.8 87.3,292 85.5,300.8 86.6,306.4 86.8,316.4 83.5,322.9 83.7,332.5 85.3,335 87.3,339.5 90.6,337.5 94.5,338.5 
					94.2,343.3 97.3,349.1 111.9,349.1 115.9,349.8 119.5,350.6 120.8,349.6 116.5,342.8 114.2,335.3 115.4,327.7 123.1,320.4 
					123.9,315.9 125.7,309.6 132.8,302.6 135.4,302.3 135.6,299.6 137.9,293.3 137.4,290 135.4,288 129.7,287 125.7,284 
					122.6,280.7 122.1,277.2 88.1,277.2 				"/>
				<polygon fill-rule="evenodd" clip-rule="evenodd" fill="#2D2D43" stroke="#4E4E5B" stroke-miterlimit="10" points="119.8,353.6 
					119.8,371.7 126.4,371.9 130.5,372.9 129.5,374.5 119.5,373.5 119.5,377.2 127.4,376.7 133.1,376.5 137.7,377 142.8,376.2 
					144.1,374.2 137.4,372.9 133.3,369.9 129.2,366.4 126.2,363.7 124.1,360.9 121.1,360.1 122.3,357.4 				"/>
				<polygon fill-rule="evenodd" clip-rule="evenodd" fill="#2D2D43" stroke="#4E4E5B" stroke-miterlimit="10" points="202.2,325.1 
					201.3,326.6 199.9,326.7 200.1,327.8 197.7,330.7 195.8,333 194.1,332.5 193,333.3 191.9,335 190.5,336 189.8,334.7 
					188.2,334.5 187,332.7 189.1,332.2 190.7,331.7 191.3,330 190.7,328.2 193,328.2 194.5,328.8 192.2,326.6 191,325.3 
					189.5,323.9 190.8,323 192.6,325.2 195.3,324.5 197.4,324.8 199.6,325.3 200.5,323.5 202.2,323.3 				"/>
				<polygon fill-rule="evenodd" clip-rule="evenodd" fill="#2D2D43" stroke="#4E4E5B" stroke-miterlimit="10" points="202.8,330.5 
					201.6,328.9 199.9,330.1 198.2,332.1 197.2,333.8 197.7,335.6 199,337.2 199.3,338.2 200.9,337.9 200,336 202.2,335.7 
					203.1,334.5 204.2,335.7 205,334.1 203.3,332.1 203.9,331.3 206.1,332 208.2,332.2 210.7,330.2 212.1,328.2 214,327.9 
					214,326.6 212.8,324.5 210.6,324.4 210.7,326.7 208.5,325.7 206.9,325.4 206.9,324.3 208.8,324.3 208.9,322.9 207,322.7 
					204.7,322.9 205.1,324.9 203.1,326.3 202.5,327.8 203.4,329.6 				"/>
				<polygon fill-rule="evenodd" clip-rule="evenodd" fill="#424256" stroke="#4E4E5B" stroke-miterlimit="10" points="151.8,44.6 
					165,28.4 165,26.7 165,7.9 159,1.7 145.3,1.7 142,8.8 138.9,5.4 135.9,4.4 132.6,4.3 132.3,12.4 134.7,13.9 136.3,18.6 
					140.5,18.2 144.4,19.5 144.4,29 141.6,31.1 136.9,32.2 130.3,30.7 125.4,25.5 125.4,20.7 121.1,19.4 120.5,25.7 117.5,27.5 
					111.6,24 110.1,27.2 99.8,32.7 98.3,35.8 98.8,38.5 108,40 120.5,40.8 120.8,45.3 118.2,46.3 122.1,51.8 128.5,51.6 130.3,49.1 
					141.5,51.1 144.6,45.8 150.7,45.6 151.7,44.6 				"/>
				<polygon fill-rule="evenodd" clip-rule="evenodd" fill="#2D2D43" stroke="#4E4E5B" stroke-miterlimit="10" points="123.9,54.4 
					126.4,56.9 125.7,61.4 127.2,63.1 127.2,66.7 130.8,70.4 134.9,69.2 135.4,75.2 135.9,81.2 139.5,84.5 140,88.5 139.5,92.3 
					136.4,95.1 133.3,96.1 129.2,86.3 122.6,81 121.8,77.7 117.5,74.7 114.7,76.2 109.8,75.7 100.9,70.4 94,69.2 95.8,61.4 
					100.1,60.6 100.6,58.4 97.8,53.6 99.3,49.8 98.8,38.5 108,40 120.5,40.8 120.8,45.3 118.2,46.3 122.1,51.8 123.9,51.8 				"/>
				<polygon fill-rule="evenodd" clip-rule="evenodd" fill="#2D2D43" stroke="#4E4E5B" stroke-miterlimit="10" points="199.6,67.8 
					200.9,62.3 206,57 193.4,49.1 191.3,45 181.9,36.5 173.1,31.2 172,29.5 165,26.7 165,28.4 151.8,44.6 170.8,44.6 170.8,70.8 
					196.9,70.8 				"/>
				<polygon fill-rule="evenodd" clip-rule="evenodd" fill="#2D2D43" stroke="#4E4E5B" stroke-miterlimit="10" points="151.8,44.6 
					170.8,44.6 170.8,70.8 170.9,73.4 165,96.8 162.2,96.1 158.9,89.3 150.4,88.3 144.1,87 140,88.5 139.5,84.5 135.9,81.2 
					135.4,75.2 134.9,69.2 137.2,68.4 137.4,63.7 141.8,55.6 141.5,51.1 144.6,45.8 150.7,45.6 				"/>
				<polygon fill-rule="evenodd" clip-rule="evenodd" fill="#2D2D43" stroke="#4E4E5B" stroke-miterlimit="10" points="113.1,13.9 
					111.9,11.4 115.2,7.9 119.5,5.4 120.3,1.8 122.1,0.6 128.7,4.1 132.6,4.3 132.3,12.4 134.7,13.9 136.3,18.6 140.5,18.2 
					144.4,19.5 144.4,29 141.6,31.1 136.9,32.2 130.3,30.7 125.4,25.5 125.4,20.7 121.1,19.4 120.5,25.7 117.5,27.5 111.6,24 				
					"/>
			</g>
		</g>
		<path id="stroke_p01_2_" fill="#2D2D43" stroke="#4E4E5B" stroke-miterlimit="10" d="M220.9,153.3L220.9,153.3"/>
	</g>
	<linearGradient id="SVGID_1_" gradientUnits="userSpaceOnUse" x1="231.5527" y1="142.9904" x2="231.5527" y2="52.4781">
		<stop  offset="0" style="stop-color:#009DDA"/>
		<stop  offset="0.1155" style="stop-color:#0B81B4;stop-opacity:0.873"/>
		<stop  offset="0.3083" style="stop-color:#1C567A;stop-opacity:0.6611"/>
		<stop  offset="0.4511" style="stop-color:#273B56;stop-opacity:0.5041"/>
		<stop  offset="0.527" style="stop-color:#2B3148;stop-opacity:0.4206"/>
		<stop  offset="0.7124" style="stop-color:#195F87;stop-opacity:0.6477"/>
		<stop  offset="0.907" style="stop-color:#078CC2;stop-opacity:0.886"/>
		<stop  offset="1" style="stop-color:#009DDA"/>
	</linearGradient>
	
		<path fill-rule="evenodd" clip-rule="evenodd" fill="none" stroke="url(#SVGID_1_)" stroke-width="1.8119" stroke-miterlimit="10" d="
		M249.4,52.7c18.6,63-21.8,83.8-41,89.4"/>
	<linearGradient id="SVGID_2_" gradientUnits="userSpaceOnUse" x1="195.8911" y1="158.6774" x2="92.3063" y2="218.4821">
		<stop  offset="0" style="stop-color:#0396D0;stop-opacity:0.9814"/>
		<stop  offset="5.621893e-03" style="stop-color:#0494CE;stop-opacity:0.9755"/>
		<stop  offset="0.1315" style="stop-color:#12719F;stop-opacity:0.845"/>
		<stop  offset="0.2515" style="stop-color:#1D5679;stop-opacity:0.7207"/>
		<stop  offset="0.3624" style="stop-color:#25425F;stop-opacity:0.6057"/>
		<stop  offset="0.4611" style="stop-color:#29364F;stop-opacity:0.5034"/>
		<stop  offset="0.5374" style="stop-color:#2B3249;stop-opacity:0.4243"/>
		<stop  offset="1" style="stop-color:#009DDA"/>
	</linearGradient>
	<path fill-rule="evenodd" clip-rule="evenodd" fill="none" stroke="url(#SVGID_2_)" stroke-width="5" stroke-miterlimit="10" d="
		M192.4,154c-14.4,14.6-49.3,45.4-97.6,68.4"/>
	<linearGradient id="SVGID_3_" gradientUnits="userSpaceOnUse" x1="177.5304" y1="154.6864" x2="120.016" y2="106.4261">
		<stop  offset="0" style="stop-color:#009DDA"/>
		<stop  offset="7.358380e-02" style="stop-color:#0299D5;stop-opacity:0.9193"/>
		<stop  offset="0.1643" style="stop-color:#068EC6;stop-opacity:0.8198"/>
		<stop  offset="0.2641" style="stop-color:#0D7BAD;stop-opacity:0.7103"/>
		<stop  offset="0.3703" style="stop-color:#18628A;stop-opacity:0.5938"/>
		<stop  offset="0.4806" style="stop-color:#25415E;stop-opacity:0.4728"/>
		<stop  offset="0.5284" style="stop-color:#2B3148;stop-opacity:0.4203"/>
		<stop  offset="0.5738" style="stop-color:#204B6C;stop-opacity:0.4762"/>
		<stop  offset="0.6266" style="stop-color:#17648E;stop-opacity:0.541"/>
		<stop  offset="0.6831" style="stop-color:#0E79AA;stop-opacity:0.6105"/>
		<stop  offset="0.7437" style="stop-color:#0889BF;stop-opacity:0.6849"/>
		<stop  offset="0.8103" style="stop-color:#0394CF;stop-opacity:0.7668"/>
		<stop  offset="0.8874" style="stop-color:#019BD8;stop-opacity:0.8616"/>
		<stop  offset="1" style="stop-color:#009DDA"/>
	</linearGradient>
	<path fill-rule="evenodd" clip-rule="evenodd" fill="none" stroke="url(#SVGID_3_)" stroke-width="5" stroke-miterlimit="10" d="
		M106.8,125.4c14.3-4,56.2-11.3,84.8,12.5"/>
	<linearGradient id="SVGID_4_" gradientUnits="userSpaceOnUse" x1="165.4047" y1="136.3952" x2="165.4047" y2="34.9047">
		<stop  offset="0" style="stop-color:#009DDA"/>
		<stop  offset="0.4673" style="stop-color:#2D2D43;stop-opacity:0.4"/>
		<stop  offset="0.5333" style="stop-color:#2B334B;stop-opacity:0.4743"/>
		<stop  offset="0.6376" style="stop-color:#244462;stop-opacity:0.5918"/>
		<stop  offset="0.7671" style="stop-color:#195F87;stop-opacity:0.7376"/>
		<stop  offset="0.9153" style="stop-color:#0A85BA;stop-opacity:0.9046"/>
		<stop  offset="1" style="stop-color:#009DDA"/>
	</linearGradient>
	<path fill-rule="evenodd" clip-rule="evenodd" fill="none" stroke="url(#SVGID_4_)" stroke-width="2" stroke-miterlimit="10" d="
		M196.9,136.1c-8.1-25-30.8-81-63.4-100.3"/>
	<g>
		
			<image overflow="visible" opacity="0.5" width="34" height="34" xlink:href="6FFEA8B24F7ECFAF.png"  transform="matrix(1 0 0 1 83.1079 110.026)">
		</image>
		<g>
			<circle fill-rule="evenodd" clip-rule="evenodd" fill="#009DDA" cx="100.3" cy="127.2" r="1.7"/>
		</g>
	</g>
	<g>
		
			<image overflow="visible" opacity="0.5" width="35" height="34" xlink:href="6FFEA8B24F7ECFAD.png"  transform="matrix(1 0 0 1 70.1079 209.026)">
		</image>
		<g>
			<circle fill-rule="evenodd" clip-rule="evenodd" fill="#009DDA" cx="87.6" cy="225.9" r="1.7"/>
		</g>
	</g>
	<g>
		
			<image overflow="visible" opacity="0.5" width="34" height="34" xlink:href="6FFEA8B24F7ECFB3.png"  transform="matrix(1 0 0 1 129.1079 92.026)">
		</image>
		<g>
			<circle fill-rule="evenodd" clip-rule="evenodd" fill="#009DDA" cx="146.1" cy="108.8" r="1.7"/>
		</g>
	</g>
	<g>
		
			<image overflow="visible" opacity="0.5" width="34" height="34" xlink:href="6FFEA8B24F7ECFB5.png"  transform="matrix(1 0 0 1 112.1079 17.026)">
		</image>
		<g>
			<circle fill-rule="evenodd" clip-rule="evenodd" fill="#009DDA" cx="129.3" cy="33.9" r="1.7"/>
		</g>
	</g>
	<g>
		
			<image overflow="visible" opacity="0.5" width="34" height="35" xlink:href="6FFEA8B24F7ECFB7.png"  transform="matrix(1 0 0 1 231.1079 31.026)">
		</image>
		<g>
			<circle fill-rule="evenodd" clip-rule="evenodd" fill="#009DDA" cx="248" cy="48.4" r="1.7"/>
		</g>
	</g>
	<g>
		<path fill="#009DDA" d="M264.3,50.6h-1.7v-8.5h1.7V50.6z"/>
		<path fill="#009DDA" d="M272.6,49.4c-0.3,0.3-0.7,0.6-1.2,0.9s-1.2,0.4-2,0.4c-1,0-1.9-0.3-2.5-1s-1-1.5-1-2.5v-1.8
			c0-1,0.3-1.9,1-2.5s1.5-1,2.5-1c1,0,1.8,0.2,2.4,0.7s0.8,1.2,0.8,2l0,0h-1.6c0-0.5-0.1-0.8-0.4-1.1s-0.6-0.4-1.1-0.4
			c-0.5,0-0.9,0.2-1.3,0.6s-0.5,0.9-0.5,1.6v1.8c0,0.6,0.2,1.2,0.5,1.6s0.8,0.6,1.3,0.6c0.4,0,0.7,0,1-0.1s0.4-0.2,0.5-0.3v-1.7
			h-1.6v-1.2h3.4V49.4z"/>
		<path fill="#009DDA" d="M280.8,42.1v5.6c0,1-0.3,1.7-1,2.3s-1.5,0.8-2.5,0.8c-1,0-1.8-0.3-2.5-0.8s-0.9-1.3-0.9-2.3v-5.6h1.7v5.6
			c0,0.6,0.2,1,0.5,1.3s0.7,0.5,1.2,0.5c0.5,0,0.9-0.2,1.3-0.5s0.5-0.7,0.5-1.3v-5.6H280.8z"/>
		<path fill="#009DDA" d="M265.9,65.1h-1.2v-7.5l-1.9,0v-0.9l3-0.3V65.1z"/>
		<path fill="#009DDA" d="M274.6,65.1h-5.3v-0.8l2.7-3.2c0.5-0.6,0.8-1,1-1.4s0.3-0.7,0.3-1c0-0.4-0.1-0.7-0.3-1s-0.5-0.4-1-0.4
			c-0.5,0-0.9,0.2-1.2,0.5s-0.4,0.7-0.4,1.2h-1.1l0,0c0-0.7,0.2-1.3,0.7-1.8s1.1-0.7,2-0.7c0.8,0,1.4,0.2,1.8,0.6s0.7,1,0.7,1.6
			c0,0.4-0.1,0.9-0.4,1.3s-0.6,1-1.1,1.6l-2.2,2.5l0,0h3.9V65.1z"/>
		<path fill="#009DDA" d="M277.3,65.1h-1.2v-1.2h1.2V65.1z"/>
		<path fill="#009DDA" d="M281.8,60.2c0.5,0,0.9-0.1,1.1-0.4s0.3-0.6,0.3-1.1c0-0.4-0.1-0.8-0.3-1s-0.6-0.4-1-0.4
			c-0.4,0-0.8,0.1-1.1,0.4s-0.4,0.6-0.4,1h-1.1l0,0c0-0.6,0.2-1.2,0.7-1.6s1.1-0.7,1.9-0.7c0.8,0,1.4,0.2,1.9,0.6s0.7,1,0.7,1.8
			c0,0.4-0.1,0.8-0.3,1.1s-0.5,0.6-0.9,0.8c0.4,0.2,0.8,0.4,1,0.8s0.3,0.8,0.3,1.3c0,0.8-0.2,1.4-0.7,1.8s-1.1,0.7-1.9,0.7
			c-0.7,0-1.4-0.2-1.9-0.6s-0.8-1-0.8-1.7l0,0h1.1c0,0.4,0.1,0.8,0.4,1c0.3,0.3,0.7,0.4,1.2,0.4c0.5,0,0.8-0.1,1.1-0.4
			c0.3-0.3,0.4-0.7,0.4-1.1c0-0.5-0.1-0.9-0.4-1.2s-0.6-0.4-1.2-0.4h-0.9v-0.9H281.8z"/>
		<path fill="#009DDA" d="M288.9,56.4c0.3,0,0.7,0,1,0.1s0.6,0.2,0.8,0.3l-0.2,0.9c-0.2-0.1-0.5-0.2-0.7-0.2s-0.5-0.1-0.9-0.1
			c-0.5,0-1,0.2-1.3,0.7s-0.5,1-0.5,1.7v0.7c0.2-0.2,0.5-0.4,0.8-0.6s0.7-0.2,1.1-0.2c0.7,0,1.3,0.2,1.7,0.7s0.6,1.1,0.6,1.9
			c0,0.9-0.2,1.6-0.7,2.1c-0.5,0.5-1.1,0.8-1.9,0.8c-0.8,0-1.4-0.3-2-0.9c-0.5-0.6-0.8-1.4-0.8-2.5v-2c0-1,0.3-1.8,0.9-2.5
			S288.1,56.4,288.9,56.4z M288.7,60.5c-0.4,0-0.7,0.1-0.9,0.2s-0.5,0.4-0.6,0.6v0.6c0,0.7,0.2,1.3,0.5,1.7c0.3,0.4,0.7,0.6,1.2,0.6
			c0.5,0,0.9-0.2,1.1-0.5c0.3-0.4,0.4-0.8,0.4-1.4c0-0.6-0.1-1-0.4-1.3S289.2,60.5,288.7,60.5z"/>
		<path fill="#009DDA" d="M297.9,58.7c0,0.4-0.1,0.8-0.4,1.2s-0.6,0.6-1,0.8c0.5,0.2,0.9,0.4,1.2,0.8s0.4,0.8,0.4,1.3
			c0,0.8-0.3,1.4-0.8,1.8s-1.2,0.6-1.9,0.6c-0.8,0-1.5-0.2-2-0.6s-0.8-1-0.8-1.8c0-0.5,0.1-0.9,0.4-1.3s0.7-0.6,1.2-0.8
			c-0.4-0.2-0.8-0.4-1-0.8s-0.4-0.7-0.4-1.2c0-0.7,0.2-1.3,0.7-1.7s1.1-0.6,1.9-0.6c0.7,0,1.3,0.2,1.8,0.6S297.9,58,297.9,58.7z
			 M297,62.7c0-0.5-0.2-0.8-0.5-1.1s-0.7-0.5-1.1-0.5c-0.5,0-0.9,0.2-1.2,0.5s-0.5,0.7-0.5,1.1c0,0.5,0.2,0.9,0.5,1.2
			c0.3,0.3,0.7,0.4,1.2,0.4c0.4,0,0.8-0.1,1.1-0.4C296.8,63.6,297,63.2,297,62.7z M296.7,58.7c0-0.4-0.1-0.7-0.4-1s-0.6-0.4-1-0.4
			c-0.4,0-0.8,0.1-1,0.4s-0.4,0.6-0.4,1c0,0.4,0.1,0.8,0.4,1.1s0.6,0.4,1,0.4c0.4,0,0.7-0.1,0.9-0.4S296.7,59.2,296.7,58.7z"/>
		<path fill="#009DDA" d="M304.6,63.2l0.1,0.4h0l0.1-0.4l1.5-4.5h1.2l-2.3,6.3h-0.9l-2.4-6.3h1.2L304.6,63.2z"/>
		<path fill="#009DDA" d="M312.6,64.1c-0.2,0.3-0.5,0.6-0.8,0.8s-0.7,0.3-1.1,0.3c-0.7,0-1.2-0.2-1.6-0.7s-0.6-1.1-0.6-2.1v-3.7h1.2
			v3.8c0,0.7,0.1,1.1,0.3,1.4c0.2,0.3,0.5,0.4,0.9,0.4c0.4,0,0.7-0.1,1-0.2c0.3-0.2,0.5-0.4,0.6-0.7v-4.6h1.2v6.3h-1L312.6,64.1z"/>
		<path fill="#009DDA" d="M318,65.2c-0.9,0-1.6-0.3-2.1-0.9c-0.5-0.6-0.8-1.3-0.8-2.3v-0.3c0-0.9,0.3-1.7,0.8-2.3s1.2-0.9,1.9-0.9
			c0.8,0,1.5,0.3,1.9,0.8s0.6,1.2,0.6,2.1v0.6h-4.1l0,0c0,0.6,0.1,1.2,0.4,1.5c0.3,0.4,0.7,0.6,1.3,0.6c0.4,0,0.7-0.1,1-0.2
			s0.5-0.3,0.8-0.5l0.5,0.8c-0.2,0.2-0.5,0.4-0.9,0.6S318.5,65.2,318,65.2z M317.8,59.5c-0.4,0-0.7,0.2-1,0.5s-0.4,0.7-0.5,1.2l0,0
			h2.9v-0.1c0-0.5-0.1-0.8-0.3-1.1S318.3,59.5,317.8,59.5z"/>
		<path fill="#009DDA" d="M322.9,65.1h-1.2v-9.1h1.2V65.1z"/>
		<path fill="#009DDA" d="M324.4,61.8c0-0.9,0.3-1.7,0.8-2.3s1.2-0.9,2.1-0.9c0.9,0,1.6,0.3,2.1,0.9s0.8,1.4,0.8,2.3V62
			c0,0.9-0.3,1.7-0.8,2.3c-0.5,0.6-1.2,0.9-2.1,0.9s-1.6-0.3-2.1-0.9c-0.5-0.6-0.8-1.4-0.8-2.3V61.8z M325.6,62
			c0,0.7,0.1,1.2,0.4,1.7c0.3,0.4,0.7,0.7,1.3,0.7c0.6,0,1-0.2,1.3-0.7c0.3-0.4,0.4-1,0.4-1.7v-0.1c0-0.7-0.1-1.2-0.4-1.7
			s-0.7-0.7-1.3-0.7c-0.6,0-1,0.2-1.3,0.7s-0.4,1-0.4,1.7V62z"/>
		<path fill="#009DDA" d="M335.2,63.4c0-0.3-0.1-0.5-0.3-0.6s-0.6-0.3-1.1-0.4c-0.7-0.2-1.3-0.4-1.7-0.7s-0.6-0.7-0.6-1.2
			c0-0.5,0.2-1,0.7-1.3s1-0.6,1.7-0.6c0.7,0,1.3,0.2,1.7,0.6s0.7,0.8,0.6,1.4l0,0h-1.1c0-0.3-0.1-0.5-0.4-0.7s-0.5-0.3-0.9-0.3
			c-0.4,0-0.7,0.1-0.9,0.3s-0.3,0.4-0.3,0.7c0,0.2,0.1,0.4,0.3,0.6s0.5,0.3,1.1,0.4c0.8,0.2,1.4,0.4,1.8,0.7s0.6,0.7,0.6,1.2
			c0,0.6-0.2,1-0.7,1.4s-1,0.5-1.8,0.5c-0.8,0-1.4-0.2-1.9-0.6s-0.7-0.9-0.7-1.4l0,0h1.1c0,0.4,0.2,0.7,0.5,0.9
			c0.3,0.2,0.6,0.3,1,0.3c0.4,0,0.7-0.1,1-0.3C335.1,63.8,335.2,63.6,335.2,63.4z"/>
	</g>
	<g>
		<path fill="#009DDA" d="M104.2,33.7c0-0.3-0.1-0.6-0.3-0.8s-0.6-0.4-1.2-0.6c-1-0.3-1.7-0.6-2.2-1s-0.8-1-0.8-1.6
			c0-0.7,0.3-1.3,0.9-1.7s1.3-0.7,2.2-0.7c0.9,0,1.7,0.2,2.3,0.7s0.9,1.1,0.8,1.9l0,0h-1.7c0-0.4-0.1-0.8-0.4-1s-0.6-0.3-1.1-0.3
			c-0.4,0-0.7,0.1-1,0.3s-0.3,0.5-0.3,0.8c0,0.3,0.1,0.5,0.4,0.7s0.7,0.4,1.3,0.6c0.9,0.3,1.7,0.6,2.1,1c0.5,0.4,0.7,1,0.7,1.7
			c0,0.7-0.3,1.3-0.9,1.7s-1.3,0.6-2.3,0.6c-0.9,0-1.7-0.2-2.4-0.7s-1-1.1-1-2l0,0h1.7c0,0.5,0.1,0.9,0.4,1.1s0.7,0.4,1.2,0.4
			c0.5,0,0.8-0.1,1-0.3S104.2,34,104.2,33.7z"/>
		<path fill="#009DDA" d="M108.8,34.6h3.8v1.3h-5.5v-8.5h1.7V34.6z"/>
		<path fill="#009DDA" d="M118.4,34.1h-2.8l-0.6,1.8h-1.8l2.9-8.5h1.8l2.9,8.5h-1.8L118.4,34.1z M116,32.8h1.9l-0.9-3h0L116,32.8z"
			/>
		<path fill="#009DDA" d="M49.7,50.4h-1.2v-7.5l-1.9,0v-0.9l3-0.3V50.4z"/>
		<path fill="#009DDA" d="M58.5,50.4h-5.3v-0.8l2.7-3.2c0.5-0.6,0.8-1,1-1.4s0.3-0.7,0.3-1c0-0.4-0.1-0.7-0.3-1s-0.5-0.4-1-0.4
			c-0.5,0-0.9,0.2-1.2,0.5s-0.4,0.7-0.4,1.2h-1.1l0,0c0-0.7,0.2-1.3,0.7-1.8s1.1-0.7,2-0.7c0.8,0,1.4,0.2,1.8,0.6s0.7,1,0.7,1.6
			c0,0.4-0.1,0.9-0.4,1.3s-0.6,1-1.1,1.6l-2.2,2.5l0,0h3.9V50.4z"/>
		<path fill="#009DDA" d="M61.1,50.4H60v-1.2h1.2V50.4z"/>
		<path fill="#009DDA" d="M66,41.7c0.3,0,0.7,0,1,0.1s0.6,0.2,0.8,0.3L67.6,43c-0.2-0.1-0.5-0.2-0.7-0.2s-0.5-0.1-0.9-0.1
			c-0.5,0-1,0.2-1.3,0.7s-0.5,1-0.5,1.7v0.7c0.2-0.2,0.5-0.4,0.8-0.6s0.7-0.2,1.1-0.2c0.7,0,1.3,0.2,1.7,0.7s0.6,1.1,0.6,1.9
			c0,0.9-0.2,1.6-0.7,2.1s-1.1,0.8-1.9,0.8c-0.8,0-1.4-0.3-2-0.9s-0.8-1.4-0.8-2.5v-2c0-1,0.3-1.8,0.9-2.5S65.2,41.7,66,41.7z
			 M65.7,45.8c-0.4,0-0.7,0.1-0.9,0.2s-0.5,0.4-0.6,0.6v0.6c0,0.7,0.2,1.3,0.5,1.7s0.7,0.6,1.2,0.6c0.5,0,0.9-0.2,1.1-0.5
			s0.4-0.8,0.4-1.4c0-0.6-0.1-1-0.4-1.3S66.2,45.8,65.7,45.8z"/>
		<path fill="#009DDA" d="M75.2,42.8c-1.1,1.3-1.8,2.4-2.2,3.4s-0.6,2.1-0.6,3.3v0.9h-1.2v-0.9c0-1.3,0.2-2.5,0.7-3.5
			s1.2-2.1,2.1-3.2h-4.5v-0.9h5.7V42.8z"/>
		<path fill="#009DDA" d="M81.9,50.4h-5.3v-0.8l2.7-3.2c0.5-0.6,0.8-1,1-1.4s0.3-0.7,0.3-1c0-0.4-0.1-0.7-0.3-1s-0.5-0.4-1-0.4
			c-0.5,0-0.9,0.2-1.2,0.5s-0.4,0.7-0.4,1.2h-1.1l0,0c0-0.7,0.2-1.3,0.7-1.8s1.1-0.7,2-0.7c0.8,0,1.4,0.2,1.8,0.6s0.7,1,0.7,1.6
			c0,0.4-0.1,0.9-0.4,1.3s-0.6,1-1.1,1.6L78,49.5l0,0h3.9V50.4z"/>
		<path fill="#009DDA" d="M88.5,48.5l0.1,0.4h0l0.1-0.4l1.5-4.5h1.2L89,50.4h-0.9l-2.4-6.3H87L88.5,48.5z"/>
		<path fill="#009DDA" d="M96.4,49.5c-0.2,0.3-0.5,0.6-0.8,0.8s-0.7,0.3-1.1,0.3c-0.7,0-1.2-0.2-1.6-0.7s-0.6-1.1-0.6-2.1v-3.7h1.2
			v3.8c0,0.7,0.1,1.1,0.3,1.4s0.5,0.4,0.9,0.4c0.4,0,0.7-0.1,1-0.2s0.5-0.4,0.6-0.7v-4.6h1.2v6.3h-1L96.4,49.5z"/>
		<path fill="#009DDA" d="M101.8,50.5c-0.9,0-1.6-0.3-2.1-0.9s-0.8-1.3-0.8-2.3v-0.3c0-0.9,0.3-1.7,0.8-2.3s1.2-0.9,1.9-0.9
			c0.8,0,1.5,0.3,1.9,0.8s0.6,1.2,0.6,2.1v0.6h-4.1l0,0c0,0.6,0.1,1.2,0.4,1.5s0.7,0.6,1.3,0.6c0.4,0,0.7-0.1,1-0.2s0.5-0.3,0.8-0.5
			l0.5,0.8c-0.2,0.2-0.5,0.4-0.9,0.6S102.3,50.5,101.8,50.5z M101.6,44.8c-0.4,0-0.7,0.2-1,0.5s-0.4,0.7-0.5,1.2l0,0h2.9v-0.1
			c0-0.5-0.1-0.8-0.3-1.1S102.1,44.8,101.6,44.8z"/>
		<path fill="#009DDA" d="M106.7,50.4h-1.2v-9.1h1.2V50.4z"/>
		<path fill="#009DDA" d="M108.2,47.2c0-0.9,0.3-1.7,0.8-2.3s1.2-0.9,2.1-0.9c0.9,0,1.6,0.3,2.1,0.9s0.8,1.4,0.8,2.3v0.1
			c0,0.9-0.3,1.7-0.8,2.3s-1.2,0.9-2.1,0.9s-1.6-0.3-2.1-0.9s-0.8-1.4-0.8-2.3V47.2z M109.4,47.3c0,0.7,0.1,1.2,0.4,1.7
			s0.7,0.7,1.3,0.7c0.6,0,1-0.2,1.3-0.7s0.4-1,0.4-1.7v-0.1c0-0.7-0.1-1.2-0.4-1.7s-0.7-0.7-1.3-0.7c-0.6,0-1,0.2-1.3,0.7
			s-0.4,1-0.4,1.7V47.3z"/>
		<path fill="#009DDA" d="M119,48.7c0-0.3-0.1-0.5-0.3-0.6s-0.6-0.3-1.1-0.4c-0.7-0.2-1.3-0.4-1.7-0.7s-0.6-0.7-0.6-1.2
			c0-0.5,0.2-1,0.7-1.3s1-0.6,1.7-0.6c0.7,0,1.3,0.2,1.7,0.6s0.7,0.8,0.6,1.4l0,0h-1.1c0-0.3-0.1-0.5-0.4-0.7s-0.5-0.3-0.9-0.3
			c-0.4,0-0.7,0.1-0.9,0.3s-0.3,0.4-0.3,0.7c0,0.2,0.1,0.4,0.3,0.6s0.5,0.3,1.1,0.4c0.8,0.2,1.4,0.4,1.8,0.7s0.6,0.7,0.6,1.2
			c0,0.6-0.2,1-0.7,1.4s-1,0.5-1.8,0.5c-0.8,0-1.4-0.2-1.9-0.6s-0.7-0.9-0.7-1.4l0,0h1.1c0,0.4,0.2,0.7,0.5,0.9s0.6,0.3,1,0.3
			c0.4,0,0.7-0.1,1-0.3S119,49,119,48.7z"/>
	</g>
	<g>
		<path fill="#009DDA" d="M64.9,129.7L64.9,129.7l2.2-6.3h2.2v8.5h-1.7v-5.8l0,0l-2.1,5.8h-1.2l-2.1-5.8l0,0v5.8h-1.7v-8.5h2.2
			L64.9,129.7z"/>
		<path fill="#009DDA" d="M70.9,131.9v-8.5h3c1,0,1.9,0.3,2.6,1s1,1.5,1,2.6v1.4c0,1-0.3,1.9-1,2.6s-1.5,1-2.6,1H70.9z M72.6,124.7
			v5.9h1.3c0.6,0,1-0.2,1.4-0.6s0.5-1,0.5-1.6V127c0-0.7-0.2-1.2-0.5-1.6s-0.8-0.6-1.4-0.6H72.6z"/>
		<path fill="#009DDA" d="M80.4,130.6h3.9v1.3h-5.9V131l3.8-6.3h-3.8v-1.3h5.8v0.9L80.4,130.6z"/>
		<path fill="#009DDA" d="M13.7,146.4h-1.2v-7.5l-1.9,0v-0.9l3-0.3V146.4z"/>
		<path fill="#009DDA" d="M21.5,143.5h1.2v0.9h-1.2v2h-1.1v-2h-3.7v-0.7l3.6-5.9h1.2V143.5z M17.9,143.5h2.4v-4l0,0l-0.1,0.3
			L17.9,143.5z"/>
		<path fill="#009DDA" d="M25.1,146.4H24v-1.2h1.2V146.4z"/>
		<path fill="#009DDA" d="M30.4,146.4h-1.2v-7.5l-1.9,0v-0.9l3-0.3V146.4z"/>
		<path fill="#009DDA" d="M34,142.6l0.5-4.7h4.3v1h-3.3l-0.3,2.5c0.2-0.1,0.4-0.2,0.6-0.3s0.5-0.1,0.8-0.1c0.8,0,1.4,0.2,1.9,0.7
			s0.7,1.2,0.7,2.1c0,0.9-0.2,1.5-0.7,2.1s-1.1,0.8-2,0.8c-0.7,0-1.3-0.2-1.8-0.6s-0.7-1-0.7-1.7l0,0h1c0,0.5,0.1,0.8,0.4,1.1
			s0.6,0.4,1,0.4c0.5,0,0.9-0.2,1.1-0.5s0.4-0.8,0.4-1.4c0-0.5-0.1-1-0.4-1.3s-0.6-0.5-1.1-0.5c-0.5,0-0.8,0.1-1,0.2
			s-0.4,0.3-0.5,0.6L34,142.6z"/>
		<path fill="#009DDA" d="M40.8,142.6l0.5-4.7h4.3v1h-3.3l-0.3,2.5c0.2-0.1,0.4-0.2,0.6-0.3s0.5-0.1,0.8-0.1c0.8,0,1.4,0.2,1.9,0.7
			s0.7,1.2,0.7,2.1c0,0.9-0.2,1.5-0.7,2.1s-1.1,0.8-2,0.8c-0.7,0-1.3-0.2-1.8-0.6s-0.7-1-0.7-1.7l0,0h1c0,0.5,0.1,0.8,0.4,1.1
			s0.6,0.4,1,0.4c0.5,0,0.9-0.2,1.1-0.5s0.4-0.8,0.4-1.4c0-0.5-0.1-1-0.4-1.3s-0.6-0.5-1.1-0.5c-0.5,0-0.8,0.1-1,0.2
			s-0.4,0.3-0.5,0.6L40.8,142.6z"/>
		<path fill="#009DDA" d="M52.5,144.5l0.1,0.4h0l0.1-0.4l1.5-4.5h1.2l-2.3,6.3h-0.9l-2.4-6.3H51L52.5,144.5z"/>
		<path fill="#009DDA" d="M60.4,145.5c-0.2,0.3-0.5,0.6-0.8,0.8s-0.7,0.3-1.1,0.3c-0.7,0-1.2-0.2-1.6-0.7s-0.6-1.1-0.6-2.1v-3.7h1.2
			v3.8c0,0.7,0.1,1.1,0.3,1.4s0.5,0.4,0.9,0.4c0.4,0,0.7-0.1,1-0.2s0.5-0.4,0.6-0.7v-4.6h1.2v6.3h-1L60.4,145.5z"/>
		<path fill="#009DDA" d="M65.8,146.5c-0.9,0-1.6-0.3-2.1-0.9s-0.8-1.3-0.8-2.3v-0.3c0-0.9,0.3-1.7,0.8-2.3s1.2-0.9,1.9-0.9
			c0.8,0,1.5,0.3,1.9,0.8s0.6,1.2,0.6,2.1v0.6h-4.1l0,0c0,0.6,0.1,1.2,0.4,1.5s0.7,0.6,1.3,0.6c0.4,0,0.7-0.1,1-0.2s0.5-0.3,0.8-0.5
			l0.5,0.8c-0.2,0.2-0.5,0.4-0.9,0.6S66.3,146.5,65.8,146.5z M65.6,140.8c-0.4,0-0.7,0.2-1,0.5s-0.4,0.7-0.5,1.2l0,0H67v-0.1
			c0-0.5-0.1-0.8-0.3-1.1S66.1,140.8,65.6,140.8z"/>
		<path fill="#009DDA" d="M70.7,146.4h-1.2v-9.1h1.2V146.4z"/>
		<path fill="#009DDA" d="M72.2,143.2c0-0.9,0.3-1.7,0.8-2.3s1.2-0.9,2.1-0.9c0.9,0,1.6,0.3,2.1,0.9s0.8,1.4,0.8,2.3v0.1
			c0,0.9-0.3,1.7-0.8,2.3s-1.2,0.9-2.1,0.9s-1.6-0.3-2.1-0.9s-0.8-1.4-0.8-2.3V143.2z M73.4,143.3c0,0.7,0.1,1.2,0.4,1.7
			s0.7,0.7,1.3,0.7c0.6,0,1-0.2,1.3-0.7s0.4-1,0.4-1.7v-0.1c0-0.7-0.1-1.2-0.4-1.7s-0.7-0.7-1.3-0.7c-0.6,0-1,0.2-1.3,0.7
			s-0.4,1-0.4,1.7V143.3z"/>
		<path fill="#009DDA" d="M83,144.7c0-0.3-0.1-0.5-0.3-0.6s-0.6-0.3-1.1-0.4c-0.7-0.2-1.3-0.4-1.7-0.7s-0.6-0.7-0.6-1.2
			c0-0.5,0.2-1,0.7-1.3s1-0.6,1.7-0.6c0.7,0,1.3,0.2,1.7,0.6s0.7,0.8,0.6,1.4l0,0h-1.1c0-0.3-0.1-0.5-0.4-0.7s-0.5-0.3-0.9-0.3
			c-0.4,0-0.7,0.1-0.9,0.3s-0.3,0.4-0.3,0.7c0,0.2,0.1,0.4,0.3,0.6s0.5,0.3,1.1,0.4c0.8,0.2,1.4,0.4,1.8,0.7s0.6,0.7,0.6,1.2
			c0,0.6-0.2,1-0.7,1.4s-1,0.5-1.8,0.5c-0.8,0-1.4-0.2-1.9-0.6s-0.7-0.9-0.7-1.4l0,0h1.1c0,0.4,0.2,0.7,0.5,0.9s0.6,0.3,1,0.3
			c0.4,0,0.7-0.1,1-0.3S83,145,83,144.7z"/>
	</g>
	<g>
		<path fill="#009DDA" d="M137.1,83.8L137.1,83.8c0,0.9-0.2,1.7-0.8,2.2s-1.4,0.8-2.4,0.8c-1,0-1.8-0.3-2.5-1s-0.9-1.5-0.9-2.6v-1.7
			c0-1,0.3-1.9,0.9-2.6s1.4-1,2.4-1c1,0,1.9,0.3,2.4,0.8s0.9,1.2,0.9,2.1l0,0h-1.7c0-0.5-0.1-1-0.4-1.2s-0.7-0.4-1.2-0.4
			c-0.5,0-0.9,0.2-1.2,0.6s-0.4,0.9-0.4,1.6v1.7c0,0.7,0.2,1.2,0.5,1.6s0.7,0.6,1.3,0.6c0.5,0,0.9-0.1,1.1-0.4s0.4-0.7,0.4-1.2
			H137.1z"/>
		<path fill="#009DDA" d="M145.2,83.1c0,1.1-0.3,1.9-1,2.6s-1.5,1-2.6,1c-1.1,0-1.9-0.3-2.6-1s-1-1.5-1-2.6v-1.5c0-1,0.3-1.9,1-2.6
			s1.5-1,2.6-1c1.1,0,1.9,0.3,2.6,1s1,1.5,1,2.6V83.1z M143.5,81.6c0-0.7-0.2-1.2-0.5-1.6s-0.8-0.6-1.4-0.6c-0.6,0-1,0.2-1.4,0.6
			s-0.5,1-0.5,1.6v1.5c0,0.7,0.2,1.2,0.5,1.7s0.8,0.6,1.4,0.6c0.6,0,1-0.2,1.4-0.6s0.5-1,0.5-1.7V81.6z"/>
		<path fill="#009DDA" d="M148.3,83.2v3.4h-1.7v-8.5h3c1,0,1.7,0.2,2.3,0.7s0.8,1.1,0.8,1.9c0,0.4-0.1,0.8-0.3,1.1s-0.6,0.6-1,0.8
			c0.5,0.1,0.9,0.4,1.1,0.7s0.3,0.8,0.3,1.3v0.6c0,0.2,0,0.5,0.1,0.7s0.2,0.5,0.3,0.6v0.1h-1.8c-0.2-0.1-0.3-0.3-0.3-0.6
			s-0.1-0.6-0.1-0.8v-0.6c0-0.4-0.1-0.8-0.3-1s-0.6-0.4-1-0.4H148.3z M148.3,81.9h1.2c0.5,0,0.8-0.1,1.1-0.3s0.4-0.5,0.4-0.9
			c0-0.4-0.1-0.7-0.4-0.9s-0.6-0.3-1-0.3h-1.2V81.9z"/>
		<path fill="#009DDA" d="M82.4,101.1h-1.2v-7.5l-1.9,0v-0.9l3-0.3V101.1z"/>
		<path fill="#009DDA" d="M87.9,100.3c0.6,0,1-0.2,1.3-0.6s0.5-0.9,0.5-1.6v-0.7c-0.2,0.3-0.4,0.5-0.7,0.6s-0.6,0.2-0.9,0.2
			c-0.8,0-1.5-0.3-1.9-0.8s-0.7-1.2-0.7-2.1c0-0.9,0.2-1.6,0.7-2.1s1.1-0.8,1.8-0.8c0.9,0,1.5,0.3,2.1,0.8s0.8,1.3,0.8,2.3v2.6
			c0,1-0.3,1.7-0.8,2.3s-1.3,0.8-2.2,0.8c-0.3,0-0.6,0-0.9-0.1s-0.6-0.2-0.9-0.3l0.2-0.9c0.3,0.1,0.5,0.2,0.8,0.3
			S87.6,100.3,87.9,100.3z M88.1,97.3c0.4,0,0.7-0.1,1-0.3s0.5-0.4,0.6-0.7v-1c0-0.6-0.1-1.1-0.4-1.5s-0.7-0.5-1.2-0.5
			c-0.4,0-0.8,0.2-1,0.6s-0.4,0.9-0.4,1.5c0,0.6,0.1,1.1,0.4,1.4S87.7,97.3,88.1,97.3z"/>
		<path fill="#009DDA" d="M93.8,101.1h-1.2v-1.2h1.2V101.1z"/>
		<path fill="#009DDA" d="M98.7,92.4c0.3,0,0.7,0,1,0.1s0.6,0.2,0.8,0.3l-0.2,0.9c-0.2-0.1-0.5-0.2-0.7-0.2s-0.5-0.1-0.9-0.1
			c-0.5,0-1,0.2-1.3,0.7s-0.5,1-0.5,1.7v0.7c0.2-0.2,0.5-0.4,0.8-0.6s0.7-0.2,1.1-0.2c0.7,0,1.3,0.2,1.7,0.7s0.6,1.1,0.6,1.9
			c0,0.9-0.2,1.6-0.7,2.1s-1.1,0.8-1.9,0.8c-0.8,0-1.4-0.3-2-0.9s-0.8-1.4-0.8-2.5v-2c0-1,0.3-1.8,0.9-2.5S97.8,92.4,98.7,92.4z
			 M98.4,96.5c-0.4,0-0.7,0.1-0.9,0.2s-0.5,0.4-0.6,0.6v0.6c0,0.7,0.2,1.3,0.5,1.7s0.7,0.6,1.2,0.6c0.5,0,0.9-0.2,1.1-0.5
			s0.4-0.8,0.4-1.4c0-0.6-0.1-1-0.4-1.3S98.9,96.5,98.4,96.5z"/>
		<path fill="#009DDA" d="M105.4,92.4c0.3,0,0.7,0,1,0.1s0.6,0.2,0.8,0.3l-0.2,0.9c-0.2-0.1-0.5-0.2-0.7-0.2s-0.5-0.1-0.9-0.1
			c-0.5,0-1,0.2-1.3,0.7s-0.5,1-0.5,1.7v0.7c0.2-0.2,0.5-0.4,0.8-0.6s0.7-0.2,1.1-0.2c0.7,0,1.3,0.2,1.7,0.7s0.6,1.1,0.6,1.9
			c0,0.9-0.2,1.6-0.7,2.1s-1.1,0.8-1.9,0.8c-0.8,0-1.4-0.3-2-0.9s-0.8-1.4-0.8-2.5v-2c0-1,0.3-1.8,0.9-2.5S104.6,92.4,105.4,92.4z
			 M105.2,96.5c-0.4,0-0.7,0.1-0.9,0.2s-0.5,0.4-0.6,0.6v0.6c0,0.7,0.2,1.3,0.5,1.7s0.7,0.6,1.2,0.6c0.5,0,0.9-0.2,1.1-0.5
			s0.4-0.8,0.4-1.4c0-0.6-0.1-1-0.4-1.3S105.7,96.5,105.2,96.5z"/>
		<path fill="#009DDA" d="M109.5,97.3l0.5-4.7h4.3v1h-3.3l-0.3,2.5c0.2-0.1,0.4-0.2,0.6-0.3s0.5-0.1,0.8-0.1c0.8,0,1.4,0.2,1.9,0.7
			s0.7,1.2,0.7,2.1c0,0.9-0.2,1.5-0.7,2.1s-1.1,0.8-2,0.8c-0.7,0-1.3-0.2-1.8-0.6s-0.7-1-0.7-1.7l0,0h1c0,0.5,0.1,0.8,0.4,1.1
			s0.6,0.4,1,0.4c0.5,0,0.9-0.2,1.1-0.5s0.4-0.8,0.4-1.4c0-0.5-0.1-1-0.4-1.3s-0.6-0.5-1.1-0.5c-0.5,0-0.8,0.1-1,0.2
			s-0.4,0.3-0.5,0.6L109.5,97.3z"/>
		<path fill="#009DDA" d="M121.1,99.2l0.1,0.4h0l0.1-0.4l1.5-4.5h1.2l-2.3,6.3h-0.9l-2.4-6.3h1.2L121.1,99.2z"/>
		<path fill="#009DDA" d="M129.1,100.1c-0.2,0.3-0.5,0.6-0.8,0.8s-0.7,0.3-1.1,0.3c-0.7,0-1.2-0.2-1.6-0.7s-0.6-1.1-0.6-2.1v-3.7
			h1.2v3.8c0,0.7,0.1,1.1,0.3,1.4s0.5,0.4,0.9,0.4c0.4,0,0.7-0.1,1-0.2s0.5-0.4,0.6-0.7v-4.6h1.2v6.3h-1L129.1,100.1z"/>
		<path fill="#009DDA" d="M134.5,101.2c-0.9,0-1.6-0.3-2.1-0.9s-0.8-1.3-0.8-2.3v-0.3c0-0.9,0.3-1.7,0.8-2.3s1.2-0.9,1.9-0.9
			c0.8,0,1.5,0.3,1.9,0.8s0.6,1.2,0.6,2.1v0.6h-4.1l0,0c0,0.6,0.1,1.2,0.4,1.5s0.7,0.6,1.3,0.6c0.4,0,0.7-0.1,1-0.2s0.5-0.3,0.8-0.5
			l0.5,0.8c-0.2,0.2-0.5,0.4-0.9,0.6S135,101.2,134.5,101.2z M134.3,95.5c-0.4,0-0.7,0.2-1,0.5s-0.4,0.7-0.5,1.2l0,0h2.9v-0.1
			c0-0.5-0.1-0.8-0.3-1.1S134.8,95.5,134.3,95.5z"/>
		<path fill="#009DDA" d="M139.4,101.1h-1.2v-9.1h1.2V101.1z"/>
		<path fill="#009DDA" d="M140.9,97.8c0-0.9,0.3-1.7,0.8-2.3s1.2-0.9,2.1-0.9c0.9,0,1.6,0.3,2.1,0.9s0.8,1.4,0.8,2.3V98
			c0,0.9-0.3,1.7-0.8,2.3s-1.2,0.9-2.1,0.9s-1.6-0.3-2.1-0.9s-0.8-1.4-0.8-2.3V97.8z M142,98c0,0.7,0.1,1.2,0.4,1.7s0.7,0.7,1.3,0.7
			c0.6,0,1-0.2,1.3-0.7s0.4-1,0.4-1.7v-0.1c0-0.7-0.1-1.2-0.4-1.7s-0.7-0.7-1.3-0.7c-0.6,0-1,0.2-1.3,0.7s-0.4,1-0.4,1.7V98z"/>
		<path fill="#009DDA" d="M151.7,99.4c0-0.3-0.1-0.5-0.3-0.6s-0.6-0.3-1.1-0.4c-0.7-0.2-1.3-0.4-1.7-0.7S148,97,148,96.5
			c0-0.5,0.2-1,0.7-1.3s1-0.6,1.7-0.6c0.7,0,1.3,0.2,1.7,0.6s0.7,0.8,0.6,1.4l0,0h-1.1c0-0.3-0.1-0.5-0.4-0.7s-0.5-0.3-0.9-0.3
			c-0.4,0-0.7,0.1-0.9,0.3s-0.3,0.4-0.3,0.7c0,0.2,0.1,0.4,0.3,0.6s0.5,0.3,1.1,0.4c0.8,0.2,1.4,0.4,1.8,0.7s0.6,0.7,0.6,1.2
			c0,0.6-0.2,1-0.7,1.4s-1,0.5-1.8,0.5c-0.8,0-1.4-0.2-1.9-0.6s-0.7-0.9-0.7-1.4l0,0h1.1c0,0.4,0.2,0.7,0.5,0.9s0.6,0.3,1,0.3
			c0.4,0,0.7-0.1,1-0.3S151.7,99.6,151.7,99.4z"/>
	</g>
	<g>
		<path fill="#009DDA" d="M51.9,229.3v-8.5h2.8c1,0,1.8,0.2,2.3,0.6s0.8,1,0.8,1.7c0,0.4-0.1,0.7-0.3,1s-0.5,0.5-0.9,0.7
			c0.5,0.1,0.9,0.3,1.2,0.7s0.4,0.8,0.4,1.3c0,0.8-0.3,1.4-0.8,1.9s-1.3,0.6-2.3,0.6H51.9z M53.7,224.3h1.1c0.5,0,0.8-0.1,1.1-0.3
			s0.4-0.5,0.4-0.8c0-0.4-0.1-0.7-0.4-0.9s-0.6-0.3-1.1-0.3h-1.1V224.3z M53.7,225.5v2.5h1.6c0.5,0,0.8-0.1,1-0.3s0.4-0.5,0.4-0.9
			c0-0.4-0.1-0.7-0.4-1s-0.6-0.3-1.1-0.3H53.7z"/>
		<path fill="#009DDA" d="M61.3,225.9v3.4h-1.7v-8.5h3c1,0,1.7,0.2,2.3,0.7s0.8,1.1,0.8,1.9c0,0.4-0.1,0.8-0.3,1.1s-0.6,0.6-1,0.8
			c0.5,0.1,0.9,0.4,1.1,0.7s0.3,0.8,0.3,1.3v0.6c0,0.2,0,0.5,0.1,0.7s0.2,0.5,0.3,0.6v0.1h-1.8c-0.2-0.1-0.3-0.3-0.3-0.6
			s-0.1-0.6-0.1-0.8v-0.6c0-0.4-0.1-0.8-0.3-1s-0.6-0.4-1-0.4H61.3z M61.3,224.5h1.2c0.5,0,0.8-0.1,1.1-0.3s0.4-0.5,0.4-0.9
			c0-0.4-0.1-0.7-0.4-0.9s-0.6-0.3-1-0.3h-1.2V224.5z"/>
		<path fill="#009DDA" d="M73.6,226.4L73.6,226.4c0,0.9-0.2,1.7-0.8,2.2s-1.4,0.8-2.4,0.8c-1,0-1.8-0.3-2.5-1s-0.9-1.5-0.9-2.6v-1.7
			c0-1,0.3-1.9,0.9-2.6s1.4-1,2.4-1c1,0,1.9,0.3,2.4,0.8s0.9,1.2,0.9,2.1l0,0H72c0-0.5-0.1-1-0.4-1.2s-0.7-0.4-1.2-0.4
			c-0.5,0-0.9,0.2-1.2,0.6s-0.4,0.9-0.4,1.6v1.7c0,0.7,0.2,1.2,0.5,1.6s0.7,0.6,1.3,0.6c0.5,0,0.9-0.1,1.1-0.4s0.4-0.7,0.4-1.2H73.6
			z"/>
		<path fill="#009DDA" d="M3,243.7H1.9v-7.5l-1.9,0v-0.9l3-0.3V243.7z"/>
		<path fill="#009DDA" d="M10.8,240.9H12v0.9h-1.2v2H9.7v-2H6v-0.7l3.6-5.9h1.2V240.9z M7.3,240.9h2.4v-4l0,0l-0.1,0.3L7.3,240.9z"
			/>
		<path fill="#009DDA" d="M14.5,243.7h-1.2v-1.2h1.2V243.7z"/>
		<path fill="#009DDA" d="M20.8,240.9H22v0.9h-1.2v2h-1.1v-2H16v-0.7l3.6-5.9h1.2V240.9z M17.2,240.9h2.4v-4l0,0l-0.1,0.3
			L17.2,240.9z"/>
		<path fill="#009DDA" d="M28.6,236.1c-1.1,1.3-1.8,2.4-2.2,3.4s-0.6,2.1-0.6,3.3v0.9h-1.2v-0.9c0-1.3,0.2-2.5,0.7-3.5
			s1.2-2.1,2.1-3.2h-4.5v-0.9h5.7V236.1z"/>
		<path fill="#009DDA" d="M35.3,243.7H30v-0.8l2.7-3.2c0.5-0.6,0.8-1,1-1.4s0.3-0.7,0.3-1c0-0.4-0.1-0.7-0.3-1s-0.5-0.4-1-0.4
			c-0.5,0-0.9,0.2-1.2,0.5s-0.4,0.7-0.4,1.2h-1.1l0,0c0-0.7,0.2-1.3,0.7-1.8s1.1-0.7,2-0.7c0.8,0,1.4,0.2,1.8,0.6s0.7,1,0.7,1.6
			c0,0.4-0.1,0.9-0.4,1.3s-0.6,1-1.1,1.6l-2.2,2.5l0,0h3.9V243.7z"/>
		<path fill="#009DDA" d="M41.8,241.9l0.1,0.4h0l0.1-0.4l1.5-4.5h1.2l-2.3,6.3h-0.9l-2.4-6.3h1.2L41.8,241.9z"/>
		<path fill="#009DDA" d="M49.7,242.8c-0.2,0.3-0.5,0.6-0.8,0.8s-0.7,0.3-1.1,0.3c-0.7,0-1.2-0.2-1.6-0.7s-0.6-1.1-0.6-2.1v-3.7h1.2
			v3.8c0,0.7,0.1,1.1,0.3,1.4s0.5,0.4,0.9,0.4c0.4,0,0.7-0.1,1-0.2s0.5-0.4,0.6-0.7v-4.6h1.2v6.3h-1L49.7,242.8z"/>
		<path fill="#009DDA" d="M55.1,243.9c-0.9,0-1.6-0.3-2.1-0.9s-0.8-1.3-0.8-2.3v-0.3c0-0.9,0.3-1.7,0.8-2.3s1.2-0.9,1.9-0.9
			c0.8,0,1.5,0.3,1.9,0.8s0.6,1.2,0.6,2.1v0.6h-4.1l0,0c0,0.6,0.1,1.2,0.4,1.5s0.7,0.6,1.3,0.6c0.4,0,0.7-0.1,1-0.2s0.5-0.3,0.8-0.5
			l0.5,0.8c-0.2,0.2-0.5,0.4-0.9,0.6S55.7,243.9,55.1,243.9z M55,238.2c-0.4,0-0.7,0.2-1,0.5s-0.4,0.7-0.5,1.2l0,0h2.9v-0.1
			c0-0.5-0.1-0.8-0.3-1.1S55.4,238.2,55,238.2z"/>
		<path fill="#009DDA" d="M60.1,243.7h-1.2v-9.1h1.2V243.7z"/>
		<path fill="#009DDA" d="M61.6,240.5c0-0.9,0.3-1.7,0.8-2.3s1.2-0.9,2.1-0.9c0.9,0,1.6,0.3,2.1,0.9s0.8,1.4,0.8,2.3v0.1
			c0,0.9-0.3,1.7-0.8,2.3s-1.2,0.9-2.1,0.9s-1.6-0.3-2.1-0.9s-0.8-1.4-0.8-2.3V240.5z M62.7,240.6c0,0.7,0.1,1.2,0.4,1.7
			s0.7,0.7,1.3,0.7c0.6,0,1-0.2,1.3-0.7s0.4-1,0.4-1.7v-0.1c0-0.7-0.1-1.2-0.4-1.7s-0.7-0.7-1.3-0.7c-0.6,0-1,0.2-1.3,0.7
			s-0.4,1-0.4,1.7V240.6z"/>
		<path fill="#009DDA" d="M72.3,242c0-0.3-0.1-0.5-0.3-0.6s-0.6-0.3-1.1-0.4c-0.7-0.2-1.3-0.4-1.7-0.7s-0.6-0.7-0.6-1.2
			c0-0.5,0.2-1,0.7-1.3s1-0.6,1.7-0.6c0.7,0,1.3,0.2,1.7,0.6s0.7,0.8,0.6,1.4l0,0h-1.1c0-0.3-0.1-0.5-0.4-0.7s-0.5-0.3-0.9-0.3
			c-0.4,0-0.7,0.1-0.9,0.3s-0.3,0.4-0.3,0.7c0,0.2,0.1,0.4,0.3,0.6s0.5,0.3,1.1,0.4c0.8,0.2,1.4,0.4,1.8,0.7s0.6,0.7,0.6,1.2
			c0,0.6-0.2,1-0.7,1.4s-1,0.5-1.8,0.5c-0.8,0-1.4-0.2-1.9-0.6s-0.7-0.9-0.7-1.4l0,0h1.1c0,0.4,0.2,0.7,0.5,0.9s0.6,0.3,1,0.3
			c0.4,0,0.7-0.1,1-0.3S72.3,242.3,72.3,242z"/>
	</g>
	<polyline fill-rule="evenodd" clip-rule="evenodd" fill="none" stroke="#A5A7AA" stroke-miterlimit="10" points="199.6,151 
		199.6,159.5 222.1,159.5 	"/>
	<g>
		<path fill="#FFFFFF" d="M228.1,160.2h-3.2l-0.8,2.2h-1.2l3.1-8.5h1l3,8.5h-1.2L228.1,160.2z M225.2,159.2h2.5l-1.2-3.7h0
			L225.2,159.2z"/>
		<path fill="#FFFFFF" d="M233.7,162.5c-0.9,0-1.6-0.3-2.1-0.9s-0.8-1.3-0.8-2.3v-0.3c0-0.9,0.3-1.7,0.8-2.3s1.2-0.9,1.9-0.9
			c0.8,0,1.5,0.3,1.9,0.8s0.6,1.2,0.6,2.1v0.6H232l0,0c0,0.6,0.1,1.2,0.4,1.5s0.7,0.6,1.3,0.6c0.4,0,0.7-0.1,1-0.2s0.5-0.3,0.8-0.5
			l0.5,0.8c-0.2,0.2-0.5,0.4-0.9,0.6S234.3,162.5,233.7,162.5z M233.5,156.8c-0.4,0-0.7,0.2-1,0.5s-0.4,0.7-0.5,1.2l0,0h2.9v-0.1
			c0-0.5-0.1-0.8-0.3-1.1S234,156.8,233.5,156.8z"/>
		<path fill="#FFFFFF" d="M240.4,157.1l-0.6,0c-0.3,0-0.6,0.1-0.8,0.2s-0.4,0.3-0.5,0.6v4.5h-1.2V156h1l0.1,0.9
			c0.2-0.3,0.4-0.6,0.7-0.8s0.6-0.3,0.9-0.3c0.1,0,0.2,0,0.2,0s0.1,0,0.2,0L240.4,157.1z"/>
		<path fill="#FFFFFF" d="M241.2,159.1c0-0.9,0.3-1.7,0.8-2.3s1.2-0.9,2.1-0.9c0.9,0,1.6,0.3,2.1,0.9s0.8,1.4,0.8,2.3v0.1
			c0,0.9-0.3,1.7-0.8,2.3s-1.2,0.9-2.1,0.9s-1.6-0.3-2.1-0.9s-0.8-1.4-0.8-2.3V159.1z M242.4,159.3c0,0.7,0.1,1.2,0.4,1.7
			s0.7,0.7,1.3,0.7c0.6,0,1-0.2,1.3-0.7s0.4-1,0.4-1.7v-0.1c0-0.7-0.1-1.2-0.4-1.7s-0.7-0.7-1.3-0.7c-0.6,0-1,0.2-1.3,0.7
			s-0.4,1-0.4,1.7V159.3z"/>
		<path fill="#FFFFFF" d="M253.7,159.4c0,0.9-0.2,1.7-0.7,2.2s-1,0.8-1.8,0.8c-0.4,0-0.7-0.1-1-0.2s-0.5-0.3-0.8-0.6v3.1h-1.2V156
			h0.9l0.2,0.8c0.2-0.3,0.5-0.5,0.8-0.7s0.7-0.2,1.1-0.2c0.8,0,1.4,0.3,1.8,0.9s0.7,1.4,0.7,2.5V159.4z M252.5,159.3
			c0-0.7-0.1-1.3-0.4-1.8s-0.7-0.7-1.3-0.7c-0.3,0-0.6,0.1-0.8,0.2s-0.4,0.4-0.6,0.6v3.1c0.1,0.3,0.3,0.5,0.6,0.6s0.5,0.2,0.9,0.2
			c0.5,0,1-0.2,1.2-0.6s0.4-0.9,0.4-1.5V159.3z"/>
		<path fill="#FFFFFF" d="M259.1,161.4c-0.2,0.3-0.5,0.6-0.8,0.8s-0.7,0.3-1.1,0.3c-0.7,0-1.2-0.2-1.6-0.7s-0.6-1.1-0.6-2.1V156h1.2
			v3.8c0,0.7,0.1,1.1,0.3,1.4s0.5,0.4,0.9,0.4c0.4,0,0.7-0.1,1-0.2s0.5-0.4,0.6-0.7V156h1.2v6.3h-1L259.1,161.4z"/>
		<path fill="#FFFFFF" d="M264.6,162.5c-0.9,0-1.6-0.3-2.1-0.9s-0.8-1.3-0.8-2.3v-0.3c0-0.9,0.3-1.7,0.8-2.3s1.2-0.9,1.9-0.9
			c0.8,0,1.5,0.3,1.9,0.8s0.6,1.2,0.6,2.1v0.6h-4.1l0,0c0,0.6,0.1,1.2,0.4,1.5s0.7,0.6,1.3,0.6c0.4,0,0.7-0.1,1-0.2s0.5-0.3,0.8-0.5
			l0.5,0.8c-0.2,0.2-0.5,0.4-0.9,0.6S265.1,162.5,264.6,162.5z M264.4,156.8c-0.4,0-0.7,0.2-1,0.5s-0.4,0.7-0.5,1.2l0,0h2.9v-0.1
			c0-0.5-0.1-0.8-0.3-1.1S264.8,156.8,264.4,156.8z"/>
		<path fill="#FFFFFF" d="M271.2,157.1l-0.6,0c-0.3,0-0.6,0.1-0.8,0.2s-0.4,0.3-0.5,0.6v4.5h-1.2V156h1l0.1,0.9
			c0.2-0.3,0.4-0.6,0.7-0.8s0.6-0.3,0.9-0.3c0.1,0,0.2,0,0.2,0s0.1,0,0.2,0L271.2,157.1z"/>
		<path fill="#FFFFFF" d="M274.1,154.5v1.5h1.2v0.9h-1.2v3.8c0,0.3,0.1,0.5,0.2,0.6s0.3,0.2,0.5,0.2c0.1,0,0.1,0,0.2,0
			s0.2,0,0.2-0.1l0.2,0.8c-0.1,0.1-0.2,0.1-0.4,0.2s-0.3,0.1-0.5,0.1c-0.5,0-0.8-0.1-1.1-0.4s-0.4-0.7-0.4-1.3v-3.8h-1V156h1v-1.5
			H274.1z"/>
		<path fill="#FFFFFF" d="M276.3,159.1c0-0.9,0.3-1.7,0.8-2.3s1.2-0.9,2.1-0.9c0.9,0,1.6,0.3,2.1,0.9s0.8,1.4,0.8,2.3v0.1
			c0,0.9-0.3,1.7-0.8,2.3s-1.2,0.9-2.1,0.9s-1.6-0.3-2.1-0.9s-0.8-1.4-0.8-2.3V159.1z M277.4,159.3c0,0.7,0.1,1.2,0.4,1.7
			s0.7,0.7,1.3,0.7c0.6,0,1-0.2,1.3-0.7s0.4-1,0.4-1.7v-0.1c0-0.7-0.1-1.2-0.4-1.7s-0.7-0.7-1.3-0.7c-0.6,0-1,0.2-1.3,0.7
			s-0.4,1-0.4,1.7V159.3z"/>
		<path fill="#FFFFFF" d="M290,153.8h1.2v6.1c0,0.8-0.2,1.4-0.7,1.9s-1.1,0.7-1.9,0.7c-0.8,0-1.4-0.2-1.9-0.6s-0.7-1-0.7-1.8l0,0
			h1.1c0,0.5,0.1,0.9,0.4,1.2s0.6,0.4,1,0.4c0.4,0,0.8-0.2,1-0.5s0.4-0.7,0.4-1.2V153.8z"/>
		<path fill="#FFFFFF" d="M292.7,159.1c0-0.9,0.3-1.7,0.8-2.3s1.2-0.9,2.1-0.9c0.9,0,1.6,0.3,2.1,0.9s0.8,1.4,0.8,2.3v0.1
			c0,0.9-0.3,1.7-0.8,2.3s-1.2,0.9-2.1,0.9s-1.6-0.3-2.1-0.9s-0.8-1.4-0.8-2.3V159.1z M293.8,159.3c0,0.7,0.1,1.2,0.4,1.7
			s0.7,0.7,1.3,0.7c0.6,0,1-0.2,1.3-0.7s0.4-1,0.4-1.7v-0.1c0-0.7-0.1-1.2-0.4-1.7s-0.7-0.7-1.3-0.7c-0.6,0-1,0.2-1.3,0.7
			s-0.4,1-0.4,1.7V159.3z"/>
		<path fill="#FFFFFF" d="M302.8,157.1l-0.6,0c-0.3,0-0.6,0.1-0.8,0.2s-0.4,0.3-0.5,0.6v4.5h-1.2V156h1l0.1,0.9
			c0.2-0.3,0.4-0.6,0.7-0.8s0.6-0.3,0.9-0.3c0.1,0,0.2,0,0.2,0s0.1,0,0.2,0L302.8,157.1z"/>
		<path fill="#FFFFFF" d="M303.6,159.3c0-1,0.2-1.8,0.7-2.5s1-0.9,1.8-0.9c0.4,0,0.8,0.1,1.1,0.2s0.6,0.4,0.8,0.7l0.1-0.8h0.9v6.4
			c0,0.8-0.2,1.4-0.7,1.9s-1.2,0.7-2,0.7c-0.3,0-0.6,0-1-0.1s-0.7-0.2-0.9-0.3l0.2-0.9c0.2,0.1,0.5,0.2,0.8,0.3s0.6,0.1,0.9,0.1
			c0.6,0,1-0.1,1.2-0.4s0.4-0.6,0.4-1.2v-0.7c-0.2,0.3-0.5,0.5-0.7,0.6s-0.6,0.2-1,0.2c-0.8,0-1.4-0.3-1.8-0.8s-0.7-1.3-0.7-2.2
			V159.3z M304.8,159.4c0,0.6,0.1,1.1,0.4,1.5s0.7,0.6,1.2,0.6c0.3,0,0.6-0.1,0.9-0.2s0.4-0.4,0.6-0.7v-2.9
			c-0.1-0.3-0.3-0.5-0.6-0.6s-0.5-0.2-0.9-0.2c-0.6,0-1,0.2-1.2,0.7s-0.4,1.1-0.4,1.8V159.4z"/>
		<path fill="#FFFFFF" d="M313.3,162.5c-0.9,0-1.6-0.3-2.1-0.9s-0.8-1.3-0.8-2.3v-0.3c0-0.9,0.3-1.7,0.8-2.3s1.2-0.9,1.9-0.9
			c0.8,0,1.5,0.3,1.9,0.8s0.6,1.2,0.6,2.1v0.6h-4.1l0,0c0,0.6,0.1,1.2,0.4,1.5s0.7,0.6,1.3,0.6c0.4,0,0.7-0.1,1-0.2s0.5-0.3,0.8-0.5
			l0.5,0.8c-0.2,0.2-0.5,0.4-0.9,0.6S313.8,162.5,313.3,162.5z M313.1,156.8c-0.4,0-0.7,0.2-1,0.5s-0.4,0.7-0.5,1.2l0,0h2.9v-0.1
			c0-0.5-0.1-0.8-0.3-1.1S313.6,156.8,313.1,156.8z"/>
		<path fill="#FFFFFF" d="M326.5,162.4h-1.2l-4.1-6.5l0,0v6.5h-1.2v-8.5h1.2l4.1,6.5l0,0v-6.5h1.2V162.4z"/>
		<path fill="#FFFFFF" d="M331,162.5c-0.9,0-1.6-0.3-2.1-0.9s-0.8-1.3-0.8-2.3v-0.3c0-0.9,0.3-1.7,0.8-2.3s1.2-0.9,1.9-0.9
			c0.8,0,1.5,0.3,1.9,0.8s0.6,1.2,0.6,2.1v0.6h-4.1l0,0c0,0.6,0.1,1.2,0.4,1.5s0.7,0.6,1.3,0.6c0.4,0,0.7-0.1,1-0.2s0.5-0.3,0.8-0.5
			l0.5,0.8c-0.2,0.2-0.5,0.4-0.9,0.6S331.5,162.5,331,162.5z M330.8,156.8c-0.4,0-0.7,0.2-1,0.5s-0.4,0.7-0.5,1.2l0,0h2.9v-0.1
			c0-0.5-0.1-0.8-0.3-1.1S331.3,156.8,330.8,156.8z"/>
		<path fill="#FFFFFF" d="M336.3,160.1l0.1,0.8h0l0.2-0.8l1.3-4h0.9l1.3,4l0.2,0.9h0l0.2-0.9l0.9-4h1.2l-1.8,6.3h-0.9l-1.3-3.9
			l-0.2-1h0l-0.2,1l-1.2,3.9h-0.9l-1.8-6.3h1.2L336.3,160.1z"/>
		<path fill="#FFFFFF" d="M349.2,159.4c0,0.9-0.2,1.7-0.7,2.2s-1,0.8-1.8,0.8c-0.4,0-0.8-0.1-1.1-0.2s-0.6-0.4-0.8-0.7l-0.2,0.9
			h-0.9v-9.1h1.2v3.6c0.2-0.3,0.4-0.5,0.7-0.6s0.6-0.2,1-0.2c0.8,0,1.4,0.3,1.8,0.9s0.7,1.4,0.7,2.5V159.4z M348,159.3
			c0-0.7-0.1-1.3-0.4-1.8s-0.7-0.7-1.2-0.7c-0.4,0-0.7,0.1-0.9,0.3s-0.4,0.4-0.6,0.7v2.7c0.1,0.3,0.3,0.6,0.6,0.7s0.5,0.3,0.9,0.3
			c0.5,0,0.9-0.2,1.2-0.6s0.4-0.9,0.4-1.5V159.3z"/>
		<path fill="#FFFFFF" d="M353.2,162.5c-0.9,0-1.6-0.3-2.1-0.9s-0.8-1.3-0.8-2.3v-0.3c0-0.9,0.3-1.7,0.8-2.3s1.2-0.9,1.9-0.9
			c0.8,0,1.5,0.3,1.9,0.8s0.6,1.2,0.6,2.1v0.6h-4.1l0,0c0,0.6,0.1,1.2,0.4,1.5s0.7,0.6,1.3,0.6c0.4,0,0.7-0.1,1-0.2s0.5-0.3,0.8-0.5
			l0.5,0.8c-0.2,0.2-0.5,0.4-0.9,0.6S353.7,162.5,353.2,162.5z M353,156.8c-0.4,0-0.7,0.2-1,0.5s-0.4,0.7-0.5,1.2l0,0h2.9v-0.1
			c0-0.5-0.1-0.8-0.3-1.1S353.5,156.8,353,156.8z"/>
		<path fill="#FFFFFF" d="M359.8,157.1l-0.6,0c-0.3,0-0.6,0.1-0.8,0.2s-0.4,0.3-0.5,0.6v4.5h-1.2V156h1l0.1,0.9
			c0.2-0.3,0.4-0.6,0.7-0.8s0.6-0.3,0.9-0.3c0.1,0,0.2,0,0.2,0s0.1,0,0.2,0L359.8,157.1z"/>
		<path fill="#FFFFFF" d="M364,157.1l-0.6,0c-0.3,0-0.6,0.1-0.8,0.2s-0.4,0.3-0.5,0.6v4.5H361V156h1l0.1,0.9
			c0.2-0.3,0.4-0.6,0.7-0.8s0.6-0.3,0.9-0.3c0.1,0,0.2,0,0.2,0s0.1,0,0.2,0L364,157.1z"/>
		<path fill="#FFFFFF" d="M367.3,160l0.2,0.8h0l1.6-4.8h1.3l-2.7,7.3c-0.2,0.4-0.4,0.8-0.7,1.1s-0.7,0.5-1.2,0.5c-0.1,0-0.2,0-0.4,0
			s-0.3,0-0.3-0.1l0.1-0.9c0,0,0,0,0.2,0s0.3,0,0.3,0c0.2,0,0.4-0.1,0.6-0.3s0.3-0.5,0.4-0.7l0.3-0.7l-2.4-6.2h1.3L367.3,160z"/>
		<path fill="#FFFFFF" d="M223.7,176.8v-8.5h2.8c0.9,0,1.6,0.2,2.1,0.6s0.8,1,0.8,1.7c0,0.4-0.1,0.7-0.3,1s-0.5,0.5-0.9,0.7
			c0.6,0.1,1,0.3,1.3,0.7s0.5,0.9,0.5,1.4c0,0.8-0.3,1.4-0.8,1.8s-1.2,0.6-2.1,0.6H223.7z M224.8,171.9h1.9c0.4,0,0.8-0.1,1-0.4
			s0.4-0.6,0.4-1c0-0.5-0.1-0.8-0.4-1s-0.7-0.3-1.3-0.3h-1.6V171.9z M224.8,172.8v3.1h2.2c0.5,0,0.9-0.1,1.2-0.4s0.4-0.6,0.4-1.1
			c0-0.5-0.1-0.9-0.4-1.1s-0.7-0.4-1.2-0.5H227H224.8z"/>
		<path fill="#FFFFFF" d="M235.2,175.9c-0.2,0.3-0.5,0.6-0.8,0.8s-0.7,0.3-1.1,0.3c-0.7,0-1.2-0.2-1.6-0.7s-0.6-1.1-0.6-2.1v-3.7
			h1.2v3.8c0,0.7,0.1,1.1,0.3,1.4s0.5,0.4,0.9,0.4c0.4,0,0.7-0.1,1-0.2s0.5-0.4,0.6-0.7v-4.6h1.2v6.3h-1L235.2,175.9z"/>
		<path fill="#FFFFFF" d="M240.6,177c-0.9,0-1.6-0.3-2.1-0.9s-0.8-1.3-0.8-2.3v-0.3c0-0.9,0.3-1.7,0.8-2.3s1.2-0.9,1.9-0.9
			c0.8,0,1.5,0.3,1.9,0.8s0.6,1.2,0.6,2.1v0.6h-4.1l0,0c0,0.6,0.1,1.2,0.4,1.5s0.7,0.6,1.3,0.6c0.4,0,0.7-0.1,1-0.2s0.5-0.3,0.8-0.5
			l0.5,0.8c-0.2,0.2-0.5,0.4-0.9,0.6S241.1,177,240.6,177z M240.4,171.3c-0.4,0-0.7,0.2-1,0.5s-0.4,0.7-0.5,1.2l0,0h2.9v-0.1
			c0-0.5-0.1-0.8-0.3-1.1S240.9,171.3,240.4,171.3z"/>
		<path fill="#FFFFFF" d="M245.3,170.5l0.1,0.9c0.2-0.3,0.5-0.6,0.8-0.8s0.7-0.3,1.1-0.3c0.7,0,1.2,0.2,1.6,0.6s0.6,1,0.6,1.9v4
			h-1.2v-4c0-0.6-0.1-1-0.3-1.2s-0.6-0.4-1-0.4c-0.4,0-0.7,0.1-0.9,0.2s-0.4,0.3-0.6,0.6v4.7h-1.2v-6.3H245.3z"/>
		<path fill="#FFFFFF" d="M250.8,173.6c0-0.9,0.3-1.7,0.8-2.3s1.2-0.9,2.1-0.9c0.9,0,1.6,0.3,2.1,0.9s0.8,1.4,0.8,2.3v0.1
			c0,0.9-0.3,1.7-0.8,2.3s-1.2,0.9-2.1,0.9s-1.6-0.3-2.1-0.9s-0.8-1.4-0.8-2.3V173.6z M251.9,173.7c0,0.7,0.1,1.2,0.4,1.7
			s0.7,0.7,1.3,0.7c0.6,0,1-0.2,1.3-0.7s0.4-1,0.4-1.7v-0.1c0-0.7-0.1-1.2-0.4-1.7s-0.7-0.7-1.3-0.7c-0.6,0-1,0.2-1.3,0.7
			s-0.4,1-0.4,1.7V173.7z"/>
		<path fill="#FFFFFF" d="M261.6,175.1c0-0.3-0.1-0.5-0.3-0.6s-0.6-0.3-1.1-0.4c-0.7-0.2-1.3-0.4-1.7-0.7s-0.6-0.7-0.6-1.2
			c0-0.5,0.2-1,0.7-1.3s1-0.6,1.7-0.6c0.7,0,1.3,0.2,1.7,0.6s0.7,0.8,0.6,1.4l0,0h-1.1c0-0.3-0.1-0.5-0.4-0.7s-0.5-0.3-0.9-0.3
			c-0.4,0-0.7,0.1-0.9,0.3s-0.3,0.4-0.3,0.7c0,0.2,0.1,0.4,0.3,0.6s0.5,0.3,1.1,0.4c0.8,0.2,1.4,0.4,1.8,0.7s0.6,0.7,0.6,1.2
			c0,0.6-0.2,1-0.7,1.4s-1,0.5-1.8,0.5c-0.8,0-1.4-0.2-1.9-0.6s-0.7-0.9-0.7-1.4l0,0h1.1c0,0.4,0.2,0.7,0.5,0.9s0.6,0.3,1,0.3
			c0.4,0,0.7-0.1,1-0.3S261.6,175.4,261.6,175.1z"/>
		<path fill="#FFFFFF" d="M271.7,174.6h-3.2l-0.8,2.2h-1.2l3.1-8.5h1l3,8.5h-1.2L271.7,174.6z M268.8,173.7h2.5l-1.2-3.7h0
			L268.8,173.7z"/>
		<path fill="#FFFFFF" d="M276,168.9h-1.2v-1.2h1.2V168.9z M276,176.8h-1.2v-6.3h1.2V176.8z"/>
		<path fill="#FFFFFF" d="M280.8,171.5l-0.6,0c-0.3,0-0.6,0.1-0.8,0.2s-0.4,0.3-0.5,0.6v4.5h-1.2v-6.3h1l0.1,0.9
			c0.2-0.3,0.4-0.6,0.7-0.8s0.6-0.3,0.9-0.3c0.1,0,0.2,0,0.2,0s0.1,0,0.2,0L280.8,171.5z"/>
		<path fill="#FFFFFF" d="M284.5,177c-0.9,0-1.6-0.3-2.1-0.9s-0.8-1.3-0.8-2.3v-0.3c0-0.9,0.3-1.7,0.8-2.3s1.2-0.9,1.9-0.9
			c0.8,0,1.5,0.3,1.9,0.8s0.6,1.2,0.6,2.1v0.6h-4.1l0,0c0,0.6,0.1,1.2,0.4,1.5s0.7,0.6,1.3,0.6c0.4,0,0.7-0.1,1-0.2s0.5-0.3,0.8-0.5
			l0.5,0.8c-0.2,0.2-0.5,0.4-0.9,0.6S285,177,284.5,177z M284.3,171.3c-0.4,0-0.7,0.2-1,0.5s-0.4,0.7-0.5,1.2l0,0h2.9v-0.1
			c0-0.5-0.1-0.8-0.3-1.1S284.8,171.3,284.3,171.3z"/>
		<path fill="#FFFFFF" d="M291.8,175.1c0-0.3-0.1-0.5-0.3-0.6s-0.6-0.3-1.1-0.4c-0.7-0.2-1.3-0.4-1.7-0.7s-0.6-0.7-0.6-1.2
			c0-0.5,0.2-1,0.7-1.3s1-0.6,1.7-0.6c0.7,0,1.3,0.2,1.7,0.6s0.7,0.8,0.6,1.4l0,0h-1.1c0-0.3-0.1-0.5-0.4-0.7s-0.5-0.3-0.9-0.3
			c-0.4,0-0.7,0.1-0.9,0.3s-0.3,0.4-0.3,0.7c0,0.2,0.1,0.4,0.3,0.6s0.5,0.3,1.1,0.4c0.8,0.2,1.4,0.4,1.8,0.7s0.6,0.7,0.6,1.2
			c0,0.6-0.2,1-0.7,1.4s-1,0.5-1.8,0.5c-0.8,0-1.4-0.2-1.9-0.6s-0.7-0.9-0.7-1.4l0,0h1.1c0,0.4,0.2,0.7,0.5,0.9s0.6,0.3,1,0.3
			c0.4,0,0.7-0.1,1-0.3S291.8,175.4,291.8,175.1z"/>
	</g>
	<polygon fill="#009DDA" points="135.1,34.2 132.6,37.4 132.2,34.6 	"/>
	<polygon fill="#009DDA" points="251.3,52.7 247.4,53.7 248.8,51.3 	"/>
	<polygon fill="#009DDA" points="207.6,140.1 209,143.9 206.5,142.7 	"/>
	<polygon fill="#009DDA" points="195,136.5 198.8,135.2 197.6,137.8 	"/>
	<polygon fill="#009DDA" points="106.3,121.1 108.5,129.3 103.3,126.3 	"/>
	<polygon fill="#009DDA" points="150.4,116.2 141.9,116.4 146.1,112.1 	"/>
	<polygon fill="#009DDA" points="93.4,218.6 97.5,226.1 91.7,224.4 	"/>
	<polygon fill="#009DDA" points="188.2,150.1 187.9,141.6 192.3,145.7 	"/>
	<polygon fill="#009DDA" points="195.3,157 189.1,151.1 195.1,150.9 	"/>
	<polygon fill="#009DDA" points="188.7,141.1 194.2,134.6 194.7,140.6 	"/>
	<g>
		<g>
			<path fill="#A5A7AA" d="M200,140.7c2.8,0,5,2.2,5,5s-2.2,5-5,5c-2.8,0-5-2.2-5-5S197.3,140.7,200,140.7 M200,139.7
				c-3.3,0-6,2.7-6,6s2.7,6,6,6s6-2.7,6-6S203.4,139.7,200,139.7L200,139.7z"/>
		</g>
	</g>
	<g>
		<circle fill-rule="evenodd" clip-rule="evenodd" fill="#A5A7AA" cx="200" cy="145.7" r="2.7"/>
	</g>
	<linearGradient id="SVGID_5_" gradientUnits="userSpaceOnUse" x1="143.775" y1="132.1289" x2="188.4929" y2="132.1289">
		<stop  offset="0" style="stop-color:#009DDA"/>
		<stop  offset="7.358380e-02" style="stop-color:#0299D5;stop-opacity:0.9193"/>
		<stop  offset="0.1643" style="stop-color:#068EC6;stop-opacity:0.8198"/>
		<stop  offset="0.2641" style="stop-color:#0D7BAD;stop-opacity:0.7103"/>
		<stop  offset="0.3703" style="stop-color:#18628A;stop-opacity:0.5938"/>
		<stop  offset="0.4806" style="stop-color:#25415E;stop-opacity:0.4728"/>
		<stop  offset="0.5284" style="stop-color:#2B3148;stop-opacity:0.4203"/>
		<stop  offset="0.5738" style="stop-color:#204B6C;stop-opacity:0.4762"/>
		<stop  offset="0.6266" style="stop-color:#17648E;stop-opacity:0.541"/>
		<stop  offset="0.6831" style="stop-color:#0E79AA;stop-opacity:0.6105"/>
		<stop  offset="0.7437" style="stop-color:#0889BF;stop-opacity:0.6849"/>
		<stop  offset="0.8103" style="stop-color:#0394CF;stop-opacity:0.7668"/>
		<stop  offset="0.8874" style="stop-color:#019BD8;stop-opacity:0.8616"/>
		<stop  offset="1" style="stop-color:#009DDA"/>
	</linearGradient>
	<path fill="none" stroke="url(#SVGID_5_)" stroke-width="5" stroke-miterlimit="10" d="M146.3,115.5c0,0,0.5,30.6,42.2,30.7"/>
</g>
</svg>
